<?xml version="1.0" encoding="utf-8"?>
<!-- Generator: Adobe Illustrator 25.4.1, SVG Export Plug-In . SVG Version: 6.00 Build 0)  -->
<svg version="1.1" id="Capa_1" xmlns="http://www.w3.org/2000/svg" xmlns:xlink="http://www.w3.org/1999/xlink" x="0px" y="0px"
	 viewBox="0 0 120 120" style="enable-background:new 0 0 120 120;" xml:space="preserve">
<style type="text/css">
	.st0{fill:#004947;}
	.st1{opacity:0.1;}
	.st2{fill:#FFFFFF;}
	.st3{fill:#004D43;}
</style>
<g class="st1">
	<path class="st0" d="M0.31,5.03c0.88,0.34,1.73,0.61,2.53,0.99c0.79,0.38,1.41,0.99,1.94,1.8c-0.62,0.13-1.06,0.1-1.5-0.34
		C2.38,6.6,1.24,6.18-0.12,6.12C-0.15,6.37-0.17,6.6-0.2,6.86c0.87,0.23,1.76,0.29,2.55,1.03c-0.91,0-1.67,0-2.49,0
		c0,0.36,0,0.64,0,0.92c1.54,0.44,2.24,1.15,2.27,2.33c0.04,1.26-0.6,1.97-2.28,2.52c0,0.25,0,0.51,0,0.81
		c0.87,0.16,1.52-0.28,2.19-0.71c0.27,0.27,0.16,0.58,0.16,0.86c0.01,3.86,0.01,7.73,0.01,11.59c0,0.68,0,1.35,0,2.08
		c2.03,0.77,3.62,2.02,4.59,4c-0.81,0.26-0.86,0.26-1.27-0.35c-0.91-1.34-2.13-2.26-3.67-2.73C1.1,28.97,1.2,28.89,1.2,28.27
		c0-3.99,0-7.98,0-11.97c0-0.3,0-0.6,0-0.96c-0.48,0.07-0.89,0.13-1.3,0.19c-0.09,0.36-0.21,0.66,0.23,0.84
		c0.09,0.04,0.15,0.24,0.17,0.38c0.03,0.2,0.01,0.4,0.01,0.6c0,3.81,0,7.63,0,11.44c0,0.27,0,0.55,0,0.91
		c1.82,0.29,3.35,1.05,4.48,2.66c-0.66,0.14-1.1,0.08-1.53-0.35c-0.91-0.89-2.04-1.31-3.39-1.36c-0.01,0.28-0.02,0.52-0.04,0.77
		c0.86,0.18,1.69,0.27,2.45,0.93c-0.85,0.16-1.61,0.01-2.41,0.11c0,0.31,0,0.59,0,0.87c1.55,0.44,2.24,1.16,2.27,2.34
		c0.03,1.25-0.57,1.93-2.28,2.52c0,0.25,0,0.51,0,0.8c0.88,0.15,1.53-0.3,2.19-0.72c0.25,0.28,0.16,0.59,0.16,0.87
		c0.01,4.17,0,8.33,0,12.5c0,0.32,0,0.64,0,0.97c2.07,0.77,3.61,2.04,4.59,3.97c-0.65,0.28-0.87,0.27-1.13-0.13
		c-1-1.55-2.39-2.55-4.15-3.05c-0.09-0.03-0.18-0.08-0.34-0.16c0-4.44,0-8.9,0-13.39c-0.47,0.08-0.87,0.14-1.28,0.2
		c-0.11,0.34-0.23,0.63,0.2,0.83c0.1,0.05,0.17,0.23,0.19,0.36c0.03,0.2,0.01,0.4,0.01,0.6c0,3.74,0,7.48,0,11.22
		c0,0.3,0,0.6,0,0.95c1.39,0.23,2.64,0.71,3.65,1.68c0.28,0.27,0.51,0.58,0.83,0.95c-0.64,0.19-1.05,0.13-1.47-0.27
		c-0.93-0.9-2.06-1.39-3.44-1.37c0,0.28,0,0.51,0,0.77c0.83,0.13,1.65,0.22,2.43,0.94c-0.91,0.03-1.67,0.05-2.45,0.08
		c0,0.31,0,0.55,0,0.84c0.13,0.05,0.26,0.12,0.4,0.15c1.22,0.32,1.92,1.19,1.89,2.37c-0.03,1.12-0.77,1.96-1.98,2.22
		c-0.07,0.02-0.15,0.03-0.28,0.06c0,0.27,0,0.56,0,0.84c0.65,0.11,0.65,0.11,2.29-0.69c0.1,0.97,0.03,1.91,0.05,2.85
		c0.01,0.95,0,1.91,0,2.86s0,1.91,0,2.86s0,1.91,0,2.86c0,0.95,0,1.9,0,2.9c2.05,0.76,3.62,2.03,4.61,4
		c-0.87,0.22-0.88,0.22-1.3-0.39c-0.9-1.3-2.1-2.21-3.61-2.69c-0.21-0.07-0.42-0.15-0.71-0.25c0-4.45,0-8.91,0-13.42
		c-0.49,0.07-0.88,0.13-1.32,0.2c-0.04,0.32-0.26,0.66,0.25,0.84c0.08,0.03,0.14,0.19,0.16,0.3c0.03,0.2,0.01,0.4,0.01,0.6
		c0,3.79,0,7.58,0,11.37c0,0.27,0,0.54,0,0.86c1.34,0.2,2.52,0.64,3.49,1.53c0.34,0.31,0.63,0.68,1.02,1.09
		c-0.68,0.15-1.12,0.11-1.56-0.32c-0.91-0.89-2.04-1.31-3.38-1.34c-0.03,0.25-0.05,0.46-0.07,0.72c0.82,0.26,1.71,0.27,2.51,1.01
		c-0.91,0-1.66,0-2.46,0c0,0.38,0,0.64,0,0.98c0.77,0.14,1.48,0.43,1.92,1.14c0.27,0.44,0.39,0.92,0.36,1.43
		c-0.07,1.12-0.77,1.82-2.27,2.22c0,0.27,0,0.55,0,0.88c0.43,0.07,0.81-0.04,1.17-0.2c0.36-0.16,0.7-0.36,1.17-0.61
		c0.02,1.66,0.01,3.23,0.01,4.8c0,1.61,0,3.21,0,4.82c0,1.58,0,3.16,0,4.77c2.06,0.77,3.63,2.03,4.61,4.01
		c-0.84,0.24-0.88,0.23-1.25-0.32c-0.95-1.41-2.23-2.35-3.86-2.84c-0.16-0.05-0.32-0.13-0.53-0.22c0-4.44,0-8.88,0-13.4
		c-0.48,0.08-0.89,0.15-1.32,0.23c-0.05,0.36-0.17,0.67,0.27,0.85c0.1,0.04,0.16,0.29,0.16,0.45c0.02,0.6,0.01,1.2,0.01,1.81
		c0,3.31,0,6.63,0,9.94c0,0.27,0,0.55,0,0.89c1.81,0.33,3.38,1.04,4.46,2.68c-0.62,0.15-1.03,0.09-1.45-0.31
		c-1.01-0.97-2.24-1.42-3.46-1.34c-0.01,0.23-0.02,0.46-0.04,0.72c0.86,0.18,1.72,0.23,2.48,0.99c-0.89,0-1.63,0-2.42,0
		c0,0.36,0,0.64,0,0.96c0.72,0.12,1.36,0.37,1.8,0.98c0.29,0.4,0.45,0.83,0.46,1.33c0.02,1.25-0.56,1.9-2.27,2.51
		c-0.02,0.13-0.05,0.28-0.05,0.42c0,0.12,0.03,0.24,0.05,0.39c0.87,0.15,1.51-0.32,2.18-0.72c0.25,0.27,0.16,0.58,0.16,0.87
		c0.01,2.83,0,5.66,0,8.48h1.38c0.01,0,0.02-0.01,0.03-0.01c3.85-1.31,6.48-3.89,7.92-7.68c0.03-0.09,0.08-0.18,0.13-0.27
		c0.01-0.02,0.04-0.03,0.15-0.1c0.08,0.19,0.15,0.34,0.21,0.51c1.4,3.66,3.98,6.13,7.65,7.47c0.1,0.03,0.21,0.06,0.32,0.08h1.35
		c0-1.45,0-2.91,0-4.36c-2.62-1.23-4.08-2.56-4.58-4.13c0.8-0.2,0.8-0.2,1.21,0.41c0.92,1.36,2.16,2.29,3.72,2.78
		c0.19,0.06,0.37,0.14,0.61,0.22c0,1.69,0,3.38,0,5.07h0.91c0-1.94,0-3.87,0-5.82c-1.88-0.29-3.38-1.08-4.49-2.69
		c0.61-0.13,1.03-0.14,1.45,0.29c0.93,0.95,2.1,1.43,3.44,1.45c0.12,0,0.25,0.01,0.37,0.03c0.05,0.01,0.09,0.04,0.21,0.1
		c0,2.21,0,4.42,0,6.65h0.91c0-2.59,0-5.18,0-7.78c-1.39,0.27-2.67,0.24-3.92-0.72c0.28-0.05,0.43-0.09,0.59-0.1
		c0.43-0.01,0.85-0.04,1.28,0c1.06,0.1,2.05-0.06,2.96-0.82c0.05,0.23,0.12,0.38,0.12,0.53c0,2.96-0.01,5.92-0.01,8.88h1.37
		c0.06-0.01,0.11-0.03,0.16-0.05c3.72-1.31,6.3-3.79,7.73-7.47c0.06-0.16,0.13-0.32,0.21-0.51c0.33,0.12,0.32,0.44,0.41,0.66
		c1.35,3.33,3.68,5.68,7,7.05c0.28,0.12,0.58,0.2,0.85,0.31h1.37c0-1.14,0-2.28,0-3.42c0-0.32,0-0.64,0-0.99
		c-2.08-0.78-3.64-2.06-4.61-4.04c0.75-0.25,0.88-0.24,1.18,0.22c0.98,1.52,2.34,2.52,4.08,3.01c0.1,0.03,0.18,0.08,0.35,0.15
		c0,1.68,0,3.37,0,5.07h0.88c-0.01-1.92,0-3.85,0-5.82c-1.84-0.28-3.35-1.07-4.47-2.68c0.52-0.11,0.93-0.23,1.3,0.15
		c1.05,1.08,2.34,1.61,3.85,1.58c0.07,0,0.15,0.03,0.31,0.06c0.02,0.3,0.05,0.61,0.05,0.93c0,1.93,0,3.85,0,5.78h0.89
		c0-2.59,0-5.18,0-7.79c-1.41,0.3-2.69,0.24-3.8-0.6c0-0.06,0.01-0.12,0.01-0.18c0.43-0.01,0.87-0.04,1.3-0.02
		c1.18,0.05,2.36,0.1,3.44-0.9c0.09,1.15,0.04,2.11,0.05,3.07c0.01,0.95,0,1.91,0,2.86c0,0.98,0,1.96,0,2.93c0,0.21,0,0.42,0,0.63
		h1.4c0.07-0.02,0.14-0.04,0.2-0.06c3.54-1.28,6.03-3.61,7.47-6.99v-2.43c-1.31,0-2.63,0-3.97,0c-0.75,2.06-2.04,3.64-4.03,4.64
		c-0.22-0.83-0.21-0.9,0.26-1.21c1.49-0.98,2.46-2.33,2.95-4.03c0.03-0.09,0.06-0.19,0.14-0.42c1.55,0,3.1,0,4.65,0v-0.92
		c-1.79,0-3.58,0-5.38,0c-0.21,1.43-0.69,2.67-1.66,3.68c-0.29,0.3-0.56,0.63-1.02,0.78c-0.13-0.56-0.11-0.98,0.32-1.4
		c0.83-0.82,1.27-1.85,1.37-3.02c0.03-0.3,0.05-0.59,0.09-0.97c2.1,0,4.19,0,6.28,0v-0.94c-2.12,0-4.25,0-6.37,0
		c-0.3,0-0.59,0-0.87,0c0,0.74,0.04,1.41-0.01,2.07c-0.06,0.64-0.25,1.26-0.88,1.88c0-0.74-0.04-1.31,0.01-1.87
		c0.08-1.01-0.11-1.94-0.73-2.77c-0.04-0.05-0.04-0.13-0.09-0.32c2.49-0.01,4.93,0,7.37,0c0.52,0,1.05,0,1.58,0v-2.4
		c-1.43-3.34-3.89-5.66-7.39-6.94c-0.25-0.09-0.49-0.2-0.74-0.3c0.14-0.4,0.47-0.37,0.7-0.45c3.09-1.09,5.43-3.07,6.98-5.96
		c0.17-0.33,0.32-0.67,0.46-1.01v-2.46c-1.27,0-2.54,0-3.8,0c-0.58,0.93-1.08,1.85-1.7,2.69c-0.63,0.85-1.49,1.48-2.55,1.97
		c-0.16-0.61-0.09-0.99,0.44-1.33c1.33-0.85,2.22-2.08,2.71-3.59c0.07-0.21,0.14-0.43,0.23-0.71c1.55,0,3.11,0,4.67,0V84.9
		c-1.79,0-3.58,0-5.39,0c-0.29,1.93-1.07,3.4-2.63,4.5c-0.16-0.5-0.24-0.91,0.13-1.28c1.03-1.02,1.52-2.27,1.56-3.71
		c0-0.14,0.05-0.29,0.09-0.48c2.08,0,4.16,0,6.24,0v-0.88c-2.45,0-4.91,0-7.38,0c0.36,1.4,0.25,2.66-0.56,3.79
		c-0.07,0-0.13-0.01-0.2-0.01c0-0.54-0.04-1.08,0.01-1.62c0.09-1.07-0.1-2.04-0.75-2.91c-0.02-0.03,0-0.09,0-0.25
		c0.28,0,0.57,0,0.86,0c2.67,0,5.35,0,8.02,0v-2.51c-1.53-3.51-4.25-5.91-8.15-7.13c0.01-0.07,0.01-0.14,0.02-0.21
		c0.2-0.08,0.39-0.17,0.59-0.24c3.58-1.27,6.09-3.61,7.53-7.01v-2.42c-0.62,0-1.23,0-1.85,0c-0.7,0-1.4,0-2.13,0
		c-0.76,2.08-2.05,3.63-4.01,4.62c-0.25-0.85-0.25-0.87,0.37-1.29c1.36-0.92,2.28-2.16,2.76-3.73c0.05-0.17,0.11-0.33,0.17-0.49
		c0.01-0.02,0.03-0.04,0.13-0.14c1.5,0,3.03,0,4.56,0V60.6c-0.29,0-0.57,0-0.86,0c-0.75,0-1.51,0-2.26,0c-0.75,0-1.49,0-2.27,0
		c-0.28,1.87-1.06,3.37-2.66,4.49c-0.11-0.57-0.18-0.99,0.23-1.39c0.94-0.92,1.4-2.06,1.48-3.36c0.01-0.22,0.04-0.44,0.07-0.72
		c2.1,0,4.18,0,6.27,0v-0.93c-2.46,0-4.91,0-7.39,0c0.37,1.4,0.27,2.68-0.66,3.97c-0.04-0.35-0.09-0.54-0.09-0.72
		c0-0.58,0.02-1.15,0.02-1.73c0.01-0.88-0.31-1.66-0.83-2.32c0.03-0.08,0.04-0.1,0.05-0.12c0.01-0.02,0.04-0.03,0.06-0.04
		c0.05-0.01,0.1-0.03,0.15-0.03c2.89,0,5.79,0,8.69,0v-2.43c-1.43-3.33-3.87-5.64-7.36-6.92c-0.21-0.08-0.42-0.16-0.63-0.25
		c-0.04-0.02-0.07-0.07-0.11-0.12c0.06-0.32,0.36-0.3,0.57-0.38c2.31-0.79,4.25-2.12,5.78-4.03c0.72-0.89,1.29-1.87,1.74-2.91v-2.54
		c-1.32,0-2.63,0-3.95,0c-0.76,2.08-2.05,3.68-4.14,4.72c-0.02-0.38-0.03-0.66-0.05-1c1.77-1.04,2.93-2.56,3.45-4.66
		c0.9-0.05,1.82-0.02,2.74-0.02c0.65,0,1.3,0,1.95,0v-0.93c-1.78,0-3.56,0-5.35,0c-0.56,2.4-1.26,3.56-2.67,4.46
		c-0.15-0.44-0.25-0.87,0.12-1.23c1.08-1.06,1.56-2.36,1.58-3.86c0-0.1,0.04-0.19,0.07-0.35c2.08,0,4.17,0,6.25,0v-0.88
		c-2.13,0-4.26,0-6.39,0c-0.3,0-0.59,0-0.98,0c0.34,1.45,0.23,2.68-0.74,3.78c-0.01-0.42-0.05-0.83-0.03-1.25
		c0.07-1.22,0.04-2.41-0.82-3.35c0.06-0.09,0.07-0.12,0.08-0.14c0.02-0.02,0.04-0.04,0.06-0.04c0.1-0.02,0.2-0.04,0.3-0.04
		c2.84-0.01,5.68-0.01,8.52-0.02v-2.4c-1.45-3.35-3.92-5.68-7.45-6.95c-0.25-0.09-0.67-0.03-0.66-0.47
		c0.01-0.43,0.42-0.37,0.68-0.46c3.52-1.27,5.98-3.61,7.44-6.96v-2.5c-1.32,0-2.62,0-3.95,0c-0.8,2.13-2.06,3.7-4.06,4.66
		c-0.22-0.86-0.22-0.86,0.4-1.28c1.31-0.89,2.22-2.09,2.71-3.6c0.07-0.21,0.14-0.42,0.24-0.72c1.55,0,3.1,0,4.66,0V11.7
		c-0.88,0-1.76,0-2.65,0c-0.9,0-1.79,0-2.73,0c-0.27,1.88-1.07,3.38-2.64,4.5c-0.16-0.49-0.26-0.91,0.12-1.28
		c1.1-1.08,1.58-2.41,1.58-3.93c0-0.07,0.03-0.14,0.06-0.27c2.08,0,4.16,0,6.25,0V9.83c-2.16,0-4.33,0-6.49,0c-0.27,0-0.54,0-0.81,0
		c0.15,2.33,0.05,2.87-0.75,3.86c-0.04-0.25-0.08-0.42-0.09-0.6c-0.01-0.43-0.03-0.86,0.01-1.28c0.09-0.99-0.12-1.89-0.72-2.69
		c-0.04-0.05-0.05-0.13-0.1-0.32c1.01-0.04,1.97-0.01,2.93-0.02c0.98,0,1.96,0,2.93,0s1.96,0,2.93,0c0.05,0,0.1,0,0.15,0V6.38
		c-1.43-3.33-3.88-5.65-7.38-6.92c-0.09-0.03-0.19-0.07-0.29-0.11H50c0,1.47,0,2.92,0,4.39c2.11,0.78,3.7,2.06,4.68,4.08
		c-0.62,0.18-1,0.09-1.34-0.44c-0.85-1.34-2.09-2.21-3.59-2.71c-0.19-0.06-0.38-0.13-0.57-0.2c-0.02-0.01-0.03-0.04-0.12-0.13
		c0-1.65,0-3.32,0-4.99h-0.91c0,1.94,0,3.88,0,5.83c1.38,0.21,2.58,0.68,3.57,1.59c0.32,0.3,0.65,0.6,0.87,1.08
		C52.04,7.92,51.62,8,51.21,7.59c-0.98-0.99-2.2-1.45-3.59-1.48c-0.12,0-0.25-0.02-0.46-0.05c-0.08-0.87-0.03-1.74-0.04-2.61
		c-0.01-0.88,0-1.76,0-2.63c0-0.49,0-0.99,0-1.48h-0.91c0,2.57,0,5.17,0,7.82c1.46-0.39,2.7-0.23,3.81,0.69
		c-0.16,0.02-0.32,0.04-0.47,0.05c-0.53,0.01-1.05,0-1.58,0c-1.04,0-1.04,0-2.71,0.82c0-3.14,0-6.26,0-9.38h-1.38
		c-3.9,1.31-6.55,3.91-8,7.76c-0.03,0.07-0.06,0.13-0.1,0.2c-0.01,0.02-0.04,0.03-0.17,0.12c-0.71-2.05-1.79-3.8-3.33-5.26
		c-1.39-1.31-3.02-2.21-4.83-2.82h-1.34c0,1.47,0,2.93,0,4.41c1.46,0.54,2.67,1.31,3.62,2.46c0.4,0.48,0.77,0.98,0.99,1.58
		c-0.86,0.21-0.86,0.21-1.27-0.4c-0.91-1.33-2.13-2.24-3.66-2.74c-0.21-0.07-0.42-0.14-0.68-0.23c0-1.69,0-3.39,0-5.08h-0.89
		c0,1.94,0,3.87,0,5.82c1.85,0.28,3.36,1.05,4.48,2.66c-0.54,0.1-0.96,0.2-1.36-0.21c-1-1.01-2.24-1.49-3.65-1.51
		c-0.12,0-0.24-0.03-0.46-0.05c-0.05-1.45-0.02-2.9-0.02-4.34c0-0.79,0-1.58,0-2.37h-0.9c0,2.58,0,5.17,0,7.8
		c1.42-0.32,2.69-0.26,3.79,0.76c-0.34,0-0.68,0-1.01,0c-2.04,0-2.04,0-3.72,0.81c0-3.13,0-6.25,0-9.37h-1.52
		c-0.8,0.34-1.54,0.64-2.21,1.04c-0.9,0.53-1.77,1.16-2.52,1.87c-0.74,0.7-1.38,1.53-1.93,2.38c-0.55,0.85-0.94,1.81-1.45,2.84
		c-0.48-1.34-1.07-2.58-1.9-3.68c-0.85-1.13-1.86-2.1-3.03-2.89c-1-0.68-2.09-1.17-3.24-1.56H2.19c0,1.47,0,2.94,0,4.4
		c2.1,0.77,3.66,2.05,4.68,4.1c-0.4,0-0.69,0-1.01,0c-0.09-0.12-0.19-0.26-0.29-0.4C4.67,6.08,3.43,5.14,1.86,4.66
		C1.11,4.43,1.2,4.36,1.2,3.72c0-1.46,0-2.91,0-4.37H0.31c0,1.61,0,3.22,0,4.83C0.31,4.48,0.31,4.78,0.31,5.03z M51.02,116.91
		c0.89-0.64,1.77-1.22,2.57-1.88c0.76-0.63,1.3-1.45,1.75-2.32c0.37-0.73,0.37-0.73,1.28-0.57c-0.23,1.67-2.67,4.8-5.6,5.68
		C51.02,117.46,51.02,117.13,51.02,116.91z M57.7,112.1c0.28,0,0.54,0,0.81,0c-0.62,3.33-4.3,6.93-7.52,7.55
		c-0.01-0.25-0.03-0.49-0.04-0.79C54.24,117.66,56.5,115.42,57.7,112.1z M58.52,87.77c-0.69,3.34-4.18,6.82-7.51,7.56
		c0-0.27,0-0.53,0-0.84c3.26-1.18,5.5-3.43,6.69-6.72C57.99,87.77,58.25,87.77,58.52,87.77z M51.52,92.17
		c1.7-0.88,2.99-2.16,3.85-3.88c0.33-0.66,0.41-0.68,1.34-0.43c-1.08,2.69-2.92,4.55-5.59,5.63C50.79,92.71,50.86,92.51,51.52,92.17
		z M57.57,63.76c0.04-0.09,0.08-0.18,0.14-0.32c0.25,0,0.52,0,0.78,0c-0.51,3.08-4.07,6.84-7.47,7.53c-0.09-0.77-0.09-0.78,0.4-0.98
		C54.38,68.81,56.42,66.73,57.57,63.76z M51.62,67.78c1.63-0.85,2.86-2.1,3.71-3.72c0.38-0.72,0.37-0.72,1.27-0.6
		c-0.16,1.96-3.13,5-5.56,5.65C50.89,68.17,50.89,68.16,51.62,67.78z M51.01,0.36c3.07,0.47,6.75,4.13,7.54,7.5
		c-0.27,0.01-0.52,0.03-0.83,0.05c-1.2-3.29-3.43-5.54-6.71-6.73C51.01,0.88,51.01,0.63,51.01,0.36z M51.57,3.53
		c-0.72-0.37-0.73-0.4-0.52-1.28c2.23,0.48,5.19,3.45,5.58,5.62c-0.32,0-0.64,0-0.99,0c-0.09-0.17-0.19-0.35-0.27-0.52
		C54.51,5.67,53.25,4.4,51.57,3.53z M3.78,28.09c-0.72-0.38-0.72-0.38-0.61-1.27c1.74,0.17,4.95,2.9,5.64,5.55
		c-0.95,0.13-0.95,0.13-1.36-0.64C6.6,30.14,5.38,28.93,3.78,28.09z M3.68,21.09c2.84-1.15,4.83-3.15,5.99-5.99
		c0.26-0.64,0.26-0.64,1.03-0.51c-0.48,3.1-4.58,7.17-7.54,7.51c0-0.25,0-0.49,0-0.78C3.32,21.25,3.5,21.16,3.68,21.09z M3.16,20.22
		c0-0.32,0-0.63,0-0.97c0.19-0.1,0.39-0.2,0.59-0.31c1.65-0.86,2.91-2.11,3.76-3.77c0.38-0.74,0.38-0.74,1.28-0.6
		C8.6,16.57,5.36,19.85,3.16,20.22z M3.81,23.05c3.63-1.3,6.17-3.74,7.61-7.31c0.07-0.19,0.14-0.37,0.22-0.56
		c0.02-0.04,0.08-0.06,0.18-0.13c0.17,0.42,0.3,0.79,0.46,1.15c1.49,3.34,3.98,5.59,7.4,6.83c0.26,0.09,0.66,0.03,0.68,0.45
		c0.02,0.44-0.41,0.39-0.66,0.48c-3.64,1.29-6.16,3.74-7.62,7.3c-0.09,0.22-0.18,0.44-0.32,0.79c-0.14-0.31-0.24-0.51-0.32-0.71
		c-1.43-3.62-3.98-6.06-7.64-7.38c-0.25-0.09-0.67-0.04-0.67-0.47C3.13,23.08,3.55,23.14,3.81,23.05z M28.69,32.34
		c-0.53,0.11-0.93,0.23-1.31-0.15c-1.04-1.05-2.32-1.54-3.79-1.54c-0.1,0-0.19-0.04-0.36-0.07c0-4.41,0-8.81,0-13.28
		c-1.87-0.29-3.38-1.08-4.5-2.7c0.63-0.17,1.04-0.12,1.46,0.29c0.9,0.91,2.01,1.38,3.3,1.43c0.17,0.01,0.35,0.02,0.52,0.04
		c0.05,0,0.09,0.04,0.2,0.1c0,4.36,0,8.76,0,13.26C26.08,29.99,27.56,30.77,28.69,32.34z M27.08,20.22c0-0.32,0-0.63,0-0.99
		c0.19-0.1,0.38-0.2,0.58-0.3c1.65-0.86,2.91-2.11,3.76-3.76c0.38-0.73,0.38-0.73,1.32-0.6C32.18,16.99,29.22,19.81,27.08,20.22z
		 M33.59,15.06c0.26-0.63,0.27-0.63,1.01-0.46c-0.56,2.98-3.86,6.68-7.51,7.53c0-0.27,0-0.53,0-0.82c0.13-0.06,0.26-0.13,0.4-0.19
		C30.39,19.98,32.42,17.95,33.59,15.06z M27.28,23.2c0.09-0.07,0.23-0.09,0.35-0.13c3.7-1.29,6.27-3.76,7.72-7.4
		c0.06-0.16,0.14-0.32,0.21-0.48c0.01-0.02,0.03-0.03,0.14-0.14c0.12,0.26,0.21,0.46,0.29,0.66c1.44,3.59,3.99,6.01,7.61,7.33
		c0.26,0.09,0.67,0.03,0.68,0.46c0.01,0.44-0.41,0.38-0.66,0.47c-3.67,1.31-6.21,3.78-7.64,7.39c-0.07,0.18-0.15,0.36-0.27,0.65
		c-0.13-0.22-0.22-0.34-0.28-0.48c-1.43-3.74-4.05-6.27-7.83-7.58c-0.12-0.04-0.25-0.06-0.35-0.13c-0.09-0.07-0.2-0.2-0.18-0.28
		C27.08,23.41,27.18,23.28,27.28,23.2z M43.95,21.15c0.09,0.04,0.18,0.09,0.32,0.16c0,0.28,0,0.53,0,0.78
		c-2.82-0.46-6.76-3.84-7.5-7.48c0.73-0.17,0.76-0.17,0.98,0.38C38.92,17.94,40.99,20,43.95,21.15z M38.64,14.56
		c0.92-0.1,0.92-0.1,1.32,0.65c0.84,1.6,2.05,2.83,3.65,3.67c0.2,0.1,0.4,0.21,0.59,0.32c0.02,0.01,0.03,0.04,0.06,0.08
		c0,0.3,0,0.61,0,0.94C42.16,19.81,39.11,16.95,38.64,14.56z M50.04,56.71c-0.21,0.03-0.37,0.07-0.53,0.08c-0.35,0.01-0.7,0-1.05,0
		c-1.69,0-1.69,0-3.1,0.79c-0.21-0.25-0.13-0.56-0.13-0.84c-0.01-2.33-0.01-4.67-0.01-7c0-1.88-0.02-3.76,0.01-5.65
		c0.01-0.59-0.12-0.93-0.74-1.17c-1.51-0.6-2.67-1.67-3.53-3.05c-0.11-0.17-0.2-0.35-0.28-0.53c-0.03-0.06,0-0.14,0-0.25
		c0.42-0.06,0.81-0.18,1.11,0.31c0.97,1.57,2.37,2.55,4.14,3.05c0.07,0.02,0.14,0.05,0.3,0.12c0,4.45,0,8.92,0,13.41
		C48.37,55.76,49.18,55.91,50.04,56.71z M49.98,60.12c-0.01,1.28-1.07,2.31-2.36,2.3c-1.29-0.01-2.34-1.05-2.33-2.34
		c0.01-1.27,1.09-2.33,2.36-2.32C48.92,57.78,49.99,58.86,49.98,60.12z M50.09,80.99c-0.25,0.05-0.39,0.1-0.55,0.1
		c-0.35,0.01-0.7,0-1.05,0c-1.65,0-1.77,0.03-3.15,0.83c-0.2-0.26-0.12-0.57-0.12-0.85c-0.01-4.09,0-8.18,0-12.26
		c0-0.2-0.02-0.4,0-0.6c0.05-0.47-0.13-0.71-0.59-0.89c-1.56-0.63-2.78-1.68-3.66-3.11c-0.14-0.22-0.24-0.47-0.37-0.72
		c0.63-0.2,0.99-0.08,1.33,0.45c0.85,1.34,2.08,2.22,3.58,2.72c0.21,0.07,0.42,0.14,0.7,0.23c0,4.46,0,8.91,0,13.45
		C47.6,80.06,48.87,80.1,50.09,80.99z M49.98,84.45c0,1.26-1.09,2.34-2.36,2.34c-1.27-0.01-2.34-1.08-2.34-2.35
		c0.01-1.27,1.09-2.35,2.35-2.34C48.91,82.1,49.99,83.18,49.98,84.45z M24.22,98.33c0,1.45,0,2.9,0,4.38
		c1.43,0.23,2.67,0.72,3.68,1.7c0.27,0.27,0.5,0.58,0.82,0.96c-0.6,0.1-1,0.18-1.39-0.21c-1.02-1.03-2.28-1.52-3.73-1.51
		c-0.1,0-0.2-0.03-0.4-0.05c-0.01-4.35,0-8.7-0.01-12.97c-0.89-0.35-1.73-0.61-2.5-0.98c-0.79-0.39-1.42-1.01-1.95-1.8
		c0.5-0.19,0.91-0.23,1.28,0.14c1.04,1.06,2.31,1.55,3.78,1.58c0.1,0,0.19,0.03,0.38,0.07c0.06,1.44,0.02,2.89,0.03,4.33
		C24.23,95.42,24.22,96.88,24.22,98.33z M25.81,102.21c-0.21-0.07-0.42-0.14-0.7-0.24c0-4.46,0-8.91,0-13.45
		c-1.42,0.33-2.68,0.23-3.8-0.59c0-0.06,0.01-0.12,0.01-0.18c0.46-0.01,0.93-0.07,1.39-0.02c1.19,0.13,2.3,0.01,3.39-0.91
		c0.04,1.36,0.02,2.55,0.02,3.74c0,1.18,0,2.36,0,3.54c0,1.2,0,2.41,0,3.61c0,1.18,0,2.35,0,3.58c2.07,0.77,3.65,2.05,4.64,4.06
		c-0.65,0.22-1.01,0.08-1.35-0.44C28.55,103.58,27.32,102.71,25.81,102.21z M3.16,70.2c0.18-0.08,0.36-0.17,0.54-0.25
		c2.81-1.14,4.79-3.13,5.94-5.94c0.26-0.63,0.26-0.63,0.99-0.56c0.09,2.56-4.65,7.33-7.47,7.49C3.16,70.71,3.16,70.47,3.16,70.2z
		 M3.15,69.1c0-0.32,0-0.64,0-0.95c2.31-1.24,3.26-2.03,4.71-4.72c0.31,0,0.62,0,0.95,0C8.46,65.6,5.34,68.73,3.15,69.1z
		 M10.07,62.51c-0.92,0-1.85,0-2.8,0c-0.76,2.08-2.04,3.63-4.02,4.61c-0.23-0.82-0.23-0.88,0.26-1.2c1.48-0.98,2.47-2.32,2.95-4.04
		c0.03-0.12,0.1-0.23,0.18-0.4c4.29,0,8.6,0,12.99,0c-0.29-1.38-0.24-2.63,0.69-3.9c0.23,1.72-0.31,3.42,1.02,4.87
		c-1.09,0.11-2.01,0.05-2.92,0.06c-0.93,0.01-1.86,0-2.78,0s-1.86,0-2.78,0S11,62.51,10.07,62.51z M19.97,50.21
		c-2.88,1.14-4.9,3.14-6.09,6c-0.26,0.64-0.27,0.64-1.01,0.48c0.32-2.89,4.52-7.09,7.48-7.43c0.01,0.24,0.02,0.48,0.03,0.74
		C20.23,50.07,20.11,50.16,19.97,50.21z M20.39,52.08c-0.22,0.12-0.42,0.23-0.61,0.33c-1.62,0.84-2.86,2.08-3.71,3.69
		c-0.4,0.75-0.4,0.75-1.41,0.58c1.11-2.72,2.95-4.56,5.66-5.66c0.04,0.19,0.07,0.28,0.08,0.37C20.39,51.62,20.39,51.85,20.39,52.08z
		 M20.36,47.99c-0.92,0.42-1.89,0.76-2.75,1.27c-0.9,0.53-1.76,1.16-2.52,1.88c-0.73,0.7-1.38,1.53-1.93,2.38
		c-0.55,0.85-0.93,1.81-1.44,2.82c-1.5-4.21-4.37-6.97-8.57-8.26c0.01-0.41,0.31-0.37,0.49-0.45c0.77-0.35,1.59-0.63,2.32-1.04
		c2.57-1.44,4.35-3.57,5.44-6.3c0.08-0.21,0.18-0.41,0.27-0.61c0.01-0.02,0.04-0.03,0.14-0.09c1.48,4.16,4.35,6.9,8.58,8.22
		C20.38,47.88,20.37,47.93,20.36,47.99z M3.67,45.63c2.84-1.15,4.83-3.15,5.99-5.98c0.26-0.64,0.26-0.64,1.03-0.52
		c-0.44,3.05-4.49,7.1-7.54,7.53c-0.01-0.25-0.02-0.49-0.03-0.76C3.31,45.8,3.49,45.7,3.67,45.63z M3.16,44.76c0-0.32,0-0.63,0-0.97
		c0.2-0.1,0.39-0.21,0.59-0.31c1.65-0.86,2.9-2.11,3.76-3.76c0.38-0.74,0.38-0.74,1.32-0.59C8.23,41.5,5.32,44.4,3.16,44.76z
		 M20.34,45.82c0,0.28,0,0.54,0,0.8c-2.95-0.33-7.09-4.48-7.51-7.55c0.24-0.01,0.48-0.03,0.8-0.04
		C14.83,42.37,17.06,44.61,20.34,45.82z M14.74,39.17c0.81-0.25,0.9-0.22,1.23,0.44c0.87,1.74,2.18,3.04,3.91,3.92
		c0.15,0.08,0.31,0.16,0.48,0.25c0.01,0.21,0.03,0.4,0.03,0.6c0,0.12-0.03,0.24-0.05,0.36C18.24,44.44,15.14,41.34,14.74,39.17z
		 M16.68,39.2c0.74-0.26,0.89-0.24,1.18,0.22c0.98,1.52,2.34,2.52,4.07,3.02c0.1,0.03,0.19,0.07,0.36,0.14c0,4.45,0,8.93,0,13.41
		c2.14-0.22,2.95-0.07,3.85,0.75c-1.68,0.18-3.36-0.33-4.81,1.01c0-4.94,0-9.69,0-14.49C19.25,42.5,17.67,41.2,16.68,39.2z
		 M23.04,39.06c1.05,0.11,1.99-0.07,2.84-0.72c0.03-0.02,0.09,0,0.23,0c0,4.75,0,9.5,0,14.29c2.08,0.76,3.64,2.04,4.66,4.06
		c-0.64,0.19-1,0.09-1.32-0.41c-0.89-1.37-2.15-2.28-3.72-2.77c-0.19-0.06-0.37-0.14-0.61-0.22c0-4.46,0-8.91,0-13.37
		c-2.21,0.18-2.98,0.03-3.84-0.78C21.87,38.95,22.47,39,23.04,39.06z M21.38,35.77c0-1.27,1.07-2.34,2.35-2.33
		c1.29,0,2.34,1.06,2.34,2.34c0,1.27-1.07,2.35-2.34,2.35C22.47,38.13,21.37,37.03,21.38,35.77z M27.09,44.75
		c-0.02-0.12-0.05-0.24-0.05-0.36c0-0.2,0.02-0.39,0.03-0.61c0.21-0.11,0.41-0.21,0.61-0.31c1.65-0.86,2.9-2.12,3.75-3.77
		c0.38-0.73,0.38-0.73,1.28-0.58C32.46,40.97,29.61,44.26,27.09,44.75z M33.56,39.67c0.29-0.7,0.29-0.7,1.04-0.53
		c-0.63,3.22-4.09,6.75-7.53,7.53c0-0.32,0-0.56,0-0.82c0.18-0.08,0.33-0.16,0.49-0.22C30.4,44.49,32.4,42.5,33.56,39.67z
		 M27.73,47.58c2.96-1.04,5.24-2.9,6.79-5.62c0.42-0.73,0.74-1.53,1.13-2.35c0.08,0.11,0.18,0.21,0.22,0.32
		c1.44,3.83,4.09,6.4,7.97,7.71c0.16,0.05,0.3,0.14,0.54,0.27c-0.21,0.14-0.33,0.25-0.48,0.3c-3.92,1.29-6.58,3.9-8.03,7.75
		c-0.04,0.1-0.1,0.2-0.23,0.45c-1.52-4.3-4.42-7.02-8.64-8.35C27.18,47.67,27.48,47.67,27.73,47.58z M44.02,45.72
		c0.07,0.03,0.13,0.07,0.25,0.13c0,0.28,0,0.52,0,0.76c-2.89-0.27-7.08-4.45-7.51-7.47c0.73-0.18,0.76-0.18,0.98,0.37
		C38.92,42.51,41.02,44.57,44.02,45.72z M38.62,39.12c0.93-0.14,0.93-0.14,1.32,0.6c0.85,1.63,2.08,2.87,3.71,3.73
		c0.2,0.1,0.4,0.21,0.63,0.33c0,0.32,0,0.63,0,0.95C42.26,44.53,39.13,41.43,38.62,39.12z M43.76,69.95
		c0.62,0.25,0.62,0.26,0.44,1.01c-2.97-0.43-6.72-4.16-7.48-7.53c0.3,0,0.54,0,0.82,0c0.06,0.12,0.13,0.25,0.18,0.39
		C38.86,66.73,40.88,68.77,43.76,69.95z M38.65,63.48c0.91-0.15,0.91-0.15,1.28,0.57c0.85,1.62,2.07,2.87,3.7,3.72
		c0.2,0.1,0.4,0.21,0.62,0.33c0,0.34,0,0.67,0,1.01C41.9,68.53,38.96,65.56,38.65,63.48z M37.63,67.54
		c0.42,0.56,0.89,1.09,1.39,1.57c0.51,0.48,1.06,0.92,1.64,1.32c0.56,0.38,1.16,0.7,1.77,0.99c0.61,0.29,1.25,0.52,1.89,0.87
		c-1.98,0.73-3.77,1.67-5.27,3.11c-1.51,1.45-2.58,3.18-3.27,5.18c-0.35-0.13-0.34-0.44-0.43-0.67c-1.17-2.91-3.13-5.1-5.91-6.54
		c-0.55-0.29-1.15-0.49-1.72-0.73c-0.22-0.09-0.43-0.18-0.65-0.27c0-0.05,0-0.11,0-0.16c0.74-0.31,1.51-0.58,2.23-0.96
		c0.73-0.38,1.44-0.81,2.09-1.32c0.65-0.5,1.25-1.08,1.79-1.71c0.53-0.62,1-1.32,1.42-2.03c0.41-0.71,0.71-1.47,1.1-2.32
		c0.32,0.7,0.57,1.34,0.89,1.94C36.87,66.42,37.23,67,37.63,67.54z M43.79,78.72c-1.3,0.9-2.21,2.09-2.7,3.6
		c-0.07,0.21-0.15,0.42-0.25,0.7c-4.32,0-8.65,0-13.05,0c0.36,1.42,0.26,2.68-0.56,3.8c-0.06,0-0.13-0.01-0.19-0.01
		c0-0.56-0.04-1.13,0.01-1.69c0.08-1.04-0.11-1.99-0.75-2.84c-0.02-0.03-0.01-0.09-0.02-0.25c0.27,0,0.53,0,0.79,0
		c4.09,0,8.17-0.01,12.26,0.01c0.6,0,0.93-0.14,1.17-0.75c0.59-1.48,1.63-2.63,2.98-3.49c0.23-0.14,0.47-0.25,0.72-0.39
		C44.39,78.3,44.39,78.31,43.79,78.72z M43.93,80.93c-0.93,0.92-1.33,2.1-1.43,3.39c-0.01,0.17-0.02,0.34-0.04,0.6
		c-4.23,0-8.43,0-12.68,0c-0.2,1.36-0.65,2.55-1.54,3.52c-0.31,0.34-0.68,0.63-1.11,1.02c-0.17-0.64-0.17-1.06,0.25-1.47
		c0.95-0.94,1.38-2.13,1.45-3.45c0.01-0.17,0.02-0.35,0.04-0.6c4.22,0,8.42,0,12.68,0c0.29-1.85,1.06-3.35,2.65-4.46
		C44.36,80.09,44.35,80.51,43.93,80.93z M23.2,72.77c0-1.1,0-2.21,0-3.31c0-1.07,0-2.15,0-3.28c-1.83-0.32-3.36-1.07-4.47-2.69
		c0.51-0.1,0.92-0.23,1.3,0.16c1.05,1.08,2.34,1.59,3.85,1.58c0.07,0,0.15,0.03,0.33,0.07c0,4.37,0,8.7,0,13.08
		c1.83,0.29,3.35,1.04,4.46,2.64c-0.59,0.14-1.01,0.15-1.43-0.27c-0.94-0.95-2.14-1.36-3.46-1.43c-0.15-0.01-0.29,0-0.55,0
		c-0.05-1.13-0.02-2.22-0.02-3.31C23.2,74.92,23.2,73.85,23.2,72.77z M21.76,63.4c0.58,0,1.15-0.01,1.73,0.02
		c0.81,0.04,1.54-0.15,2.2-0.62c0.09-0.07,0.21-0.11,0.44-0.23c0,0.42,0,0.74,0,1.05c0,4.14,0.01,8.27-0.01,12.41
		c0,0.65,0.14,1.02,0.81,1.29c1.48,0.59,2.62,1.64,3.47,3c0.13,0.21,0.22,0.43,0.34,0.66c-0.87,0.2-0.87,0.21-1.29-0.4
		c-0.91-1.33-2.14-2.24-3.67-2.72c-0.17-0.05-0.33-0.11-0.5-0.17c-0.02-0.01-0.04-0.03-0.14-0.11c0-4.39,0-8.84,0-13.39
		c-1.42,0.32-2.7,0.22-3.96-0.7C21.45,63.45,21.6,63.4,21.76,63.4z M21.38,60.08c0.02-1.25,1.07-2.3,2.32-2.31
		c1.29-0.01,2.36,1.04,2.37,2.33c0.01,1.3-1.04,2.33-2.35,2.33C22.42,62.42,21.36,61.36,21.38,60.08z M33.77,81.06
		c-1.19-3.25-3.42-5.48-6.69-6.68c-0.02-0.16-0.05-0.31-0.05-0.46c0-0.12,0.03-0.24,0.05-0.36c3.4,0.7,6.8,4.25,7.53,7.49
		C34.31,81.06,34.06,81.06,33.77,81.06z M36.79,81.05c0.25-2.85,4.06-6.71,7.48-7.52c0,0.3,0,0.54,0,0.86
		c-1.53,0.55-2.91,1.36-4.08,2.53c-1.17,1.17-2.01,2.55-2.59,4.13C37.33,81.05,37.06,81.05,36.79,81.05z M43.67,76.76
		c-1.6,0.84-2.82,2.05-3.67,3.64c-0.41,0.77-0.41,0.77-1.32,0.63c0.27-2.03,3.49-5.26,5.55-5.55
		C44.39,76.38,44.39,76.38,43.67,76.76z M27.14,70.97c-0.18-0.75-0.18-0.75,0.44-1.01c2.89-1.18,4.9-3.23,6.05-6.13
		c0.05-0.12,0.1-0.23,0.16-0.38c0.26,0,0.52,0,0.84,0C33.88,66.68,30.58,70.24,27.14,70.97z M27.09,69.11
		c-0.02-0.12-0.05-0.24-0.05-0.36c0-0.2,0.01-0.4,0.02-0.61c0.23-0.12,0.44-0.24,0.66-0.36c1.62-0.85,2.84-2.1,3.69-3.72
		c0.38-0.72,0.37-0.72,1.32-0.59C32.26,65.53,29.68,68.48,27.09,69.11z M27.12,75.46c2.12,0.38,5.01,3.24,5.58,5.52
		c-0.84,0.25-0.93,0.22-1.28-0.47c-0.85-1.66-2.11-2.9-3.76-3.76C26.94,76.36,26.94,76.37,27.12,75.46z M43.78,54.42
		c-1.33,0.85-2.22,2.08-2.7,3.59c-0.06,0.19-0.13,0.38-0.21,0.64c-4.32,0-8.64,0-13.08,0c0.36,1.42,0.27,2.7-0.63,3.96
		c-0.06-0.26-0.12-0.41-0.12-0.56c-0.01-0.53-0.03-1.05,0.01-1.58c0.06-0.89-0.16-1.69-0.69-2.4c-0.06-0.08-0.09-0.17-0.2-0.36
		c2.39-0.05,4.71-0.02,7.02-0.02c2.31-0.01,4.61,0,6.99,0c0.74-2.04,2.03-3.61,4.04-4.62C44.4,53.7,44.32,54.08,43.78,54.42z
		 M43.93,56.6c-0.93,0.92-1.33,2.1-1.42,3.39c-0.01,0.15-0.02,0.3-0.04,0.45c0,0.02-0.02,0.05-0.05,0.15c-4.18,0-8.38,0-12.64,0
		c-0.27,1.87-1.06,3.37-2.66,4.51c-0.1-0.53-0.23-0.94,0.16-1.32c1.08-1.06,1.56-2.37,1.57-3.86c0-0.07,0.03-0.14,0.07-0.3
		c4.19,0,8.39,0,12.64,0c0.23-1.41,0.7-2.63,1.65-3.62c0.29-0.3,0.61-0.55,1-0.89C44.35,55.75,44.36,56.18,43.93,56.6z M32.69,56.67
		c-0.82,0.23-0.91,0.2-1.24-0.45c-0.87-1.71-2.17-2.99-3.87-3.86c-0.16-0.08-0.31-0.16-0.51-0.26c0-0.35,0-0.65,0-0.94
		C29.02,51.29,32.3,54.51,32.69,56.67z M27.07,50.01c0-0.25,0-0.49,0-0.74c2.73,0.1,6.74,4.03,7.55,7.4
		c-0.78,0.16-0.8,0.17-1.03-0.39c-1.18-2.93-3.24-4.95-6.18-6.09C27.3,50.15,27.19,50.08,27.07,50.01z M44.26,50.02
		c-0.14,0.07-0.29,0.15-0.45,0.21c-2.84,1.15-4.84,3.13-6.01,5.96c-0.26,0.63-0.26,0.63-1.05,0.51c0.66-3.23,4.61-7.14,7.51-7.44
		C44.26,49.5,44.26,49.74,44.26,50.02z M44.27,51.12c0,0.32,0,0.64,0,0.98c-0.16,0.09-0.31,0.17-0.46,0.25
		c-1.71,0.86-3,2.15-3.89,3.85c-0.35,0.67-0.42,0.7-1.23,0.45C39.04,54.57,42.08,51.53,44.27,51.12z M23.74,40.87
		c0.12,0,0.24,0.04,0.46,0.08c0.04,1.46,0.01,2.9,0.02,4.35c0,1.45,0,2.91,0,4.36c0,1.45,0,2.9,0,4.39
		c1.84,0.29,3.33,1.05,4.43,2.59c-0.46,0.2-0.87,0.27-1.21-0.06c-1.14-1.12-2.49-1.64-4.16-1.57c-0.03-0.35-0.07-0.66-0.07-0.97
		c0-3.76,0-7.52,0-11.29c0-0.3,0-0.59,0-0.92c-1.87-0.29-3.37-1.08-4.5-2.7c0.55-0.12,0.96-0.2,1.33,0.19
		C21.05,40.36,22.29,40.88,23.74,40.87z M3.5,63.63c0.94-0.94,1.39-2.12,1.42-3.46c0-0.15,0.02-0.29,0.04-0.53
		c0.3-0.01,0.59-0.04,0.88-0.04c3.64,0,7.27,0,10.91,0c0.29,0,0.59,0,0.91,0c0.3-1.86,1.06-3.36,2.64-4.45
		c0.12,0.52,0.21,0.94-0.17,1.32c-1.01,1.01-1.5,2.23-1.51,3.65c0,0.12-0.03,0.24-0.06,0.44c-4.22,0-8.42,0-12.69,0
		c-0.26,1.89-1.06,3.4-2.67,4.54C3.07,64.47,3.08,64.05,3.5,63.63z M13.65,63.44c1.17,3.24,3.39,5.5,6.69,6.71c0,0.32,0,0.56,0,0.8
		c-2.93-0.31-7.07-4.47-7.5-7.52C13.09,63.44,13.33,63.44,13.65,63.44z M20.29,69.08c-2.19-0.44-5.16-3.43-5.57-5.64
		c0.32,0,0.64,0,0.99,0c0.09,0.17,0.19,0.34,0.27,0.51c0.85,1.69,2.11,2.96,3.78,3.83C20.48,68.17,20.48,68.18,20.29,69.08z
		 M16.68,63.51c0.88-0.19,0.89-0.19,1.3,0.41c0.9,1.34,2.13,2.25,3.65,2.75c0.17,0.05,0.33,0.11,0.5,0.17
		c0.04,0.02,0.08,0.06,0.17,0.14c0,4.39,0,8.83,0,13.38c1.37-0.31,2.65-0.25,3.77,0.64c-1.55,0.24-3.24-0.26-4.53,0.93
		c-0.08-0.03-0.11-0.03-0.13-0.05c-0.02-0.01-0.04-0.03-0.05-0.05c-0.02-0.1-0.04-0.2-0.04-0.3c-0.01-4.61-0.02-9.23-0.03-13.84
		c0-0.02-0.02-0.05-0.05-0.13C19.25,66.81,17.66,65.53,16.68,63.51z M26.06,84.47c-0.02,1.28-1.1,2.33-2.37,2.31
		c-1.26-0.02-2.34-1.12-2.32-2.38c0.02-1.27,1.12-2.34,2.38-2.32C25.03,82.11,26.08,83.2,26.06,84.47z M27.66,101.08
		c-0.16-0.08-0.31-0.16-0.46-0.25c-0.04-0.02-0.07-0.06-0.12-0.11c0-0.31,0-0.62,0-0.95c2.23,0.44,5.24,3.44,5.63,5.62
		c-0.93,0.1-0.93,0.1-1.32-0.64C30.53,103.15,29.29,101.91,27.66,101.08z M27.36,98.84c-0.09-0.04-0.17-0.09-0.29-0.15
		c0-0.24,0-0.48,0-0.72c2.62-0.03,7.11,4.42,7.51,7.4c-0.75,0.16-0.76,0.16-0.99-0.39C32.41,102.01,30.33,99.98,27.36,98.84z
		 M27.04,96.73c0.11-0.43,0.44-0.4,0.67-0.48c2.06-0.71,3.82-1.86,5.27-3.48c1-1.11,1.76-2.37,2.32-3.75
		c0.09-0.23,0.18-0.46,0.31-0.78c0.12,0.18,0.21,0.28,0.26,0.4c1.46,3.82,4.12,6.38,8,7.69c0.12,0.04,0.23,0.1,0.34,0.15
		c0.02,0.01,0.03,0.04,0.1,0.16c-0.95,0.43-1.91,0.77-2.78,1.29c-0.9,0.53-1.77,1.16-2.52,1.88c-0.74,0.7-1.38,1.53-1.93,2.38
		c-0.55,0.85-0.93,1.8-1.45,2.83C34.13,100.78,31.25,98.05,27.04,96.73z M27.07,94.51c0.2-0.08,0.38-0.16,0.56-0.23
		c2.81-1.16,4.79-3.15,5.94-5.96c0.26-0.64,0.26-0.64,1-0.51c-0.12,2.73-4.25,6.91-7.46,7.53c-0.02-0.09-0.07-0.18-0.07-0.28
		C27.04,94.88,27.06,94.71,27.07,94.51z M27.72,92.11c1.63-0.85,2.86-2.1,3.7-3.73c0.39-0.76,0.39-0.76,1.28-0.56
		c-0.29,2.07-3.34,5.15-5.6,5.62C26.99,92.49,26.99,92.5,27.72,92.11z M36.73,87.82c0.79-0.14,0.81-0.15,1.03,0.41
		c1.16,2.93,3.22,4.96,6.15,6.12c0.11,0.04,0.22,0.11,0.35,0.17c0,0.27,0,0.53,0,0.8C41.12,94.76,37.48,91.13,36.73,87.82z
		 M44.26,97.93c0,0.24,0,0.49,0,0.79c-3.23,1.18-5.47,3.4-6.68,6.7c-0.18,0.02-0.3,0.04-0.43,0.04c-0.12,0-0.24-0.02-0.36-0.04
		C36.98,102.61,41.41,98.16,44.26,97.93z M44.27,99.74c0,0.37,0,0.69,0,1.01c-0.09,0.06-0.17,0.13-0.26,0.17
		c-1.86,0.88-3.24,2.24-4.15,4.08c-0.26,0.53-0.29,0.53-1.18,0.38C38.91,103.4,41.72,100.52,44.27,99.74z M44.11,105.07
		c-1.15,1.12-1.61,2.51-1.61,4.14c-4.22,0-8.42,0-12.7,0c-0.27,1.87-1.04,3.4-2.67,4.56c-0.11-0.56-0.19-0.98,0.21-1.38
		c1.04-1.02,1.5-2.29,1.52-3.73c0-0.1,0.02-0.19,0.04-0.39c4.25,0,8.43,0,12.55,0c0.34-0.88,0.59-1.71,0.97-2.49
		c0.38-0.79,0.98-1.43,1.81-1.95C44.32,104.31,44.45,104.73,44.11,105.07z M44.19,93.51c-2.68-1.08-4.54-2.93-5.64-5.66
		c0.98-0.23,0.99-0.23,1.38,0.53c0.85,1.65,2.11,2.9,3.76,3.76C44.4,92.51,44.41,92.53,44.19,93.51z M38.2,86.82
		c-2.31,0.01-4.61,0-6.98,0c-0.77,2.04-2.03,3.66-4.04,4.63c-0.26-0.8-0.24-0.86,0.35-1.26c1.36-0.92,2.28-2.16,2.78-3.73
		c0.06-0.19,0.12-0.37,0.21-0.64c4.35,0,8.64,0,13.02,0c-0.3-1.36-0.23-2.62,0.66-3.86c0.05,0.26,0.11,0.4,0.11,0.56
		c0.01,0.53,0.02,1.05,0,1.58c-0.03,0.86,0.17,1.64,0.67,2.34c0.05,0.08,0.09,0.16,0.2,0.35C42.78,86.85,40.49,86.81,38.2,86.82z
		 M31.2,62.5c-0.76,2.07-2.04,3.63-4.01,4.62c-0.26-0.77-0.25-0.87,0.22-1.19c1.51-1,2.5-2.36,2.98-4.1
		c0.03-0.09,0.08-0.18,0.15-0.34c4.29,0,8.59,0,12.99,0c-0.28-1.38-0.25-2.63,0.69-3.88c0.04,0.32,0.08,0.48,0.08,0.64
		c0.01,0.55,0.02,1.1,0,1.65c-0.03,0.92,0.29,1.71,0.94,2.6C40.44,62.5,35.84,62.5,31.2,62.5z M38.14,38.16
		c-2.31,0.01-4.61,0-6.94,0c-0.75,2.07-2.04,3.64-4.01,4.62c-0.27-0.79-0.25-0.86,0.34-1.26c1.36-0.92,2.28-2.16,2.78-3.73
		c0.05-0.17,0.11-0.33,0.17-0.49c0.01-0.02,0.04-0.03,0.16-0.15c4.2,0,8.5,0,12.9,0c-0.29-1.39-0.22-2.63,0.66-3.85
		c0.05,0.25,0.11,0.39,0.11,0.54c0.01,0.53,0.02,1.05,0,1.58c-0.04,0.86,0.17,1.64,0.67,2.34c0.05,0.08,0.09,0.17,0.19,0.37
		C42.77,38.19,40.45,38.16,38.14,38.16z M27.42,39.3c0.94-0.95,1.37-2.13,1.43-3.46c0.01-0.15,0.02-0.3,0.03-0.45
		c0-0.02,0.03-0.04,0.09-0.13c4.15,0,8.36,0,12.62,0c0.27-1.88,1.06-3.33,2.6-4.44c0.14,0.48,0.23,0.86-0.07,1.24
		c-1.34,1.67-1.42,1.88-1.67,4.16c-4.19,0-8.39,0-12.66,0c-0.29,1.89-1.06,3.42-2.68,4.53C26.98,40.14,27,39.72,27.42,39.3z
		 M43.7,28.07c-1.63,0.84-2.86,2.07-3.72,3.69c-0.38,0.72-0.38,0.72-1.43,0.62c1.11-2.73,2.95-4.58,5.62-5.66
		C44.43,27.65,44.41,27.71,43.7,28.07z M37.6,32.39c-0.16,0.02-0.31,0.05-0.46,0.05c-0.12,0-0.24-0.03-0.36-0.05
		c0.38-2.95,4.26-6.87,7.5-7.51c0,0.3,0,0.54,0,0.83C41.02,26.9,38.79,29.13,37.6,32.39z M34.59,32.4c-0.25,0-0.49,0-0.81,0
		c-1.18-3.21-3.39-5.46-6.71-6.68c0-0.29,0-0.53,0-0.77C29.76,25,34.18,29.38,34.59,32.4z M27.11,26.68
		c2.72,1.09,4.59,2.93,5.67,5.61c-0.89,0.28-0.98,0.25-1.34-0.45c-0.87-1.68-2.14-2.95-3.83-3.8c-0.13-0.07-0.27-0.14-0.4-0.21
		c-0.04-0.02-0.07-0.07-0.14-0.13c-0.01-0.17-0.03-0.37-0.02-0.57C27.04,27.02,27.07,26.9,27.11,26.68z M40.17,33.34
		c0.76-2.04,2.04-3.6,4.05-4.6c0.12,0.54,0.19,0.93-0.31,1.25c-1.48,0.94-2.43,2.29-2.92,3.96c-0.03,0.09-0.07,0.19-0.11,0.28
		c-0.01,0.02-0.03,0.04-0.12,0.13c-4.24,0-8.54,0-12.95,0c0.31,1.4,0.24,2.68-0.68,3.94c-0.05-0.28-0.08-0.43-0.1-0.58
		c-0.01-0.17,0-0.35,0-0.53c0-2.05,0-2.05-0.83-3.84C30.9,33.34,35.51,33.34,40.17,33.34z M21.66,17.8
		c0.19,0.06,0.38,0.13,0.66,0.22c0,4.55,0,9.06,0,13.66c1.38-0.32,2.64-0.23,3.89,0.65c-0.28,0.05-0.43,0.1-0.58,0.11
		c-0.4,0.01-0.8,0-1.2,0c-1.48,0-1.48,0-2.98,0.78c-0.02-0.01-0.05-0.01-0.07-0.03c-0.02-0.02-0.03-0.04-0.03-0.07
		c-0.01-0.07-0.03-0.15-0.03-0.22c-0.01-4.69-0.01-9.38-0.02-14.07c0-0.02-0.01-0.05-0.05-0.16c-1.99-0.75-3.61-2.03-4.57-4.09
		c0.64-0.22,1-0.06,1.33,0.46C18.88,16.41,20.12,17.31,21.66,17.8z M19.8,18.94c0.7,0.36,0.7,0.37,0.53,1.28
		c-2.34-0.54-5.4-3.66-5.57-5.65c0.88-0.16,0.88-0.16,1.27,0.6C16.89,16.83,18.15,18.08,19.8,18.94z M20.23,26.77
		c0.32,0.74,0.26,0.96-0.4,1.29c-1.69,0.85-2.94,2.13-3.81,3.79c-0.09,0.18-0.18,0.35-0.31,0.59c-0.25,0-0.45,0-0.64,0
		c-0.1,0-0.19-0.03-0.29-0.04C14.95,30.46,17.77,27.56,20.23,26.77z M13.65,32.45c-0.32-0.02-0.56-0.03-0.81-0.04
		c0.55-3.13,4.39-6.98,7.49-7.5c0,0.27,0,0.52,0,0.83C17.09,26.91,14.87,29.15,13.65,32.45z M20.36,21.29c0,0.28,0,0.52,0,0.76
		c-2.68-0.03-6.89-4.2-7.54-7.51c0.3,0,0.54,0,0.83,0C14.83,17.82,17.07,20.08,20.36,21.29z M10.65,32.4c-0.25,0-0.49,0-0.77,0
		C9.8,32.2,9.7,32,9.61,31.8c-1.14-2.75-3.1-4.69-5.85-5.84c-0.69-0.29-0.69-0.28-0.57-1.08C6.43,25.54,10.42,29.57,10.65,32.4z
		 M2.39,33.66c-0.04-0.05-0.04-0.13-0.09-0.32c1.59-0.01,3.13,0,4.67-0.01c1.53,0,3.06,0,4.59,0c1.55,0,3.1,0,4.7,0
		c0.77-2.03,2.03-3.6,4.01-4.57c0.21,0.88,0.21,0.88-0.4,1.3c-1.3,0.9-2.21,2.1-2.7,3.6c-0.07,0.21-0.15,0.42-0.25,0.73
		c-4.31,0-8.64,0-13.04,0c0.37,1.42,0.23,2.66-0.56,3.78c-0.07-0.01-0.14-0.02-0.21-0.03c0-0.62-0.03-1.24,0.01-1.86
		C3.18,35.31,3,34.43,2.39,33.66z M20.12,32.15c-0.99,0.99-1.48,2.19-1.5,3.58c0,0.1-0.02,0.2-0.04,0.3
		c-0.01,0.05-0.05,0.09-0.11,0.2c-4.14,0-8.33,0-12.46,0c-0.35,0.91-0.61,1.77-1,2.57c-0.39,0.79-0.97,1.45-1.83,1.92
		c-0.13-0.56-0.14-0.98,0.28-1.4c0.97-0.96,1.43-2.16,1.45-3.53c0-0.15,0.02-0.29,0.04-0.51c4.22,0,8.43,0,12.7,0
		c0.27-1.85,1.05-3.35,2.64-4.48C20.42,31.36,20.5,31.77,20.12,32.15z M3.63,41.52c1.36-0.92,2.27-2.17,2.77-3.72
		c0.06-0.19,0.13-0.37,0.21-0.63c4.31,0,8.62,0,13.02,0c-0.29-1.39-0.24-2.65,0.65-3.87c0.05,0.25,0.1,0.39,0.11,0.53
		c0.01,0.35,0.02,0.7,0,1.05c-0.04,1.12,0.02,2.21,0.8,3.07c-0.03,0.09-0.04,0.12-0.05,0.14c-0.01,0.02-0.03,0.03-0.05,0.04
		c-0.02,0.01-0.05,0.02-0.07,0.02c-0.07,0.01-0.15,0.01-0.22,0.01c-4.46,0.01-8.92,0.01-13.38,0.02c-0.02,0-0.05,0.02-0.13,0.05
		c-0.76,1.98-2,3.6-4.03,4.55C3.02,41.95,3.02,41.93,3.63,41.52z M3.15,49.23c3.02,0.42,7.07,4.45,7.51,7.42
		c-0.69,0.21-0.75,0.2-0.97-0.35c-1.19-2.95-3.27-4.99-6.23-6.13c-0.09-0.04-0.18-0.09-0.34-0.18C3.13,49.72,3.14,49.48,3.15,49.23z
		 M3.54,52.31c-0.13-0.06-0.26-0.15-0.43-0.24c0-0.22-0.01-0.44,0-0.67c0-0.09,0.04-0.19,0.08-0.38c2.71,1.08,4.57,2.92,5.66,5.6
		c-0.82,0.29-1,0.25-1.28-0.31C6.69,54.52,5.34,53.19,3.54,52.31z M2.36,57.69c4.61,0,9.22,0,13.72,0c0.61-0.96,1.12-1.88,1.75-2.71
		c0.62-0.83,1.46-1.42,2.41-1.87c0.26,0.73,0.24,0.87-0.22,1.17c-1.47,0.96-2.43,2.29-2.93,3.96c-0.03,0.1-0.07,0.19-0.1,0.28
		c-0.01,0.02-0.03,0.04-0.11,0.14c-4.26,0-8.58,0-12.98,0c0.22,1.03,0.31,1.98-0.08,2.89c-0.14,0.33-0.32,0.65-0.48,0.98
		c-0.05-0.01-0.1-0.02-0.15-0.03c-0.02-0.16-0.05-0.31-0.06-0.47c-0.01-0.3-0.02-0.6,0-0.9c0.06-1.19,0.03-2.36-0.88-3.32
		C2.28,57.78,2.32,57.74,2.36,57.69z M5.36,71.24c0.73-0.38,1.45-0.82,2.09-1.32c0.65-0.51,1.26-1.09,1.79-1.71
		c0.53-0.63,1-1.32,1.41-2.03c0.41-0.71,0.71-1.47,1.13-2.36c0.51,1.41,1.1,2.64,1.92,3.74c0.84,1.11,1.83,2.06,2.98,2.85
		c1.14,0.78,2.39,1.32,3.71,1.74c-0.16,0.43-0.48,0.41-0.72,0.5c-3.04,1.07-5.35,3.02-6.9,5.84c-0.37,0.68-0.65,1.4-1.01,2.19
		c-0.36-0.78-0.66-1.54-1.06-2.24c-0.41-0.71-0.87-1.41-1.41-2.04c-0.55-0.64-1.18-1.24-1.84-1.77c-0.65-0.51-1.36-0.94-2.09-1.32
		c-0.72-0.37-1.49-0.64-2.41-1.03C3.87,71.89,4.65,71.62,5.36,71.24z M20.33,75.47c0.11,0.92,0.11,0.92-0.63,1.32
		c-1.57,0.84-2.78,2.04-3.61,3.61c-0.12,0.22-0.23,0.44-0.36,0.66c-0.34,0-0.65,0-0.98,0C15.1,78.94,18.14,75.88,20.33,75.47z
		 M13.63,81.06c-0.13,0.01-0.27,0.04-0.42,0.03c-0.12,0-0.24-0.04-0.36-0.06c0.58-3.13,4.34-6.88,7.49-7.47c0,0.27,0,0.53,0,0.78
		C16.14,76.53,15.83,76.84,13.63,81.06z M10.69,81.04c-0.26,0-0.52,0-0.84,0c-0.57-1.52-1.38-2.91-2.55-4.08
		c-1.17-1.17-2.56-1.99-4.14-2.57c0-0.32,0-0.57,0-0.81C6.13,73.95,10.09,77.88,10.69,81.04z M3.76,76.74
		c-0.73-0.38-0.73-0.38-0.53-1.39c2.71,1.11,4.56,2.95,5.64,5.59c-0.92,0.28-0.99,0.26-1.39-0.5C6.63,78.82,5.38,77.6,3.76,76.74z
		 M2.35,82.24c-0.01-0.02,0-0.05,0.02-0.17c0.24-0.01,0.5-0.03,0.76-0.03c4.01,0,8.03,0,12.04,0c0.18,0,0.35-0.02,0.53,0
		c0.42,0.06,0.63-0.15,0.78-0.53c0.61-1.54,1.62-2.75,3.01-3.65c0.24-0.16,0.51-0.28,0.78-0.43c0.2,0.89,0.2,0.89-0.41,1.3
		c-1.3,0.9-2.21,2.1-2.69,3.61c-0.05,0.17-0.11,0.33-0.17,0.5c-0.02,0.04-0.06,0.08-0.14,0.19c-4.25,0-8.56,0-12.92,0
		c0.2,2.21,0.05,2.99-0.76,3.85c-0.03-0.21-0.06-0.37-0.06-0.53c-0.01-0.53-0.02-1.05,0.01-1.58c0.05-0.86-0.15-1.64-0.66-2.34
		C2.42,82.37,2.39,82.3,2.35,82.24z M3.36,88.12c1.08-1.06,1.58-2.35,1.57-3.86c0-0.07,0.03-0.15,0.06-0.33
		c0.82-0.01,1.66-0.02,2.5-0.02c0.85,0,1.7,0,2.56,0c0.83,0,1.65,0,2.48,0c0.85,0,1.7,0,2.56,0c0.85,0,1.69,0,2.57,0
		c0.3-1.83,1.07-3.33,2.63-4.43c0.13,0.51,0.23,0.93-0.15,1.31c-1,1.01-1.51,2.22-1.52,3.65c0,0.07-0.01,0.15-0.02,0.22
		c-0.01,0.05-0.04,0.09-0.11,0.25c-4.14,0.02-8.34,0-12.61,0.01c-0.29,1.9-1.07,3.37-2.65,4.49C3.1,88.9,2.98,88.5,3.36,88.12z
		 M3.66,90.14c1.34-0.85,2.21-2.09,2.71-3.59c0.07-0.21,0.14-0.42,0.24-0.72c4.33,0,8.65,0,13.04,0c-0.29-1.39-0.27-2.65,0.69-3.9
		c0.21,1.7-0.31,3.39,1.02,4.87c-2.48,0.02-4.77,0.01-7.06,0.01c-2.31,0-4.61,0-6.95,0c-1.45,2.83-2.7,4.19-4.16,4.57
		C3.01,90.84,3.13,90.48,3.66,90.14z M20.26,99.79c0.25,0.85,0.22,0.93-0.47,1.29c-1.65,0.85-2.9,2.11-3.76,3.75
		c-0.38,0.73-0.4,0.74-1.27,0.53C15.16,103.25,17.95,100.37,20.26,99.79z M13.84,105c-0.04,0.09-0.08,0.18-0.13,0.27
		c-0.02,0.04-0.06,0.08-0.12,0.15c-0.21,0-0.46,0-0.7,0c0.1-2.72,4.53-7.19,7.4-7.49c0.16,0.74,0.16,0.75-0.39,0.97
		C17.01,100.07,14.99,102.1,13.84,105z M20.28,93.41c-2.13-0.4-5.07-3.34-5.54-5.54c0.81-0.27,0.89-0.24,1.27,0.49
		c0.85,1.66,2.1,2.92,3.76,3.78C20.5,92.51,20.5,92.52,20.28,93.41z M20.35,94.52c0,0.29,0,0.53,0,0.78
		c-3.3-0.64-6.87-4.27-7.51-7.53c0.27,0,0.53,0,0.78,0C15.66,91.88,16.48,92.7,20.35,94.52z M3.16,94.54
		c0.13-0.07,0.28-0.16,0.44-0.22c2.88-1.14,4.9-3.15,6.06-6.02c0.26-0.64,0.27-0.64,1-0.47c-0.48,2.91-3.94,6.77-7.5,7.49
		C3.16,95.07,3.16,94.83,3.16,94.54z M3.76,92.14c1.64-0.86,2.9-2.11,3.75-3.76c0.38-0.75,0.39-0.75,1.33-0.56
		c-0.72,2.48-3.58,5.3-5.64,5.6C3.03,92.52,3.03,92.52,3.76,92.14z M3.81,96.25c2.57-0.89,4.67-2.43,6.19-4.68
		c0.58-0.87,0.99-1.85,1.47-2.78c0.09-0.17,0.16-0.34,0.31-0.67c0.72,2.15,1.8,3.9,3.33,5.36c1.51,1.43,3.29,2.4,5.29,3
		c-0.01,0.07-0.02,0.14-0.02,0.21c-0.63,0.26-1.28,0.48-1.89,0.78c-0.61,0.29-1.21,0.62-1.77,1c-0.58,0.39-1.13,0.84-1.63,1.33
		c-0.49,0.47-0.94,0.98-1.34,1.52c-0.42,0.56-0.78,1.17-1.11,1.79c-0.32,0.59-0.56,1.22-0.9,1.98c-1.52-4.28-4.41-7.02-8.63-8.35
		C3.26,96.31,3.57,96.33,3.81,96.25z M3.19,97.94c2.7,0.09,7.21,4.59,7.46,7.42c-0.75,0.14-0.75,0.15-1.01-0.48
		c-1.15-2.81-3.13-4.79-5.94-5.94C3.08,98.68,3.08,98.68,3.19,97.94z M3.8,101.1c-0.22-0.12-0.44-0.23-0.64-0.34
		c0-0.36,0-0.67,0-0.99c2.31,0.51,5.19,3.4,5.63,5.6c-0.91,0.17-0.92,0.17-1.29-0.55C6.66,103.19,5.42,101.96,3.8,101.1z
		 M3.12,109.15c0.06-0.89-0.15-1.69-0.67-2.41c-0.06-0.08-0.09-0.17-0.12-0.23c0.03-0.06,0.03-0.09,0.05-0.1
		c0.02-0.02,0.04-0.03,0.06-0.03c0.07-0.01,0.15-0.03,0.22-0.03c4.48-0.01,8.96-0.02,13.44-0.03c0.6-0.93,1.1-1.85,1.73-2.68
		c0.62-0.82,1.45-1.43,2.41-1.86c0.25,0.81,0.24,0.85-0.36,1.27c-1.33,0.91-2.24,2.13-2.73,3.66c-0.06,0.19-0.13,0.37-0.22,0.64
		c-1.45,0-2.9,0-4.35,0c-1.43,0-2.86,0-4.29,0c-1.44,0-2.89,0.01-4.42,0.01c0.38,1.44,0.23,2.68-0.65,3.95
		c-0.05-0.29-0.1-0.44-0.11-0.59C3.11,110.2,3.09,109.67,3.12,109.15z M3.51,112.29c0.93-0.95,1.39-2.13,1.41-3.46
		c0-0.15,0.02-0.29,0.04-0.53c2.11-0.05,4.21-0.02,6.3-0.02c2.1-0.01,4.21,0,6.4,0c0.26-1.81,1.04-3.32,2.61-4.45
		c0.15,0.5,0.25,0.92-0.13,1.29c-1.02,1.03-1.53,2.27-1.53,3.72c0,0.1-0.03,0.19-0.05,0.35c-0.84,0.12-1.69,0.04-2.53,0.05
		c-0.83,0.01-1.65,0-2.48,0c-0.85,0-1.7,0-2.56,0c-0.83,0-1.65,0-2.48,0c-0.85,0-1.7,0-2.62,0c-0.3,1.82-1.04,3.38-2.69,4.51
		C3.05,113.13,3.1,112.71,3.51,112.29z M3.15,116.77c2.15-0.96,3.71-2.52,4.66-4.68c0.4,0,0.69,0,0.99,0
		c-0.46,2.44-3.63,5.35-5.65,5.67C3.15,117.44,3.15,117.12,3.15,116.77z M3.15,119.66c0-0.28,0-0.5,0-0.77
		c0.15-0.08,0.32-0.17,0.5-0.24c2.84-1.15,4.84-3.15,6-5.99c0.26-0.63,0.26-0.63,0.99-0.52C10.57,114.82,6.3,119.15,3.15,119.66z
		 M20.34,119.62c-2.9-0.29-7.04-4.44-7.51-7.54c0.25-0.01,0.49-0.02,0.76-0.03c2.03,4.12,2.73,4.83,6.75,6.81
		C20.34,119.1,20.34,119.36,20.34,119.62z M19.74,116.44c0.2,0.1,0.4,0.21,0.62,0.33c0,0.32,0,0.64,0,0.96
		c-2.02-0.22-5.1-3.26-5.65-5.61c0.94-0.13,0.94-0.13,1.32,0.6C16.87,114.35,18.11,115.59,19.74,116.44z M18.87,111.16
		c-0.78,0.02-1.55,0-2.33,0s-1.55,0-2.33,0c-0.75,0-1.5,0-2.26,0c-0.78,0-1.55,0-2.33,0c-0.77,0-1.55,0-2.34,0
		c-0.76,2.08-2.05,3.64-4.11,4.67c0-0.39,0-0.67,0-1.03c1.72-1.02,2.9-2.55,3.39-4.64c4.35,0,8.65,0,13.04,0
		c-0.25-1.39-0.24-2.65,0.71-3.91c0.24,1.7-0.31,3.4,0.96,4.8C20.4,111.25,19.63,111.14,18.87,111.16z M23.66,111.1
		c-1.26-0.03-2.29-1.08-2.29-2.33c0-1.29,1.07-2.33,2.37-2.32c1.3,0.01,2.34,1.08,2.32,2.37C26.04,110.11,24.96,111.13,23.66,111.1z
		 M24.6,105.46c-1.12-0.05-2.21,0.02-3.05,0.8c-0.1-0.03-0.13-0.03-0.15-0.05c-0.02-0.01-0.03-0.04-0.04-0.06
		c-0.01-0.05-0.03-0.1-0.03-0.15c0-4.67,0-9.33,0-14.06c-2.03-0.78-3.65-2.04-4.61-4.04c0.63-0.27,0.87-0.26,1.12,0.14
		c1.02,1.6,2.45,2.62,4.27,3.12c0.04,0.01,0.08,0.05,0.2,0.14c0,4.4,0,8.86,0,13.36c2.16-0.22,3.1-0.04,3.85,0.81
		C25.57,105.46,25.09,105.48,24.6,105.46z M26.37,106.75c-0.06-0.08-0.09-0.17-0.12-0.24c0.02-0.05,0.03-0.08,0.05-0.1
		c0.01-0.02,0.04-0.03,0.06-0.04c0.07-0.01,0.15-0.03,0.22-0.03c4.49-0.01,8.98-0.02,13.47-0.03c0.02,0,0.05-0.01,0.15-0.04
		c0.73-1.97,2-3.54,4.06-4.56c0,0.4,0,0.69,0,0.98c-2.24,1.77-2.51,2.13-3.42,4.66c-4.31,0-8.61,0-13.01,0
		c0.31,1.42,0.22,2.68-0.67,3.92c-0.06-0.25-0.11-0.4-0.11-0.55c-0.01-0.53-0.02-1.06,0.01-1.58
		C27.1,108.27,26.89,107.47,26.37,106.75z M27.07,119.62c0-0.24,0-0.48,0-0.76c0.2-0.09,0.4-0.18,0.6-0.27
		c2.77-1.15,4.73-3.12,5.87-5.89c0.28-0.68,0.28-0.68,1.07-0.56C33.95,115.41,29.92,119.41,27.07,119.62z M27.04,117.4
		c0-0.2,0.02-0.4,0.03-0.6c0.21-0.11,0.41-0.22,0.6-0.32c1.65-0.86,2.9-2.11,3.75-3.77c0.37-0.72,0.37-0.72,1.4-0.56
		c-1.12,2.76-2.97,4.63-5.72,5.72C27.07,117.64,27.04,117.52,27.04,117.4z M44.26,119.57c-2.55,0.09-6.8-4.09-7.54-7.48
		c0.29,0,0.53,0,0.85,0c0.55,1.56,1.38,2.96,2.57,4.15c1.17,1.17,2.56,1.99,4.12,2.58C44.26,119.09,44.26,119.33,44.26,119.57z
		 M43.67,116.46c0.2,0.1,0.39,0.21,0.6,0.32c0,0.33,0,0.65,0,0.97c-2.18-0.38-5.21-3.42-5.63-5.6c0.89-0.21,0.9-0.2,1.28,0.53
		C40.77,114.34,42.02,115.6,43.67,116.46z M31.21,111.13c-0.55,1.54-1.39,2.83-2.66,3.8c-0.43,0.33-0.91,0.59-1.39,0.91
		c-0.22-0.91-0.22-0.91,0.39-1.33c1.31-0.89,2.22-2.08,2.71-3.59c0.25-0.76,0.25-0.76,1.1-0.76c3.74,0,7.47,0,11.21,0
		c0.29,0,0.59,0,0.96,0c-0.3-1.39-0.23-2.63,0.65-3.84c0.05,0.25,0.11,0.4,0.11,0.55c0.01,0.53,0.02,1.05,0,1.58
		c-0.03,0.83,0.16,1.59,0.63,2.28c0.07,0.1,0.11,0.21,0.21,0.41C40.45,111.13,35.86,111.13,31.21,111.13z M47.6,111.1
		c-1.29-0.02-2.33-1.1-2.31-2.37c0.03-1.28,1.09-2.3,2.39-2.28c1.29,0.02,2.33,1.08,2.31,2.36C49.96,110.09,48.88,111.13,47.6,111.1
		z M49.64,105.45c-0.43,0.01-0.85,0.01-1.28,0.01c-1.62,0-1.62,0-3.02,0.8c-0.2-0.29-0.12-0.62-0.12-0.92
		c-0.01-3.84,0-7.68-0.01-11.51c0-0.43-0.02-0.85,0.01-1.28c0.03-0.47-0.15-0.72-0.59-0.89c-1.49-0.59-2.66-1.58-3.54-2.92
		c-0.18-0.27-0.32-0.56-0.48-0.84c0.71-0.27,0.88-0.25,1.18,0.21c0.98,1.52,2.35,2.51,4.09,3c0.09,0.03,0.18,0.07,0.35,0.14
		c0,4.44,0,8.9,0,13.43c1.39-0.28,2.66-0.25,3.87,0.66C49.89,105.39,49.76,105.45,49.64,105.45z M51.3,105.21
		c-1.06-1.07-2.36-1.57-3.86-1.55c-0.07,0-0.15-0.03-0.32-0.06c0-4.38,0-8.71,0-13.09c-1.83-0.3-3.35-1.06-4.44-2.64
		c0.47-0.2,0.89-0.26,1.22,0.08c1.1,1.12,2.45,1.61,3.99,1.64c0.05,0,0.09,0.04,0.24,0.11c0.03,1.39,0.01,2.84,0.01,4.28
		c0,1.43,0,2.86,0,4.29c0,1.45,0,2.9,0,4.32c0.87,0.33,1.71,0.58,2.48,0.96c0.79,0.38,1.44,0.98,1.96,1.82
		C52.08,105.47,51.68,105.59,51.3,105.21z M51.04,97.93c2.79,0.22,6.81,4.19,7.49,7.48c-0.17,0.02-0.29,0.04-0.41,0.04
		c-0.12,0-0.25-0.02-0.39-0.03c-0.08-0.16-0.16-0.32-0.23-0.47c-1.14-2.85-3.14-4.84-5.97-6.01C50.9,98.68,50.9,98.68,51.04,97.93z
		 M51.03,99.77c2.5,0.64,5.23,3.63,5.56,5.58c-0.86,0.22-0.88,0.21-1.27-0.53c-0.85-1.62-2.08-2.86-3.71-3.71
		C50.89,100.72,50.9,100.72,51.03,99.77z M54.58,105.33c-0.76,0.23-0.8,0.23-1.21-0.38c-0.92-1.36-2.17-2.27-3.73-2.77
		c-0.19-0.06-0.37-0.13-0.61-0.21c0-4.46,0-8.89,0-13.43c-1.4,0.3-2.68,0.24-3.93-0.69c0.27-0.06,0.42-0.12,0.57-0.12
		c0.38-0.01,0.76-0.05,1.13,0c1.12,0.16,2.14-0.06,3.02-0.74c0.06,0.02,0.09,0.03,0.11,0.04c0.02,0.01,0.04,0.03,0.04,0.05
		c0.01,0.05,0.03,0.1,0.03,0.15c0,4.66,0,9.33,0,14.02C52.8,102.66,54.04,103.78,54.58,105.33z M51.28,80.85
		c-1.06-1.07-2.38-1.53-3.88-1.54c-0.07,0-0.14-0.03-0.28-0.07c0-4.32,0-8.65,0-13.05c-1.84-0.33-3.39-1.07-4.49-2.71
		c0.59-0.11,1.02-0.14,1.44,0.29c0.96,0.97,2.15,1.43,3.52,1.45c0.1,0,0.2,0,0.3,0.02c0.05,0.01,0.09,0.04,0.23,0.11
		c0,4.3,0,8.66,0,13.04c1.26,0.2,2.37,0.58,3.29,1.36c0.41,0.35,0.77,0.76,1.1,1.22C52.07,81.07,51.67,81.24,51.28,80.85z
		 M51.02,73.56c3.38,0.77,6.76,4.2,7.5,7.49c-0.27,0-0.54,0-0.84,0c-1.19-3.26-3.43-5.48-6.69-6.67c-0.01-0.21-0.03-0.38-0.03-0.55
		C50.96,73.74,51,73.65,51.02,73.56z M51.05,75.47c2.1,0.37,4.99,3.21,5.6,5.6c-0.35,0-0.65,0-1,0c-0.1-0.17-0.21-0.36-0.31-0.55
		c-0.85-1.66-2.11-2.9-3.76-3.77C50.85,76.36,50.85,76.36,51.05,75.47z M53.57,79.33c0.42,0.49,0.8,1.02,1.06,1.63
		c-0.82,0.24-0.86,0.23-1.26-0.36c-0.91-1.33-2.13-2.25-3.67-2.73c-0.19-0.06-0.38-0.13-0.64-0.22c0-4.44,0-8.9,0-13.46
		c-1.43,0.32-2.7,0.23-3.83-0.6c0.01-0.07,0.02-0.13,0.03-0.2c0.62,0,1.24-0.04,1.85,0.01c0.96,0.07,1.84-0.1,2.63-0.69
		c0.05-0.04,0.13-0.04,0.28-0.08c0,4.79,0,9.54,0,14.32C51.42,77.47,52.62,78.22,53.57,79.33z M51.26,56.51
		c-1.03-1.02-2.27-1.53-3.72-1.5c-0.1,0-0.2-0.02-0.43-0.05c0-4.4,0-8.75,0-13.13c-1.87-0.29-3.37-1.08-4.49-2.71
		c0.54-0.09,0.94-0.2,1.32,0.19c1.03,1.05,2.29,1.59,3.78,1.56c0.1,0,0.19,0.03,0.4,0.07c0.06,1.44,0.02,2.88,0.03,4.32
		c0.01,1.45,0,2.91,0,4.36c0,1.45,0,2.9,0,4.41c1.84,0.29,3.35,1.05,4.47,2.65C52.05,56.82,51.64,56.88,51.26,56.51z M51,49.25
		c3.24,0.62,6.78,4.12,7.52,7.45c-0.79,0.12-0.79,0.12-1.02-0.45c-1.17-2.9-3.22-4.91-6.12-6.05c-0.12-0.05-0.23-0.1-0.37-0.17
		C51,49.77,51,49.52,51,49.25z M50.99,51c2.74,1.11,4.6,2.94,5.71,5.66c-0.99,0.21-1.01,0.2-1.37-0.49
		c-0.86-1.65-2.1-2.91-3.76-3.76c-0.16-0.08-0.31-0.16-0.46-0.25c-0.04-0.02-0.08-0.06-0.12-0.1C50.99,51.76,50.99,51.45,50.99,51z
		 M58.53,39.1c-0.56,2.89-3.75,6.72-7.5,7.55c-0.02-0.09-0.06-0.18-0.06-0.28c0-0.17,0.02-0.34,0.03-0.5
		c4.15-2.1,4.58-2.52,6.76-6.78C58,39.1,58.26,39.1,58.53,39.1z M51.63,43.45c1.63-0.84,2.85-2.09,3.7-3.71
		c0.39-0.74,0.39-0.74,1.26-0.63c-0.03,1.87-3.22,5.14-5.57,5.67C50.9,43.83,50.89,43.82,51.63,43.45z M53.56,55
		c0.41,0.49,0.75,1.05,1.13,1.59c-0.72,0.28-0.93,0.27-1.19-0.12c-1-1.55-2.38-2.55-4.14-3.05c-0.09-0.03-0.18-0.08-0.34-0.15
		c0-4.44,0-8.9,0-13.4c-1.42,0.28-2.71,0.24-3.97-0.74c0.6-0.15,1.09-0.12,1.56-0.08c1.18,0.1,2.3,0.04,3.39-0.89
		c0.04,1.37,0.01,2.56,0.02,3.75c0,1.18,0,2.36,0,3.54c0,1.2,0,2.41,0,3.61c0,1.18,0,2.35,0,3.57C51.41,53.14,52.63,53.87,53.56,55z
		 M45.29,35.77c0-1.27,1.07-2.33,2.35-2.33c1.27,0,2.35,1.07,2.34,2.34c0,1.26-1.1,2.35-2.35,2.35
		C46.37,38.12,45.29,37.03,45.29,35.77z M49.56,32.44c-0.4,0.01-0.8,0-1.2,0c-1.55,0-1.66,0.03-3,0.82
		c-0.2-0.26-0.12-0.57-0.12-0.85c0-4.14,0.02-8.28,0.03-12.42c0-0.18-0.02-0.35,0-0.53c0.09-0.56-0.13-0.84-0.67-1.05
		c-1.54-0.61-2.73-1.67-3.6-3.07c-0.11-0.17-0.2-0.35-0.28-0.53c-0.03-0.06-0.02-0.14-0.04-0.26c0.43-0.07,0.81-0.2,1.11,0.29
		c0.97,1.57,2.37,2.56,4.13,3.06c0.07,0.02,0.14,0.05,0.21,0.08c0.02,0.01,0.03,0.03,0.12,0.12c0,4.44,0,8.95,0,13.56
		c1.38-0.32,2.64-0.23,3.89,0.65C49.86,32.39,49.71,32.43,49.56,32.44z M51.23,32.14c-1.01-1-2.25-1.48-3.66-1.49
		c-0.07,0-0.15,0-0.22-0.02c-0.05-0.01-0.09-0.04-0.2-0.09c0-4.38,0-8.78,0-13.12c-0.91-0.35-1.77-0.62-2.56-1.01
		c-0.79-0.39-1.41-1.01-1.95-1.83c0.54-0.12,0.95-0.2,1.32,0.19c1.01,1.04,2.25,1.56,3.7,1.56c0.12,0,0.24,0.03,0.46,0.06
		c0.06,4.42-0.01,8.82,0.04,13.32c1.85,0.28,3.33,1.06,4.46,2.64C52.04,32.46,51.63,32.54,51.23,32.14z M50.99,24.95
		c2.59-0.04,7,4.31,7.53,7.45c-0.25,0.01-0.49,0.03-0.81,0.04c-0.57-1.57-1.4-2.98-2.59-4.17c-1.17-1.17-2.56-1.99-4.12-2.56
		C50.99,25.44,50.99,25.2,50.99,24.95z M50.99,19.25c0.19-0.1,0.37-0.19,0.54-0.28c1.68-0.86,2.95-2.13,3.82-3.8
		c0.38-0.74,0.38-0.74,1.28-0.58c-0.23,2.01-3.07,4.93-5.61,5.69c-0.03-0.18-0.06-0.3-0.06-0.42
		C50.95,19.65,50.97,19.45,50.99,19.25z M51.5,21.09c2.84-1.15,4.83-3.15,5.99-5.99c0.26-0.63,0.26-0.63,0.99-0.54
		c0.02,2.62-4.35,7.07-7.49,7.54c-0.01-0.25-0.02-0.49-0.04-0.76C51.15,21.26,51.32,21.16,51.5,21.09z M51.04,26.8
		c2.14,0.4,5,3.22,5.61,5.61c-0.2,0.01-0.34,0.02-0.49,0.04c-0.37,0.05-0.57-0.12-0.76-0.45c-0.43-0.73-0.9-1.45-1.44-2.1
		c-0.64-0.78-1.48-1.35-2.37-1.82C50.85,27.7,50.85,27.7,51.04,26.8z M47.63,8.9c1.28-0.01,2.35,1.04,2.36,2.32
		c0.01,1.26-1.07,2.36-2.33,2.37c-1.25,0.01-2.35-1.08-2.36-2.34C45.29,9.98,46.35,8.91,47.63,8.9z M47.07,14.52
		c0.97,0.11,1.84-0.09,2.63-0.65c0.05-0.04,0.13-0.05,0.28-0.1c0,4.84,0,9.64,0,14.49c2.06,0.8,3.7,2.03,4.66,4.05
		c-0.84,0.23-0.86,0.23-1.27-0.36c-0.94-1.38-2.22-2.29-3.8-2.79c-0.14-0.04-0.28-0.09-0.5-0.16c0-4.53,0-9.05,0-13.64
		c-2.08,0.28-3.13,0.06-3.91-0.84C45.85,14.5,46.47,14.45,47.07,14.52z M45.17,13.61c-4.71,0.02-9.32,0-13.92,0.01
		c-1.4,2.77-2.64,4.13-4.15,4.57c-0.15-0.53-0.08-0.91,0.46-1.25c1.36-0.86,2.25-2.12,2.75-3.65c0.06-0.19,0.12-0.38,0.22-0.67
		c2.16-0.01,4.33,0,6.5,0c2.15,0,4.3,0,6.54,0c-0.33-1.39-0.23-2.63,0.63-3.85c0.06,0.25,0.11,0.4,0.12,0.55
		c0.01,0.53,0.02,1.05,0,1.58c-0.02,0.85,0.17,1.64,0.67,2.34C45.03,13.31,45.07,13.4,45.17,13.61z M44.04,7.61
		c-1,0.98-1.47,2.19-1.51,3.58c0,0.15-0.04,0.29-0.08,0.5c-4.2,0-8.38,0-12.66,0c-0.29,1.9-1.05,3.41-2.7,4.54
		c-0.05-0.53-0.19-0.94,0.2-1.32c1.07-1.06,1.56-2.37,1.56-3.87c0-0.07,0.02-0.15,0.04-0.29c4.2,0,8.41,0,12.54,0
		c0.34-0.89,0.6-1.73,0.97-2.51c0.38-0.79,0.98-1.42,1.81-1.96C44.32,6.82,44.42,7.23,44.04,7.61z M44.27,0.37
		c0.01,0.25,0.02,0.49,0.04,0.79c-1.55,0.58-2.95,1.38-4.12,2.55c-1.17,1.17-2.01,2.55-2.59,4.14c-0.26,0-0.53,0-0.79,0
		C36.91,5.15,41.24,0.79,44.27,0.37z M43.65,3.56c-1.82,0.96-3.12,2.39-3.98,4.3c-0.33,0-0.67,0-1.12,0c1.1-2.73,2.94-4.58,5.66-5.7
		C44.38,3.18,44.38,3.18,43.65,3.56z M27.09,0.35c2.72,0.53,6.55,3.54,7.54,7.51c-0.15,0.02-0.24,0.05-0.34,0.05
		c-0.15,0-0.3-0.02-0.5-0.03c-1.19-3.26-3.42-5.51-6.7-6.7C27.09,0.88,27.09,0.62,27.09,0.35z M27.08,3.24c0-0.38,0-0.69,0-1.12
		c2.77,1.12,4.64,2.97,5.75,5.74c-0.43,0-0.75,0-1.11,0C30.77,5.73,29.2,4.18,27.08,3.24z M30.88,8.79c1.53,0,3.06,0,4.59,0
		c1.55,0,3.1,0,4.71,0c0.77-2.03,2.04-3.6,4.04-4.59c0.15,0.58,0.15,0.96-0.37,1.29c-1.41,0.9-2.32,2.18-2.81,3.78
		c-0.05,0.16-0.12,0.32-0.2,0.56c-4.3,0-8.6,0-13.06,0c0.28,1.03,0.32,1.92-0.03,2.79c-0.14,0.36-0.33,0.7-0.5,1.05
		c-0.06-0.01-0.11-0.02-0.17-0.03c-0.02-0.21-0.05-0.41-0.06-0.62c-0.01-0.48-0.02-0.95,0.01-1.43c0.05-0.86-0.15-1.64-0.65-2.34
		c-0.07-0.09-0.11-0.21-0.23-0.43C27.8,8.77,29.34,8.8,30.88,8.79z M23.74,8.9c1.29,0,2.33,1.05,2.33,2.34
		c0,1.27-1.08,2.35-2.34,2.35c-1.25-0.01-2.35-1.11-2.34-2.36C21.38,9.95,22.45,8.9,23.74,8.9z M21.32,14.5
		c0.51,0,1.03-0.04,1.53,0.01c1.13,0.12,2.2,0.01,3.23-0.9c0.02,0.46,0.04,0.74,0.04,1.03c0,4.14,0,8.28,0,12.41
		c0,0.18,0.02,0.35,0,0.53c-0.06,0.52,0.14,0.8,0.65,1c1.61,0.65,2.84,1.76,3.72,3.26c0.09,0.15,0.14,0.31,0.24,0.51
		c-0.64,0.21-1,0.04-1.34-0.47c-0.85-1.3-2.05-2.18-3.54-2.66c-0.21-0.07-0.42-0.14-0.73-0.24c0-1.1-0.01-2.22-0.01-3.34
		c0-1.15,0-2.31,0-3.46c0-1.13,0-2.26,0-3.39c0-1.13,0-2.25,0-3.46c-1.39,0.24-2.7,0.26-3.8-0.65
		C21.31,14.63,21.31,14.56,21.32,14.5z M21.11,13.3c0.04,0.05,0.05,0.13,0.11,0.32c-2.37,0.01-4.69,0-7,0c-2.31,0-4.61,0-6.89,0
		c-1.29,2.69-2.7,4.22-4.15,4.55c-0.19-0.55-0.04-0.91,0.48-1.24c1.34-0.85,2.21-2.09,2.71-3.59c0.07-0.21,0.14-0.42,0.23-0.71
		c4.31,0,8.61,0,13.02,0c-0.23-1.38-0.26-2.66,0.68-3.88c0.06,0.26,0.11,0.41,0.12,0.56c0.01,0.48,0.03,0.96,0,1.43
		C20.35,11.68,20.54,12.54,21.11,13.3z M20.19,7.52c-1.07,1.07-1.58,2.36-1.58,3.86c0,0.07-0.04,0.14-0.08,0.3
		c-4.19,0-8.39,0-12.64,0c-0.3,1.89-1.06,3.42-2.7,4.55c-0.13-0.61-0.13-1.03,0.29-1.45c0.94-0.94,1.41-2.11,1.43-3.45
		c0-0.17,0.02-0.34,0.04-0.58c4.23,0,8.43,0,12.7,0c0.28-1.84,1.05-3.35,2.64-4.46C20.47,6.77,20.54,7.17,20.19,7.52z M20.32,0.38
		c0.17,0.74,0.17,0.75-0.46,1.01C17,2.54,15,4.57,13.86,7.43c-0.06,0.14-0.12,0.27-0.21,0.47c-0.2,0-0.35,0.01-0.49,0
		c-0.1-0.01-0.19-0.03-0.29-0.05C13.3,4.82,17.44,0.69,20.32,0.38z M19.85,3.5c-1.71,0.87-2.99,2.17-3.86,3.88
		c-0.08,0.16-0.16,0.31-0.26,0.49c-0.36,0-0.66,0-0.96,0c0.19-2.02,3.38-5.23,5.55-5.62C20.53,3.11,20.51,3.17,19.85,3.5z M3.18,0.4
		c2.64,0.03,6.94,4.26,7.52,7.47c-0.3,0-0.54,0-0.8,0C9.81,7.68,9.72,7.51,9.65,7.32C8.49,4.52,6.51,2.55,3.71,1.4
		C3.09,1.14,3.09,1.14,3.18,0.4z M5.91,5.11C5.06,4.39,4.12,3.77,3.14,3.05c0-0.17,0-0.46,0-0.76c1.77,0.1,5.15,3.06,5.67,5.57
		C8.68,7.88,8.56,7.9,8.44,7.9c-0.2,0-0.4-0.01-0.64-0.03C7.33,6.85,6.77,5.85,5.91,5.11z M9.3,8.79c2.3,0,4.61,0,6.97,0
		c0.79-2.07,2.05-3.61,4-4.57c0.25,0.72,0.24,0.88-0.17,1.14c-1.57,1.01-2.57,2.42-3.07,4.21c-0.01,0.05-0.04,0.09-0.12,0.23
		c-1.01,0.06-2.08,0.02-3.15,0.02c-1.1,0.01-2.21,0-3.31,0c-1.08,0-2.16,0-3.23,0c-1.07,0-2.15,0-3.32,0
		c0.33,1.41,0.25,2.68-0.75,3.79c-0.01-0.26-0.03-0.51-0.04-0.77c-0.01-0.38-0.03-0.75,0.01-1.13C3.2,10.76,3,9.89,2.4,9.11
		C2.36,9.06,2.35,8.98,2.3,8.8C4.67,8.78,6.98,8.8,9.3,8.79z"/>
</g>
<g>
	<path class="st3" d="M71.98,19.09v3.55c5.92,1.88,11.34,5.16,15.85,9.67c4.51,4.52,7.79,9.94,9.67,15.86h-3.63
		c-3.61-10.19-11.7-18.28-21.89-21.9v3.63c4.08,1.61,7.82,4.06,11.01,7.25c3.19,3.19,5.64,6.94,7.25,11.01H86.5
		c-2.91-6.42-8.1-11.61-14.52-14.52c-1.11-0.5-2.25-0.94-3.42-1.3V14.74c1.15,0.21,2.3,0.47,3.42,0.77
		c7.76,2.07,14.87,6.14,20.69,11.96c5.83,5.82,9.9,12.93,11.97,20.69h-3.57C96.98,34.2,85.95,23.17,71.98,19.09"/>
	<path class="st3" d="M18.94,48.17h3.55c1.88-5.92,5.16-11.34,9.68-15.86c4.51-4.51,9.94-7.8,15.85-9.67v3.63
		c-10.19,3.61-18.28,11.71-21.9,21.9h3.63c1.61-4.08,4.06-7.82,7.25-11.02c3.19-3.19,6.93-5.64,11.01-7.25v3.74
		c-6.43,2.91-11.61,8.1-14.52,14.52c-0.5,1.11-0.94,2.25-1.3,3.42H14.59c0.22-1.15,0.47-2.3,0.77-3.42
		c2.07-7.76,6.14-14.87,11.97-20.69c5.83-5.82,12.93-9.9,20.69-11.97v3.57C34.05,23.17,23.02,34.2,18.94,48.17"/>
	<path class="st3" d="M51.44,87.94v17.61c-1.15-0.21-2.3-0.47-3.42-0.77c-7.76-2.06-14.86-6.14-20.69-11.96
		c-5.83-5.83-9.9-12.93-11.97-20.7h3.57c4.08,13.97,15.11,25,29.08,29.08v-3.56c-5.92-1.88-11.34-5.16-15.85-9.67
		c-4.51-4.51-7.79-9.94-9.68-15.86h3.63c3.61,10.19,11.7,18.28,21.89,21.9v-3.63c-4.08-1.61-7.82-4.06-11.01-7.25
		c-3.19-3.19-5.64-6.94-7.25-11.02h3.74c2.91,6.42,8.1,11.61,14.52,14.52C49.12,87.15,50.27,87.58,51.44,87.94"/>
	<path class="st3" d="M58.29,82.32v26.65h-3.42V85.29c-1.17-0.24-2.32-0.56-3.42-0.95c-1.18-0.42-2.33-0.92-3.42-1.5
		c-4.55-2.41-8.3-6.16-10.71-10.72h3.96c1.74,2.71,4.05,5.02,6.75,6.75c1.08,0.69,2.23,1.3,3.42,1.8c1.1,0.46,2.24,0.83,3.42,1.11
		C55.98,82.05,57.12,82.23,58.29,82.32"/>
	<path class="st3" d="M74.51,48.17h-4.84c-0.36-0.29-0.73-0.56-1.11-0.82c-1.06-0.71-2.2-1.29-3.42-1.73
		c-1.09-0.39-2.24-0.65-3.42-0.79c-0.56-0.06-1.13-0.09-1.71-0.09s-1.15,0.03-1.71,0.09c-1.19,0.13-2.33,0.4-3.42,0.79V7.91h3.42
		v33.5c0.56-0.05,1.13-0.08,1.71-0.08c0.58,0,1.15,0.03,1.71,0.08c1.18,0.11,2.32,0.32,3.42,0.63c1.19,0.34,2.34,0.79,3.42,1.35
		c1.23,0.63,2.37,1.39,3.42,2.26C72.9,46.41,73.75,47.25,74.51,48.17"/>
	<path class="st3" d="M82.69,48.17h-3.96c-1.74-2.71-4.04-5.02-6.75-6.75c-1.08-0.69-2.23-1.3-3.42-1.8
		c-1.1-0.46-2.24-0.83-3.42-1.11c-1.11-0.26-2.25-0.45-3.42-0.53V11.32h3.42V35c1.17,0.24,2.32,0.56,3.42,0.95
		c1.18,0.42,2.33,0.92,3.42,1.5C76.53,39.87,80.28,43.62,82.69,48.17"/>
	<path class="st3" d="M112.24,55.02v3.42h-33.5c0.05,0.56,0.08,1.13,0.08,1.71c0,0.58-0.03,1.15-0.08,1.72
		c-0.1,1.18-0.32,2.32-0.63,3.42c-0.34,1.19-0.79,2.34-1.35,3.42c-0.63,1.23-1.39,2.37-2.26,3.42c-0.76,0.92-1.6,1.76-2.52,2.52
		v-4.84c0.29-0.35,0.56-0.72,0.81-1.1c0.71-1.05,1.29-2.2,1.73-3.42c0.39-1.09,0.65-2.24,0.79-3.42c0.06-0.56,0.1-1.14,0.1-1.72
		c0-0.58-0.03-1.15-0.09-1.71c-0.13-1.19-0.4-2.33-0.78-3.42H112.24z"/>
	<path class="st3" d="M108.83,61.87v3.42H85.15c-0.24,1.17-0.56,2.31-0.95,3.42c-0.42,1.18-0.92,2.33-1.51,3.42
		c-2.41,4.55-6.16,8.29-10.71,10.71v-3.96c2.7-1.74,5.01-4.04,6.75-6.75c0.69-1.08,1.3-2.23,1.8-3.42c0.46-1.1,0.84-2.24,1.12-3.42
		c0.26-1.11,0.45-2.25,0.54-3.42H108.83z"/>
	<path class="st3" d="M105.41,68.71c-0.21,1.15-0.47,2.3-0.77,3.42c-2.07,7.75-6.14,14.86-11.96,20.68
		c-5.82,5.82-12.93,9.9-20.69,11.96v-3.57c13.97-4.08,25-15.11,29.08-29.07H97.5c-1.88,5.92-5.16,11.33-9.67,15.84
		c-4.52,4.51-9.94,7.79-15.85,9.67v-3.63c10.19-3.61,18.28-11.7,21.89-21.88h-3.63c-1.61,4.07-4.06,7.81-7.25,11
		c-3.19,3.19-6.94,5.64-11.01,7.25v-3.74c6.42-2.91,11.6-8.09,14.52-14.51c0.5-1.11,0.94-2.25,1.3-3.42H105.41z"/>
	<path class="st3" d="M71.98,60.15v55.66h-3.42V60.15c0-4.72-3.84-8.55-8.55-8.55h8.37C70.6,53.77,71.98,56.8,71.98,60.15"/>
	<path class="st3" d="M115.66,48.17v3.42H60c-4.72,0-8.55,3.84-8.55,8.55v-8.37c2.17-2.22,5.21-3.6,8.55-3.6H115.66z"/>
	<path class="st3" d="M68.55,60.15v8.37c-2.17,2.22-5.21,3.6-8.55,3.6H4.34V68.7H60C64.72,68.7,68.55,64.86,68.55,60.15"/>
	<path class="st3" d="M60,68.7h-8.37c-2.22-2.18-3.6-5.21-3.6-8.55V4.49h3.42v55.66C51.45,64.86,55.28,68.7,60,68.7"/>
	<path class="st3" d="M65.13,74.66v37.73h-3.42v-33.5c-0.56,0.05-1.13,0.08-1.71,0.08c-0.58,0-1.15-0.03-1.71-0.08
		c-1.18-0.11-2.32-0.32-3.42-0.63c-1.19-0.34-2.34-0.79-3.42-1.35c-1.22-0.63-2.37-1.39-3.42-2.26c-0.92-0.76-1.77-1.6-2.53-2.53
		h4.84c0.36,0.29,0.73,0.56,1.11,0.82c1.06,0.71,2.2,1.29,3.42,1.73c1.09,0.39,2.24,0.65,3.42,0.79c0.56,0.06,1.13,0.09,1.71,0.09
		s1.15-0.03,1.71-0.09C62.9,75.32,64.05,75.05,65.13,74.66"/>
	<path class="st3" d="M48.02,37.45v3.96c-2.71,1.74-5.02,4.05-6.76,6.76c-0.69,1.08-1.29,2.23-1.79,3.42
		c-0.46,1.1-0.84,2.24-1.12,3.42c-0.26,1.11-0.44,2.25-0.53,3.42H11.17v-3.42h23.68c0.24-1.17,0.56-2.31,0.95-3.42
		c0.42-1.18,0.93-2.33,1.51-3.42C39.72,43.62,43.47,39.87,48.02,37.45"/>
	<path class="st3" d="M48.02,45.64v4.84c-0.29,0.36-0.56,0.73-0.82,1.11c-0.71,1.06-1.29,2.2-1.72,3.42
		c-0.39,1.09-0.65,2.24-0.78,3.42c-0.06,0.56-0.09,1.13-0.09,1.71c0,0.58,0.03,1.15,0.1,1.72c0.13,1.19,0.4,2.33,0.79,3.42H7.76
		v-3.42h33.5c-0.05-0.57-0.08-1.14-0.08-1.72c0-0.57,0.03-1.14,0.08-1.71c0.11-1.17,0.32-2.32,0.63-3.42
		c0.34-1.19,0.79-2.34,1.35-3.42c0.63-1.22,1.38-2.37,2.25-3.42C46.26,47.25,47.1,46.4,48.02,45.64"/>
</g>
</svg>
