<?xml version="1.0" encoding="utf-8"?>
<!-- Generator: Adobe Illustrator 25.4.1, SVG Export Plug-In . SVG Version: 6.00 Build 0)  -->
<svg version="1.1" id="Capa_1" xmlns="http://www.w3.org/2000/svg" xmlns:xlink="http://www.w3.org/1999/xlink" x="0px" y="0px"
	 viewBox="0 0 120 120" style="enable-background:new 0 0 120 120;" xml:space="preserve">
<style type="text/css">
	.st0{fill:#004947;}
	.st1{opacity:0.1;}
	.st2{fill:#FFFFFF;}
	.st3{fill:#004D43;}
</style>
<g class="st1">
	<path class="st0" d="M0.71,5.03c0.88,0.34,1.73,0.61,2.53,0.99c0.79,0.38,1.41,0.99,1.94,1.8c-0.62,0.13-1.06,0.1-1.5-0.34
		C2.78,6.6,1.64,6.18,0.28,6.12C0.25,6.37,0.23,6.6,0.2,6.86c0.87,0.23,1.76,0.29,2.55,1.03c-0.91,0-1.67,0-2.49,0
		c0,0.36,0,0.64,0,0.92c1.54,0.44,2.24,1.15,2.27,2.33c0.04,1.26-0.6,1.97-2.28,2.52c0,0.25,0,0.51,0,0.81
		c0.87,0.16,1.52-0.28,2.19-0.71c0.27,0.27,0.16,0.58,0.16,0.86c0.01,3.86,0.01,7.73,0.01,11.59c0,0.68,0,1.35,0,2.08
		c2.03,0.77,3.62,2.02,4.59,4c-0.81,0.26-0.86,0.26-1.27-0.35c-0.91-1.34-2.13-2.26-3.67-2.73c-0.77-0.24-0.67-0.32-0.67-0.94
		c0-3.99,0-7.98,0-11.97c0-0.3,0-0.6,0-0.96c-0.48,0.07-0.89,0.13-1.3,0.19c-0.09,0.36-0.21,0.66,0.23,0.84
		c0.09,0.04,0.15,0.24,0.17,0.38c0.03,0.2,0.01,0.4,0.01,0.6c0,3.81,0,7.63,0,11.44c0,0.27,0,0.55,0,0.91
		c1.82,0.29,3.35,1.05,4.48,2.66c-0.66,0.14-1.1,0.08-1.53-0.35c-0.91-0.89-2.04-1.31-3.39-1.36c-0.01,0.28-0.02,0.52-0.04,0.77
		c0.86,0.18,1.69,0.27,2.45,0.93c-0.85,0.16-1.61,0.01-2.41,0.11c0,0.31,0,0.59,0,0.87c1.55,0.44,2.24,1.16,2.27,2.34
		c0.03,1.25-0.57,1.93-2.28,2.52c0,0.25,0,0.51,0,0.8c0.88,0.15,1.53-0.3,2.19-0.72c0.25,0.28,0.16,0.59,0.16,0.87
		c0.01,4.17,0,8.33,0,12.5c0,0.32,0,0.64,0,0.97c2.07,0.77,3.61,2.04,4.59,3.97c-0.65,0.28-0.87,0.27-1.13-0.13
		c-1-1.55-2.39-2.55-4.15-3.05c-0.09-0.03-0.18-0.08-0.34-0.16c0-4.44,0-8.9,0-13.39c-0.47,0.08-0.87,0.14-1.28,0.2
		c-0.11,0.34-0.23,0.63,0.2,0.83c0.1,0.05,0.17,0.23,0.19,0.36c0.03,0.2,0.01,0.4,0.01,0.6c0,3.74,0,7.48,0,11.22
		c0,0.3,0,0.6,0,0.95c1.39,0.23,2.64,0.71,3.65,1.68c0.28,0.27,0.51,0.58,0.83,0.95c-0.64,0.19-1.05,0.13-1.47-0.27
		c-0.93-0.9-2.06-1.39-3.44-1.37c0,0.28,0,0.51,0,0.77c0.83,0.13,1.65,0.22,2.43,0.94c-0.91,0.03-1.67,0.05-2.45,0.08
		c0,0.31,0,0.55,0,0.84c0.13,0.05,0.26,0.12,0.4,0.15c1.22,0.32,1.92,1.19,1.89,2.37c-0.03,1.12-0.77,1.96-1.98,2.22
		c-0.07,0.02-0.15,0.03-0.28,0.06c0,0.27,0,0.56,0,0.84c0.65,0.11,0.65,0.11,2.29-0.69c0.1,0.97,0.03,1.91,0.05,2.85
		c0.01,0.95,0,1.91,0,2.86s0,1.91,0,2.86s0,1.91,0,2.86c0,0.95,0,1.9,0,2.9c2.05,0.76,3.62,2.03,4.61,4
		c-0.87,0.22-0.88,0.22-1.3-0.39c-0.9-1.3-2.1-2.21-3.61-2.69c-0.21-0.07-0.42-0.15-0.71-0.25c0-4.45,0-8.91,0-13.42
		c-0.49,0.07-0.88,0.13-1.32,0.2c-0.04,0.32-0.26,0.66,0.25,0.84c0.08,0.03,0.14,0.19,0.16,0.3c0.03,0.2,0.01,0.4,0.01,0.6
		c0,3.79,0,7.58,0,11.37c0,0.27,0,0.54,0,0.86c1.34,0.2,2.52,0.64,3.49,1.53c0.34,0.31,0.63,0.68,1.02,1.09
		c-0.68,0.15-1.12,0.11-1.56-0.32c-0.91-0.89-2.04-1.31-3.38-1.34c-0.03,0.25-0.05,0.46-0.07,0.72c0.82,0.26,1.71,0.27,2.51,1.01
		c-0.91,0-1.66,0-2.46,0c0,0.38,0,0.64,0,0.98c0.77,0.14,1.48,0.43,1.92,1.14c0.27,0.44,0.39,0.92,0.36,1.43
		c-0.07,1.12-0.77,1.82-2.27,2.22c0,0.27,0,0.55,0,0.88c0.43,0.07,0.81-0.04,1.17-0.2c0.36-0.16,0.7-0.36,1.17-0.61
		c0.02,1.66,0.01,3.23,0.01,4.8c0,1.61,0,3.21,0,4.82c0,1.58,0,3.16,0,4.77c2.06,0.77,3.63,2.03,4.61,4.01
		c-0.84,0.24-0.88,0.23-1.25-0.32c-0.95-1.41-2.23-2.35-3.86-2.84c-0.16-0.05-0.32-0.13-0.53-0.22c0-4.44,0-8.88,0-13.4
		c-0.48,0.08-0.89,0.15-1.32,0.23c-0.05,0.36-0.17,0.67,0.27,0.85c0.1,0.04,0.16,0.29,0.16,0.45c0.02,0.6,0.01,1.2,0.01,1.81
		c0,3.31,0,6.63,0,9.94c0,0.27,0,0.55,0,0.89c1.81,0.33,3.38,1.04,4.46,2.68c-0.62,0.15-1.03,0.09-1.45-0.31
		c-1.01-0.97-2.24-1.42-3.46-1.34c-0.01,0.23-0.02,0.46-0.04,0.72c0.86,0.18,1.72,0.23,2.48,0.99c-0.89,0-1.63,0-2.42,0
		c0,0.36,0,0.64,0,0.96c0.72,0.12,1.36,0.37,1.8,0.98c0.29,0.4,0.45,0.83,0.46,1.33c0.02,1.25-0.56,1.9-2.27,2.51
		c-0.02,0.13-0.05,0.28-0.05,0.42c0,0.12,0.03,0.24,0.05,0.39c0.87,0.15,1.51-0.32,2.18-0.72c0.25,0.27,0.16,0.58,0.16,0.87
		c0.01,2.83,0,5.66,0,8.48h1.38c0.01,0,0.02-0.01,0.03-0.01c3.85-1.31,6.48-3.89,7.92-7.68c0.03-0.09,0.08-0.18,0.13-0.27
		c0.01-0.02,0.04-0.03,0.15-0.1c0.08,0.19,0.15,0.34,0.21,0.51c1.4,3.66,3.98,6.13,7.65,7.47c0.1,0.03,0.21,0.06,0.32,0.08h1.35
		c0-1.45,0-2.91,0-4.36c-2.62-1.23-4.08-2.56-4.58-4.13c0.8-0.2,0.8-0.2,1.21,0.41c0.92,1.36,2.16,2.29,3.72,2.78
		c0.19,0.06,0.37,0.14,0.61,0.22c0,1.69,0,3.38,0,5.07h0.91c0-1.94,0-3.87,0-5.82c-1.88-0.29-3.38-1.08-4.49-2.69
		c0.61-0.13,1.03-0.14,1.45,0.29c0.93,0.95,2.1,1.43,3.44,1.45c0.12,0,0.25,0.01,0.37,0.03c0.05,0.01,0.09,0.04,0.21,0.1
		c0,2.21,0,4.42,0,6.65h0.91c0-2.59,0-5.18,0-7.78c-1.39,0.27-2.67,0.24-3.92-0.72c0.28-0.05,0.43-0.09,0.59-0.1
		c0.43-0.01,0.85-0.04,1.28,0c1.06,0.1,2.05-0.06,2.96-0.82c0.05,0.23,0.12,0.38,0.12,0.53c0,2.96-0.01,5.92-0.01,8.88h1.37
		c0.06-0.01,0.11-0.03,0.16-0.05c3.72-1.31,6.3-3.79,7.73-7.47c0.06-0.16,0.13-0.32,0.21-0.51c0.33,0.12,0.32,0.44,0.41,0.66
		c1.35,3.33,3.68,5.68,7,7.05c0.28,0.12,0.58,0.2,0.85,0.31h1.37c0-1.14,0-2.28,0-3.42c0-0.32,0-0.64,0-0.99
		c-2.08-0.78-3.64-2.06-4.61-4.04c0.75-0.25,0.88-0.24,1.18,0.22c0.98,1.52,2.34,2.52,4.08,3.01c0.1,0.03,0.18,0.08,0.35,0.15
		c0,1.68,0,3.37,0,5.07h0.88c-0.01-1.92,0-3.85,0-5.82c-1.84-0.28-3.35-1.07-4.47-2.68c0.52-0.11,0.93-0.23,1.3,0.15
		c1.05,1.08,2.34,1.61,3.85,1.58c0.07,0,0.15,0.03,0.31,0.06c0.02,0.3,0.05,0.61,0.05,0.93c0,1.93,0,3.85,0,5.78h0.89
		c0-2.59,0-5.18,0-7.79c-1.41,0.3-2.69,0.24-3.8-0.6c0-0.06,0.01-0.12,0.01-0.18c0.43-0.01,0.87-0.04,1.3-0.02
		c1.18,0.05,2.36,0.1,3.44-0.9c0.09,1.15,0.04,2.11,0.05,3.07c0.01,0.95,0,1.91,0,2.86c0,0.98,0,1.96,0,2.93c0,0.21,0,0.42,0,0.63
		h1.4c0.07-0.02,0.14-0.04,0.2-0.06c3.54-1.28,6.03-3.61,7.47-6.99v-2.43c-1.31,0-2.63,0-3.97,0c-0.75,2.06-2.04,3.64-4.03,4.64
		c-0.22-0.83-0.21-0.9,0.26-1.21c1.49-0.98,2.46-2.33,2.95-4.03c0.03-0.09,0.06-0.19,0.14-0.42c1.55,0,3.1,0,4.65,0v-0.92
		c-1.79,0-3.58,0-5.38,0c-0.21,1.43-0.69,2.67-1.66,3.68c-0.29,0.3-0.56,0.63-1.02,0.78c-0.13-0.56-0.11-0.98,0.32-1.4
		c0.83-0.82,1.27-1.85,1.37-3.02c0.03-0.3,0.05-0.59,0.09-0.97c2.1,0,4.19,0,6.28,0v-0.94c-2.12,0-4.25,0-6.37,0
		c-0.3,0-0.59,0-0.87,0c0,0.74,0.04,1.41-0.01,2.07c-0.06,0.64-0.25,1.26-0.88,1.88c0-0.74-0.04-1.31,0.01-1.87
		c0.08-1.01-0.11-1.94-0.73-2.77c-0.04-0.05-0.04-0.13-0.09-0.32c2.49-0.01,4.93,0,7.37,0c0.52,0,1.05,0,1.58,0v-2.4
		c-1.43-3.34-3.89-5.66-7.39-6.94c-0.25-0.09-0.49-0.2-0.74-0.3c0.14-0.4,0.47-0.37,0.7-0.45c3.09-1.09,5.43-3.07,6.98-5.96
		c0.17-0.33,0.32-0.67,0.46-1.01v-2.46c-1.27,0-2.54,0-3.8,0c-0.58,0.93-1.08,1.85-1.7,2.69c-0.63,0.85-1.49,1.48-2.55,1.97
		c-0.16-0.61-0.09-0.99,0.44-1.33c1.33-0.85,2.22-2.08,2.71-3.59c0.07-0.21,0.14-0.43,0.23-0.71c1.55,0,3.11,0,4.67,0V84.9
		c-1.79,0-3.58,0-5.39,0c-0.29,1.93-1.07,3.4-2.63,4.5c-0.16-0.5-0.24-0.91,0.13-1.28c1.03-1.02,1.52-2.27,1.56-3.71
		c0-0.14,0.05-0.29,0.09-0.48c2.08,0,4.16,0,6.24,0v-0.88c-2.45,0-4.91,0-7.38,0c0.36,1.4,0.25,2.66-0.56,3.79
		c-0.07,0-0.13-0.01-0.2-0.01c0-0.54-0.04-1.08,0.01-1.62c0.09-1.07-0.1-2.04-0.75-2.91c-0.02-0.03,0-0.09,0-0.25
		c0.28,0,0.57,0,0.86,0c2.67,0,5.35,0,8.02,0v-2.51c-1.53-3.51-4.25-5.91-8.15-7.13c0.01-0.07,0.01-0.14,0.02-0.21
		c0.2-0.08,0.39-0.17,0.59-0.24c3.58-1.27,6.09-3.61,7.53-7.01v-2.42c-0.62,0-1.23,0-1.85,0c-0.7,0-1.4,0-2.13,0
		c-0.76,2.08-2.05,3.63-4.01,4.62c-0.25-0.85-0.25-0.87,0.37-1.29c1.36-0.92,2.28-2.16,2.76-3.73c0.05-0.17,0.11-0.33,0.17-0.49
		c0.01-0.02,0.03-0.04,0.13-0.14c1.5,0,3.03,0,4.56,0V60.6c-0.29,0-0.57,0-0.86,0c-0.75,0-1.51,0-2.26,0c-0.75,0-1.49,0-2.27,0
		c-0.28,1.87-1.06,3.37-2.66,4.49c-0.11-0.57-0.18-0.99,0.23-1.39c0.94-0.92,1.4-2.06,1.48-3.36c0.01-0.22,0.04-0.44,0.07-0.72
		c2.1,0,4.18,0,6.27,0v-0.93c-2.46,0-4.91,0-7.39,0c0.37,1.4,0.27,2.68-0.66,3.97c-0.04-0.35-0.09-0.54-0.09-0.72
		c0-0.58,0.02-1.15,0.02-1.73c0.01-0.88-0.31-1.66-0.83-2.32c0.03-0.08,0.04-0.1,0.05-0.12c0.01-0.02,0.04-0.03,0.06-0.04
		c0.05-0.01,0.1-0.03,0.15-0.03c2.89,0,5.79,0,8.69,0v-2.43c-1.43-3.33-3.87-5.64-7.36-6.92c-0.21-0.08-0.42-0.16-0.63-0.25
		c-0.04-0.02-0.07-0.07-0.11-0.12c0.06-0.32,0.36-0.3,0.57-0.38c2.31-0.79,4.25-2.12,5.78-4.03c0.72-0.89,1.29-1.87,1.74-2.91v-2.54
		c-1.32,0-2.63,0-3.95,0c-0.76,2.08-2.05,3.68-4.14,4.72c-0.02-0.38-0.03-0.66-0.05-1c1.77-1.04,2.93-2.56,3.45-4.66
		c0.9-0.05,1.82-0.02,2.74-0.02c0.65,0,1.3,0,1.95,0v-0.93c-1.78,0-3.56,0-5.35,0c-0.56,2.4-1.26,3.56-2.67,4.46
		c-0.15-0.44-0.25-0.87,0.12-1.23c1.08-1.06,1.56-2.36,1.58-3.86c0-0.1,0.04-0.19,0.07-0.35c2.08,0,4.17,0,6.25,0v-0.88
		c-2.13,0-4.26,0-6.39,0c-0.3,0-0.59,0-0.98,0c0.34,1.45,0.23,2.68-0.74,3.78c-0.01-0.42-0.05-0.83-0.03-1.25
		c0.07-1.22,0.04-2.41-0.82-3.35c0.06-0.09,0.07-0.12,0.08-0.14c0.02-0.02,0.04-0.04,0.06-0.04c0.1-0.02,0.2-0.04,0.3-0.04
		c2.84-0.01,5.68-0.01,8.52-0.02v-2.4c-1.45-3.35-3.92-5.68-7.45-6.95c-0.25-0.09-0.67-0.03-0.66-0.47
		c0.01-0.43,0.42-0.37,0.68-0.46c3.52-1.27,5.98-3.61,7.44-6.96v-2.5c-1.32,0-2.62,0-3.95,0c-0.8,2.13-2.06,3.7-4.06,4.66
		c-0.22-0.86-0.22-0.86,0.4-1.28c1.31-0.89,2.22-2.09,2.71-3.6c0.07-0.21,0.14-0.42,0.24-0.72c1.55,0,3.1,0,4.66,0V11.7
		c-0.88,0-1.76,0-2.65,0c-0.9,0-1.79,0-2.73,0c-0.27,1.88-1.07,3.38-2.64,4.5c-0.16-0.49-0.26-0.91,0.12-1.28
		c1.1-1.08,1.58-2.41,1.58-3.93c0-0.07,0.03-0.14,0.06-0.27c2.08,0,4.16,0,6.25,0V9.83c-2.16,0-4.33,0-6.49,0c-0.27,0-0.54,0-0.81,0
		c0.15,2.33,0.05,2.87-0.75,3.86c-0.04-0.25-0.08-0.42-0.09-0.6c-0.01-0.43-0.03-0.86,0.01-1.28c0.09-0.99-0.12-1.89-0.72-2.69
		c-0.04-0.05-0.05-0.13-0.1-0.32c1.01-0.04,1.97-0.01,2.93-0.02c0.98,0,1.96,0,2.93,0s1.96,0,2.93,0c0.05,0,0.1,0,0.15,0V6.38
		c-1.43-3.33-3.88-5.65-7.38-6.92C52-0.58,51.91-0.62,51.81-0.65h-1.42c0,1.47,0,2.92,0,4.39c2.11,0.78,3.7,2.06,4.68,4.08
		c-0.62,0.18-1,0.09-1.34-0.44c-0.85-1.34-2.09-2.21-3.59-2.71c-0.19-0.06-0.38-0.13-0.57-0.2c-0.02-0.01-0.03-0.04-0.12-0.13
		c0-1.65,0-3.32,0-4.99h-0.91c0,1.94,0,3.88,0,5.83c1.38,0.21,2.58,0.68,3.57,1.59c0.32,0.3,0.65,0.6,0.87,1.08
		C52.44,7.92,52.02,8,51.61,7.59c-0.98-0.99-2.2-1.45-3.59-1.48c-0.12,0-0.25-0.02-0.46-0.05c-0.08-0.87-0.03-1.74-0.04-2.61
		c-0.01-0.88,0-1.76,0-2.63c0-0.49,0-0.99,0-1.48h-0.91c0,2.57,0,5.17,0,7.82c1.46-0.39,2.7-0.23,3.81,0.69
		c-0.16,0.02-0.32,0.04-0.47,0.05c-0.53,0.01-1.05,0-1.58,0c-1.04,0-1.04,0-2.71,0.82c0-3.14,0-6.26,0-9.38h-1.38
		c-3.9,1.31-6.55,3.91-8,7.76c-0.03,0.07-0.06,0.13-0.1,0.2c-0.01,0.02-0.04,0.03-0.17,0.12c-0.71-2.05-1.79-3.8-3.33-5.26
		c-1.39-1.31-3.02-2.21-4.83-2.82h-1.34c0,1.47,0,2.93,0,4.41c1.46,0.54,2.67,1.31,3.62,2.46c0.4,0.48,0.77,0.98,0.99,1.58
		c-0.86,0.21-0.86,0.21-1.27-0.4c-0.91-1.33-2.13-2.24-3.66-2.74c-0.21-0.07-0.42-0.14-0.68-0.23c0-1.69,0-3.39,0-5.08h-0.89
		c0,1.94,0,3.87,0,5.82c1.85,0.28,3.36,1.05,4.48,2.66c-0.54,0.1-0.96,0.2-1.36-0.21c-1-1.01-2.24-1.49-3.65-1.51
		c-0.12,0-0.24-0.03-0.46-0.05c-0.05-1.45-0.02-2.9-0.02-4.34c0-0.79,0-1.58,0-2.37h-0.9c0,2.58,0,5.17,0,7.8
		c1.42-0.32,2.69-0.26,3.79,0.76c-0.34,0-0.68,0-1.01,0c-2.04,0-2.04,0-3.72,0.81c0-3.13,0-6.25,0-9.37h-1.52
		c-0.8,0.34-1.54,0.64-2.21,1.04c-0.9,0.53-1.77,1.16-2.52,1.87c-0.74,0.7-1.38,1.53-1.93,2.38c-0.55,0.85-0.94,1.81-1.45,2.84
		c-0.48-1.34-1.07-2.58-1.9-3.68c-0.85-1.13-1.86-2.1-3.03-2.89c-1-0.68-2.09-1.17-3.24-1.56H2.59c0,1.47,0,2.94,0,4.4
		c2.1,0.77,3.66,2.05,4.68,4.1c-0.4,0-0.69,0-1.01,0c-0.09-0.12-0.19-0.26-0.29-0.4C5.06,6.08,3.83,5.14,2.26,4.66
		C1.51,4.43,1.6,4.36,1.59,3.72c0-1.46,0-2.91,0-4.37H0.71c0,1.61,0,3.22,0,4.83C0.71,4.48,0.71,4.78,0.71,5.03z M51.42,116.91
		c0.89-0.64,1.77-1.22,2.57-1.88c0.76-0.63,1.3-1.45,1.75-2.32c0.37-0.73,0.37-0.73,1.28-0.57c-0.23,1.67-2.67,4.8-5.6,5.68
		C51.42,117.46,51.42,117.13,51.42,116.91z M58.1,112.1c0.28,0,0.54,0,0.81,0c-0.62,3.33-4.3,6.93-7.52,7.55
		c-0.01-0.25-0.03-0.49-0.04-0.79C54.64,117.66,56.9,115.42,58.1,112.1z M58.92,87.77c-0.69,3.34-4.18,6.82-7.51,7.56
		c0-0.27,0-0.53,0-0.84c3.26-1.18,5.5-3.43,6.69-6.72C58.39,87.77,58.65,87.77,58.92,87.77z M51.92,92.17
		c1.7-0.88,2.99-2.16,3.85-3.88c0.33-0.66,0.41-0.68,1.34-0.43c-1.08,2.69-2.92,4.55-5.59,5.63C51.19,92.71,51.25,92.51,51.92,92.17
		z M57.97,63.76c0.04-0.09,0.08-0.18,0.14-0.32c0.25,0,0.52,0,0.78,0c-0.51,3.08-4.07,6.84-7.47,7.53c-0.09-0.77-0.09-0.78,0.4-0.98
		C54.78,68.81,56.82,66.73,57.97,63.76z M52.02,67.78c1.63-0.85,2.86-2.1,3.71-3.72c0.38-0.72,0.37-0.72,1.27-0.6
		c-0.16,1.96-3.13,5-5.56,5.65C51.29,68.17,51.29,68.16,52.02,67.78z M51.41,0.36c3.07,0.47,6.75,4.13,7.54,7.5
		c-0.27,0.01-0.52,0.03-0.83,0.05c-1.2-3.29-3.43-5.54-6.71-6.73C51.41,0.88,51.41,0.63,51.41,0.36z M51.97,3.53
		c-0.72-0.37-0.73-0.4-0.52-1.28c2.23,0.48,5.19,3.45,5.58,5.62c-0.32,0-0.64,0-0.99,0c-0.09-0.17-0.19-0.35-0.27-0.52
		C54.91,5.67,53.65,4.4,51.97,3.53z M4.18,28.09c-0.72-0.38-0.72-0.38-0.61-1.27c1.74,0.17,4.95,2.9,5.64,5.55
		c-0.95,0.13-0.95,0.13-1.36-0.64C7,30.14,5.78,28.93,4.18,28.09z M4.08,21.09c2.84-1.15,4.83-3.15,5.99-5.99
		c0.26-0.64,0.26-0.64,1.03-0.51c-0.48,3.1-4.58,7.17-7.54,7.51c0-0.25,0-0.49,0-0.78C3.72,21.25,3.9,21.16,4.08,21.09z M3.56,20.22
		c0-0.32,0-0.63,0-0.97c0.19-0.1,0.39-0.2,0.59-0.31c1.65-0.86,2.91-2.11,3.76-3.77c0.38-0.74,0.38-0.74,1.28-0.6
		C9,16.57,5.76,19.85,3.56,20.22z M4.21,23.05c3.63-1.3,6.17-3.74,7.61-7.31c0.07-0.19,0.14-0.37,0.22-0.56
		c0.02-0.04,0.08-0.06,0.18-0.13c0.17,0.42,0.3,0.79,0.46,1.15c1.49,3.34,3.98,5.59,7.4,6.83c0.26,0.09,0.66,0.03,0.68,0.45
		c0.02,0.44-0.41,0.39-0.66,0.48c-3.64,1.29-6.16,3.74-7.62,7.3c-0.09,0.22-0.18,0.44-0.32,0.79c-0.14-0.31-0.24-0.51-0.32-0.71
		c-1.43-3.62-3.98-6.06-7.64-7.38c-0.25-0.09-0.67-0.04-0.67-0.47C3.53,23.08,3.95,23.14,4.21,23.05z M29.09,32.34
		c-0.53,0.11-0.93,0.23-1.31-0.15c-1.04-1.05-2.32-1.54-3.79-1.54c-0.1,0-0.19-0.04-0.36-0.07c0-4.41,0-8.81,0-13.28
		c-1.87-0.29-3.38-1.08-4.5-2.7c0.63-0.17,1.04-0.12,1.46,0.29c0.9,0.91,2.01,1.38,3.3,1.43c0.17,0.01,0.35,0.02,0.52,0.04
		c0.05,0,0.09,0.04,0.2,0.1c0,4.36,0,8.76,0,13.26C26.48,29.99,27.95,30.77,29.09,32.34z M27.48,20.22c0-0.32,0-0.63,0-0.99
		c0.19-0.1,0.38-0.2,0.58-0.3c1.65-0.86,2.91-2.11,3.76-3.76c0.38-0.73,0.38-0.73,1.32-0.6C32.58,16.99,29.62,19.81,27.48,20.22z
		 M33.99,15.06c0.26-0.63,0.27-0.63,1.01-0.46c-0.56,2.98-3.86,6.68-7.51,7.53c0-0.27,0-0.53,0-0.82c0.13-0.06,0.26-0.13,0.4-0.19
		C30.79,19.98,32.82,17.95,33.99,15.06z M27.68,23.2c0.09-0.07,0.23-0.09,0.35-0.13c3.7-1.29,6.27-3.76,7.72-7.4
		c0.06-0.16,0.14-0.32,0.21-0.48c0.01-0.02,0.03-0.03,0.14-0.14c0.12,0.26,0.21,0.46,0.29,0.66c1.44,3.59,3.99,6.01,7.61,7.33
		c0.26,0.09,0.67,0.03,0.68,0.46c0.01,0.44-0.41,0.38-0.66,0.47c-3.67,1.31-6.21,3.78-7.64,7.39c-0.07,0.18-0.15,0.36-0.27,0.65
		c-0.13-0.22-0.22-0.34-0.28-0.48c-1.43-3.74-4.05-6.27-7.83-7.58c-0.12-0.04-0.25-0.06-0.35-0.13c-0.09-0.07-0.2-0.2-0.18-0.28
		C27.48,23.41,27.58,23.28,27.68,23.2z M44.35,21.15c0.09,0.04,0.18,0.09,0.32,0.16c0,0.28,0,0.53,0,0.78
		c-2.82-0.46-6.76-3.84-7.5-7.48c0.73-0.17,0.76-0.17,0.98,0.38C39.32,17.94,41.38,20,44.35,21.15z M39.04,14.56
		c0.92-0.1,0.92-0.1,1.32,0.65c0.84,1.6,2.05,2.83,3.65,3.67c0.2,0.1,0.4,0.21,0.59,0.32c0.02,0.01,0.03,0.04,0.06,0.08
		c0,0.3,0,0.61,0,0.94C42.56,19.81,39.51,16.95,39.04,14.56z M50.44,56.71c-0.21,0.03-0.37,0.07-0.53,0.08c-0.35,0.01-0.7,0-1.05,0
		c-1.69,0-1.69,0-3.1,0.79c-0.21-0.25-0.13-0.56-0.13-0.84c-0.01-2.33-0.01-4.67-0.01-7c0-1.88-0.02-3.76,0.01-5.65
		c0.01-0.59-0.12-0.93-0.74-1.17c-1.51-0.6-2.67-1.67-3.53-3.05c-0.11-0.17-0.2-0.35-0.28-0.53c-0.03-0.06,0-0.14,0-0.25
		c0.42-0.06,0.81-0.18,1.11,0.31c0.97,1.57,2.37,2.55,4.14,3.05c0.07,0.02,0.14,0.05,0.3,0.12c0,4.45,0,8.92,0,13.41
		C48.77,55.76,49.58,55.91,50.44,56.71z M50.38,60.12c-0.01,1.28-1.07,2.31-2.36,2.3c-1.29-0.01-2.34-1.05-2.33-2.34
		c0.01-1.27,1.09-2.33,2.36-2.32C49.32,57.78,50.39,58.86,50.38,60.12z M50.49,80.99c-0.25,0.05-0.39,0.1-0.55,0.1
		c-0.35,0.01-0.7,0-1.05,0c-1.65,0-1.77,0.03-3.15,0.83c-0.2-0.26-0.12-0.57-0.12-0.85c-0.01-4.09,0-8.18,0-12.26
		c0-0.2-0.02-0.4,0-0.6c0.05-0.47-0.13-0.71-0.59-0.89c-1.56-0.63-2.78-1.68-3.66-3.11c-0.14-0.22-0.24-0.47-0.37-0.72
		c0.63-0.2,0.99-0.08,1.33,0.45c0.85,1.34,2.08,2.22,3.58,2.72c0.21,0.07,0.42,0.14,0.7,0.23c0,4.46,0,8.91,0,13.45
		C48,80.06,49.27,80.1,50.49,80.99z M50.38,84.45c0,1.26-1.09,2.34-2.36,2.34c-1.27-0.01-2.34-1.08-2.34-2.35
		c0.01-1.27,1.09-2.35,2.35-2.34C49.31,82.1,50.39,83.18,50.38,84.45z M24.62,98.33c0,1.45,0,2.9,0,4.38
		c1.43,0.23,2.67,0.72,3.68,1.7c0.27,0.27,0.5,0.58,0.82,0.96c-0.6,0.1-1,0.18-1.39-0.21c-1.02-1.03-2.28-1.52-3.73-1.51
		c-0.1,0-0.2-0.03-0.4-0.05c-0.01-4.35,0-8.7-0.01-12.97c-0.89-0.35-1.73-0.61-2.5-0.98c-0.79-0.39-1.42-1.01-1.95-1.8
		c0.5-0.19,0.91-0.23,1.28,0.14c1.04,1.06,2.31,1.55,3.78,1.58c0.1,0,0.19,0.03,0.38,0.07c0.06,1.44,0.02,2.89,0.03,4.33
		C24.63,95.42,24.62,96.88,24.62,98.33z M26.21,102.21c-0.21-0.07-0.42-0.14-0.7-0.24c0-4.46,0-8.91,0-13.45
		c-1.42,0.33-2.68,0.23-3.8-0.59c0-0.06,0.01-0.12,0.01-0.18c0.46-0.01,0.93-0.07,1.39-0.02c1.19,0.13,2.3,0.01,3.39-0.91
		c0.04,1.36,0.02,2.55,0.02,3.74c0,1.18,0,2.36,0,3.54c0,1.2,0,2.41,0,3.61c0,1.18,0,2.35,0,3.58c2.07,0.77,3.65,2.05,4.64,4.06
		c-0.65,0.22-1.01,0.08-1.35-0.44C28.95,103.58,27.72,102.71,26.21,102.21z M3.56,70.2c0.18-0.08,0.36-0.17,0.54-0.25
		c2.81-1.14,4.79-3.13,5.94-5.94c0.26-0.63,0.26-0.63,0.99-0.56c0.09,2.56-4.65,7.33-7.47,7.49C3.56,70.71,3.56,70.47,3.56,70.2z
		 M3.55,69.1c0-0.32,0-0.64,0-0.95c2.31-1.24,3.26-2.03,4.71-4.72c0.31,0,0.62,0,0.95,0C8.86,65.6,5.73,68.73,3.55,69.1z
		 M10.47,62.51c-0.92,0-1.85,0-2.8,0c-0.76,2.08-2.04,3.63-4.02,4.61c-0.23-0.82-0.23-0.88,0.26-1.2c1.48-0.98,2.47-2.32,2.95-4.04
		c0.03-0.12,0.1-0.23,0.18-0.4c4.29,0,8.6,0,12.99,0c-0.29-1.38-0.24-2.63,0.69-3.9c0.23,1.72-0.31,3.42,1.02,4.87
		c-1.09,0.11-2.01,0.05-2.92,0.06c-0.93,0.01-1.86,0-2.78,0s-1.86,0-2.78,0S11.4,62.51,10.47,62.51z M20.37,50.21
		c-2.88,1.14-4.9,3.14-6.09,6c-0.26,0.64-0.27,0.64-1.01,0.48c0.32-2.89,4.52-7.09,7.48-7.43c0.01,0.24,0.02,0.48,0.03,0.74
		C20.63,50.07,20.51,50.16,20.37,50.21z M20.78,52.08c-0.22,0.12-0.42,0.23-0.61,0.33c-1.62,0.84-2.86,2.08-3.71,3.69
		c-0.4,0.75-0.4,0.75-1.41,0.58c1.11-2.72,2.95-4.56,5.66-5.66c0.04,0.19,0.07,0.28,0.08,0.37C20.79,51.62,20.78,51.85,20.78,52.08z
		 M20.76,47.99c-0.92,0.42-1.89,0.76-2.75,1.27c-0.9,0.53-1.76,1.16-2.52,1.88c-0.73,0.7-1.38,1.53-1.93,2.38
		c-0.55,0.85-0.93,1.81-1.44,2.82c-1.5-4.21-4.37-6.97-8.57-8.26c0.01-0.41,0.31-0.37,0.49-0.45c0.77-0.35,1.59-0.63,2.32-1.04
		c2.57-1.44,4.35-3.57,5.44-6.3c0.08-0.21,0.18-0.41,0.27-0.61c0.01-0.02,0.04-0.03,0.14-0.09c1.48,4.16,4.35,6.9,8.58,8.22
		C20.78,47.88,20.77,47.93,20.76,47.99z M4.07,45.63c2.84-1.15,4.83-3.15,5.99-5.98c0.26-0.64,0.26-0.64,1.03-0.52
		c-0.44,3.05-4.49,7.1-7.54,7.53c-0.01-0.25-0.02-0.49-0.03-0.76C3.71,45.8,3.89,45.7,4.07,45.63z M3.56,44.76c0-0.32,0-0.63,0-0.97
		c0.2-0.1,0.39-0.21,0.59-0.31c1.65-0.86,2.9-2.11,3.76-3.76c0.38-0.74,0.38-0.74,1.32-0.59C8.63,41.5,5.72,44.4,3.56,44.76z
		 M20.74,45.82c0,0.28,0,0.54,0,0.8c-2.95-0.33-7.09-4.48-7.51-7.55c0.24-0.01,0.48-0.03,0.8-0.04
		C15.23,42.37,17.46,44.61,20.74,45.82z M15.14,39.17c0.81-0.25,0.9-0.22,1.23,0.44c0.87,1.74,2.18,3.04,3.91,3.92
		c0.15,0.08,0.31,0.16,0.48,0.25c0.01,0.21,0.03,0.4,0.03,0.6c0,0.12-0.03,0.24-0.05,0.36C18.64,44.44,15.54,41.34,15.14,39.17z
		 M17.08,39.2c0.74-0.26,0.89-0.24,1.18,0.22c0.98,1.52,2.34,2.52,4.07,3.02c0.1,0.03,0.19,0.07,0.36,0.14c0,4.45,0,8.93,0,13.41
		c2.14-0.22,2.95-0.07,3.85,0.75c-1.68,0.18-3.36-0.33-4.81,1.01c0-4.94,0-9.69,0-14.49C19.65,42.5,18.07,41.2,17.08,39.2z
		 M23.44,39.06c1.05,0.11,1.99-0.07,2.84-0.72c0.03-0.02,0.09,0,0.23,0c0,4.75,0,9.5,0,14.29c2.08,0.76,3.64,2.04,4.66,4.06
		c-0.64,0.19-1,0.09-1.32-0.41c-0.89-1.37-2.15-2.28-3.72-2.77c-0.19-0.06-0.37-0.14-0.61-0.22c0-4.46,0-8.91,0-13.37
		c-2.21,0.18-2.98,0.03-3.84-0.78C22.27,38.95,22.87,39,23.44,39.06z M21.77,35.77c0-1.27,1.07-2.34,2.35-2.33
		c1.29,0,2.34,1.06,2.34,2.34c0,1.27-1.07,2.35-2.34,2.35C22.87,38.13,21.77,37.03,21.77,35.77z M27.49,44.75
		c-0.02-0.12-0.05-0.24-0.05-0.36c0-0.2,0.02-0.39,0.03-0.61c0.21-0.11,0.41-0.21,0.61-0.31c1.65-0.86,2.9-2.12,3.75-3.77
		c0.38-0.73,0.38-0.73,1.28-0.58C32.86,40.97,30.01,44.26,27.49,44.75z M33.96,39.67c0.29-0.7,0.29-0.7,1.04-0.53
		c-0.63,3.22-4.09,6.75-7.53,7.53c0-0.32,0-0.56,0-0.82c0.18-0.08,0.33-0.16,0.49-0.22C30.8,44.49,32.8,42.5,33.96,39.67z
		 M28.12,47.58c2.96-1.04,5.24-2.9,6.79-5.62c0.42-0.73,0.74-1.53,1.13-2.35c0.08,0.11,0.18,0.21,0.22,0.32
		c1.44,3.83,4.09,6.4,7.97,7.71c0.16,0.05,0.3,0.14,0.54,0.27c-0.21,0.14-0.33,0.25-0.48,0.3c-3.92,1.29-6.58,3.9-8.03,7.75
		c-0.04,0.1-0.1,0.2-0.23,0.45c-1.52-4.3-4.42-7.02-8.64-8.35C27.58,47.67,27.88,47.67,28.12,47.58z M44.42,45.72
		c0.07,0.03,0.13,0.07,0.25,0.13c0,0.28,0,0.52,0,0.76c-2.89-0.27-7.08-4.45-7.51-7.47c0.73-0.18,0.76-0.18,0.98,0.37
		C39.32,42.51,41.42,44.57,44.42,45.72z M39.02,39.12c0.93-0.14,0.93-0.14,1.32,0.6c0.85,1.63,2.08,2.87,3.71,3.73
		c0.2,0.1,0.4,0.21,0.63,0.33c0,0.32,0,0.63,0,0.95C42.66,44.53,39.53,41.43,39.02,39.12z M44.16,69.95
		c0.62,0.25,0.62,0.26,0.44,1.01c-2.97-0.43-6.72-4.16-7.48-7.53c0.3,0,0.54,0,0.82,0c0.06,0.12,0.13,0.25,0.18,0.39
		C39.26,66.73,41.28,68.77,44.16,69.95z M39.05,63.48c0.91-0.15,0.91-0.15,1.28,0.57c0.85,1.62,2.07,2.87,3.7,3.72
		c0.2,0.1,0.4,0.21,0.62,0.33c0,0.34,0,0.67,0,1.01C42.3,68.53,39.36,65.56,39.05,63.48z M38.03,67.54
		c0.42,0.56,0.89,1.09,1.39,1.57c0.51,0.48,1.06,0.92,1.64,1.32c0.56,0.38,1.16,0.7,1.77,0.99c0.61,0.29,1.25,0.52,1.89,0.87
		c-1.98,0.73-3.77,1.67-5.27,3.11c-1.51,1.45-2.58,3.18-3.27,5.18c-0.35-0.13-0.34-0.44-0.43-0.67c-1.17-2.91-3.13-5.1-5.91-6.54
		c-0.55-0.29-1.15-0.49-1.72-0.73c-0.22-0.09-0.43-0.18-0.65-0.27c0-0.05,0-0.11,0-0.16c0.74-0.31,1.51-0.58,2.23-0.96
		c0.73-0.38,1.44-0.81,2.09-1.32c0.65-0.5,1.25-1.08,1.79-1.71c0.53-0.62,1-1.32,1.42-2.03c0.41-0.71,0.71-1.47,1.1-2.32
		c0.32,0.7,0.57,1.34,0.89,1.94C37.27,66.42,37.62,67,38.03,67.54z M44.19,78.72c-1.3,0.9-2.21,2.09-2.7,3.6
		c-0.07,0.21-0.15,0.42-0.25,0.7c-4.32,0-8.65,0-13.05,0c0.36,1.42,0.26,2.68-0.56,3.8c-0.06,0-0.13-0.01-0.19-0.01
		c0-0.56-0.04-1.13,0.01-1.69c0.08-1.04-0.11-1.99-0.75-2.84c-0.02-0.03-0.01-0.09-0.02-0.25c0.27,0,0.53,0,0.79,0
		c4.09,0,8.17-0.01,12.26,0.01c0.6,0,0.93-0.14,1.17-0.75c0.59-1.48,1.63-2.63,2.98-3.49c0.23-0.14,0.47-0.25,0.72-0.39
		C44.79,78.3,44.79,78.31,44.19,78.72z M44.33,80.93c-0.93,0.92-1.33,2.1-1.43,3.39c-0.01,0.17-0.02,0.34-0.04,0.6
		c-4.23,0-8.43,0-12.68,0c-0.2,1.36-0.65,2.55-1.54,3.52c-0.31,0.34-0.68,0.63-1.11,1.02c-0.17-0.64-0.17-1.06,0.25-1.47
		c0.95-0.94,1.38-2.13,1.45-3.45c0.01-0.17,0.02-0.35,0.04-0.6c4.22,0,8.42,0,12.68,0c0.29-1.85,1.06-3.35,2.65-4.46
		C44.76,80.09,44.75,80.51,44.33,80.93z M23.6,72.77c0-1.1,0-2.21,0-3.31c0-1.07,0-2.15,0-3.28c-1.83-0.32-3.36-1.07-4.47-2.69
		c0.51-0.1,0.92-0.23,1.3,0.16c1.05,1.08,2.34,1.59,3.85,1.58c0.07,0,0.15,0.03,0.33,0.07c0,4.37,0,8.7,0,13.08
		c1.83,0.29,3.35,1.04,4.46,2.64c-0.59,0.14-1.01,0.15-1.43-0.27c-0.94-0.95-2.14-1.36-3.46-1.43c-0.15-0.01-0.29,0-0.55,0
		c-0.05-1.13-0.02-2.22-0.02-3.31C23.6,74.92,23.6,73.85,23.6,72.77z M22.16,63.4c0.58,0,1.15-0.01,1.73,0.02
		c0.81,0.04,1.54-0.15,2.2-0.62c0.09-0.07,0.21-0.11,0.44-0.23c0,0.42,0,0.74,0,1.05c0,4.14,0.01,8.27-0.01,12.41
		c0,0.65,0.14,1.02,0.81,1.29c1.48,0.59,2.62,1.64,3.47,3c0.13,0.21,0.22,0.43,0.34,0.66c-0.87,0.2-0.87,0.21-1.29-0.4
		c-0.91-1.33-2.14-2.24-3.67-2.72c-0.17-0.05-0.33-0.11-0.5-0.17c-0.02-0.01-0.04-0.03-0.14-0.11c0-4.39,0-8.84,0-13.39
		c-1.42,0.32-2.7,0.22-3.96-0.7C21.85,63.45,22,63.4,22.16,63.4z M21.78,60.08c0.02-1.25,1.07-2.3,2.32-2.31
		c1.29-0.01,2.36,1.04,2.37,2.33c0.01,1.3-1.04,2.33-2.35,2.33C22.82,62.42,21.75,61.36,21.78,60.08z M34.17,81.06
		c-1.19-3.25-3.42-5.48-6.69-6.68c-0.02-0.16-0.05-0.31-0.05-0.46c0-0.12,0.03-0.24,0.05-0.36c3.4,0.7,6.8,4.25,7.53,7.49
		C34.71,81.06,34.46,81.06,34.17,81.06z M37.19,81.05c0.25-2.85,4.06-6.71,7.48-7.52c0,0.3,0,0.54,0,0.86
		c-1.53,0.55-2.91,1.36-4.08,2.53c-1.17,1.17-2.01,2.55-2.59,4.13C37.72,81.05,37.46,81.05,37.19,81.05z M44.07,76.76
		c-1.6,0.84-2.82,2.05-3.67,3.64c-0.41,0.77-0.41,0.77-1.32,0.63c0.27-2.03,3.49-5.26,5.55-5.55
		C44.79,76.38,44.78,76.38,44.07,76.76z M27.54,70.97c-0.18-0.75-0.18-0.75,0.44-1.01c2.89-1.18,4.9-3.23,6.05-6.13
		c0.05-0.12,0.1-0.23,0.16-0.38c0.26,0,0.52,0,0.84,0C34.28,66.68,30.98,70.24,27.54,70.97z M27.49,69.11
		c-0.02-0.12-0.05-0.24-0.05-0.36c0-0.2,0.01-0.4,0.02-0.61c0.23-0.12,0.44-0.24,0.66-0.36c1.62-0.85,2.84-2.1,3.69-3.72
		c0.38-0.72,0.37-0.72,1.32-0.59C32.66,65.53,30.08,68.48,27.49,69.11z M27.52,75.46c2.12,0.38,5.01,3.24,5.58,5.52
		c-0.84,0.25-0.93,0.22-1.28-0.47c-0.85-1.66-2.11-2.9-3.76-3.76C27.34,76.36,27.34,76.37,27.52,75.46z M44.18,54.42
		c-1.33,0.85-2.22,2.08-2.7,3.59c-0.06,0.19-0.13,0.38-0.21,0.64c-4.32,0-8.64,0-13.08,0c0.36,1.42,0.27,2.7-0.63,3.96
		c-0.06-0.26-0.12-0.41-0.12-0.56c-0.01-0.53-0.03-1.05,0.01-1.58c0.06-0.89-0.16-1.69-0.69-2.4c-0.06-0.08-0.09-0.17-0.2-0.36
		c2.39-0.05,4.71-0.02,7.02-0.02c2.31-0.01,4.61,0,6.99,0c0.74-2.04,2.03-3.61,4.04-4.62C44.8,53.7,44.71,54.08,44.18,54.42z
		 M44.33,56.6c-0.93,0.92-1.33,2.1-1.42,3.39c-0.01,0.15-0.02,0.3-0.04,0.45c0,0.02-0.02,0.05-0.05,0.15c-4.18,0-8.38,0-12.64,0
		c-0.27,1.87-1.06,3.37-2.66,4.51c-0.1-0.53-0.23-0.94,0.16-1.32c1.08-1.06,1.56-2.37,1.57-3.86c0-0.07,0.03-0.14,0.07-0.3
		c4.19,0,8.39,0,12.64,0c0.23-1.41,0.7-2.63,1.65-3.62c0.29-0.3,0.61-0.55,1-0.89C44.75,55.75,44.76,56.18,44.33,56.6z M33.09,56.67
		c-0.82,0.23-0.91,0.2-1.24-0.45c-0.87-1.71-2.17-2.99-3.87-3.86c-0.16-0.08-0.31-0.16-0.51-0.26c0-0.35,0-0.65,0-0.94
		C29.42,51.29,32.7,54.51,33.09,56.67z M27.47,50.01c0-0.25,0-0.49,0-0.74c2.73,0.1,6.74,4.03,7.55,7.4
		c-0.78,0.16-0.8,0.17-1.03-0.39c-1.18-2.93-3.24-4.95-6.18-6.09C27.7,50.15,27.59,50.08,27.47,50.01z M44.66,50.02
		c-0.14,0.07-0.29,0.15-0.45,0.21c-2.84,1.15-4.84,3.13-6.01,5.96c-0.26,0.63-0.26,0.63-1.05,0.51c0.66-3.23,4.61-7.14,7.51-7.44
		C44.66,49.5,44.66,49.74,44.66,50.02z M44.67,51.12c0,0.32,0,0.64,0,0.98c-0.16,0.09-0.31,0.17-0.46,0.25
		c-1.71,0.86-3,2.15-3.89,3.85c-0.35,0.67-0.42,0.7-1.23,0.45C39.44,54.57,42.48,51.53,44.67,51.12z M24.14,40.87
		c0.12,0,0.24,0.04,0.46,0.08c0.04,1.46,0.01,2.9,0.02,4.35c0,1.45,0,2.91,0,4.36c0,1.45,0,2.9,0,4.39
		c1.84,0.29,3.33,1.05,4.43,2.59c-0.46,0.2-0.87,0.27-1.21-0.06c-1.14-1.12-2.49-1.64-4.16-1.57c-0.03-0.35-0.07-0.66-0.07-0.97
		c0-3.76,0-7.52,0-11.29c0-0.3,0-0.59,0-0.92c-1.87-0.29-3.37-1.08-4.5-2.7c0.55-0.12,0.96-0.2,1.33,0.19
		C21.45,40.36,22.69,40.88,24.14,40.87z M3.9,63.63c0.94-0.94,1.39-2.12,1.42-3.46c0-0.15,0.02-0.29,0.04-0.53
		c0.3-0.01,0.59-0.04,0.88-0.04c3.64,0,7.27,0,10.91,0c0.29,0,0.59,0,0.91,0c0.3-1.86,1.06-3.36,2.64-4.45
		c0.12,0.52,0.21,0.94-0.17,1.32c-1.01,1.01-1.5,2.23-1.51,3.65c0,0.12-0.03,0.24-0.06,0.44c-4.22,0-8.42,0-12.69,0
		c-0.26,1.89-1.06,3.4-2.67,4.54C3.47,64.47,3.48,64.05,3.9,63.63z M14.05,63.44c1.17,3.24,3.39,5.5,6.69,6.71c0,0.32,0,0.56,0,0.8
		c-2.93-0.31-7.07-4.47-7.5-7.52C13.49,63.44,13.73,63.44,14.05,63.44z M20.69,69.08c-2.19-0.44-5.16-3.43-5.57-5.64
		c0.32,0,0.64,0,0.99,0c0.09,0.17,0.19,0.34,0.27,0.51c0.85,1.69,2.11,2.96,3.78,3.83C20.88,68.17,20.88,68.18,20.69,69.08z
		 M17.08,63.51c0.88-0.19,0.89-0.19,1.3,0.41c0.9,1.34,2.13,2.25,3.65,2.75c0.17,0.05,0.33,0.11,0.5,0.17
		c0.04,0.02,0.08,0.06,0.17,0.14c0,4.39,0,8.83,0,13.38c1.37-0.31,2.65-0.25,3.77,0.64c-1.55,0.24-3.24-0.26-4.53,0.93
		c-0.08-0.03-0.11-0.03-0.13-0.05c-0.02-0.01-0.04-0.03-0.05-0.05c-0.02-0.1-0.04-0.2-0.04-0.3c-0.01-4.61-0.02-9.23-0.03-13.84
		c0-0.02-0.02-0.05-0.05-0.13C19.64,66.81,18.06,65.53,17.08,63.51z M26.46,84.47c-0.02,1.28-1.1,2.33-2.37,2.31
		c-1.26-0.02-2.34-1.12-2.32-2.38c0.02-1.27,1.12-2.34,2.38-2.32C25.43,82.11,26.48,83.2,26.46,84.47z M28.06,101.08
		c-0.16-0.08-0.31-0.16-0.46-0.25c-0.04-0.02-0.07-0.06-0.12-0.11c0-0.31,0-0.62,0-0.95c2.23,0.44,5.24,3.44,5.63,5.62
		c-0.93,0.1-0.93,0.1-1.32-0.64C30.93,103.15,29.69,101.91,28.06,101.08z M27.76,98.84c-0.09-0.04-0.17-0.09-0.29-0.15
		c0-0.24,0-0.48,0-0.72c2.62-0.03,7.11,4.42,7.51,7.4c-0.75,0.16-0.76,0.16-0.99-0.39C32.81,102.01,30.73,99.98,27.76,98.84z
		 M27.44,96.73c0.11-0.43,0.44-0.4,0.67-0.48c2.06-0.71,3.82-1.86,5.27-3.48c1-1.11,1.76-2.37,2.32-3.75
		c0.09-0.23,0.18-0.46,0.31-0.78c0.12,0.18,0.21,0.28,0.26,0.4c1.46,3.82,4.12,6.38,8,7.69c0.12,0.04,0.23,0.1,0.34,0.15
		c0.02,0.01,0.03,0.04,0.1,0.16c-0.95,0.43-1.91,0.77-2.78,1.29c-0.9,0.53-1.77,1.16-2.52,1.88c-0.74,0.7-1.38,1.53-1.93,2.38
		c-0.55,0.85-0.93,1.8-1.45,2.83C34.53,100.78,31.65,98.05,27.44,96.73z M27.47,94.51c0.2-0.08,0.38-0.16,0.56-0.23
		c2.81-1.16,4.79-3.15,5.94-5.96c0.26-0.64,0.26-0.64,1-0.51c-0.12,2.73-4.25,6.91-7.46,7.53c-0.02-0.09-0.07-0.18-0.07-0.28
		C27.44,94.88,27.46,94.71,27.47,94.51z M28.12,92.11c1.63-0.85,2.86-2.1,3.7-3.73c0.39-0.76,0.39-0.76,1.28-0.56
		c-0.29,2.07-3.34,5.15-5.6,5.62C27.39,92.49,27.39,92.5,28.12,92.11z M37.13,87.82c0.79-0.14,0.81-0.15,1.03,0.41
		c1.16,2.93,3.22,4.96,6.15,6.12c0.11,0.04,0.22,0.11,0.35,0.17c0,0.27,0,0.53,0,0.8C41.52,94.76,37.88,91.13,37.13,87.82z
		 M44.66,97.93c0,0.24,0,0.49,0,0.79c-3.23,1.18-5.47,3.4-6.68,6.7c-0.18,0.02-0.3,0.04-0.43,0.04c-0.12,0-0.24-0.02-0.36-0.04
		C37.38,102.61,41.81,98.16,44.66,97.93z M44.67,99.74c0,0.37,0,0.69,0,1.01c-0.09,0.06-0.17,0.13-0.26,0.17
		c-1.86,0.88-3.24,2.24-4.15,4.08c-0.26,0.53-0.29,0.53-1.18,0.38C39.31,103.4,42.12,100.52,44.67,99.74z M44.51,105.07
		c-1.15,1.12-1.61,2.51-1.61,4.14c-4.22,0-8.42,0-12.7,0c-0.27,1.87-1.04,3.4-2.67,4.56c-0.11-0.56-0.19-0.98,0.21-1.38
		c1.04-1.02,1.5-2.29,1.52-3.73c0-0.1,0.02-0.19,0.04-0.39c4.25,0,8.43,0,12.55,0c0.34-0.88,0.59-1.71,0.97-2.49
		c0.38-0.79,0.98-1.43,1.81-1.95C44.72,104.31,44.85,104.73,44.51,105.07z M44.59,93.51c-2.68-1.08-4.54-2.93-5.64-5.66
		c0.98-0.23,0.99-0.23,1.38,0.53c0.85,1.65,2.11,2.9,3.76,3.76C44.8,92.51,44.81,92.53,44.59,93.51z M38.6,86.82
		c-2.31,0.01-4.61,0-6.98,0c-0.77,2.04-2.03,3.66-4.04,4.63c-0.26-0.8-0.24-0.86,0.35-1.26c1.36-0.92,2.28-2.16,2.78-3.73
		c0.06-0.19,0.12-0.37,0.21-0.64c4.35,0,8.64,0,13.02,0c-0.3-1.36-0.23-2.62,0.66-3.86c0.05,0.26,0.11,0.4,0.11,0.56
		c0.01,0.53,0.02,1.05,0,1.58c-0.03,0.86,0.17,1.64,0.67,2.34c0.05,0.08,0.09,0.16,0.2,0.35C43.18,86.85,40.89,86.81,38.6,86.82z
		 M31.6,62.5c-0.76,2.07-2.04,3.63-4.01,4.62c-0.26-0.77-0.25-0.87,0.22-1.19c1.51-1,2.5-2.36,2.98-4.1
		c0.03-0.09,0.08-0.18,0.15-0.34c4.29,0,8.59,0,12.99,0c-0.28-1.38-0.25-2.63,0.69-3.88c0.04,0.32,0.08,0.48,0.08,0.64
		c0.01,0.55,0.02,1.1,0,1.65c-0.03,0.92,0.29,1.71,0.94,2.6C40.84,62.5,36.24,62.5,31.6,62.5z M38.54,38.16
		c-2.31,0.01-4.61,0-6.94,0c-0.75,2.07-2.04,3.64-4.01,4.62c-0.27-0.79-0.25-0.86,0.34-1.26c1.36-0.92,2.28-2.16,2.78-3.73
		c0.05-0.17,0.11-0.33,0.17-0.49c0.01-0.02,0.04-0.03,0.16-0.15c4.2,0,8.5,0,12.9,0c-0.29-1.39-0.22-2.63,0.66-3.85
		c0.05,0.25,0.11,0.39,0.11,0.54c0.01,0.53,0.02,1.05,0,1.58c-0.04,0.86,0.17,1.64,0.67,2.34c0.05,0.08,0.09,0.17,0.19,0.37
		C43.17,38.19,40.85,38.16,38.54,38.16z M27.81,39.3c0.94-0.95,1.37-2.13,1.43-3.46c0.01-0.15,0.02-0.3,0.03-0.45
		c0-0.02,0.03-0.04,0.09-0.13c4.15,0,8.36,0,12.62,0c0.27-1.88,1.06-3.33,2.6-4.44c0.14,0.48,0.23,0.86-0.07,1.24
		c-1.34,1.67-1.42,1.88-1.67,4.16c-4.19,0-8.39,0-12.66,0c-0.29,1.89-1.06,3.42-2.68,4.53C27.38,40.14,27.4,39.72,27.81,39.3z
		 M44.1,28.07c-1.63,0.84-2.86,2.07-3.72,3.69c-0.38,0.72-0.38,0.72-1.43,0.62c1.11-2.73,2.95-4.58,5.62-5.66
		C44.83,27.65,44.81,27.71,44.1,28.07z M37.99,32.39c-0.16,0.02-0.31,0.05-0.46,0.05c-0.12,0-0.24-0.03-0.36-0.05
		c0.38-2.95,4.26-6.87,7.5-7.51c0,0.3,0,0.54,0,0.83C41.42,26.9,39.19,29.13,37.99,32.39z M34.99,32.4c-0.25,0-0.49,0-0.81,0
		c-1.18-3.21-3.39-5.46-6.71-6.68c0-0.29,0-0.53,0-0.77C30.16,25,34.58,29.38,34.99,32.4z M27.51,26.68
		c2.72,1.09,4.59,2.93,5.67,5.61c-0.89,0.28-0.98,0.25-1.34-0.45c-0.87-1.68-2.14-2.95-3.83-3.8c-0.13-0.07-0.27-0.14-0.4-0.21
		c-0.04-0.02-0.07-0.07-0.14-0.13c-0.01-0.17-0.03-0.37-0.02-0.57C27.44,27.02,27.47,26.9,27.51,26.68z M40.57,33.34
		c0.76-2.04,2.04-3.6,4.05-4.6c0.12,0.54,0.19,0.93-0.31,1.25c-1.48,0.94-2.43,2.29-2.92,3.96c-0.03,0.09-0.07,0.19-0.11,0.28
		c-0.01,0.02-0.03,0.04-0.12,0.13c-4.24,0-8.54,0-12.95,0c0.31,1.4,0.24,2.68-0.68,3.94c-0.05-0.28-0.08-0.43-0.1-0.58
		c-0.01-0.17,0-0.35,0-0.53c0-2.05,0-2.05-0.83-3.84C31.3,33.34,35.91,33.34,40.57,33.34z M22.06,17.8
		c0.19,0.06,0.38,0.13,0.66,0.22c0,4.55,0,9.06,0,13.66c1.38-0.32,2.64-0.23,3.89,0.65c-0.28,0.05-0.43,0.1-0.58,0.11
		c-0.4,0.01-0.8,0-1.2,0c-1.48,0-1.48,0-2.98,0.78c-0.02-0.01-0.05-0.01-0.07-0.03c-0.02-0.02-0.03-0.04-0.03-0.07
		c-0.01-0.07-0.03-0.15-0.03-0.22c-0.01-4.69-0.01-9.38-0.02-14.07c0-0.02-0.01-0.05-0.05-0.16c-1.99-0.75-3.61-2.03-4.57-4.09
		c0.64-0.22,1-0.06,1.33,0.46C19.27,16.41,20.52,17.31,22.06,17.8z M20.2,18.94c0.7,0.36,0.7,0.37,0.53,1.28
		c-2.34-0.54-5.4-3.66-5.57-5.65c0.88-0.16,0.88-0.16,1.27,0.6C17.29,16.83,18.55,18.08,20.2,18.94z M20.63,26.77
		c0.32,0.74,0.26,0.96-0.4,1.29c-1.69,0.85-2.94,2.13-3.81,3.79c-0.09,0.18-0.18,0.35-0.31,0.59c-0.25,0-0.45,0-0.64,0
		c-0.1,0-0.19-0.03-0.29-0.04C15.35,30.46,18.17,27.56,20.63,26.77z M14.05,32.45c-0.32-0.02-0.56-0.03-0.81-0.04
		c0.55-3.13,4.39-6.98,7.49-7.5c0,0.27,0,0.52,0,0.83C17.49,26.91,15.27,29.15,14.05,32.45z M20.76,21.29c0,0.28,0,0.52,0,0.76
		c-2.68-0.03-6.89-4.2-7.54-7.51c0.3,0,0.54,0,0.83,0C15.23,17.82,17.47,20.08,20.76,21.29z M11.05,32.4c-0.25,0-0.49,0-0.77,0
		c-0.09-0.2-0.19-0.4-0.27-0.6c-1.14-2.75-3.1-4.69-5.85-5.84c-0.69-0.29-0.69-0.28-0.57-1.08C6.83,25.54,10.82,29.57,11.05,32.4z
		 M2.79,33.66c-0.04-0.05-0.04-0.13-0.09-0.32c1.59-0.01,3.13,0,4.67-0.01c1.53,0,3.06,0,4.59,0c1.55,0,3.1,0,4.7,0
		c0.77-2.03,2.03-3.6,4.01-4.57c0.21,0.88,0.21,0.88-0.4,1.3c-1.3,0.9-2.21,2.1-2.7,3.6c-0.07,0.21-0.15,0.42-0.25,0.73
		c-4.31,0-8.64,0-13.04,0c0.37,1.42,0.23,2.66-0.56,3.78c-0.07-0.01-0.14-0.02-0.21-0.03c0-0.62-0.03-1.24,0.01-1.86
		C3.58,35.31,3.4,34.43,2.79,33.66z M20.52,32.15c-0.99,0.99-1.48,2.19-1.5,3.58c0,0.1-0.02,0.2-0.04,0.3
		c-0.01,0.05-0.05,0.09-0.11,0.2c-4.14,0-8.33,0-12.46,0c-0.35,0.91-0.61,1.77-1,2.57c-0.39,0.79-0.97,1.45-1.83,1.92
		c-0.13-0.56-0.14-0.98,0.28-1.4c0.97-0.96,1.43-2.16,1.45-3.53c0-0.15,0.02-0.29,0.04-0.51c4.22,0,8.43,0,12.7,0
		c0.27-1.85,1.05-3.35,2.64-4.48C20.82,31.36,20.9,31.77,20.52,32.15z M4.03,41.52c1.36-0.92,2.27-2.17,2.77-3.72
		c0.06-0.19,0.13-0.37,0.21-0.63c4.31,0,8.62,0,13.02,0c-0.29-1.39-0.24-2.65,0.65-3.87c0.05,0.25,0.1,0.39,0.11,0.53
		c0.01,0.35,0.02,0.7,0,1.05c-0.04,1.12,0.02,2.21,0.8,3.07c-0.03,0.09-0.04,0.12-0.05,0.14c-0.01,0.02-0.03,0.03-0.05,0.04
		c-0.02,0.01-0.05,0.02-0.07,0.02c-0.07,0.01-0.15,0.01-0.22,0.01c-4.46,0.01-8.92,0.01-13.38,0.02c-0.02,0-0.05,0.02-0.13,0.05
		c-0.76,1.98-2,3.6-4.03,4.55C3.42,41.95,3.42,41.93,4.03,41.52z M3.55,49.23c3.02,0.42,7.07,4.45,7.51,7.42
		c-0.69,0.21-0.75,0.2-0.97-0.35c-1.19-2.95-3.27-4.99-6.23-6.13c-0.09-0.04-0.18-0.09-0.34-0.18C3.53,49.72,3.54,49.48,3.55,49.23z
		 M3.94,52.31c-0.13-0.06-0.26-0.15-0.43-0.24c0-0.22-0.01-0.44,0-0.67c0-0.09,0.04-0.19,0.08-0.38c2.71,1.08,4.57,2.92,5.66,5.6
		c-0.82,0.29-1,0.25-1.28-0.31C7.09,54.52,5.74,53.19,3.94,52.31z M2.76,57.69c4.61,0,9.22,0,13.72,0c0.61-0.96,1.12-1.88,1.75-2.71
		c0.62-0.83,1.46-1.42,2.41-1.87c0.26,0.73,0.24,0.87-0.22,1.17c-1.47,0.96-2.43,2.29-2.93,3.96c-0.03,0.1-0.07,0.19-0.1,0.28
		c-0.01,0.02-0.03,0.04-0.11,0.14c-4.26,0-8.58,0-12.98,0c0.22,1.03,0.31,1.98-0.08,2.89c-0.14,0.33-0.32,0.65-0.48,0.98
		c-0.05-0.01-0.1-0.02-0.15-0.03c-0.02-0.16-0.05-0.31-0.06-0.47c-0.01-0.3-0.02-0.6,0-0.9c0.06-1.19,0.03-2.36-0.88-3.32
		C2.68,57.78,2.72,57.74,2.76,57.69z M5.76,71.24c0.73-0.38,1.45-0.82,2.09-1.32c0.65-0.51,1.26-1.09,1.79-1.71
		c0.53-0.63,1-1.32,1.41-2.03c0.41-0.71,0.71-1.47,1.13-2.36c0.51,1.41,1.1,2.64,1.92,3.74c0.84,1.11,1.83,2.06,2.98,2.85
		c1.14,0.78,2.39,1.32,3.71,1.74c-0.16,0.43-0.48,0.41-0.72,0.5c-3.04,1.07-5.35,3.02-6.9,5.84c-0.37,0.68-0.65,1.4-1.01,2.19
		c-0.36-0.78-0.66-1.54-1.06-2.24c-0.41-0.71-0.87-1.41-1.41-2.04c-0.55-0.64-1.18-1.24-1.84-1.77c-0.65-0.51-1.36-0.94-2.09-1.32
		c-0.72-0.37-1.49-0.64-2.41-1.03C4.27,71.89,5.05,71.62,5.76,71.24z M20.73,75.47c0.11,0.92,0.11,0.92-0.63,1.32
		c-1.57,0.84-2.78,2.04-3.61,3.61c-0.12,0.22-0.23,0.44-0.36,0.66c-0.34,0-0.65,0-0.98,0C15.5,78.94,18.54,75.88,20.73,75.47z
		 M14.03,81.06c-0.13,0.01-0.27,0.04-0.42,0.03c-0.12,0-0.24-0.04-0.36-0.06c0.58-3.13,4.34-6.88,7.49-7.47c0,0.27,0,0.53,0,0.78
		C16.54,76.53,16.23,76.84,14.03,81.06z M11.08,81.04c-0.26,0-0.52,0-0.84,0c-0.57-1.52-1.38-2.91-2.55-4.08
		c-1.17-1.17-2.56-1.99-4.14-2.57c0-0.32,0-0.57,0-0.81C6.53,73.95,10.49,77.88,11.08,81.04z M4.16,76.74
		c-0.73-0.38-0.73-0.38-0.53-1.39c2.71,1.11,4.56,2.95,5.64,5.59c-0.92,0.28-0.99,0.26-1.39-0.5C7.03,78.82,5.78,77.6,4.16,76.74z
		 M2.75,82.24c-0.01-0.02,0-0.05,0.02-0.17c0.24-0.01,0.5-0.03,0.76-0.03c4.01,0,8.03,0,12.04,0c0.18,0,0.35-0.02,0.53,0
		c0.42,0.06,0.63-0.15,0.78-0.53c0.61-1.54,1.62-2.75,3.01-3.65c0.24-0.16,0.51-0.28,0.78-0.43c0.2,0.89,0.2,0.89-0.41,1.3
		c-1.3,0.9-2.21,2.1-2.69,3.61c-0.05,0.17-0.11,0.33-0.17,0.5c-0.02,0.04-0.06,0.08-0.14,0.19c-4.25,0-8.56,0-12.92,0
		c0.2,2.21,0.05,2.99-0.76,3.85c-0.03-0.21-0.06-0.37-0.06-0.53c-0.01-0.53-0.02-1.05,0.01-1.58c0.05-0.86-0.15-1.64-0.66-2.34
		C2.82,82.37,2.79,82.3,2.75,82.24z M3.76,88.12c1.08-1.06,1.58-2.35,1.57-3.86c0-0.07,0.03-0.15,0.06-0.33
		c0.82-0.01,1.66-0.02,2.5-0.02c0.85,0,1.7,0,2.56,0c0.83,0,1.65,0,2.48,0c0.85,0,1.7,0,2.56,0c0.85,0,1.69,0,2.57,0
		c0.3-1.83,1.07-3.33,2.63-4.43c0.13,0.51,0.23,0.93-0.15,1.31c-1,1.01-1.51,2.22-1.52,3.65c0,0.07-0.01,0.15-0.02,0.22
		c-0.01,0.05-0.04,0.09-0.11,0.25c-4.14,0.02-8.34,0-12.61,0.01c-0.29,1.9-1.07,3.37-2.65,4.49C3.5,88.9,3.38,88.5,3.76,88.12z
		 M4.06,90.14c1.34-0.85,2.21-2.09,2.71-3.59c0.07-0.21,0.14-0.42,0.24-0.72c4.33,0,8.65,0,13.04,0c-0.29-1.39-0.27-2.65,0.69-3.9
		c0.21,1.7-0.31,3.39,1.02,4.87c-2.48,0.02-4.77,0.01-7.06,0.01c-2.31,0-4.61,0-6.95,0c-1.45,2.83-2.7,4.19-4.16,4.57
		C3.4,90.84,3.53,90.48,4.06,90.14z M20.66,99.79c0.25,0.85,0.22,0.93-0.47,1.29c-1.65,0.85-2.9,2.11-3.76,3.75
		c-0.38,0.73-0.4,0.74-1.27,0.53C15.56,103.25,18.35,100.37,20.66,99.79z M14.24,105c-0.04,0.09-0.08,0.18-0.13,0.27
		c-0.02,0.04-0.06,0.08-0.12,0.15c-0.21,0-0.46,0-0.7,0c0.1-2.72,4.53-7.19,7.4-7.49c0.16,0.74,0.16,0.75-0.39,0.97
		C17.41,100.07,15.39,102.1,14.24,105z M20.68,93.41c-2.13-0.4-5.07-3.34-5.54-5.54c0.81-0.27,0.89-0.24,1.27,0.49
		c0.85,1.66,2.1,2.92,3.76,3.78C20.9,92.51,20.9,92.52,20.68,93.41z M20.75,94.52c0,0.29,0,0.53,0,0.78
		c-3.3-0.64-6.87-4.27-7.51-7.53c0.27,0,0.53,0,0.78,0C16.06,91.88,16.88,92.7,20.75,94.52z M3.56,94.54
		c0.13-0.07,0.28-0.16,0.44-0.22c2.88-1.14,4.9-3.15,6.06-6.02c0.26-0.64,0.27-0.64,1-0.47c-0.48,2.91-3.94,6.77-7.5,7.49
		C3.56,95.07,3.56,94.83,3.56,94.54z M4.16,92.14c1.64-0.86,2.9-2.11,3.75-3.76c0.38-0.75,0.39-0.75,1.33-0.56
		c-0.72,2.48-3.58,5.3-5.64,5.6C3.43,92.52,3.43,92.52,4.16,92.14z M4.21,96.25c2.57-0.89,4.67-2.43,6.19-4.68
		c0.58-0.87,0.99-1.85,1.47-2.78c0.09-0.17,0.16-0.34,0.31-0.67c0.72,2.15,1.8,3.9,3.33,5.36c1.51,1.43,3.29,2.4,5.29,3
		c-0.01,0.07-0.02,0.14-0.02,0.21c-0.63,0.26-1.28,0.48-1.89,0.78c-0.61,0.29-1.21,0.62-1.77,1c-0.58,0.39-1.13,0.84-1.63,1.33
		c-0.49,0.47-0.94,0.98-1.34,1.52c-0.42,0.56-0.78,1.17-1.11,1.79c-0.32,0.59-0.56,1.22-0.9,1.98c-1.52-4.28-4.41-7.02-8.63-8.35
		C3.65,96.31,3.97,96.33,4.21,96.25z M3.59,97.94c2.7,0.09,7.21,4.59,7.46,7.42c-0.75,0.14-0.75,0.15-1.01-0.48
		c-1.15-2.81-3.13-4.79-5.94-5.94C3.48,98.68,3.48,98.68,3.59,97.94z M4.2,101.1c-0.22-0.12-0.44-0.23-0.64-0.34
		c0-0.36,0-0.67,0-0.99c2.31,0.51,5.19,3.4,5.63,5.6c-0.91,0.17-0.92,0.17-1.29-0.55C7.06,103.19,5.82,101.96,4.2,101.1z
		 M3.52,109.15c0.06-0.89-0.15-1.69-0.67-2.41c-0.06-0.08-0.09-0.17-0.12-0.23c0.03-0.06,0.03-0.09,0.05-0.1
		c0.02-0.02,0.04-0.03,0.06-0.03c0.07-0.01,0.15-0.03,0.22-0.03c4.48-0.01,8.96-0.02,13.44-0.03c0.6-0.93,1.1-1.85,1.73-2.68
		c0.62-0.82,1.45-1.43,2.41-1.86c0.25,0.81,0.24,0.85-0.36,1.27c-1.33,0.91-2.24,2.13-2.73,3.66c-0.06,0.19-0.13,0.37-0.22,0.64
		c-1.45,0-2.9,0-4.35,0c-1.43,0-2.86,0-4.29,0c-1.44,0-2.89,0.01-4.42,0.01c0.38,1.44,0.23,2.68-0.65,3.95
		c-0.05-0.29-0.1-0.44-0.11-0.59C3.51,110.2,3.49,109.67,3.52,109.15z M3.91,112.29c0.93-0.95,1.39-2.13,1.41-3.46
		c0-0.15,0.02-0.29,0.04-0.53c2.11-0.05,4.21-0.02,6.3-0.02c2.1-0.01,4.21,0,6.4,0c0.26-1.81,1.04-3.32,2.61-4.45
		c0.15,0.5,0.25,0.92-0.13,1.29c-1.02,1.03-1.53,2.27-1.53,3.72c0,0.1-0.03,0.19-0.05,0.35c-0.84,0.12-1.69,0.04-2.53,0.05
		c-0.83,0.01-1.65,0-2.48,0c-0.85,0-1.7,0-2.56,0c-0.83,0-1.65,0-2.48,0c-0.85,0-1.7,0-2.62,0c-0.3,1.82-1.04,3.38-2.69,4.51
		C3.45,113.13,3.5,112.71,3.91,112.29z M3.55,116.77c2.15-0.96,3.71-2.52,4.66-4.68c0.4,0,0.69,0,0.99,0
		c-0.46,2.44-3.63,5.35-5.65,5.67C3.55,117.44,3.55,117.12,3.55,116.77z M3.55,119.66c0-0.28,0-0.5,0-0.77
		c0.15-0.08,0.32-0.17,0.5-0.24c2.84-1.15,4.84-3.15,6-5.99c0.26-0.63,0.26-0.63,0.99-0.52C10.97,114.82,6.7,119.15,3.55,119.66z
		 M20.74,119.62c-2.9-0.29-7.04-4.44-7.51-7.54c0.25-0.01,0.49-0.02,0.76-0.03c2.03,4.12,2.73,4.83,6.75,6.81
		C20.74,119.1,20.74,119.36,20.74,119.62z M20.14,116.44c0.2,0.1,0.4,0.21,0.62,0.33c0,0.32,0,0.64,0,0.96
		c-2.02-0.22-5.1-3.26-5.65-5.61c0.94-0.13,0.94-0.13,1.32,0.6C17.27,114.35,18.51,115.59,20.14,116.44z M19.27,111.16
		c-0.78,0.02-1.55,0-2.33,0s-1.55,0-2.33,0c-0.75,0-1.5,0-2.26,0c-0.78,0-1.55,0-2.33,0c-0.77,0-1.55,0-2.34,0
		c-0.76,2.08-2.05,3.64-4.11,4.67c0-0.39,0-0.67,0-1.03c1.72-1.02,2.9-2.55,3.39-4.64c4.35,0,8.65,0,13.04,0
		c-0.25-1.39-0.24-2.65,0.71-3.91c0.24,1.7-0.31,3.4,0.96,4.8C20.8,111.25,20.03,111.14,19.27,111.16z M24.06,111.1
		c-1.26-0.03-2.29-1.08-2.29-2.33c0-1.29,1.07-2.33,2.37-2.32c1.3,0.01,2.34,1.08,2.32,2.37C26.44,110.11,25.36,111.13,24.06,111.1z
		 M25,105.46c-1.12-0.05-2.21,0.02-3.05,0.8c-0.1-0.03-0.13-0.03-0.15-0.05c-0.02-0.01-0.03-0.04-0.04-0.06
		c-0.01-0.05-0.03-0.1-0.03-0.15c0-4.67,0-9.33,0-14.06c-2.03-0.78-3.65-2.04-4.61-4.04c0.63-0.27,0.87-0.26,1.12,0.14
		c1.02,1.6,2.45,2.62,4.27,3.12c0.04,0.01,0.08,0.05,0.2,0.14c0,4.4,0,8.86,0,13.36c2.16-0.22,3.1-0.04,3.85,0.81
		C25.97,105.46,25.48,105.48,25,105.46z M26.77,106.75c-0.06-0.08-0.09-0.17-0.12-0.24c0.02-0.05,0.03-0.08,0.05-0.1
		c0.01-0.02,0.04-0.03,0.06-0.04c0.07-0.01,0.15-0.03,0.22-0.03c4.49-0.01,8.98-0.02,13.47-0.03c0.02,0,0.05-0.01,0.15-0.04
		c0.73-1.97,2-3.54,4.06-4.56c0,0.4,0,0.69,0,0.98c-2.24,1.77-2.51,2.13-3.42,4.66c-4.31,0-8.61,0-13.01,0
		c0.31,1.42,0.22,2.68-0.67,3.92c-0.06-0.25-0.11-0.4-0.11-0.55c-0.01-0.53-0.02-1.06,0.01-1.58
		C27.5,108.27,27.29,107.47,26.77,106.75z M27.47,119.62c0-0.24,0-0.48,0-0.76c0.2-0.09,0.4-0.18,0.6-0.27
		c2.77-1.15,4.73-3.12,5.87-5.89c0.28-0.68,0.28-0.68,1.07-0.56C34.35,115.41,30.32,119.41,27.47,119.62z M27.44,117.4
		c0-0.2,0.02-0.4,0.03-0.6c0.21-0.11,0.41-0.22,0.6-0.32c1.65-0.86,2.9-2.11,3.75-3.77c0.37-0.72,0.37-0.72,1.4-0.56
		c-1.12,2.76-2.97,4.63-5.72,5.72C27.47,117.64,27.44,117.52,27.44,117.4z M44.66,119.57c-2.55,0.09-6.8-4.09-7.54-7.48
		c0.29,0,0.53,0,0.85,0c0.55,1.56,1.38,2.96,2.57,4.15c1.17,1.17,2.56,1.99,4.12,2.58C44.66,119.09,44.66,119.33,44.66,119.57z
		 M44.07,116.46c0.2,0.1,0.39,0.21,0.6,0.32c0,0.33,0,0.65,0,0.97c-2.18-0.38-5.21-3.42-5.63-5.6c0.89-0.21,0.9-0.2,1.28,0.53
		C41.17,114.34,42.42,115.6,44.07,116.46z M31.61,111.13c-0.55,1.54-1.39,2.83-2.66,3.8c-0.43,0.33-0.91,0.59-1.39,0.91
		c-0.22-0.91-0.22-0.91,0.39-1.33c1.31-0.89,2.22-2.08,2.71-3.59c0.25-0.76,0.25-0.76,1.1-0.76c3.74,0,7.47,0,11.21,0
		c0.29,0,0.59,0,0.96,0c-0.3-1.39-0.23-2.63,0.65-3.84c0.05,0.25,0.11,0.4,0.11,0.55c0.01,0.53,0.02,1.05,0,1.58
		c-0.03,0.83,0.16,1.59,0.63,2.28c0.07,0.1,0.11,0.21,0.21,0.41C40.85,111.13,36.26,111.13,31.61,111.13z M48,111.1
		c-1.29-0.02-2.33-1.1-2.31-2.37c0.03-1.28,1.09-2.3,2.39-2.28c1.29,0.02,2.33,1.08,2.31,2.36C50.36,110.09,49.28,111.13,48,111.1z
		 M50.04,105.45c-0.43,0.01-0.85,0.01-1.28,0.01c-1.62,0-1.62,0-3.02,0.8c-0.2-0.29-0.12-0.62-0.12-0.92
		c-0.01-3.84,0-7.68-0.01-11.51c0-0.43-0.02-0.85,0.01-1.28c0.03-0.47-0.15-0.72-0.59-0.89c-1.49-0.59-2.66-1.58-3.54-2.92
		c-0.18-0.27-0.32-0.56-0.48-0.84c0.71-0.27,0.88-0.25,1.18,0.21c0.98,1.52,2.35,2.51,4.09,3c0.09,0.03,0.18,0.07,0.35,0.14
		c0,4.44,0,8.9,0,13.43c1.39-0.28,2.66-0.25,3.87,0.66C50.29,105.39,50.16,105.45,50.04,105.45z M51.7,105.21
		c-1.06-1.07-2.36-1.57-3.86-1.55c-0.07,0-0.15-0.03-0.32-0.06c0-4.38,0-8.71,0-13.09c-1.83-0.3-3.35-1.06-4.44-2.64
		c0.47-0.2,0.89-0.26,1.22,0.08c1.1,1.12,2.45,1.61,3.99,1.64c0.05,0,0.09,0.04,0.24,0.11c0.03,1.39,0.01,2.84,0.01,4.28
		c0,1.43,0,2.86,0,4.29c0,1.45,0,2.9,0,4.32c0.87,0.33,1.71,0.58,2.48,0.96c0.79,0.38,1.44,0.98,1.96,1.82
		C52.48,105.47,52.08,105.59,51.7,105.21z M51.44,97.93c2.79,0.22,6.81,4.19,7.49,7.48c-0.17,0.02-0.29,0.04-0.41,0.04
		c-0.12,0-0.25-0.02-0.39-0.03c-0.08-0.16-0.16-0.32-0.23-0.47c-1.14-2.85-3.14-4.84-5.97-6.01C51.3,98.68,51.3,98.68,51.44,97.93z
		 M51.43,99.77c2.5,0.64,5.23,3.63,5.56,5.58c-0.86,0.22-0.88,0.21-1.27-0.53c-0.85-1.62-2.08-2.86-3.71-3.71
		C51.29,100.72,51.29,100.72,51.43,99.77z M54.98,105.33c-0.76,0.23-0.8,0.23-1.21-0.38c-0.92-1.36-2.17-2.27-3.73-2.77
		c-0.19-0.06-0.37-0.13-0.61-0.21c0-4.46,0-8.89,0-13.43c-1.4,0.3-2.68,0.24-3.93-0.69c0.27-0.06,0.42-0.12,0.57-0.12
		c0.38-0.01,0.76-0.05,1.13,0c1.12,0.16,2.14-0.06,3.02-0.74c0.06,0.02,0.09,0.03,0.11,0.04c0.02,0.01,0.04,0.03,0.04,0.05
		c0.01,0.05,0.03,0.1,0.03,0.15c0,4.66,0,9.33,0,14.02C53.2,102.66,54.44,103.78,54.98,105.33z M51.68,80.85
		c-1.06-1.07-2.38-1.53-3.88-1.54c-0.07,0-0.14-0.03-0.28-0.07c0-4.32,0-8.65,0-13.05c-1.84-0.33-3.39-1.07-4.49-2.71
		c0.59-0.11,1.02-0.14,1.44,0.29c0.96,0.97,2.15,1.43,3.52,1.45c0.1,0,0.2,0,0.3,0.02c0.05,0.01,0.09,0.04,0.23,0.11
		c0,4.3,0,8.66,0,13.04c1.26,0.2,2.37,0.58,3.29,1.36c0.41,0.35,0.77,0.76,1.1,1.22C52.47,81.07,52.07,81.24,51.68,80.85z
		 M51.42,73.56c3.38,0.77,6.76,4.2,7.5,7.49c-0.27,0-0.54,0-0.84,0c-1.19-3.26-3.43-5.48-6.69-6.67c-0.01-0.21-0.03-0.38-0.03-0.55
		C51.36,73.74,51.4,73.65,51.42,73.56z M51.45,75.47c2.1,0.37,4.99,3.21,5.6,5.6c-0.35,0-0.65,0-1,0c-0.1-0.17-0.21-0.36-0.31-0.55
		c-0.85-1.66-2.11-2.9-3.76-3.77C51.25,76.36,51.25,76.36,51.45,75.47z M53.97,79.33c0.42,0.49,0.8,1.02,1.06,1.63
		c-0.82,0.24-0.86,0.23-1.26-0.36c-0.91-1.33-2.13-2.25-3.67-2.73c-0.19-0.06-0.38-0.13-0.64-0.22c0-4.44,0-8.9,0-13.46
		c-1.43,0.32-2.7,0.23-3.83-0.6c0.01-0.07,0.02-0.13,0.03-0.2c0.62,0,1.24-0.04,1.85,0.01c0.96,0.07,1.84-0.1,2.63-0.69
		c0.05-0.04,0.13-0.04,0.28-0.08c0,4.79,0,9.54,0,14.32C51.82,77.47,53.02,78.22,53.97,79.33z M51.66,56.51
		c-1.03-1.02-2.27-1.53-3.72-1.5c-0.1,0-0.2-0.02-0.43-0.05c0-4.4,0-8.75,0-13.13c-1.87-0.29-3.37-1.08-4.49-2.71
		c0.54-0.09,0.94-0.2,1.32,0.19c1.03,1.05,2.29,1.59,3.78,1.56c0.1,0,0.19,0.03,0.4,0.07c0.06,1.44,0.02,2.88,0.03,4.32
		c0.01,1.45,0,2.91,0,4.36c0,1.45,0,2.9,0,4.41c1.84,0.29,3.35,1.05,4.47,2.65C52.45,56.82,52.04,56.88,51.66,56.51z M51.4,49.25
		c3.24,0.62,6.78,4.12,7.52,7.45c-0.79,0.12-0.79,0.12-1.02-0.45c-1.17-2.9-3.22-4.91-6.12-6.05c-0.12-0.05-0.23-0.1-0.37-0.17
		C51.4,49.77,51.4,49.52,51.4,49.25z M51.39,51c2.74,1.11,4.6,2.94,5.71,5.66c-0.99,0.21-1.01,0.2-1.37-0.49
		c-0.86-1.65-2.1-2.91-3.76-3.76c-0.16-0.08-0.31-0.16-0.46-0.25c-0.04-0.02-0.08-0.06-0.12-0.1C51.39,51.76,51.39,51.45,51.39,51z
		 M58.93,39.1c-0.56,2.89-3.75,6.72-7.5,7.55c-0.02-0.09-0.06-0.18-0.06-0.28c0-0.17,0.02-0.34,0.03-0.5
		c4.15-2.1,4.58-2.52,6.76-6.78C58.4,39.1,58.66,39.1,58.93,39.1z M52.03,43.45c1.63-0.84,2.85-2.09,3.7-3.71
		c0.39-0.74,0.39-0.74,1.26-0.63c-0.03,1.87-3.22,5.14-5.57,5.67C51.29,43.83,51.29,43.82,52.03,43.45z M53.96,55
		c0.41,0.49,0.75,1.05,1.13,1.59c-0.72,0.28-0.93,0.27-1.19-0.12c-1-1.55-2.38-2.55-4.14-3.05c-0.09-0.03-0.18-0.08-0.34-0.15
		c0-4.44,0-8.9,0-13.4c-1.42,0.28-2.71,0.24-3.97-0.74c0.6-0.15,1.09-0.12,1.56-0.08c1.18,0.1,2.3,0.04,3.39-0.89
		c0.04,1.37,0.01,2.56,0.02,3.75c0,1.18,0,2.36,0,3.54c0,1.2,0,2.41,0,3.61c0,1.18,0,2.35,0,3.57C51.81,53.14,53.03,53.87,53.96,55z
		 M45.69,35.77c0-1.27,1.07-2.33,2.35-2.33c1.27,0,2.35,1.07,2.34,2.34c0,1.26-1.1,2.35-2.35,2.35
		C46.77,38.12,45.69,37.03,45.69,35.77z M49.96,32.44c-0.4,0.01-0.8,0-1.2,0c-1.55,0-1.66,0.03-3,0.82
		c-0.2-0.26-0.12-0.57-0.12-0.85c0-4.14,0.02-8.28,0.03-12.42c0-0.18-0.02-0.35,0-0.53c0.09-0.56-0.13-0.84-0.67-1.05
		c-1.54-0.61-2.73-1.67-3.6-3.07c-0.11-0.17-0.2-0.35-0.28-0.53c-0.03-0.06-0.02-0.14-0.04-0.26c0.43-0.07,0.81-0.2,1.11,0.29
		c0.97,1.57,2.37,2.56,4.13,3.06c0.07,0.02,0.14,0.05,0.21,0.08c0.02,0.01,0.03,0.03,0.12,0.12c0,4.44,0,8.95,0,13.56
		c1.38-0.32,2.64-0.23,3.89,0.65C50.25,32.39,50.11,32.43,49.96,32.44z M51.63,32.14c-1.01-1-2.25-1.48-3.66-1.49
		c-0.07,0-0.15,0-0.22-0.02c-0.05-0.01-0.09-0.04-0.2-0.09c0-4.38,0-8.78,0-13.12c-0.91-0.35-1.77-0.62-2.56-1.01
		c-0.79-0.39-1.41-1.01-1.95-1.83c0.54-0.12,0.95-0.2,1.32,0.19c1.01,1.04,2.25,1.56,3.7,1.56c0.12,0,0.24,0.03,0.46,0.06
		c0.06,4.42-0.01,8.82,0.04,13.32c1.85,0.28,3.33,1.06,4.46,2.64C52.44,32.46,52.03,32.54,51.63,32.14z M51.39,24.95
		c2.59-0.04,7,4.31,7.53,7.45c-0.25,0.01-0.49,0.03-0.81,0.04c-0.57-1.57-1.4-2.98-2.59-4.17c-1.17-1.17-2.56-1.99-4.12-2.56
		C51.39,25.44,51.39,25.2,51.39,24.95z M51.38,19.25c0.19-0.1,0.37-0.19,0.54-0.28c1.68-0.86,2.95-2.13,3.82-3.8
		c0.38-0.74,0.38-0.74,1.28-0.58c-0.23,2.01-3.07,4.93-5.61,5.69c-0.03-0.18-0.06-0.3-0.06-0.42
		C51.35,19.65,51.37,19.45,51.38,19.25z M51.9,21.09c2.84-1.15,4.83-3.15,5.99-5.99c0.26-0.63,0.26-0.63,0.99-0.54
		c0.02,2.62-4.35,7.07-7.49,7.54c-0.01-0.25-0.02-0.49-0.04-0.76C51.54,21.26,51.72,21.16,51.9,21.09z M51.44,26.8
		c2.14,0.4,5,3.22,5.61,5.61c-0.2,0.01-0.34,0.02-0.49,0.04c-0.37,0.05-0.57-0.12-0.76-0.45c-0.43-0.73-0.9-1.45-1.44-2.1
		c-0.64-0.78-1.48-1.35-2.37-1.82C51.25,27.7,51.25,27.7,51.44,26.8z M48.03,8.9c1.28-0.01,2.35,1.04,2.36,2.32
		c0.01,1.26-1.07,2.36-2.33,2.37c-1.25,0.01-2.35-1.08-2.36-2.34C45.69,9.98,46.75,8.91,48.03,8.9z M47.47,14.52
		c0.97,0.11,1.84-0.09,2.63-0.65c0.05-0.04,0.13-0.05,0.28-0.1c0,4.84,0,9.64,0,14.49c2.06,0.8,3.7,2.03,4.66,4.05
		c-0.84,0.23-0.86,0.23-1.27-0.36c-0.94-1.38-2.22-2.29-3.8-2.79c-0.14-0.04-0.28-0.09-0.5-0.16c0-4.53,0-9.05,0-13.64
		c-2.08,0.28-3.13,0.06-3.91-0.84C46.25,14.5,46.87,14.45,47.47,14.52z M45.57,13.61c-4.71,0.02-9.32,0-13.92,0.01
		c-1.4,2.77-2.64,4.13-4.15,4.57c-0.15-0.53-0.08-0.91,0.46-1.25c1.36-0.86,2.25-2.12,2.75-3.65c0.06-0.19,0.12-0.38,0.22-0.67
		c2.16-0.01,4.33,0,6.5,0c2.15,0,4.3,0,6.54,0c-0.33-1.39-0.23-2.63,0.63-3.85c0.06,0.25,0.11,0.4,0.12,0.55
		c0.01,0.53,0.02,1.05,0,1.58c-0.02,0.85,0.17,1.64,0.67,2.34C45.43,13.31,45.47,13.4,45.57,13.61z M44.44,7.61
		c-1,0.98-1.47,2.19-1.51,3.58c0,0.15-0.04,0.29-0.08,0.5c-4.2,0-8.38,0-12.66,0c-0.29,1.9-1.05,3.41-2.7,4.54
		c-0.05-0.53-0.19-0.94,0.2-1.32c1.07-1.06,1.56-2.37,1.56-3.87c0-0.07,0.02-0.15,0.04-0.29c4.2,0,8.41,0,12.54,0
		c0.34-0.89,0.6-1.73,0.97-2.51c0.38-0.79,0.98-1.42,1.81-1.96C44.72,6.82,44.82,7.23,44.44,7.61z M44.67,0.37
		c0.01,0.25,0.02,0.49,0.04,0.79c-1.55,0.58-2.95,1.38-4.12,2.55C39.42,4.88,38.58,6.26,38,7.86c-0.26,0-0.53,0-0.79,0
		C37.31,5.15,41.64,0.79,44.67,0.37z M44.05,3.56c-1.82,0.96-3.12,2.39-3.98,4.3c-0.33,0-0.67,0-1.12,0c1.1-2.73,2.94-4.58,5.66-5.7
		C44.78,3.18,44.78,3.18,44.05,3.56z M27.49,0.35c2.72,0.53,6.55,3.54,7.54,7.51c-0.15,0.02-0.24,0.05-0.34,0.05
		c-0.15,0-0.3-0.02-0.5-0.03c-1.19-3.26-3.42-5.51-6.7-6.7C27.49,0.88,27.49,0.62,27.49,0.35z M27.48,3.24c0-0.38,0-0.69,0-1.12
		c2.77,1.12,4.64,2.97,5.75,5.74c-0.43,0-0.75,0-1.11,0C31.17,5.73,29.6,4.18,27.48,3.24z M31.28,8.79c1.53,0,3.06,0,4.59,0
		c1.55,0,3.1,0,4.71,0c0.77-2.03,2.04-3.6,4.04-4.59c0.15,0.58,0.15,0.96-0.37,1.29c-1.41,0.9-2.32,2.18-2.81,3.78
		c-0.05,0.16-0.12,0.32-0.2,0.56c-4.3,0-8.6,0-13.06,0c0.28,1.03,0.32,1.92-0.03,2.79c-0.14,0.36-0.33,0.7-0.5,1.05
		c-0.06-0.01-0.11-0.02-0.17-0.03c-0.02-0.21-0.05-0.41-0.06-0.62c-0.01-0.48-0.02-0.95,0.01-1.43c0.05-0.86-0.15-1.64-0.65-2.34
		c-0.07-0.09-0.11-0.21-0.23-0.43C28.2,8.77,29.74,8.8,31.28,8.79z M24.13,8.9c1.29,0,2.33,1.05,2.33,2.34
		c0,1.27-1.08,2.35-2.34,2.35c-1.25-0.01-2.35-1.11-2.34-2.36C21.78,9.95,22.85,8.9,24.13,8.9z M21.72,14.5
		c0.51,0,1.03-0.04,1.53,0.01c1.13,0.12,2.2,0.01,3.23-0.9c0.02,0.46,0.04,0.74,0.04,1.03c0,4.14,0,8.28,0,12.41
		c0,0.18,0.02,0.35,0,0.53c-0.06,0.52,0.14,0.8,0.65,1c1.61,0.65,2.84,1.76,3.72,3.26c0.09,0.15,0.14,0.31,0.24,0.51
		c-0.64,0.21-1,0.04-1.34-0.47c-0.85-1.3-2.05-2.18-3.54-2.66c-0.21-0.07-0.42-0.14-0.73-0.24c0-1.1-0.01-2.22-0.01-3.34
		c0-1.15,0-2.31,0-3.46c0-1.13,0-2.26,0-3.39c0-1.13,0-2.25,0-3.46c-1.39,0.24-2.7,0.26-3.8-0.65
		C21.71,14.63,21.71,14.56,21.72,14.5z M21.5,13.3c0.04,0.05,0.05,0.13,0.11,0.32c-2.37,0.01-4.69,0-7,0c-2.31,0-4.61,0-6.89,0
		c-1.29,2.69-2.7,4.22-4.15,4.55c-0.19-0.55-0.04-0.91,0.48-1.24c1.34-0.85,2.21-2.09,2.71-3.59c0.07-0.21,0.14-0.42,0.23-0.71
		c4.31,0,8.61,0,13.02,0c-0.23-1.38-0.26-2.66,0.68-3.88c0.06,0.26,0.11,0.41,0.12,0.56c0.01,0.48,0.03,0.96,0,1.43
		C20.75,11.68,20.94,12.54,21.5,13.3z M20.59,7.52c-1.07,1.07-1.58,2.36-1.58,3.86c0,0.07-0.04,0.14-0.08,0.3
		c-4.19,0-8.39,0-12.64,0c-0.3,1.89-1.06,3.42-2.7,4.55c-0.13-0.61-0.13-1.03,0.29-1.45c0.94-0.94,1.41-2.11,1.43-3.45
		c0-0.17,0.02-0.34,0.04-0.58c4.23,0,8.43,0,12.7,0c0.28-1.84,1.05-3.35,2.64-4.46C20.87,6.77,20.94,7.17,20.59,7.52z M20.72,0.38
		c0.17,0.74,0.17,0.75-0.46,1.01c-2.87,1.16-4.86,3.18-6.01,6.05c-0.06,0.14-0.12,0.27-0.21,0.47c-0.2,0-0.35,0.01-0.49,0
		c-0.1-0.01-0.19-0.03-0.29-0.05C13.7,4.82,17.84,0.69,20.72,0.38z M20.25,3.5c-1.71,0.87-2.99,2.17-3.86,3.88
		c-0.08,0.16-0.16,0.31-0.26,0.49c-0.36,0-0.66,0-0.96,0c0.19-2.02,3.38-5.23,5.55-5.62C20.93,3.11,20.91,3.17,20.25,3.5z M3.58,0.4
		c2.64,0.03,6.94,4.26,7.52,7.47c-0.3,0-0.54,0-0.8,0c-0.09-0.19-0.18-0.37-0.25-0.55C8.89,4.52,6.91,2.55,4.11,1.4
		C3.49,1.14,3.49,1.14,3.58,0.4z M6.3,5.11C5.46,4.39,4.52,3.77,3.54,3.05c0-0.17,0-0.46,0-0.76c1.77,0.1,5.15,3.06,5.67,5.57
		C9.08,7.88,8.96,7.9,8.84,7.9c-0.2,0-0.4-0.01-0.64-0.03C7.73,6.85,7.17,5.85,6.3,5.11z M9.7,8.79c2.3,0,4.61,0,6.97,0
		c0.79-2.07,2.05-3.61,4-4.57c0.25,0.72,0.24,0.88-0.17,1.14c-1.57,1.01-2.57,2.42-3.07,4.21c-0.01,0.05-0.04,0.09-0.12,0.23
		c-1.01,0.06-2.08,0.02-3.15,0.02c-1.1,0.01-2.21,0-3.31,0c-1.08,0-2.16,0-3.23,0c-1.07,0-2.15,0-3.32,0
		c0.33,1.41,0.25,2.68-0.75,3.79c-0.01-0.26-0.03-0.51-0.04-0.77c-0.01-0.38-0.03-0.75,0.01-1.13C3.6,10.76,3.4,9.89,2.8,9.11
		C2.76,9.06,2.75,8.98,2.7,8.8C5.07,8.78,7.38,8.8,9.7,8.79z"/>
</g>
<g>
	<path class="st0" d="M30.05,42.24h4.4l0.2,8.05c0,1.4,0,2.8,0,4.2h0.1c0.2-1.4,0.55-2.82,0.8-4.2l0.9-3.95h2.5l0.82,3.95
		c0.23,1.32,0.58,2.75,0.8,4.2h0.1c0-1.45,0-2.85,0-4.2l0.2-8.05h4.1L43.1,58.48h-4.45l-0.72-4.45c-0.17-1.05-0.35-2.2-0.38-3.17
		h-0.07c-0.08,0.97-0.2,2.12-0.38,3.17l-0.67,4.45h-4.35L30.05,42.24z"/>
	<path class="st0" d="M46.65,54.88h3.7v-9.05h-3.7v-3.6h11.7v3.6h-3.7v9.05h3.7v3.6h-11.7V54.88z"/>
	<path class="st0" d="M61.4,42.24h4.35v6.05h0.1l4-6.05h4.75l-8.85,12.1v4.15H61.4V42.24z M66.95,51.53l2.5-3.35L75,58.48h-4.75
		L66.95,51.53z"/>
	<path class="st0" d="M76.65,54.88h3.7v-9.05h-3.7v-3.6h11.7v3.6h-3.7v9.05h3.7v3.6h-11.7V54.88z"/>
	<path class="st0" d="M38.6,76.46l2.45-2.95c1.22,0.92,2.67,1.57,4.15,1.57c1.3,0,1.8-0.42,1.8-0.95c0-0.95-0.85-1.15-2.35-1.77
		l-2.02-0.85c-1.88-0.7-3.42-2.17-3.42-4.52c0-2.77,2.5-5.05,6.2-5.05c1.92,0,3.97,0.7,5.55,2.17l-2.15,2.7
		c-1.17-0.78-2.1-1.17-3.65-1.17c-0.95,0-1.6,0.35-1.6,1.1s0.92,1.02,2.55,1.62l1.88,0.77c2.17,0.8,3.42,2.2,3.42,4.45
		c0,2.75-2.3,5.2-6.5,5.2C42.77,78.78,40.42,78.03,38.6,76.46z"/>
	<path class="st0" d="M53.8,62.24h4.37l1.32,5.3l0.45,2.1h0.1l0.45-2.1l1.32-5.3h4.37v16.25h-3.55v-3.82c0-1.92,0.35-6.35,0.55-8.25
		h-0.08l-1.37,4.82l-0.85,2.95H59l-0.9-2.95l-1.25-4.82h-0.1c0.2,1.9,0.55,6.32,0.55,8.25v3.82h-3.5V62.24z"/>
	<path class="st0" d="M72.85,65.84h-4.67v-3.6h13.65v3.6h-4.67v12.65h-4.3V65.84z"/>
</g>
</svg>
