<?xml version="1.0" encoding="utf-8"?>
<!-- Generator: Adobe Illustrator 25.4.1, SVG Export Plug-In . SVG Version: 6.00 Build 0)  -->
<svg version="1.1" id="Capa_1" xmlns="http://www.w3.org/2000/svg" xmlns:xlink="http://www.w3.org/1999/xlink" x="0px" y="0px"
	 viewBox="0 0 250 250" style="enable-background:new 0 0 250 250;" xml:space="preserve">
<style type="text/css">
	.st0{fill:#004947;}
	.st1{opacity:0.1;}
	.st2{fill:#FFFFFF;}
</style>
<rect y="-0.1" class="st0" width="250" height="250"/>
<g class="st1">
	<path class="st2" d="M2.7,12.1c1.8,0.7,3.6,1.3,5.2,2c1.6,0.8,2.9,2,4,3.7c-1.3,0.3-2.2,0.2-3.1-0.7c-1.8-1.8-4.2-2.7-7-2.8
		c-0.1,0.5-0.1,1-0.2,1.5c1.8,0.5,3.6,0.6,5.2,2.1c-1.9,0-3.4,0-5.1,0c0,0.7,0,1.3,0,1.9c3.2,0.9,4.6,2.4,4.7,4.8
		c0.1,2.6-1.2,4-4.7,5.2c0,0.5,0,1,0,1.7c1.8,0.3,3.1-0.6,4.5-1.5c0.6,0.6,0.3,1.2,0.3,1.8c0,7.9,0,15.9,0,23.8c0,1.4,0,2.8,0,4.3
		C10.8,61.4,14,64,16,68c-1.7,0.5-1.8,0.5-2.6-0.7c-1.9-2.7-4.4-4.6-7.5-5.6c-1.6-0.5-1.4-0.7-1.4-1.9c0-8.2,0-16.4,0-24.6
		c0-0.6,0-1.2,0-2c-1,0.1-1.8,0.3-2.7,0.4c-0.2,0.7-0.5,1.4,0.5,1.7c0.2,0.1,0.3,0.5,0.3,0.8c0.1,0.4,0,0.8,0,1.2
		c0,7.8,0,15.7,0,23.5c0,0.6,0,1.1,0,1.9c3.7,0.6,6.9,2.2,9.2,5.5c-1.4,0.3-2.3,0.2-3.1-0.7c-1.9-1.8-4.2-2.7-7-2.8
		c0,0.6,0,1.1-0.1,1.6c1.8,0.4,3.5,0.6,5,1.9c-1.7,0.3-3.3,0-4.9,0.2c0,0.6,0,1.2,0,1.8C5,71.1,6.4,72.6,6.5,75
		c0.1,2.6-1.2,4-4.7,5.2c0,0.5,0,1,0,1.6c1.8,0.3,3.1-0.6,4.5-1.5c0.5,0.6,0.3,1.2,0.3,1.8c0,8.6,0,17.1,0,25.7c0,0.7,0,1.3,0,2
		c4.2,1.6,7.4,4.2,9.4,8.1c-1.3,0.6-1.8,0.6-2.3-0.3c-2.1-3.2-4.9-5.2-8.5-6.3c-0.2-0.1-0.4-0.2-0.7-0.3c0-9.1,0-18.3,0-27.5
		c-1,0.2-1.8,0.3-2.6,0.4c-0.2,0.7-0.5,1.3,0.4,1.7c0.2,0.1,0.3,0.5,0.4,0.7c0.1,0.4,0,0.8,0,1.2c0,7.7,0,15.3,0,23
		c0,0.6,0,1.2,0,1.9c2.9,0.5,5.4,1.5,7.5,3.4c0.6,0.6,1,1.2,1.7,1.9c-1.3,0.4-2.2,0.3-3-0.6c-1.9-1.8-4.2-2.9-7.1-2.8
		c0,0.6,0,1,0,1.6c1.7,0.3,3.4,0.5,5,1.9c-1.9,0.1-3.4,0.1-5,0.2c0,0.6,0,1.1,0,1.7c0.3,0.1,0.5,0.2,0.8,0.3
		c2.5,0.7,3.9,2.4,3.9,4.9c-0.1,2.3-1.6,4-4.1,4.6c-0.1,0-0.3,0.1-0.6,0.1c0,0.6,0,1.1,0,1.7c1.3,0.2,1.3,0.2,4.7-1.4
		c0.2,2,0.1,3.9,0.1,5.8c0,1.9,0,3.9,0,5.9s0,3.9,0,5.9s0,3.9,0,5.9s0,3.9,0,6c4.2,1.6,7.4,4.2,9.5,8.2c-1.8,0.5-1.8,0.5-2.7-0.8
		c-1.8-2.7-4.3-4.5-7.4-5.5c-0.4-0.1-0.9-0.3-1.5-0.5c0-9.1,0-18.3,0-27.5c-1,0.1-1.8,0.3-2.7,0.4c-0.1,0.7-0.5,1.4,0.5,1.7
		c0.2,0.1,0.3,0.4,0.3,0.6c0.1,0.4,0,0.8,0,1.2c0,7.8,0,15.6,0,23.3c0,0.6,0,1.1,0,1.8c2.7,0.4,5.2,1.3,7.2,3.1
		c0.7,0.6,1.3,1.4,2.1,2.2c-1.4,0.3-2.3,0.2-3.2-0.7c-1.9-1.8-4.2-2.7-6.9-2.7c-0.1,0.6-0.1,1-0.2,1.5c1.7,0.5,3.5,0.6,5.2,2.1
		c-1.9,0-3.4,0-5,0c0,0.8,0,1.3,0,2c1.6,0.3,3,0.9,3.9,2.3c0.6,0.9,0.8,1.9,0.7,2.9c-0.1,2.3-1.6,3.7-4.7,4.6c0,0.6,0,1.1,0,1.8
		c0.9,0.1,1.7-0.1,2.4-0.4c0.7-0.3,1.4-0.7,2.4-1.3c0,3.4,0,6.6,0,9.8c0,3.3,0,6.6,0,9.9c0,3.2,0,6.5,0,9.8c4.2,1.6,7.4,4.2,9.5,8.2
		c-1.7,0.5-1.8,0.5-2.6-0.7c-1.9-2.9-4.6-4.8-7.9-5.8c-0.3-0.1-0.7-0.3-1.1-0.5c0-9.1,0-18.2,0-27.5c-1,0.2-1.8,0.3-2.7,0.5
		c-0.1,0.7-0.3,1.4,0.6,1.7c0.2,0.1,0.3,0.6,0.3,0.9c0,1.2,0,2.5,0,3.7c0,6.8,0,13.6,0,20.4c0,0.6,0,1.1,0,1.8
		c3.7,0.7,6.9,2.1,9.2,5.5c-1.3,0.3-2.1,0.2-3-0.6c-2.1-2-4.6-2.9-7.1-2.7c0,0.5,0,0.9-0.1,1.5c1.8,0.4,3.5,0.5,5.1,2
		c-1.8,0-3.3,0-5,0c0,0.7,0,1.3,0,2c1.5,0.2,2.8,0.8,3.7,2c0.6,0.8,0.9,1.7,0.9,2.7c0,2.6-1.1,3.9-4.7,5.2c0,0.3-0.1,0.6-0.1,0.9
		c0,0.2,0.1,0.5,0.1,0.8c1.8,0.3,3.1-0.7,4.5-1.5c0.5,0.6,0.3,1.2,0.3,1.8c0,5.8,0,11.6,0,17.4h2.8c0,0,0,0,0.1,0
		c7.9-2.7,13.3-8,16.3-15.8c0.1-0.2,0.2-0.4,0.3-0.6c0,0,0.1-0.1,0.3-0.2c0.2,0.4,0.3,0.7,0.4,1c2.9,7.5,8.2,12.6,15.7,15.3
		c0.2,0.1,0.4,0.1,0.7,0.2h2.8c0-3,0-6,0-8.9c-5.4-2.5-8.4-5.3-9.4-8.5c1.6-0.4,1.6-0.4,2.5,0.8c1.9,2.8,4.4,4.7,7.6,5.7
		c0.4,0.1,0.8,0.3,1.3,0.5c0,3.5,0,6.9,0,10.4h1.9c0-4,0-7.9,0-11.9c-3.9-0.6-6.9-2.2-9.2-5.5c1.3-0.3,2.1-0.3,3,0.6
		c1.9,1.9,4.3,2.9,7.1,3c0.2,0,0.5,0,0.8,0.1c0.1,0,0.2,0.1,0.4,0.2c0,4.5,0,9.1,0,13.6h1.9c0-5.3,0-10.6,0-16
		c-2.9,0.6-5.5,0.5-8-1.5c0.6-0.1,0.9-0.2,1.2-0.2c0.9,0,1.7-0.1,2.6,0c2.2,0.2,4.2-0.1,6.1-1.7c0.1,0.5,0.2,0.8,0.2,1.1
		c0,6.1,0,12.1,0,18.2h2.8c0.1,0,0.2-0.1,0.3-0.1c7.6-2.7,12.9-7.8,15.9-15.3c0.1-0.3,0.3-0.7,0.4-1c0.7,0.2,0.7,0.9,0.8,1.4
		c2.8,6.8,7.6,11.7,14.4,14.5c0.6,0.2,1.2,0.4,1.7,0.6h2.8c0-2.3,0-4.7,0-7c0-0.7,0-1.3,0-2c-4.3-1.6-7.5-4.2-9.5-8.3
		c1.5-0.5,1.8-0.5,2.4,0.5c2,3.1,4.8,5.2,8.4,6.2c0.2,0.1,0.4,0.2,0.7,0.3c0,3.4,0,6.9,0,10.4h1.8c0-3.9,0-7.9,0-11.9
		c-3.8-0.6-6.9-2.2-9.2-5.5c1.1-0.2,1.9-0.5,2.7,0.3c2.2,2.2,4.8,3.3,7.9,3.2c0.1,0,0.3,0.1,0.6,0.1c0,0.6,0.1,1.3,0.1,1.9
		c0,4,0,7.9,0,11.9h1.8c0-5.3,0-10.6,0-16c-2.9,0.6-5.5,0.5-7.8-1.2c0-0.1,0-0.2,0-0.4c0.9,0,1.8-0.1,2.7,0c2.4,0.1,4.8,0.2,7.1-1.8
		c0.2,2.4,0.1,4.3,0.1,6.3c0,1.9,0,3.9,0,5.9c0,2,0,4,0,6c0,0.4,0,0.9,0,1.3h2.9c0.1,0,0.3-0.1,0.4-0.1c7.3-2.6,12.4-7.4,15.3-14.3
		v-5c-2.7,0-5.4,0-8.1,0c-1.5,4.2-4.2,7.5-8.3,9.5c-0.5-1.7-0.4-1.8,0.5-2.5c3.1-2,5-4.8,6.1-8.3c0.1-0.2,0.1-0.4,0.3-0.9
		c3.2,0,6.4,0,9.5,0v-1.9c-3.7,0-7.3,0-11,0c-0.4,2.9-1.4,5.5-3.4,7.6c-0.6,0.6-1.1,1.3-2.1,1.6c-0.3-1.1-0.2-2,0.7-2.9
		c1.7-1.7,2.6-3.8,2.8-6.2c0.1-0.6,0.1-1.2,0.2-2c4.3,0,8.6,0,12.9,0v-1.9c-4.4,0-8.7,0-13.1,0c-0.6,0-1.2,0-1.8,0
		c0,1.5,0.1,2.9,0,4.2c-0.1,1.3-0.5,2.6-1.8,3.9c0-1.5-0.1-2.7,0-3.8c0.2-2.1-0.2-4-1.5-5.7c-0.1-0.1-0.1-0.3-0.2-0.7
		c5.1,0,10.1,0,15.1,0c1.1,0,2.2,0,3.2,0v-4.9c-2.9-6.9-8-11.6-15.2-14.2c-0.5-0.2-1-0.4-1.5-0.6c0.3-0.8,1-0.8,1.4-0.9
		c6.3-2.2,11.1-6.3,14.3-12.2c0.3-0.7,0.7-1.4,0.9-2.1v-5c-2.6,0-5.2,0-7.8,0c-1.2,1.9-2.2,3.8-3.5,5.5c-1.3,1.7-3.1,3-5.2,4
		c-0.3-1.3-0.2-2,0.9-2.7c2.7-1.7,4.6-4.3,5.6-7.4c0.1-0.4,0.3-0.9,0.5-1.5c3.2,0,6.4,0,9.6,0V176c-3.7,0-7.3,0-11.1,0
		c-0.6,4-2.2,7-5.4,9.2c-0.3-1-0.5-1.9,0.3-2.6c2.1-2.1,3.1-4.7,3.2-7.6c0-0.3,0.1-0.6,0.2-1c4.3,0,8.5,0,12.8,0v-1.8
		c-5,0-10.1,0-15.1,0c0.7,2.9,0.5,5.5-1.1,7.8c-0.1,0-0.3,0-0.4,0c0-1.1-0.1-2.2,0-3.3c0.2-2.2-0.2-4.2-1.5-6c0-0.1,0-0.2,0-0.5
		c0.6,0,1.2,0,1.8,0c5.5,0,11,0,16.5,0V165c-3.1-7.2-8.7-12.1-16.7-14.6c0-0.1,0-0.3,0-0.4c0.4-0.2,0.8-0.3,1.2-0.5
		c7.3-2.6,12.5-7.4,15.5-14.4v-5c-1.3,0-2.5,0-3.8,0c-1.4,0-2.9,0-4.4,0c-1.6,4.3-4.2,7.4-8.2,9.5c-0.5-1.7-0.5-1.8,0.8-2.6
		c2.8-1.9,4.7-4.4,5.7-7.7c0.1-0.3,0.2-0.7,0.3-1c0,0,0.1-0.1,0.3-0.3c3.1,0,6.2,0,9.4,0v-1.8c-0.6,0-1.2,0-1.8,0
		c-1.5,0-3.1,0-4.6,0c-1.5,0-3.1,0-4.7,0c-0.6,3.8-2.2,6.9-5.5,9.2c-0.2-1.2-0.4-2,0.5-2.9c1.9-1.9,2.9-4.2,3-6.9
		c0-0.5,0.1-0.9,0.1-1.5c4.3,0,8.6,0,12.9,0v-1.9c-5,0-10.1,0-15.2,0c0.8,2.9,0.6,5.5-1.4,8.1c-0.1-0.7-0.2-1.1-0.2-1.5
		c0-1.2,0-2.4,0-3.6c0-1.8-0.6-3.4-1.7-4.8c0.1-0.2,0.1-0.2,0.1-0.2c0,0,0.1-0.1,0.1-0.1c0.1,0,0.2-0.1,0.3-0.1c5.9,0,11.9,0,17.8,0
		v-5c-2.9-6.8-7.9-11.6-15.1-14.2c-0.4-0.2-0.9-0.3-1.3-0.5c-0.1,0-0.1-0.1-0.2-0.2c0.1-0.7,0.7-0.6,1.2-0.8
		c4.7-1.6,8.7-4.4,11.9-8.3c1.5-1.8,2.6-3.8,3.6-6V80c-2.7,0-5.4,0-8.1,0c-1.6,4.3-4.2,7.6-8.5,9.7c0-0.8-0.1-1.4-0.1-2.1
		c3.6-2.1,6-5.3,7.1-9.6c1.8-0.1,3.7,0,5.6,0c1.3,0,2.7,0,4,0v-1.9c-3.7,0-7.3,0-11,0c-1.1,4.9-2.6,7.3-5.5,9.2
		c-0.3-0.9-0.5-1.8,0.2-2.5c2.2-2.2,3.2-4.8,3.2-7.9c0-0.2,0.1-0.4,0.1-0.7c4.3,0,8.6,0,12.8,0v-1.8c-4.4,0-8.7,0-13.1,0
		c-0.6,0-1.2,0-2,0c0.7,3,0.5,5.5-1.5,7.8c0-0.9-0.1-1.7-0.1-2.6c0.1-2.5,0.1-4.9-1.7-6.9c0.1-0.2,0.1-0.2,0.2-0.3
		c0,0,0.1-0.1,0.1-0.1c0.2,0,0.4-0.1,0.6-0.1c5.8,0,11.7,0,17.5,0v-4.9c-3-6.9-8-11.7-15.3-14.3c-0.5-0.2-1.4-0.1-1.4-1
		c0-0.9,0.9-0.8,1.4-0.9c7.2-2.6,12.3-7.4,15.3-14.3v-5.1c-2.7,0-5.4,0-8.1,0c-1.6,4.4-4.2,7.6-8.3,9.6c-0.5-1.8-0.5-1.8,0.8-2.6
		c2.7-1.8,4.6-4.3,5.6-7.4c0.1-0.4,0.3-0.9,0.5-1.5c3.2,0,6.4,0,9.6,0v-1.9c-1.8,0-3.6,0-5.4,0c-1.8,0-3.7,0-5.6,0
		c-0.6,3.9-2.2,6.9-5.4,9.2c-0.3-1-0.5-1.9,0.2-2.6c2.3-2.2,3.2-4.9,3.2-8.1c0-0.1,0.1-0.3,0.1-0.6c4.3,0,8.5,0,12.8,0v-1.8
		c-4.4,0-8.9,0-13.3,0c-0.6,0-1.1,0-1.7,0c0.3,4.8,0.1,5.9-1.5,7.9c-0.1-0.5-0.2-0.9-0.2-1.2c0-0.9-0.1-1.8,0-2.6
		c0.2-2-0.2-3.9-1.5-5.5c-0.1-0.1-0.1-0.3-0.2-0.7c2.1-0.1,4,0,6,0c2,0,4,0,6,0c2,0,4,0,6,0c0.1,0,0.2,0,0.3,0v-4.9
		c-2.9-6.8-8-11.6-15.1-14.2c-0.2-0.1-0.4-0.1-0.6-0.2h-2.9c0,3,0,6,0,9c4.3,1.6,7.6,4.2,9.6,8.4c-1.3,0.4-2.1,0.2-2.7-0.9
		c-1.7-2.7-4.3-4.5-7.4-5.6c-0.4-0.1-0.8-0.3-1.2-0.4c0,0-0.1-0.1-0.2-0.3c0-3.4,0-6.8,0-10.2h-1.9c0,4,0,8,0,12
		c2.8,0.4,5.3,1.4,7.3,3.3c0.7,0.6,1.3,1.2,1.8,2.2c-1.1,0.1-2,0.3-2.8-0.5c-2-2-4.5-3-7.4-3c-0.2,0-0.5,0-0.9-0.1
		c-0.2-1.8-0.1-3.6-0.1-5.4c0-1.8,0-3.6,0-5.4c0-1,0-2,0-3h-1.9c0,5.3,0,10.6,0,16c3-0.8,5.5-0.5,7.8,1.4c-0.3,0-0.7,0.1-1,0.1
		c-1.1,0-2.2,0-3.2,0c-2.1,0-2.1,0-5.6,1.7c0-6.4,0-12.8,0-19.2h-2.8c-8,2.7-13.4,8-16.4,15.9c-0.1,0.1-0.1,0.3-0.2,0.4
		c0,0-0.1,0.1-0.3,0.2c-1.5-4.2-3.7-7.8-6.8-10.8c-2.9-2.7-6.2-4.5-9.9-5.8h-2.7c0,3,0,6,0,9c3,1.1,5.5,2.7,7.4,5c0.8,1,1.6,2,2,3.2
		c-1.8,0.4-1.8,0.4-2.6-0.8c-1.9-2.7-4.4-4.6-7.5-5.6c-0.4-0.1-0.9-0.3-1.4-0.5c0-3.5,0-7,0-10.4h-1.8c0,4,0,7.9,0,11.9
		c3.8,0.6,6.9,2.2,9.2,5.5c-1.1,0.2-2,0.4-2.8-0.4c-2.1-2.1-4.6-3.1-7.5-3.1c-0.2,0-0.5-0.1-0.9-0.1c-0.1-3,0-6,0-8.9
		c0-1.6,0-3.2,0-4.9h-1.8c0,5.3,0,10.6,0,16c2.9-0.7,5.5-0.5,7.8,1.6c-0.7,0-1.4,0-2.1,0c-4.2,0-4.2,0-7.6,1.7c0-6.4,0-12.8,0-19.2
		h-3.1c-1.6,0.7-3.2,1.3-4.5,2.1c-1.8,1.1-3.6,2.4-5.2,3.8c-1.5,1.4-2.8,3.1-4,4.9s-1.9,3.7-3,5.8c-1-2.7-2.2-5.3-3.9-7.6
		c-1.7-2.3-3.8-4.3-6.2-5.9C14,2.2,11.8,1.2,9.4,0.4H6.6c0,3,0,6,0,9c4.3,1.6,7.5,4.2,9.6,8.4c-0.8,0-1.4,0-2.1,0
		c-0.2-0.2-0.4-0.5-0.6-0.8c-1.9-2.8-4.4-4.7-7.6-5.7c-1.5-0.5-1.4-0.6-1.4-1.9c0-3,0-6,0-9H2.7c0,3.3,0,6.6,0,9.9
		C2.7,11,2.7,11.6,2.7,12.1z M106.8,241.7c1.8-1.3,3.6-2.5,5.3-3.9c1.6-1.3,2.7-3,3.6-4.8c0.8-1.5,0.8-1.5,2.6-1.2
		c-0.5,3.4-5.5,9.8-11.5,11.7C106.8,242.8,106.8,242.1,106.8,241.7z M120.5,231.8c0.6,0,1.1,0,1.7,0c-1.3,6.8-8.8,14.2-15.4,15.5
		c0-0.5-0.1-1-0.1-1.6C113.4,243.2,118,238.6,120.5,231.8z M122.2,181.9c-1.4,6.9-8.6,14-15.4,15.5c0-0.6,0-1.1,0-1.7
		c6.7-2.4,11.3-7,13.7-13.8C121.1,181.9,121.6,181.9,122.2,181.9z M107.8,190.9c3.5-1.8,6.1-4.4,7.9-8c0.7-1.4,0.8-1.4,2.7-0.9
		c-2.2,5.5-6,9.3-11.5,11.6C106.3,192,106.4,191.6,107.8,190.9z M120.2,132.6c0.1-0.2,0.2-0.4,0.3-0.7c0.5,0,1.1,0,1.6,0
		c-1,6.3-8.4,14-15.3,15.5c-0.2-1.6-0.2-1.6,0.8-2C113.7,143,117.8,138.7,120.2,132.6z M108,140.9c3.3-1.7,5.9-4.3,7.6-7.6
		c0.8-1.5,0.8-1.5,2.6-1.2c-0.3,4-6.4,10.3-11.4,11.6C106.5,141.7,106.5,141.6,108,140.9z M106.7,2.5c6.3,1,13.9,8.5,15.5,15.4
		c-0.6,0-1.1,0.1-1.7,0.1c-2.5-6.8-7-11.4-13.8-13.8C106.7,3.6,106.7,3.1,106.7,2.5z M107.9,9c-1.5-0.8-1.5-0.8-1.1-2.6
		c4.6,1,10.7,7.1,11.5,11.5c-0.7,0-1.3,0-2,0c-0.2-0.3-0.4-0.7-0.6-1.1C113.9,13.4,111.3,10.8,107.9,9z M9.8,59.4
		c-1.5-0.8-1.5-0.8-1.3-2.6c3.6,0.3,10.2,6,11.6,11.4c-1.9,0.3-1.9,0.3-2.8-1.3C15.6,63.6,13.1,61.1,9.8,59.4z M9.6,45
		c5.8-2.4,9.9-6.5,12.3-12.3c0.5-1.3,0.5-1.3,2.1-1c-1,6.4-9.4,14.7-15.5,15.4c0-0.5,0-1,0-1.6C8.9,45.4,9.3,45.2,9.6,45z M8.6,43.3
		c0-0.7,0-1.3,0-2c0.4-0.2,0.8-0.4,1.2-0.6c3.4-1.8,6-4.3,7.7-7.7c0.8-1.5,0.8-1.5,2.6-1.2C19.7,35.8,13.1,42.5,8.6,43.3z M9.9,49.1
		c7.4-2.7,12.7-7.7,15.6-15c0.1-0.4,0.3-0.8,0.5-1.1c0-0.1,0.2-0.1,0.4-0.3c0.3,0.9,0.6,1.6,0.9,2.4c3.1,6.9,8.2,11.5,15.2,14
		c0.5,0.2,1.4,0.1,1.4,0.9c0,0.9-0.8,0.8-1.4,1c-7.5,2.6-12.6,7.7-15.6,15c-0.2,0.5-0.4,0.9-0.7,1.6c-0.3-0.6-0.5-1-0.7-1.5
		c-2.9-7.4-8.2-12.4-15.7-15.1c-0.5-0.2-1.4-0.1-1.4-1C8.5,49.1,9.4,49.3,9.9,49.1z M60.9,68.1c-1.1,0.2-1.9,0.5-2.7-0.3
		c-2.1-2.2-4.8-3.2-7.8-3.2c-0.2,0-0.4-0.1-0.7-0.1c0-9,0-18.1,0-27.3c-3.8-0.6-6.9-2.2-9.2-5.5c1.3-0.3,2.1-0.2,3,0.6
		c1.8,1.9,4.1,2.8,6.8,2.9c0.3,0,0.7,0,1.1,0.1c0.1,0,0.2,0.1,0.4,0.2c0,8.9,0,18,0,27.2C55.6,63.3,58.6,64.9,60.9,68.1z M57.6,43.3
		c0-0.7,0-1.3,0-2c0.4-0.2,0.8-0.4,1.2-0.6c3.4-1.8,6-4.3,7.7-7.7c0.8-1.5,0.8-1.5,2.7-1.2C68.1,36.6,62,42.4,57.6,43.3z M71,32.7
		c0.5-1.3,0.6-1.3,2.1-0.9c-1.1,6.1-7.9,13.7-15.4,15.5c0-0.6,0-1.1,0-1.7c0.3-0.1,0.5-0.3,0.8-0.4C64.4,42.8,68.6,38.6,71,32.7z
		 M58.1,49.4c0.2-0.1,0.5-0.2,0.7-0.3c7.6-2.6,12.9-7.7,15.8-15.2c0.1-0.3,0.3-0.7,0.4-1c0,0,0.1-0.1,0.3-0.3
		c0.2,0.5,0.4,0.9,0.6,1.4c3,7.4,8.2,12.3,15.6,15c0.5,0.2,1.4,0.1,1.4,0.9c0,0.9-0.8,0.8-1.4,1c-7.5,2.7-12.7,7.8-15.7,15.2
		c-0.1,0.4-0.3,0.7-0.6,1.3c-0.3-0.5-0.5-0.7-0.6-1c-2.9-7.7-8.3-12.9-16.1-15.6c-0.2-0.1-0.5-0.1-0.7-0.3c-0.2-0.1-0.4-0.4-0.4-0.6
		C57.6,49.8,57.8,49.5,58.1,49.4z M92.3,45.2c0.2,0.1,0.4,0.2,0.7,0.3c0,0.6,0,1.1,0,1.6c-5.8-0.9-13.9-7.9-15.4-15.3
		c1.5-0.3,1.6-0.3,2,0.8C81.9,38.6,86.2,42.8,92.3,45.2z M81.4,31.6c1.9-0.2,1.9-0.2,2.7,1.3c1.7,3.3,4.2,5.8,7.5,7.5
		c0.4,0.2,0.8,0.4,1.2,0.7c0,0,0.1,0.1,0.1,0.2c0,0.6,0,1.3,0,1.9C88.6,42.4,82.3,36.5,81.4,31.6z M104.8,118.1
		c-0.4,0.1-0.8,0.1-1.1,0.2c-0.7,0-1.4,0-2.2,0c-3.5,0-3.5,0-6.4,1.6c-0.4-0.5-0.3-1.1-0.3-1.7c0-4.8,0-9.6,0-14.4
		c0-3.9,0-7.7,0-11.6c0-1.2-0.2-1.9-1.5-2.4c-3.1-1.2-5.5-3.4-7.2-6.3c-0.2-0.3-0.4-0.7-0.6-1.1c-0.1-0.1,0-0.3,0-0.5
		c0.9-0.1,1.7-0.4,2.3,0.6c2,3.2,4.9,5.2,8.5,6.3c0.1,0,0.3,0.1,0.6,0.2c0,9.1,0,18.3,0,27.5C101.3,116.2,103,116.5,104.8,118.1z
		 M104.6,125.1c0,2.6-2.2,4.7-4.8,4.7c-2.6,0-4.8-2.2-4.8-4.8c0-2.6,2.2-4.8,4.8-4.8C102.5,120.3,104.7,122.6,104.6,125.1z
		 M104.9,168c-0.5,0.1-0.8,0.2-1.1,0.2c-0.7,0-1.4,0-2.2,0c-3.4,0-3.6,0.1-6.5,1.7c-0.4-0.5-0.2-1.2-0.2-1.7c0-8.4,0-16.8,0-25.2
		c0-0.4,0-0.8,0-1.2c0.1-1-0.3-1.5-1.2-1.8c-3.2-1.3-5.7-3.4-7.5-6.4c-0.3-0.5-0.5-1-0.8-1.5c1.3-0.4,2-0.2,2.7,0.9
		c1.7,2.7,4.3,4.6,7.3,5.6c0.4,0.1,0.9,0.3,1.4,0.5c0,9.2,0,18.3,0,27.6C99.7,166.1,102.4,166.1,104.9,168z M104.6,175.1
		c0,2.6-2.2,4.8-4.8,4.8c-2.6,0-4.8-2.2-4.8-4.8c0-2.6,2.2-4.8,4.8-4.8C102.4,170.2,104.7,172.5,104.6,175.1z M51.8,203.5
		c0,3,0,6,0,9c2.9,0.5,5.5,1.5,7.6,3.5c0.6,0.6,1,1.2,1.7,2c-1.2,0.2-2.1,0.4-2.9-0.4c-2.1-2.1-4.7-3.1-7.7-3.1
		c-0.2,0-0.4-0.1-0.8-0.1c0-8.9,0-17.9,0-26.6c-1.8-0.7-3.6-1.3-5.1-2c-1.6-0.8-2.9-2.1-4-3.7c1-0.4,1.9-0.5,2.6,0.3
		c2.1,2.2,4.7,3.2,7.8,3.2c0.2,0,0.4,0.1,0.8,0.1c0.1,3,0,5.9,0.1,8.9C51.8,197.6,51.8,200.6,51.8,203.5z M55,211.5
		c-0.4-0.1-0.9-0.3-1.4-0.5c0-9.2,0-18.3,0-27.6c-2.9,0.7-5.5,0.5-7.8-1.2c0-0.1,0-0.2,0-0.4c0.9,0,1.9-0.1,2.9,0
		c2.4,0.3,4.7,0,7-1.9c0.1,2.8,0,5.2,0,7.7c0,2.4,0,4.8,0,7.3c0,2.5,0,4.9,0,7.4c0,2.4,0,4.8,0,7.3c4.2,1.6,7.5,4.2,9.5,8.3
		c-1.3,0.5-2.1,0.2-2.8-0.9C60.7,214.3,58.1,212.5,55,211.5z M8.6,145.8c0.4-0.2,0.7-0.3,1.1-0.5c5.8-2.3,9.8-6.4,12.2-12.2
		c0.5-1.3,0.5-1.3,2-1.1c0.2,5.3-9.5,15-15.3,15.4C8.6,146.9,8.6,146.4,8.6,145.8z M8.5,143.6c0-0.7,0-1.3,0-1.9
		c4.7-2.5,6.7-4.2,9.7-9.7c0.6,0,1.3,0,1.9,0C19.4,136.4,13,142.8,8.5,143.6z M22.7,130c-1.9,0-3.8,0-5.7,0
		c-1.6,4.3-4.2,7.4-8.2,9.5c-0.5-1.7-0.5-1.8,0.5-2.5c3-2,5.1-4.8,6.1-8.3c0.1-0.2,0.2-0.5,0.4-0.8c8.8,0,17.6,0,26.7,0
		c-0.6-2.8-0.5-5.4,1.4-8c0.5,3.5-0.6,7,2.1,10c-2.2,0.2-4.1,0.1-6,0.1c-1.9,0-3.8,0-5.7,0s-3.8,0-5.7,0C26.6,130,24.6,130,22.7,130
		z M43.1,104.8c-5.9,2.3-10.1,6.4-12.5,12.3c-0.5,1.3-0.6,1.3-2.1,1c0.7-5.9,9.3-14.5,15.3-15.2c0,0.5,0,1,0.1,1.5
		C43.6,104.5,43.3,104.7,43.1,104.8z M43.9,108.6c-0.5,0.2-0.9,0.5-1.3,0.7c-3.3,1.7-5.9,4.3-7.6,7.6c-0.8,1.5-0.8,1.5-2.9,1.2
		c2.3-5.6,6.1-9.4,11.6-11.6c0.1,0.4,0.1,0.6,0.2,0.8C43.9,107.7,43.9,108.2,43.9,108.6z M43.9,100.2c-1.9,0.9-3.9,1.6-5.6,2.6
		c-1.8,1.1-3.6,2.4-5.2,3.9c-1.5,1.4-2.8,3.1-4,4.9c-1.1,1.7-1.9,3.7-3,5.8c-3.1-8.6-9-14.3-17.6-16.9c0-0.8,0.6-0.8,1-0.9
		c1.6-0.7,3.3-1.3,4.8-2.1c5.3-3,8.9-7.3,11.2-12.9c0.2-0.4,0.4-0.8,0.6-1.3c0,0,0.1-0.1,0.3-0.2c3,8.5,8.9,14.2,17.6,16.9
		C43.9,100,43.9,100.1,43.9,100.2z M9.6,95.4c5.8-2.4,9.9-6.5,12.3-12.3c0.5-1.3,0.5-1.3,2.1-1.1c-0.9,6.3-9.2,14.6-15.5,15.5
		c0-0.5,0-1-0.1-1.6C8.9,95.8,9.2,95.5,9.6,95.4z M8.6,93.6c0-0.7,0-1.3,0-2C9,91.4,9.4,91.2,9.8,91c3.4-1.8,6-4.3,7.7-7.7
		c0.8-1.5,0.8-1.5,2.7-1.2C19,86.9,13,92.9,8.6,93.6z M43.8,95.8c0,0.6,0,1.1,0,1.6c-6.1-0.7-14.5-9.2-15.4-15.5
		c0.5,0,1-0.1,1.6-0.1C32.5,88.7,37.1,93.3,43.8,95.8z M32.3,82.1c1.7-0.5,1.8-0.5,2.5,0.9c1.8,3.6,4.5,6.2,8,8
		c0.3,0.2,0.6,0.3,1,0.5c0,0.4,0.1,0.8,0.1,1.2c0,0.2-0.1,0.5-0.1,0.7C39.5,93,33.1,86.6,32.3,82.1z M36.3,82.2
		c1.5-0.5,1.8-0.5,2.4,0.5c2,3.1,4.8,5.2,8.4,6.2c0.2,0.1,0.4,0.1,0.7,0.3c0,9.1,0,18.3,0,27.5c4.4-0.5,6.1-0.1,7.9,1.5
		c-3.4,0.4-6.9-0.7-9.9,2.1c0-10.1,0-19.9,0-29.7C41.6,89,38.3,86.3,36.3,82.2z M49.4,81.9c2.2,0.2,4.1-0.1,5.8-1.5
		c0.1,0,0.2,0,0.5,0c0,9.7,0,19.5,0,29.3c4.3,1.6,7.5,4.2,9.6,8.3c-1.3,0.4-2.1,0.2-2.7-0.8c-1.8-2.8-4.4-4.7-7.6-5.7
		c-0.4-0.1-0.8-0.3-1.3-0.5c0-9.2,0-18.3,0-27.4c-4.5,0.4-6.1,0.1-7.9-1.6C47,81.7,48.2,81.8,49.4,81.9z M45.9,75.2
		c0-2.6,2.2-4.8,4.8-4.8c2.6,0,4.8,2.2,4.8,4.8c0,2.6-2.2,4.8-4.8,4.8C48.2,80,45.9,77.8,45.9,75.2z M57.7,93.6
		c0-0.2-0.1-0.5-0.1-0.7c0-0.4,0-0.8,0.1-1.3c0.4-0.2,0.8-0.4,1.3-0.6c3.4-1.8,6-4.4,7.7-7.7c0.8-1.5,0.8-1.5,2.6-1.2
		C68.7,85.8,62.8,92.6,57.7,93.6z M70.9,83.2c0.6-1.4,0.6-1.4,2.1-1.1c-1.3,6.6-8.4,13.9-15.5,15.5c0-0.7,0-1.1,0-1.7
		c0.4-0.2,0.7-0.3,1-0.5C64.5,93.1,68.6,89,70.9,83.2z M59,99.4c6.1-2.1,10.8-6,13.9-11.5c0.9-1.5,1.5-3.1,2.3-4.8
		c0.2,0.2,0.4,0.4,0.5,0.7c3,7.9,8.4,13.1,16.4,15.8c0.3,0.1,0.6,0.3,1.1,0.6c-0.4,0.3-0.7,0.5-1,0.6c-8,2.6-13.5,8-16.5,15.9
		c-0.1,0.2-0.2,0.4-0.5,0.9c-3.1-8.8-9.1-14.4-17.7-17.1C57.8,99.6,58.5,99.6,59,99.4z M92.4,95.6c0.1,0.1,0.3,0.1,0.5,0.3
		c0,0.6,0,1.1,0,1.6c-5.9-0.6-14.5-9.1-15.4-15.3c1.5-0.4,1.6-0.4,2,0.8C81.9,89,86.2,93.2,92.4,95.6z M81.3,82
		c1.9-0.3,1.9-0.3,2.7,1.2c1.7,3.3,4.3,5.9,7.6,7.7c0.4,0.2,0.8,0.4,1.3,0.7c0,0.7,0,1.3,0,1.9C88.8,93.1,82.4,86.8,81.3,82z
		 M91.9,145.3c1.3,0.5,1.3,0.5,0.9,2.1c-6.1-0.9-13.8-8.5-15.3-15.5c0.6,0,1.1,0,1.7,0c0.1,0.2,0.3,0.5,0.4,0.8
		C81.8,138.7,86,142.9,91.9,145.3z M81.4,132c1.9-0.3,1.9-0.3,2.6,1.2c1.7,3.3,4.2,5.9,7.6,7.6c0.4,0.2,0.8,0.4,1.3,0.7
		c0,0.7,0,1.4,0,2.1C88.1,142.4,82,136.3,81.4,132z M79.3,140.4c0.9,1.1,1.8,2.2,2.9,3.2c1,1,2.2,1.9,3.4,2.7c1.1,0.8,2.4,1.4,3.6,2
		c1.3,0.6,2.6,1.1,3.9,1.8c-4.1,1.5-7.7,3.4-10.8,6.4c-3.1,3-5.3,6.5-6.7,10.6c-0.7-0.3-0.7-0.9-0.9-1.4c-2.4-6-6.4-10.5-12.1-13.4
		c-1.1-0.6-2.4-1-3.5-1.5c-0.5-0.2-0.9-0.4-1.3-0.6c0-0.1,0-0.2,0-0.3c1.5-0.6,3.1-1.2,4.6-2c1.5-0.8,3-1.7,4.3-2.7
		c1.3-1,2.6-2.2,3.7-3.5c1.1-1.3,2.1-2.7,2.9-4.2c0.8-1.5,1.5-3,2.3-4.8c0.7,1.4,1.2,2.7,1.8,4C77.7,138.1,78.4,139.3,79.3,140.4z
		 M91.9,163.3c-2.7,1.8-4.5,4.3-5.5,7.4c-0.1,0.4-0.3,0.9-0.5,1.4c-8.9,0-17.8,0-26.8,0c0.7,2.9,0.5,5.5-1.1,7.8c-0.1,0-0.3,0-0.4,0
		c0-1.1-0.1-2.3,0-3.5c0.2-2.1-0.2-4.1-1.5-5.8c0-0.1,0-0.2,0-0.5c0.6,0,1.1,0,1.6,0c8.4,0,16.8,0,25.2,0c1.2,0,1.9-0.3,2.4-1.5
		c1.2-3,3.3-5.4,6.1-7.2c0.5-0.3,1-0.5,1.5-0.8C93.2,162.4,93.2,162.5,91.9,163.3z M92.2,167.8c-1.9,1.9-2.7,4.3-2.9,7
		c0,0.3,0,0.7-0.1,1.2c-8.7,0-17.3,0-26,0c-0.4,2.8-1.3,5.2-3.2,7.2c-0.6,0.7-1.4,1.3-2.3,2.1c-0.3-1.3-0.3-2.2,0.5-3
		c1.9-1.9,2.8-4.4,3-7.1c0-0.3,0-0.7,0.1-1.2c8.7,0,17.3,0,26,0c0.6-3.8,2.2-6.9,5.4-9.2C93.1,166.1,93.1,167,92.2,167.8z
		 M49.7,151.1c0-2.3,0-4.5,0-6.8c0-2.2,0-4.4,0-6.7c-3.8-0.7-6.9-2.2-9.2-5.5c1-0.2,1.9-0.5,2.7,0.3c2.2,2.2,4.8,3.3,7.9,3.2
		c0.1,0,0.3,0.1,0.7,0.1c0,9,0,17.9,0,26.8c3.8,0.6,6.9,2.1,9.2,5.4c-1.2,0.3-2.1,0.3-2.9-0.6c-1.9-1.9-4.4-2.8-7.1-2.9
		c-0.3,0-0.6,0-1.1,0c-0.1-2.3,0-4.6,0-6.8C49.7,155.5,49.7,153.3,49.7,151.1z M46.7,131.9c1.2,0,2.4,0,3.6,0
		c1.7,0.1,3.2-0.3,4.5-1.3c0.2-0.1,0.4-0.2,0.9-0.5c0,0.9,0,1.5,0,2.2c0,8.5,0,17,0,25.5c0,1.3,0.3,2.1,1.7,2.6
		c3,1.2,5.4,3.4,7.1,6.2c0.3,0.4,0.5,0.9,0.7,1.4c-1.8,0.4-1.8,0.4-2.6-0.8c-1.9-2.7-4.4-4.6-7.5-5.6c-0.3-0.1-0.7-0.2-1-0.3
		c0,0-0.1-0.1-0.3-0.2c0-9,0-18.1,0-27.5c-2.9,0.7-5.5,0.5-8.1-1.4C46.1,132,46.4,131.9,46.7,131.9z M45.9,125.1
		c0-2.6,2.2-4.7,4.8-4.7c2.6,0,4.8,2.1,4.9,4.8c0,2.7-2.1,4.8-4.8,4.8C48.1,129.9,45.9,127.7,45.9,125.1z M71.4,168.1
		c-2.4-6.7-7-11.2-13.7-13.7c0-0.3-0.1-0.6-0.1-0.9c0-0.2,0.1-0.5,0.1-0.7c7,1.4,14,8.7,15.5,15.4C72.5,168.1,72,168.1,71.4,168.1z
		 M77.6,168.1c0.5-5.8,8.3-13.8,15.3-15.4c0,0.6,0,1.1,0,1.8c-3.1,1.1-6,2.8-8.4,5.2c-2.4,2.4-4.1,5.2-5.3,8.5
		C78.7,168.1,78.1,168.1,77.6,168.1z M91.7,159.3c-3.3,1.7-5.8,4.2-7.5,7.5c-0.8,1.6-0.8,1.6-2.7,1.3c0.6-4.2,7.2-10.8,11.4-11.4
		C93.2,158.5,93.2,158.5,91.7,159.3z M57.8,147.4c-0.4-1.5-0.4-1.5,0.9-2.1c5.9-2.4,10.1-6.6,12.4-12.6c0.1-0.2,0.2-0.5,0.3-0.8
		c0.5,0,1.1,0,1.7,0C71.6,138.6,64.8,145.9,57.8,147.4z M57.7,143.6c0-0.2-0.1-0.5-0.1-0.7c0-0.4,0-0.8,0-1.3
		c0.5-0.2,0.9-0.5,1.4-0.7c3.3-1.7,5.8-4.3,7.6-7.6c0.8-1.5,0.8-1.5,2.7-1.2C68.3,136.2,63,142.3,57.7,143.6z M57.7,156.6
		c4.4,0.8,10.3,6.6,11.5,11.3c-1.7,0.5-1.9,0.5-2.6-1c-1.7-3.4-4.3-6-7.7-7.7C57.4,158.5,57.4,158.5,57.7,156.6z M91.9,113.4
		c-2.7,1.7-4.6,4.3-5.5,7.4c-0.1,0.4-0.3,0.8-0.4,1.3c-8.9,0-17.7,0-26.8,0c0.7,2.9,0.6,5.5-1.3,8.1c-0.1-0.5-0.2-0.8-0.2-1.1
		c0-1.1-0.1-2.2,0-3.2c0.1-1.8-0.3-3.5-1.4-4.9c-0.1-0.2-0.2-0.3-0.4-0.7c4.9-0.1,9.7,0,14.4,0c4.7,0,9.5,0,14.3,0
		c1.5-4.2,4.2-7.4,8.3-9.5C93.2,112,93,112.7,91.9,113.4z M92.2,117.9c-1.9,1.9-2.7,4.3-2.9,7c0,0.3,0,0.6-0.1,0.9
		c0,0,0,0.1-0.1,0.3c-8.6,0-17.2,0-25.9,0c-0.6,3.8-2.2,6.9-5.5,9.3c-0.2-1.1-0.5-1.9,0.3-2.7c2.2-2.2,3.2-4.9,3.2-7.9
		c0-0.1,0.1-0.3,0.1-0.6c8.6,0,17.2,0,25.9,0c0.5-2.9,1.4-5.4,3.4-7.4c0.6-0.6,1.3-1.1,2.1-1.8C93.1,116.2,93.1,117.1,92.2,117.9z
		 M69.2,118.1c-1.7,0.5-1.9,0.4-2.5-0.9c-1.8-3.5-4.5-6.1-7.9-7.9c-0.3-0.2-0.6-0.3-1-0.5c0-0.7,0-1.3,0-1.9
		C61.6,107,68.4,113.6,69.2,118.1z M57.6,104.4c0-0.5,0-1,0-1.5c5.6,0.2,13.8,8.3,15.5,15.2c-1.6,0.3-1.6,0.3-2.1-0.8
		c-2.4-6-6.6-10.2-12.7-12.5C58.1,104.7,57.9,104.5,57.6,104.4z M92.9,104.4c-0.3,0.1-0.6,0.3-0.9,0.4c-5.8,2.4-9.9,6.4-12.3,12.2
		c-0.5,1.3-0.5,1.3-2.2,1c1.4-6.6,9.5-14.7,15.4-15.3C92.9,103.3,92.9,103.8,92.9,104.4z M92.9,106.7c0,0.7,0,1.3,0,2
		c-0.3,0.2-0.6,0.3-0.9,0.5c-3.5,1.8-6.2,4.4-8,7.9c-0.7,1.4-0.9,1.4-2.5,0.9C82.2,113.7,88.4,107.5,92.9,106.7z M50.8,85.6
		c0.2,0,0.5,0.1,0.9,0.2c0.1,3,0,6,0,8.9c0,3,0,6,0,8.9c0,3,0,6,0,9c3.8,0.6,6.8,2.2,9.1,5.3c-0.9,0.4-1.8,0.6-2.5-0.1
		c-2.3-2.3-5.1-3.4-8.5-3.2c-0.1-0.7-0.1-1.4-0.1-2c0-7.7,0-15.4,0-23.2c0-0.6,0-1.2,0-1.9c-3.8-0.6-6.9-2.2-9.2-5.5
		c1.1-0.2,2-0.4,2.7,0.4C45.3,84.6,47.8,85.7,50.8,85.6z M9.3,132.3c1.9-1.9,2.9-4.4,2.9-7.1c0-0.3,0-0.6,0.1-1.1
		c0.6,0,1.2-0.1,1.8-0.1c7.5,0,14.9,0,22.4,0c0.6,0,1.2,0,1.9,0c0.6-3.8,2.2-6.9,5.4-9.1c0.2,1.1,0.4,1.9-0.3,2.7
		c-2.1,2.1-3.1,4.6-3.1,7.5c0,0.2-0.1,0.5-0.1,0.9c-8.7,0-17.3,0-26,0c-0.5,3.9-2.2,7-5.5,9.3C8.4,134.1,8.4,133.2,9.3,132.3z
		 M30.1,131.9c2.4,6.6,7,11.3,13.7,13.8c0,0.7,0,1.1,0,1.6c-6-0.6-14.5-9.2-15.4-15.4C28.9,131.9,29.4,131.9,30.1,131.9z
		 M43.7,143.5c-4.5-0.9-10.6-7-11.4-11.6c0.7,0,1.3,0,2,0c0.2,0.3,0.4,0.7,0.6,1c1.7,3.5,4.3,6.1,7.8,7.9
		C44.1,141.7,44.1,141.7,43.7,143.5z M36.3,132.1c1.8-0.4,1.8-0.4,2.7,0.8c1.8,2.7,4.4,4.6,7.5,5.6c0.3,0.1,0.7,0.2,1,0.3
		c0.1,0,0.2,0.1,0.3,0.3c0,9,0,18.1,0,27.5c2.8-0.6,5.4-0.5,7.7,1.3c-3.2,0.5-6.6-0.5-9.3,1.9c-0.2-0.1-0.2-0.1-0.3-0.1
		c0,0-0.1-0.1-0.1-0.1c0-0.2-0.1-0.4-0.1-0.6c0-9.5,0-18.9-0.1-28.4c0,0,0-0.1-0.1-0.3C41.6,138.9,38.3,136.2,36.3,132.1z
		 M55.5,175.1c0,2.6-2.3,4.8-4.9,4.7c-2.6,0-4.8-2.3-4.8-4.9c0-2.6,2.3-4.8,4.9-4.8C53.4,170.3,55.6,172.5,55.5,175.1z M58.8,209.2
		c-0.3-0.2-0.6-0.3-0.9-0.5c-0.1,0-0.1-0.1-0.2-0.2c0-0.6,0-1.3,0-1.9c4.6,0.9,10.8,7.1,11.6,11.5c-1.9,0.2-1.9,0.2-2.7-1.3
		C64.7,213.4,62.2,210.9,58.8,209.2z M58.2,204.6c-0.2-0.1-0.3-0.2-0.6-0.3c0-0.5,0-1,0-1.5c5.4-0.1,14.6,9.1,15.4,15.2
		c-1.5,0.3-1.6,0.3-2-0.8C68.6,211.1,64.3,206.9,58.2,204.6z M57.6,200.3c0.2-0.9,0.9-0.8,1.4-1c4.2-1.5,7.8-3.8,10.8-7.1
		c2.1-2.3,3.6-4.9,4.8-7.7c0.2-0.5,0.4-0.9,0.6-1.6c0.2,0.4,0.4,0.6,0.5,0.8c3,7.8,8.5,13.1,16.4,15.8c0.2,0.1,0.5,0.2,0.7,0.3
		c0,0,0.1,0.1,0.2,0.3c-1.9,0.9-3.9,1.6-5.7,2.6c-1.8,1.1-3.6,2.4-5.2,3.9c-1.5,1.4-2.8,3.1-4,4.9c-1.1,1.7-1.9,3.7-3,5.8
		C72.1,208.6,66.2,203,57.6,200.3z M57.6,195.7c0.4-0.2,0.8-0.3,1.1-0.5c5.8-2.4,9.8-6.5,12.2-12.2c0.5-1.3,0.5-1.3,2.1-1
		c-0.2,5.6-8.7,14.2-15.3,15.5c0-0.2-0.1-0.4-0.1-0.6C57.6,196.5,57.6,196.1,57.6,195.7z M59,190.8c3.3-1.7,5.9-4.3,7.6-7.7
		c0.8-1.6,0.8-1.6,2.6-1.1c-0.6,4.2-6.9,10.6-11.5,11.5C57.5,191.6,57.5,191.6,59,190.8z M77.4,182c1.6-0.3,1.7-0.3,2.1,0.8
		c2.4,6,6.6,10.2,12.6,12.6c0.2,0.1,0.5,0.2,0.7,0.3c0,0.6,0,1.1,0,1.6C86.5,196.2,79,188.8,77.4,182z M92.9,202.7c0,0.5,0,1,0,1.6
		c-6.6,2.4-11.2,7-13.7,13.7c-0.4,0-0.6,0.1-0.9,0.1c-0.2,0-0.5,0-0.7-0.1C78,212.3,87,203.2,92.9,202.7z M92.9,206.4
		c0,0.8,0,1.4,0,2.1c-0.2,0.1-0.3,0.3-0.5,0.3c-3.8,1.8-6.6,4.6-8.5,8.4c-0.5,1.1-0.6,1.1-2.4,0.8C81.9,213.9,87.7,208,92.9,206.4z
		 M92.6,217.4c-2.4,2.3-3.3,5.2-3.3,8.5c-8.7,0-17.3,0-26.1,0c-0.6,3.8-2.1,7-5.5,9.4c-0.2-1.1-0.4-2,0.4-2.8
		c2.1-2.1,3.1-4.7,3.1-7.7c0-0.2,0-0.4,0.1-0.8c8.7,0,17.3,0,25.8,0c0.7-1.8,1.2-3.5,2-5.1c0.8-1.6,2-2.9,3.7-4
		C93,215.8,93.3,216.7,92.6,217.4z M92.8,193.7c-5.5-2.2-9.3-6-11.6-11.6c2-0.5,2-0.5,2.8,1.1c1.7,3.4,4.3,6,7.7,7.7
		C93.2,191.6,93.2,191.6,92.8,193.7z M80.5,179.9c-4.7,0-9.5,0-14.3,0c-1.6,4.2-4.2,7.5-8.3,9.5c-0.5-1.6-0.5-1.8,0.7-2.6
		c2.8-1.9,4.7-4.4,5.7-7.7c0.1-0.4,0.2-0.8,0.4-1.3c8.9,0,17.7,0,26.7,0c-0.6-2.8-0.5-5.4,1.4-7.9c0.1,0.5,0.2,0.8,0.2,1.1
		c0,1.1,0,2.2,0,3.2c-0.1,1.8,0.3,3.4,1.4,4.8c0.1,0.2,0.2,0.3,0.4,0.7C89.9,180,85.2,179.9,80.5,179.9z M66.1,130
		c-1.6,4.2-4.2,7.4-8.2,9.5c-0.5-1.6-0.5-1.8,0.5-2.4c3.1-2.1,5.1-4.8,6.1-8.4c0.1-0.2,0.2-0.4,0.3-0.7c8.8,0,17.6,0,26.7,0
		c-0.6-2.8-0.5-5.4,1.4-8c0.1,0.7,0.2,1,0.2,1.3c0,1.1,0,2.3,0,3.4c-0.1,1.9,0.6,3.5,1.9,5.3C85.1,130,75.6,130,66.1,130z
		 M80.3,80.1c-4.7,0-9.5,0-14.2,0c-1.5,4.2-4.2,7.5-8.2,9.5c-0.6-1.6-0.5-1.8,0.7-2.6c2.8-1.9,4.7-4.4,5.7-7.7
		c0.1-0.3,0.2-0.7,0.3-1c0,0,0.1-0.1,0.3-0.3c8.6,0,17.4,0,26.5,0c-0.6-2.9-0.5-5.4,1.4-7.9c0.1,0.5,0.2,0.8,0.2,1.1
		c0,1.1,0,2.2,0,3.2c-0.1,1.8,0.3,3.4,1.4,4.8c0.1,0.2,0.2,0.3,0.4,0.8C89.8,80.1,85.1,80.1,80.3,80.1z M58.3,82.4
		c1.9-1.9,2.8-4.4,2.9-7.1c0-0.3,0-0.6,0.1-0.9c0,0,0.1-0.1,0.2-0.3c8.5,0,17.2,0,25.9,0c0.6-3.9,2.2-6.8,5.3-9.1
		c0.3,1,0.5,1.8-0.1,2.5c-2.7,3.4-2.9,3.9-3.4,8.5c-8.6,0-17.2,0-26,0c-0.6,3.9-2.2,7-5.5,9.3C57.4,84.1,57.5,83.3,58.3,82.4z
		 M91.7,59.4c-3.3,1.7-5.9,4.2-7.6,7.6c-0.8,1.5-0.8,1.5-2.9,1.3c2.3-5.6,6.1-9.4,11.5-11.6C93.2,58.5,93.2,58.6,91.7,59.4z
		 M79.2,68.2c-0.3,0-0.6,0.1-0.9,0.1c-0.2,0-0.5-0.1-0.7-0.1c0.8-6.1,8.7-14.1,15.4-15.4c0,0.6,0,1.1,0,1.7
		C86.2,57,81.7,61.5,79.2,68.2z M73.1,68.3c-0.5,0-1,0-1.7,0c-2.4-6.6-7-11.2-13.8-13.7c0-0.6,0-1.1,0-1.6
		C63.1,53.1,72.2,62.1,73.1,68.3z M57.7,56.5c5.6,2.2,9.4,6,11.6,11.5c-1.8,0.6-2,0.5-2.7-0.9c-1.8-3.4-4.4-6.1-7.9-7.8
		c-0.3-0.1-0.6-0.3-0.8-0.4c-0.1,0-0.1-0.1-0.3-0.3c0-0.3-0.1-0.8,0-1.2C57.6,57.2,57.6,57,57.7,56.5z M84.5,70.2
		c1.6-4.2,4.2-7.4,8.3-9.4c0.2,1.1,0.4,1.9-0.6,2.6c-3,1.9-5,4.7-6,8.1C86.1,71.6,86,71.8,86,72c0,0-0.1,0.1-0.2,0.3
		c-8.7,0-17.5,0-26.6,0c0.6,2.9,0.5,5.5-1.4,8.1c-0.1-0.6-0.2-0.9-0.2-1.2c0-0.3,0-0.7,0-1.1c0-4.2,0-4.2-1.7-7.9
		C65.5,70.2,74.9,70.2,84.5,70.2z M46.5,38.3c0.4,0.1,0.8,0.3,1.4,0.5c0,9.3,0,18.6,0,28c2.8-0.7,5.4-0.5,8,1.3
		c-0.6,0.1-0.9,0.2-1.2,0.2c-0.8,0-1.6,0-2.5,0c-3,0-3,0-6.1,1.6c0,0-0.1,0-0.1-0.1c0,0-0.1-0.1-0.1-0.1c0-0.1-0.1-0.3-0.1-0.5
		c0-9.6,0-19.2,0-28.9c0,0,0-0.1-0.1-0.3c-4.1-1.5-7.4-4.2-9.4-8.4c1.3-0.5,2.1-0.1,2.7,0.9C40.8,35.4,43.4,37.3,46.5,38.3z
		 M42.7,40.6c1.4,0.7,1.4,0.8,1.1,2.6c-4.8-1.1-11.1-7.5-11.4-11.6c1.8-0.3,1.8-0.3,2.6,1.2C36.7,36.3,39.3,38.9,42.7,40.6z
		 M43.6,56.7c0.7,1.5,0.5,2-0.8,2.6c-3.5,1.7-6,4.4-7.8,7.8c-0.2,0.4-0.4,0.7-0.6,1.2c-0.5,0-0.9,0-1.3,0c-0.2,0-0.4-0.1-0.6-0.1
		C32.8,64.3,38.5,58.3,43.6,56.7z M30.1,68.4c-0.7,0-1.1-0.1-1.7-0.1c1.1-6.4,9-14.3,15.4-15.4c0,0.6,0,1.1,0,1.7
		C37.1,57,32.6,61.6,30.1,68.4z M43.9,45.5c0,0.6,0,1.1,0,1.6c-5.5-0.1-14.1-8.6-15.5-15.4c0.6,0,1.1,0,1.7,0
		C32.5,38.3,37.1,43,43.9,45.5z M23.9,68.3c-0.5,0-1,0-1.6,0c-0.2-0.4-0.4-0.8-0.6-1.2c-2.3-5.6-6.4-9.6-12-12
		c-1.4-0.6-1.4-0.6-1.2-2.2C15.3,54.2,23.5,62.4,23.9,68.3z M7,70.8c-0.1-0.1-0.1-0.3-0.2-0.7c3.3,0,6.4,0,9.6,0c3.1,0,6.3,0,9.4,0
		c3.2,0,6.4,0,9.6,0c1.6-4.2,4.2-7.4,8.2-9.4c0.4,1.8,0.4,1.8-0.8,2.7c-2.7,1.8-4.5,4.3-5.5,7.4c-0.1,0.4-0.3,0.9-0.5,1.5
		c-8.8,0-17.7,0-26.8,0c0.8,2.9,0.5,5.5-1.1,7.8c-0.1,0-0.3,0-0.4-0.1c0-1.3-0.1-2.5,0-3.8C8.6,74.2,8.2,72.4,7,70.8z M43.4,67.7
		c-2,2-3,4.5-3.1,7.3c0,0.2,0,0.4-0.1,0.6c0,0.1-0.1,0.2-0.2,0.4c-8.5,0-17.1,0-25.6,0c-0.7,1.9-1.3,3.6-2.1,5.3
		c-0.8,1.6-2,3-3.8,3.9c-0.3-1.1-0.3-2,0.6-2.9c2-2,2.9-4.4,3-7.2c0-0.3,0-0.6,0.1-1c8.7,0,17.3,0,26.1,0c0.6-3.8,2.2-6.9,5.4-9.2
		C44,66.1,44.1,67,43.4,67.7z M9.5,87c2.8-1.9,4.7-4.5,5.7-7.6c0.1-0.4,0.3-0.8,0.4-1.3c8.8,0,17.7,0,26.7,0
		c-0.6-2.9-0.5-5.4,1.3-7.9c0.1,0.5,0.2,0.8,0.2,1.1c0,0.7,0,1.4,0,2.2c-0.1,2.3,0,4.5,1.6,6.3c-0.1,0.2-0.1,0.2-0.1,0.3
		c0,0-0.1,0.1-0.1,0.1c0,0-0.1,0-0.1,0c-0.1,0-0.3,0-0.5,0c-9.2,0-18.3,0-27.5,0c0,0-0.1,0-0.3,0.1c-1.6,4.1-4.1,7.4-8.3,9.3
		C8.3,87.9,8.3,87.8,9.5,87z M8.5,102.8c6.2,0.9,14.5,9.1,15.4,15.2c-1.4,0.4-1.5,0.4-2-0.7c-2.4-6.1-6.7-10.2-12.8-12.6
		c-0.2-0.1-0.4-0.2-0.7-0.4C8.5,103.8,8.5,103.3,8.5,102.8z M9.3,109.1c-0.3-0.1-0.5-0.3-0.9-0.5c0-0.5,0-0.9,0-1.4
		c0-0.2,0.1-0.4,0.2-0.8c5.6,2.2,9.4,6,11.6,11.5c-1.7,0.6-2.1,0.5-2.6-0.6C15.8,113.6,13,110.9,9.3,109.1z M6.9,120.1
		c9.5,0,18.9,0,28.2,0c1.3-2,2.3-3.9,3.6-5.6c1.3-1.7,3-2.9,4.9-3.8c0.5,1.5,0.5,1.8-0.5,2.4c-3,2-5,4.7-6,8.1
		c-0.1,0.2-0.1,0.4-0.2,0.6c0,0-0.1,0.1-0.2,0.3c-8.7,0-17.6,0-26.6,0c0.5,2.1,0.6,4.1-0.2,5.9c-0.3,0.7-0.7,1.3-1,2
		c-0.1,0-0.2,0-0.3-0.1c0-0.3-0.1-0.6-0.1-1c0-0.6,0-1.2,0-1.8c0.1-2.4,0.1-4.8-1.8-6.8C6.8,120.3,6.8,120.3,6.9,120.1z M13.1,148
		c1.5-0.8,3-1.7,4.3-2.7c1.3-1,2.6-2.2,3.7-3.5c1.1-1.3,2.1-2.7,2.9-4.2c0.8-1.5,1.5-3,2.3-4.8c1,2.9,2.3,5.4,3.9,7.7
		c1.7,2.3,3.8,4.2,6.1,5.8c2.3,1.6,4.9,2.7,7.6,3.6c-0.3,0.9-1,0.8-1.5,1c-6.2,2.2-11,6.2-14.2,12c-0.8,1.4-1.3,2.9-2.1,4.5
		c-0.7-1.6-1.4-3.2-2.2-4.6c-0.8-1.5-1.8-2.9-2.9-4.2c-1.1-1.3-2.4-2.5-3.8-3.6c-1.3-1-2.8-1.9-4.3-2.7c-1.5-0.8-3.1-1.3-4.9-2.1
		C10,149.3,11.6,148.7,13.1,148z M43.8,156.6c0.2,1.9,0.2,1.9-1.3,2.7c-3.2,1.7-5.7,4.2-7.4,7.4c-0.2,0.5-0.5,0.9-0.7,1.4
		c-0.7,0-1.3,0-2,0C33.1,163.8,39.3,157.5,43.8,156.6z M30,168.1c-0.3,0-0.6,0.1-0.9,0.1c-0.2,0-0.5-0.1-0.7-0.1
		c1.2-6.4,8.9-14.1,15.4-15.3c0,0.6,0,1.1,0,1.6C35.2,158.8,34.6,159.4,30,168.1z M24,168.1c-0.5,0-1.1,0-1.7,0
		c-1.2-3.1-2.8-6-5.2-8.4c-2.4-2.4-5.3-4.1-8.5-5.3c0-0.7,0-1.2,0-1.7C14.7,153.5,22.8,161.6,24,168.1z M9.8,159.2
		c-1.5-0.8-1.5-0.8-1.1-2.9c5.6,2.3,9.4,6.1,11.6,11.5c-1.9,0.6-2,0.5-2.9-1C15.7,163.5,13.1,161,9.8,159.2z M6.9,170.5
		c0,0,0-0.1,0-0.3c0.5,0,1-0.1,1.6-0.1c8.2,0,16.5,0,24.7,0c0.4,0,0.7,0,1.1,0c0.9,0.1,1.3-0.3,1.6-1.1c1.3-3.2,3.3-5.6,6.2-7.5
		c0.5-0.3,1-0.6,1.6-0.9c0.4,1.8,0.4,1.8-0.8,2.7c-2.7,1.8-4.5,4.3-5.5,7.4c-0.1,0.3-0.2,0.7-0.3,1c0,0.1-0.1,0.2-0.3,0.4
		c-8.7,0-17.6,0-26.5,0c0.4,4.5,0.1,6.1-1.6,7.9c-0.1-0.4-0.1-0.8-0.1-1.1c0-1.1,0-2.2,0-3.2c0.1-1.8-0.3-3.4-1.4-4.8
		C7,170.8,7,170.7,6.9,170.5z M9,182.6c2.2-2.2,3.2-4.8,3.2-7.9c0-0.1,0.1-0.3,0.1-0.7c1.7,0,3.4,0,5.1,0c1.7,0,3.5,0,5.3,0
		c1.7,0,3.4,0,5.1,0c1.7,0,3.5,0,5.3,0c1.7,0,3.5,0,5.3,0c0.6-3.8,2.2-6.8,5.4-9.1c0.3,1,0.5,1.9-0.3,2.7c-2.1,2.1-3.1,4.6-3.1,7.5
		c0,0.1,0,0.3,0,0.5c0,0.1-0.1,0.2-0.2,0.5c-8.5,0-17.1,0-25.9,0c-0.6,3.9-2.2,6.9-5.5,9.2C8.4,184.2,8.2,183.4,9,182.6z M9.6,186.7
		c2.7-1.7,4.5-4.3,5.6-7.4c0.1-0.4,0.3-0.9,0.5-1.5c8.9,0,17.8,0,26.8,0c-0.6-2.9-0.6-5.4,1.4-8c0.4,3.5-0.6,7,2.1,10
		c-5.1,0-9.8,0-14.5,0c-4.7,0-9.5,0-14.3,0c-3,5.8-5.5,8.6-8.5,9.4C8.2,188.2,8.5,187.4,9.6,186.7z M43.6,206.5
		c0.5,1.7,0.5,1.9-1,2.6c-3.4,1.7-6,4.3-7.7,7.7c-0.8,1.5-0.8,1.5-2.6,1.1C33.2,213.6,38.9,207.7,43.6,206.5z M30.5,217.2
		c-0.1,0.2-0.2,0.4-0.3,0.6c0,0.1-0.1,0.2-0.2,0.3c-0.4,0-0.9,0-1.4,0c0.2-5.6,9.3-14.8,15.2-15.4c0.3,1.5,0.3,1.5-0.8,2
		C37,207.1,32.8,211.3,30.5,217.2z M43.7,193.4c-4.4-0.8-10.4-6.9-11.4-11.4c1.7-0.6,1.8-0.5,2.6,1c1.7,3.4,4.3,6,7.7,7.8
		C44.1,191.6,44.1,191.6,43.7,193.4z M43.8,195.7c0,0.6,0,1.1,0,1.6c-6.8-1.3-14.1-8.8-15.4-15.5c0.6,0,1.1,0,1.6,0
		C34.2,190.3,35.9,192,43.8,195.7z M8.6,195.8c0.3-0.1,0.6-0.3,0.9-0.5c5.9-2.3,10.1-6.5,12.4-12.4c0.5-1.3,0.6-1.3,2.1-1
		c-1,6-8.1,13.9-15.4,15.4C8.6,196.9,8.6,196.4,8.6,195.8z M9.8,190.8c3.4-1.8,6-4.3,7.7-7.7c0.8-1.5,0.8-1.5,2.7-1.1
		c-1.5,5.1-7.3,10.9-11.6,11.5C8.3,191.6,8.3,191.6,9.8,190.8z M9.9,199.3c5.3-1.8,9.6-5,12.7-9.6c1.2-1.8,2-3.8,3-5.7
		c0.2-0.3,0.3-0.7,0.6-1.4c1.5,4.4,3.7,8,6.8,11c3.1,2.9,6.8,4.9,10.9,6.2c0,0.1,0,0.3,0,0.4c-1.3,0.5-2.6,1-3.9,1.6
		c-1.3,0.6-2.5,1.3-3.6,2.1c-1.2,0.8-2.3,1.7-3.3,2.7c-1,1-1.9,2-2.7,3.1c-0.9,1.1-1.6,2.4-2.3,3.7c-0.7,1.2-1.1,2.5-1.8,4.1
		c-3.1-8.8-9-14.4-17.7-17.1C8.7,199.4,9.4,199.4,9.9,199.3z M8.6,202.7c5.5,0.2,14.8,9.4,15.3,15.2c-1.5,0.3-1.5,0.3-2.1-1
		c-2.4-5.8-6.4-9.8-12.2-12.2C8.4,204.3,8.4,204.3,8.6,202.7z M9.9,209.2c-0.5-0.2-0.9-0.5-1.3-0.7c0-0.7,0-1.4,0-2
		c4.7,1,10.7,7,11.6,11.5c-1.9,0.3-1.9,0.3-2.6-1.1C15.7,213.5,13.2,211,9.9,209.2z M8.5,225.7c0.1-1.8-0.3-3.5-1.4-4.9
		c-0.1-0.2-0.2-0.3-0.2-0.5c0.1-0.1,0.1-0.2,0.1-0.2c0,0,0.1-0.1,0.1-0.1c0.1,0,0.3-0.1,0.5-0.1c9.2,0,18.4,0,27.6-0.1
		c1.2-1.9,2.3-3.8,3.6-5.5c1.3-1.7,3-2.9,4.9-3.8c0.5,1.7,0.5,1.7-0.7,2.6c-2.7,1.9-4.6,4.4-5.6,7.5c-0.1,0.4-0.3,0.8-0.5,1.3
		c-3,0-6,0-8.9,0c-2.9,0-5.9,0-8.8,0c-3,0-5.9,0-9.1,0c0.8,3,0.5,5.5-1.3,8.1c-0.1-0.6-0.2-0.9-0.2-1.2
		C8.5,227.9,8.4,226.8,8.5,225.7z M9.3,232.2c1.9-1.9,2.9-4.4,2.9-7.1c0-0.3,0-0.6,0.1-1.1c4.3-0.1,8.6,0,12.9,0c4.3,0,8.6,0,13.1,0
		c0.5-3.7,2.1-6.8,5.4-9.1c0.3,1,0.5,1.9-0.3,2.6c-2.1,2.1-3.1,4.7-3.1,7.6c0,0.2-0.1,0.4-0.1,0.7c-1.7,0.2-3.5,0.1-5.2,0.1
		c-1.7,0-3.4,0-5.1,0c-1.7,0-3.5,0-5.3,0c-1.7,0-3.4,0-5.1,0c-1.7,0-3.5,0-5.4,0c-0.6,3.7-2.1,6.9-5.5,9.3
		C8.3,233.9,8.4,233.1,9.3,232.2z M8.5,241.4c4.4-2,7.6-5.2,9.6-9.6c0.8,0,1.4,0,2,0c-0.9,5-7.4,11-11.6,11.6
		C8.5,242.8,8.5,242.1,8.5,241.4z M8.5,247.3c0-0.6,0-1,0-1.6c0.3-0.2,0.7-0.3,1-0.5c5.8-2.4,9.9-6.5,12.3-12.3
		c0.5-1.3,0.5-1.3,2-1.1C23.8,237.4,15,246.3,8.5,247.3z M43.8,247.2c-6-0.6-14.4-9.1-15.4-15.5c0.5,0,1,0,1.6-0.1
		c4.2,8.5,5.6,9.9,13.9,14C43.8,246.2,43.8,246.7,43.8,247.2z M42.6,240.7c0.4,0.2,0.8,0.4,1.3,0.7c0,0.7,0,1.3,0,2
		c-4.1-0.5-10.5-6.7-11.6-11.5c1.9-0.3,1.9-0.3,2.7,1.2C36.7,236.4,39.2,239,42.6,240.7z M40.8,229.9c-1.6,0-3.2,0-4.8,0
		c-1.6,0-3.2,0-4.8,0c-1.5,0-3.1,0-4.6,0c-1.6,0-3.2,0-4.8,0c-1.6,0-3.2,0-4.8,0c-1.6,4.3-4.2,7.5-8.4,9.6c0-0.8,0-1.4,0-2.1
		c3.5-2.1,6-5.2,7-9.5c8.9,0,17.8,0,26.8,0c-0.5-2.9-0.5-5.4,1.5-8c0.5,3.5-0.6,7,2,9.8C43.9,230.1,42.4,229.8,40.8,229.9z
		 M50.6,229.7c-2.6-0.1-4.7-2.2-4.7-4.8c0-2.6,2.2-4.8,4.9-4.8c2.7,0,4.8,2.2,4.8,4.9C55.5,227.7,53.3,229.8,50.6,229.7z
		 M52.6,218.2c-2.3-0.1-4.5,0-6.3,1.6c-0.2-0.1-0.3-0.1-0.3-0.1c0,0-0.1-0.1-0.1-0.1c0-0.1-0.1-0.2-0.1-0.3c0-9.6,0-19.1,0-28.9
		c-4.2-1.6-7.5-4.2-9.5-8.3c1.3-0.6,1.8-0.5,2.3,0.3c2.1,3.3,5,5.4,8.8,6.4c0.1,0,0.2,0.1,0.4,0.3c0,9,0,18.2,0,27.4
		c4.4-0.5,6.4-0.1,7.9,1.7C54.5,218.2,53.6,218.2,52.6,218.2z M56.2,220.8c-0.1-0.2-0.2-0.3-0.2-0.5c0-0.1,0.1-0.2,0.1-0.2
		c0,0,0.1-0.1,0.1-0.1c0.1,0,0.3-0.1,0.5-0.1c9.2,0,18.4,0,27.6-0.1c0,0,0.1,0,0.3-0.1c1.5-4,4.1-7.3,8.3-9.4c0,0.8,0,1.4,0,2
		c-4.6,3.6-5.2,4.4-7,9.6c-8.8,0-17.7,0-26.7,0c0.6,2.9,0.5,5.5-1.4,8c-0.1-0.5-0.2-0.8-0.2-1.1c0-1.1,0-2.2,0-3.2
		C57.7,223.9,57.3,222.3,56.2,220.8z M57.6,247.2c0-0.5,0-1,0-1.6c0.4-0.2,0.8-0.4,1.2-0.6c5.7-2.4,9.7-6.4,12-12.1
		c0.6-1.4,0.6-1.4,2.2-1.1C71.7,238.6,63.5,246.8,57.6,247.2z M57.6,242.7c0-0.4,0-0.8,0.1-1.2c0.4-0.2,0.8-0.5,1.2-0.7
		c3.4-1.8,6-4.3,7.7-7.7c0.8-1.5,0.8-1.5,2.9-1.1c-2.3,5.7-6.1,9.5-11.7,11.7C57.6,243.2,57.6,242.9,57.6,242.7z M92.9,247.1
		c-5.2,0.2-14-8.4-15.5-15.3c0.6,0,1.1,0,1.7,0c1.1,3.2,2.8,6.1,5.3,8.5c2.4,2.4,5.3,4.1,8.5,5.3C92.9,246.1,92.9,246.6,92.9,247.1z
		 M91.7,240.7c0.4,0.2,0.8,0.4,1.2,0.7c0,0.7,0,1.3,0,2c-4.5-0.8-10.7-7-11.6-11.5c1.8-0.4,1.8-0.4,2.6,1.1
		C85.7,236.4,88.3,239,91.7,240.7z M66.1,229.8c-1.1,3.2-2.9,5.8-5.5,7.8c-0.9,0.7-1.9,1.2-2.9,1.9c-0.5-1.9-0.5-1.9,0.8-2.7
		c2.7-1.8,4.6-4.3,5.6-7.4c0.5-1.6,0.5-1.6,2.3-1.6c7.7,0,15.3,0,23,0c0.6,0,1.2,0,2,0c-0.6-2.9-0.5-5.4,1.3-7.9
		c0.1,0.5,0.2,0.8,0.2,1.1c0,1.1,0,2.2,0,3.2c-0.1,1.7,0.3,3.3,1.3,4.7c0.1,0.2,0.2,0.4,0.4,0.8C85.1,229.8,75.7,229.8,66.1,229.8z
		 M99.7,229.7c-2.6,0-4.8-2.3-4.7-4.9c0.1-2.6,2.2-4.7,4.9-4.7c2.6,0,4.8,2.2,4.7,4.8C104.6,227.7,102.4,229.8,99.7,229.7z
		 M103.9,218.2c-0.9,0-1.7,0-2.6,0c-3.3,0-3.3,0-6.2,1.6c-0.4-0.6-0.2-1.3-0.2-1.9c0-7.9,0-15.8,0-23.6c0-0.9,0-1.7,0-2.6
		c0.1-1-0.3-1.5-1.2-1.8c-3.1-1.2-5.5-3.2-7.3-6c-0.4-0.6-0.7-1.1-1-1.7c1.5-0.6,1.8-0.5,2.4,0.4c2,3.1,4.8,5.2,8.4,6.2
		c0.2,0.1,0.4,0.1,0.7,0.3c0,9.1,0,18.3,0,27.6c2.9-0.6,5.5-0.5,7.9,1.4C104.4,218,104.2,218.2,103.9,218.2z M107.3,217.7
		c-2.2-2.2-4.8-3.2-7.9-3.2c-0.1,0-0.3-0.1-0.7-0.1c0-9,0-17.9,0-26.9c-3.8-0.6-6.9-2.2-9.1-5.4c1-0.4,1.8-0.5,2.5,0.2
		c2.3,2.3,5,3.3,8.2,3.4c0.1,0,0.2,0.1,0.5,0.2c0.1,2.9,0,5.8,0,8.8c0,2.9,0,5.9,0,8.8c0,3,0,6,0,8.9c1.8,0.7,3.5,1.2,5.1,2
		c1.6,0.8,3,2,4,3.7C108.9,218.2,108.1,218.4,107.3,217.7z M106.8,202.7c5.7,0.5,14,8.6,15.4,15.3c-0.3,0-0.6,0.1-0.8,0.1
		c-0.2,0-0.5,0-0.8-0.1c-0.2-0.3-0.3-0.7-0.5-1c-2.3-5.8-6.4-9.9-12.3-12.3C106.5,204.3,106.5,204.3,106.8,202.7z M106.8,206.5
		c5.1,1.3,10.7,7.4,11.4,11.5c-1.8,0.5-1.8,0.4-2.6-1.1c-1.7-3.3-4.3-5.9-7.6-7.6C106.5,208.4,106.5,208.4,106.8,206.5z
		 M114.1,217.9c-1.6,0.5-1.6,0.5-2.5-0.8c-1.9-2.8-4.5-4.7-7.7-5.7c-0.4-0.1-0.8-0.3-1.3-0.4c0-9.2,0-18.2,0-27.6
		c-2.9,0.6-5.5,0.5-8.1-1.4c0.6-0.1,0.9-0.2,1.2-0.2c0.8,0,1.6-0.1,2.3,0c2.3,0.3,4.4-0.1,6.2-1.5c0.1,0,0.2,0.1,0.2,0.1
		c0,0,0.1,0.1,0.1,0.1c0,0.1,0.1,0.2,0.1,0.3c0,9.6,0,19.1,0,28.8C110.4,212.4,113,214.7,114.1,217.9z M107.3,167.7
		c-2.2-2.2-4.9-3.1-8-3.2c-0.1,0-0.3-0.1-0.6-0.1c0-8.9,0-17.8,0-26.8c-3.8-0.7-7-2.2-9.2-5.6c1.2-0.2,2.1-0.3,3,0.6
		c2,2,4.4,2.9,7.2,3c0.2,0,0.4,0,0.6,0c0.1,0,0.2,0.1,0.5,0.2c0,8.8,0,17.8,0,26.8c2.6,0.4,4.9,1.2,6.8,2.8c0.8,0.7,1.6,1.6,2.3,2.5
		C108.9,168.1,108.1,168.5,107.3,167.7z M106.8,152.7c6.9,1.6,13.9,8.6,15.4,15.4c-0.6,0-1.1,0-1.7,0c-2.4-6.7-7-11.2-13.7-13.7
		c0-0.4-0.1-0.8-0.1-1.1C106.6,153.1,106.7,152.9,106.8,152.7z M106.8,156.6c4.3,0.8,10.2,6.6,11.5,11.5c-0.7,0-1.3,0-2.1,0
		c-0.2-0.3-0.4-0.7-0.6-1.1c-1.7-3.4-4.3-6-7.7-7.7C106.4,158.5,106.4,158.5,106.8,156.6z M112,164.6c0.9,1,1.6,2.1,2.2,3.3
		c-1.7,0.5-1.8,0.5-2.6-0.7c-1.9-2.7-4.4-4.6-7.5-5.6c-0.4-0.1-0.8-0.3-1.3-0.5c0-9.1,0-18.3,0-27.6c-2.9,0.7-5.5,0.5-7.9-1.2
		c0-0.1,0-0.3,0.1-0.4c1.3,0,2.5-0.1,3.8,0c2,0.1,3.8-0.2,5.4-1.4c0.1-0.1,0.3-0.1,0.6-0.2c0,9.8,0,19.6,0,29.4
		C107.6,160.7,110.1,162.3,112,164.6z M107.3,117.7c-2.1-2.1-4.7-3.1-7.6-3.1c-0.2,0-0.4,0-0.9-0.1c0-9,0-18,0-26.9
		c-3.8-0.6-6.9-2.2-9.2-5.6c1.1-0.2,1.9-0.4,2.7,0.4c2.1,2.2,4.7,3.3,7.8,3.2c0.2,0,0.4,0.1,0.8,0.1c0.1,3,0,5.9,0.1,8.9
		c0,3,0,6,0,8.9c0,3,0,6,0,9c3.8,0.6,6.9,2.2,9.2,5.4C108.9,118.4,108,118.5,107.3,117.7z M106.7,102.8c6.6,1.3,13.9,8.5,15.4,15.3
		c-1.6,0.2-1.6,0.2-2.1-0.9c-2.4-6-6.6-10.1-12.6-12.4c-0.2-0.1-0.5-0.2-0.8-0.3C106.7,103.9,106.7,103.4,106.7,102.8z M106.7,106.4
		c5.6,2.3,9.4,6,11.7,11.6c-2,0.4-2.1,0.4-2.8-1c-1.8-3.4-4.3-6-7.7-7.7c-0.3-0.2-0.6-0.3-0.9-0.5c-0.1,0-0.2-0.1-0.2-0.2
		C106.7,108,106.7,107.3,106.7,106.4z M122.2,82c-1.1,5.9-7.7,13.8-15.4,15.5c0-0.2-0.1-0.4-0.1-0.6c0-0.3,0-0.7,0.1-1
		c8.5-4.3,9.4-5.2,13.9-13.9C121.1,82,121.6,82,122.2,82z M108,90.9c3.3-1.7,5.8-4.3,7.6-7.6c0.8-1.5,0.8-1.5,2.6-1.3
		c-0.1,3.8-6.6,10.5-11.4,11.6C106.5,91.7,106.5,91.7,108,90.9z M112,114.6c0.8,1,1.5,2.2,2.3,3.3c-1.5,0.6-1.9,0.6-2.4-0.2
		c-2.1-3.2-4.9-5.2-8.5-6.3c-0.2-0.1-0.4-0.2-0.7-0.3c0-9.1,0-18.3,0-27.5c-2.9,0.6-5.6,0.5-8.1-1.5c1.2-0.3,2.2-0.2,3.2-0.2
		c2.4,0.2,4.7,0.1,7-1.8c0.1,2.8,0,5.3,0,7.7c0,2.4,0,4.8,0,7.3c0,2.5,0,4.9,0,7.4c0,2.4,0,4.8,0,7.3
		C107.6,110.8,110.1,112.3,112,114.6z M95,75.2c0-2.6,2.2-4.8,4.8-4.8c2.6,0,4.8,2.2,4.8,4.8c0,2.6-2.3,4.8-4.8,4.8
		C97.2,80,95,77.8,95,75.2z M103.8,68.3c-0.8,0-1.6,0-2.5,0c-3.2,0-3.4,0.1-6.2,1.7c-0.4-0.5-0.2-1.2-0.2-1.7c0-8.5,0-17,0.1-25.5
		c0-0.4,0-0.7,0-1.1c0.2-1.1-0.3-1.7-1.4-2.2c-3.2-1.3-5.6-3.4-7.4-6.3c-0.2-0.3-0.4-0.7-0.6-1.1c-0.1-0.1,0-0.3-0.1-0.5
		c0.9-0.1,1.7-0.4,2.3,0.6c2,3.2,4.9,5.3,8.5,6.3c0.1,0,0.3,0.1,0.4,0.2c0,0,0.1,0.1,0.2,0.2c0,9.1,0,18.4,0,27.8
		c2.8-0.7,5.4-0.5,8,1.3C104.4,68.2,104.1,68.3,103.8,68.3z M107.2,67.7c-2.1-2.1-4.6-3-7.5-3.1c-0.1,0-0.3,0-0.5,0
		c-0.1,0-0.2-0.1-0.4-0.2c0-9,0-18,0-26.9c-1.9-0.7-3.6-1.3-5.3-2.1c-1.6-0.8-2.9-2.1-4-3.8c1.1-0.2,1.9-0.4,2.7,0.4
		c2.1,2.1,4.6,3.2,7.6,3.2c0.2,0,0.5,0.1,0.9,0.1c0.1,9.1,0,18.1,0.1,27.3c3.8,0.6,6.8,2.2,9.2,5.4C108.9,68.4,108,68.5,107.2,67.7z
		 M106.7,53c5.3-0.1,14.4,8.8,15.5,15.3c-0.5,0-1,0.1-1.7,0.1c-1.2-3.2-2.9-6.1-5.3-8.6c-2.4-2.4-5.3-4.1-8.5-5.3
		C106.7,54,106.7,53.5,106.7,53z M106.7,41.3c0.4-0.2,0.8-0.4,1.1-0.6c3.4-1.8,6.1-4.4,7.8-7.8c0.8-1.5,0.8-1.5,2.6-1.2
		c-0.5,4.1-6.3,10.1-11.5,11.7c-0.1-0.4-0.1-0.6-0.1-0.9C106.6,42.1,106.7,41.7,106.7,41.3z M107.8,45c5.8-2.4,9.9-6.5,12.3-12.3
		c0.5-1.3,0.5-1.3,2-1.1c0,5.4-8.9,14.5-15.4,15.5c0-0.5,0-1-0.1-1.6C107,45.4,107.4,45.2,107.8,45z M106.8,56.8
		c4.4,0.8,10.3,6.6,11.5,11.5c-0.4,0-0.7,0-1,0.1c-0.8,0.1-1.2-0.2-1.6-0.9c-0.9-1.5-1.8-3-3-4.3c-1.3-1.6-3-2.8-4.9-3.7
		C106.4,58.6,106.4,58.6,106.8,56.8z M99.8,20c2.6,0,4.8,2.1,4.8,4.8c0,2.6-2.2,4.8-4.8,4.9c-2.6,0-4.8-2.2-4.8-4.8
		C95,22.2,97.2,20.1,99.8,20z M98.7,31.6c2,0.2,3.8-0.2,5.4-1.3c0.1-0.1,0.3-0.1,0.6-0.2c0,9.9,0,19.8,0,29.7
		c4.2,1.6,7.6,4.2,9.6,8.3c-1.7,0.5-1.8,0.5-2.6-0.7c-1.9-2.8-4.6-4.7-7.8-5.7c-0.3-0.1-0.6-0.2-1-0.3c0-9.3,0-18.6,0-28
		c-4.3,0.6-6.4,0.1-8-1.7C96.2,31.5,97.4,31.4,98.7,31.6z M94.8,29.7c-9.7,0-19.1,0-28.6,0c-2.9,5.7-5.4,8.5-8.5,9.4
		c-0.3-1.1-0.2-1.9,0.9-2.6c2.8-1.8,4.6-4.4,5.6-7.5c0.1-0.4,0.2-0.8,0.5-1.4c4.4,0,8.9,0,13.3,0c4.4,0,8.8,0,13.4,0
		c-0.7-2.9-0.5-5.4,1.3-7.9c0.1,0.5,0.2,0.8,0.2,1.1c0,1.1,0,2.2,0,3.2c0,1.7,0.3,3.4,1.4,4.8C94.5,29.1,94.6,29.3,94.8,29.7z
		 M92.4,17.4c-2.1,2-3,4.5-3.1,7.3c0,0.3-0.1,0.6-0.2,1c-8.6,0-17.2,0-26,0c-0.6,3.9-2.2,7-5.5,9.3c-0.1-1.1-0.4-1.9,0.4-2.7
		c2.2-2.2,3.2-4.9,3.2-7.9c0-0.1,0-0.3,0.1-0.6c8.6,0,17.3,0,25.7,0c0.7-1.8,1.2-3.6,2-5.2c0.8-1.6,2.1-2.9,3.8-4
		C93,15.8,93.2,16.6,92.4,17.4z M92.9,2.5c0,0.5,0,1,0.1,1.6c-3.2,1.2-6.1,2.8-8.5,5.2c-2.4,2.4-4.1,5.2-5.3,8.5c-0.5,0-1.1,0-1.6,0
		C77.8,12.3,86.7,3.4,92.9,2.5z M91.6,9.1c-3.7,2-6.4,4.9-8.2,8.8c-0.7,0-1.4,0-2.3,0c2.3-5.6,6-9.4,11.6-11.7
		C93.1,8.3,93.1,8.3,91.6,9.1z M57.7,2.5c5.6,1.1,13.4,7.3,15.5,15.4c-0.3,0-0.5,0.1-0.7,0.1c-0.3,0-0.6,0-1-0.1
		c-2.4-6.7-7-11.3-13.7-13.7C57.7,3.6,57.7,3,57.7,2.5z M57.6,8.4c0-0.8,0-1.4,0-2.3c5.7,2.3,9.5,6.1,11.8,11.8c-0.9,0-1.5,0-2.3,0
		C65.2,13.5,62,10.3,57.6,8.4z M65.4,19.8c3.1,0,6.3,0,9.4,0c3.2,0,6.4,0,9.7,0c1.6-4.2,4.2-7.4,8.3-9.4c0.3,1.2,0.3,2-0.8,2.6
		c-2.9,1.8-4.8,4.5-5.8,7.8c-0.1,0.3-0.2,0.7-0.4,1.1c-8.8,0-17.6,0-26.8,0c0.6,2.1,0.7,3.9-0.1,5.7c-0.3,0.7-0.7,1.4-1,2.2
		c-0.1,0-0.2,0-0.3-0.1c0-0.4-0.1-0.8-0.1-1.3c0-1,0-1.9,0-2.9c0.1-1.8-0.3-3.4-1.3-4.8c-0.1-0.2-0.2-0.4-0.5-0.9
		C59.1,19.8,62.3,19.8,65.4,19.8z M50.8,20c2.6,0,4.8,2.2,4.8,4.8c0,2.6-2.2,4.8-4.8,4.8c-2.6,0-4.8-2.3-4.8-4.8
		C45.9,22.2,48.1,20,50.8,20z M45.8,31.5c1,0,2.1-0.1,3.1,0c2.3,0.2,4.5,0,6.6-1.8c0,0.9,0.1,1.5,0.1,2.1c0,8.5,0,17,0,25.5
		c0,0.4,0,0.7,0,1.1C55.5,59.4,56,60,57,60.4c3.3,1.3,5.8,3.6,7.6,6.7c0.2,0.3,0.3,0.6,0.5,1c-1.3,0.4-2.1,0.1-2.7-1
		c-1.7-2.7-4.2-4.5-7.3-5.5c-0.4-0.1-0.9-0.3-1.5-0.5c0-2.3,0-4.6,0-6.9c0-2.4,0-4.7,0-7.1c0-2.3,0-4.6,0-7c0-2.3,0-4.6,0-7.1
		c-2.9,0.5-5.5,0.5-7.8-1.3C45.8,31.8,45.8,31.6,45.8,31.5z M45.4,29.1c0.1,0.1,0.1,0.3,0.2,0.7c-4.9,0-9.6,0-14.4,0s-9.5,0-14.1,0
		c-2.6,5.5-5.5,8.7-8.5,9.3c-0.4-1.1-0.1-1.9,1-2.5c2.7-1.7,4.5-4.3,5.6-7.4c0.1-0.4,0.3-0.9,0.5-1.5c8.8,0,17.7,0,26.7,0
		c-0.5-2.8-0.5-5.5,1.4-8c0.1,0.5,0.2,0.8,0.2,1.1c0,1,0.1,2,0,2.9C43.8,25.7,44.2,27.5,45.4,29.1z M43.5,17.2
		c-2.2,2.2-3.2,4.8-3.2,7.9c0,0.1-0.1,0.3-0.2,0.6c-8.6,0-17.2,0-25.9,0c-0.6,3.9-2.2,7-5.5,9.3c-0.3-1.3-0.3-2.1,0.6-3
		c1.9-1.9,2.9-4.3,2.9-7.1c0-0.3,0-0.7,0.1-1.2c8.7,0,17.3,0,26.1,0c0.6-3.8,2.2-6.9,5.4-9.2C44.1,15.7,44.2,16.5,43.5,17.2z
		 M43.8,2.5c0.3,1.5,0.3,1.5-0.9,2.1C36.9,7,32.9,11.1,30.5,17c-0.1,0.3-0.2,0.6-0.4,1c-0.4,0-0.7,0-1,0c-0.2,0-0.4-0.1-0.6-0.1
		C29.4,11.7,37.9,3.2,43.8,2.5z M42.8,8.9c-3.5,1.8-6.1,4.5-7.9,8c-0.2,0.3-0.3,0.6-0.5,1c-0.7,0-1.4,0-2,0
		c0.4-4.1,6.9-10.7,11.4-11.5C44.2,8.1,44.2,8.3,42.8,8.9z M8.6,2.6C14,2.6,22.8,11.3,24,17.9c-0.6,0-1.1,0-1.6,0
		c-0.2-0.4-0.4-0.8-0.5-1.1C19.5,11,15.4,7,9.7,4.6C8.4,4.1,8.4,4.1,8.6,2.6z M14.2,12.3c-1.7-1.5-3.7-2.7-5.7-4.2
		c0-0.3,0-0.9,0-1.6c3.6,0.2,10.6,6.3,11.6,11.4c-0.3,0-0.5,0.1-0.8,0.1c-0.4,0-0.8,0-1.3-0.1C17.1,15.8,16,13.8,14.2,12.3z
		 M21.2,19.8c4.7,0,9.5,0,14.3,0c1.6-4.2,4.2-7.4,8.2-9.4c0.5,1.5,0.5,1.8-0.3,2.3c-3.2,2.1-5.3,5-6.3,8.6c0,0.1-0.1,0.2-0.2,0.5
		c-2.1,0.1-4.3,0-6.5,0c-2.3,0-4.5,0-6.8,0c-2.2,0-4.4,0-6.6,0c-2.2,0-4.4,0-6.8,0c0.7,2.9,0.5,5.5-1.5,7.8c0-0.5-0.1-1-0.1-1.6
		c0-0.8-0.1-1.5,0-2.3c0.2-1.9-0.2-3.7-1.5-5.3c-0.1-0.1-0.1-0.3-0.2-0.6C11.7,19.8,16.4,19.8,21.2,19.8z"/>
</g>
<g>
	<path class="st2" d="M28.1,110.4h8.2l2.5,10l0.8,4h0.2l0.8-4l2.5-10h8.2V141h-6.7v-7.2c0-3.6,0.7-12,1-15.6h-0.1l-2.6,9.1l-1.6,5.6
		h-3.6l-1.7-5.6l-2.4-9.1h-0.2c0.4,3.6,1,11.9,1,15.6v7.2h-6.6V110.4z"/>
	<path class="st2" d="M55.6,125.5c0-10.4,5.1-15.8,12.6-15.8s12.6,5.4,12.6,15.8c0,10.7-5.1,16-12.6,16S55.6,136.2,55.6,125.5z
		 M62.7,105.2l8.6-6.8l4.2,5.2l-9.3,5.7L62.7,105.2z M72.4,125.5c0-5.8-1.6-8.8-4.2-8.8s-4.2,2.9-4.2,8.8c0,6.1,1.6,9.1,4.2,9.1
		C70.8,134.6,72.4,131.7,72.4,125.5z"/>
	<path class="st2" d="M85.3,110.4h8.8c8.8,0,15,4.4,15,15.2c0,10.9-6.2,15.5-14.5,15.5h-9.3V110.4z M93.7,134.5c3.9,0,7.1-1.8,7.1-9
		c0-7.2-3.2-8.7-7.1-8.7h-0.3v17.6H93.7z"/>
	<path class="st2" d="M113.4,129.1v-18.8h8.1v19.7c0,2.6,0.8,4.5,3.4,4.5c2.6,0,3.5-1.9,3.5-4.5v-19.7h7.8v18.8
		c0,7.7-3.3,12.5-11.3,12.5S113.4,136.8,113.4,129.1z"/>
	<path class="st2" d="M143.5,110.4h8.1v23.9h13.1v6.8h-21.2V110.4z"/>
	<path class="st2" d="M168.9,125.5c0-10.4,5.1-15.8,12.6-15.8s12.6,5.4,12.6,15.8c0,10.7-5.1,16-12.6,16S168.9,136.2,168.9,125.5z
		 M185.7,125.5c0-5.8-1.6-8.8-4.2-8.8c-2.6,0-4.2,2.9-4.2,8.8c0,6.1,1.6,9.1,4.2,9.1C184.1,134.6,185.7,131.7,185.7,125.5z"/>
	<path class="st2" d="M197.7,137.2l4.6-5.6c2.3,1.7,5,3,7.8,3c2.5,0,3.4-0.8,3.4-1.8c0-1.8-1.6-2.2-4.4-3.3l-3.8-1.6
		c-3.5-1.3-6.5-4.1-6.5-8.5c0-5.2,4.7-9.5,11.7-9.5c3.6,0,7.5,1.3,10.5,4.1l-4.1,5.1c-2.2-1.5-4-2.2-6.9-2.2c-1.8,0-3,0.7-3,2.1
		c0,1.4,1.7,1.9,4.8,3.1l3.5,1.5c4.1,1.5,6.5,4.1,6.5,8.4c0,5.2-4.4,9.8-12.3,9.8C205.5,141.6,201.1,140.2,197.7,137.2z"/>
</g>
</svg>
