<?xml version="1.0" encoding="utf-8"?>
<!-- Generator: Adobe Illustrator 25.4.1, SVG Export Plug-In . SVG Version: 6.00 Build 0)  -->
<svg version="1.1" id="Capa_1" xmlns="http://www.w3.org/2000/svg" xmlns:xlink="http://www.w3.org/1999/xlink" x="0px" y="0px"
	 viewBox="0 0 250 250" style="enable-background:new 0 0 250 250;" xml:space="preserve">
<style type="text/css">
	.st0{fill:#FFFFFF;stroke:#000000;stroke-miterlimit:10;}
	.st1{opacity:0.1;}
	.st2{fill:#004947;}
</style>
<rect x="-6" y="-6" class="st0" width="261.5" height="261.5"/>
<g class="st1">
	<path class="st2" d="M2.3,11.7c1.8,0.7,3.6,1.3,5.2,2c1.6,0.8,2.9,2,4,3.7c-1.3,0.3-2.2,0.2-3.1-0.7c-1.9-1.8-4.2-2.7-7-2.8
		c-0.1,0.5-0.1,1-0.2,1.5c1.8,0.5,3.6,0.6,5.3,2.1c-1.9,0-3.4,0-5.1,0c0,0.7,0,1.3,0,1.9c3.2,0.9,4.6,2.4,4.7,4.8
		c0.1,2.6-1.2,4.1-4.7,5.2c0,0.5,0,1.1,0,1.7c1.8,0.3,3.1-0.6,4.5-1.5c0.6,0.6,0.3,1.2,0.3,1.8c0,8,0,15.9,0,23.9c0,1.4,0,2.8,0,4.3
		c4.2,1.6,7.5,4.2,9.5,8.2c-1.7,0.5-1.8,0.5-2.6-0.7c-1.9-2.8-4.4-4.7-7.6-5.6c-1.6-0.5-1.4-0.7-1.4-1.9c0-8.2,0-16.4,0-24.7
		c0-0.6,0-1.2,0-2c-1,0.1-1.8,0.3-2.7,0.4C1.3,34.1,1,34.7,2,35.1c0.2,0.1,0.3,0.5,0.4,0.8c0.1,0.4,0,0.8,0,1.2c0,7.9,0,15.7,0,23.6
		c0,0.6,0,1.1,0,1.9c3.8,0.6,6.9,2.2,9.2,5.5c-1.4,0.3-2.3,0.2-3.2-0.7c-1.9-1.8-4.2-2.7-7-2.8c0,0.6,0,1.1-0.1,1.6
		c1.8,0.4,3.5,0.6,5,1.9c-1.8,0.3-3.3,0-5,0.2c0,0.6,0,1.2,0,1.8c3.2,0.9,4.6,2.4,4.7,4.8c0.1,2.6-1.2,4-4.7,5.2c0,0.5,0,1.1,0,1.6
		c1.8,0.3,3.2-0.6,4.5-1.5c0.5,0.6,0.3,1.2,0.3,1.8c0,8.6,0,17.2,0,25.8c0,0.7,0,1.3,0,2c4.3,1.6,7.4,4.2,9.5,8.2
		c-1.3,0.6-1.8,0.6-2.3-0.3c-2.1-3.2-4.9-5.3-8.6-6.3c-0.2-0.1-0.4-0.2-0.7-0.3c0-9.1,0-18.3,0-27.6c-1,0.2-1.8,0.3-2.6,0.4
		c-0.2,0.7-0.5,1.3,0.4,1.8c0.2,0.1,0.4,0.5,0.4,0.7c0.1,0.4,0,0.8,0,1.2c0,7.7,0,15.4,0,23.1c0,0.6,0,1.2,0,2
		c2.9,0.5,5.4,1.5,7.5,3.5c0.6,0.6,1.1,1.2,1.7,2c-1.3,0.4-2.2,0.3-3-0.6c-1.9-1.9-4.2-2.9-7.1-2.8c0,0.6,0,1.1,0,1.6
		c1.7,0.3,3.4,0.5,5,1.9c-1.9,0.1-3.4,0.1-5,0.2c0,0.6,0,1.1,0,1.7c0.3,0.1,0.5,0.2,0.8,0.3c2.5,0.7,4,2.5,3.9,4.9
		c-0.1,2.3-1.6,4-4.1,4.6c-0.1,0-0.3,0.1-0.6,0.1c0,0.6,0,1.2,0,1.7c1.3,0.2,1.3,0.2,4.7-1.4c0.2,2,0.1,3.9,0.1,5.9c0,2,0,3.9,0,5.9
		s0,3.9,0,5.9c0,2,0,3.9,0,5.9s0,3.9,0,6c4.2,1.6,7.5,4.2,9.5,8.2c-1.8,0.5-1.8,0.5-2.7-0.8c-1.9-2.7-4.3-4.6-7.4-5.5
		c-0.4-0.1-0.9-0.3-1.5-0.5c0-9.2,0-18.4,0-27.7c-1,0.1-1.8,0.3-2.7,0.4c-0.1,0.7-0.5,1.4,0.5,1.7c0.2,0.1,0.3,0.4,0.3,0.6
		c0.1,0.4,0,0.8,0,1.2c0,7.8,0,15.6,0,23.4c0,0.6,0,1.1,0,1.8c2.8,0.4,5.2,1.3,7.2,3.2c0.7,0.6,1.3,1.4,2.1,2.2
		c-1.4,0.3-2.3,0.2-3.2-0.7c-1.9-1.8-4.2-2.7-7-2.8c-0.1,0.6-0.1,1-0.2,1.5c1.7,0.5,3.5,0.6,5.2,2.1c-1.9,0-3.4,0-5.1,0
		c0,0.8,0,1.3,0,2c1.6,0.3,3,0.9,4,2.3c0.6,0.9,0.8,1.9,0.7,2.9c-0.1,2.3-1.6,3.8-4.7,4.6c0,0.6,0,1.1,0,1.8
		c0.9,0.1,1.7-0.1,2.4-0.4c0.7-0.3,1.4-0.7,2.4-1.3c0,3.4,0,6.7,0,9.9c0,3.3,0,6.6,0,9.9c0,3.3,0,6.5,0,9.8c4.2,1.6,7.5,4.2,9.5,8.3
		c-1.7,0.5-1.8,0.5-2.6-0.7c-2-2.9-4.6-4.8-8-5.9c-0.3-0.1-0.7-0.3-1.1-0.5c0-9.1,0-18.3,0-27.6c-1,0.2-1.8,0.3-2.7,0.5
		C1.3,185,1.1,185.6,2,186c0.2,0.1,0.3,0.6,0.3,0.9c0,1.2,0,2.5,0,3.7c0,6.8,0,13.7,0,20.5c0,0.6,0,1.1,0,1.8c3.7,0.7,7,2.1,9.2,5.5
		c-1.3,0.3-2.1,0.2-3-0.6c-2.1-2-4.6-2.9-7.1-2.8c0,0.5,0,0.9-0.1,1.5c1.8,0.4,3.5,0.5,5.1,2c-1.8,0-3.4,0-5,0c0,0.7,0,1.3,0,2
		c1.5,0.2,2.8,0.8,3.7,2c0.6,0.8,0.9,1.7,0.9,2.7c0,2.6-1.2,3.9-4.7,5.2c0,0.3-0.1,0.6-0.1,0.9c0,0.2,0.1,0.5,0.1,0.8
		c1.8,0.3,3.1-0.7,4.5-1.5c0.5,0.6,0.3,1.2,0.3,1.8c0,5.8,0,11.7,0,17.5h2.8c0,0,0,0,0.1,0c7.9-2.7,13.4-8,16.3-15.8
		c0.1-0.2,0.2-0.4,0.3-0.6c0,0,0.1-0.1,0.3-0.2c0.2,0.4,0.3,0.7,0.4,1.1c2.9,7.5,8.2,12.6,15.8,15.4c0.2,0.1,0.4,0.1,0.7,0.2h2.8
		c0-3,0-6,0-9c-5.4-2.5-8.4-5.3-9.4-8.5c1.6-0.4,1.6-0.4,2.5,0.8c1.9,2.8,4.5,4.7,7.7,5.7c0.4,0.1,0.8,0.3,1.3,0.5c0,3.5,0,7,0,10.4
		h1.9c0-4,0-8,0-12c-3.9-0.6-7-2.2-9.3-5.5c1.3-0.3,2.1-0.3,3,0.6c1.9,2,4.3,2.9,7.1,3c0.2,0,0.5,0,0.8,0.1c0.1,0,0.2,0.1,0.4,0.2
		c0,4.6,0,9.1,0,13.7h1.9c0-5.3,0-10.7,0-16c-2.9,0.6-5.5,0.5-8.1-1.5c0.6-0.1,0.9-0.2,1.2-0.2c0.9,0,1.8-0.1,2.6,0
		c2.2,0.2,4.2-0.1,6.1-1.7c0.1,0.5,0.2,0.8,0.2,1.1c0,6.1,0,12.2,0,18.3h2.8c0.1,0,0.2-0.1,0.3-0.1c7.7-2.7,13-7.8,15.9-15.4
		c0.1-0.3,0.3-0.7,0.4-1.1c0.7,0.2,0.7,0.9,0.8,1.4c2.8,6.9,7.6,11.7,14.4,14.5c0.6,0.2,1.2,0.4,1.8,0.6h2.8c0-2.3,0-4.7,0-7
		c0-0.7,0-1.3,0-2c-4.3-1.6-7.5-4.2-9.5-8.3c1.5-0.5,1.8-0.5,2.4,0.5c2,3.1,4.8,5.2,8.4,6.2c0.2,0.1,0.4,0.2,0.7,0.3
		c0,3.5,0,6.9,0,10.4h1.8c0-4,0-7.9,0-12c-3.8-0.6-6.9-2.2-9.2-5.5c1.1-0.2,1.9-0.5,2.7,0.3c2.2,2.2,4.8,3.3,7.9,3.3
		c0.1,0,0.3,0.1,0.6,0.1c0,0.6,0.1,1.3,0.1,1.9c0,4,0,7.9,0,11.9h1.8c0-5.3,0-10.7,0-16.1c-2.9,0.6-5.5,0.5-7.8-1.2
		c0-0.1,0-0.2,0-0.4c0.9,0,1.8-0.1,2.7,0c2.4,0.1,4.9,0.2,7.1-1.9c0.2,2.4,0.1,4.3,0.1,6.3c0,2,0,3.9,0,5.9c0,2,0,4,0,6
		c0,0.4,0,0.9,0,1.3h2.9c0.1,0,0.3-0.1,0.4-0.1c7.3-2.6,12.4-7.4,15.4-14.4v-5c-2.7,0-5.4,0-8.2,0c-1.5,4.2-4.2,7.5-8.3,9.6
		c-0.5-1.7-0.4-1.9,0.5-2.5c3.1-2,5.1-4.8,6.1-8.3c0.1-0.2,0.1-0.4,0.3-0.9c3.2,0,6.4,0,9.6,0v-1.9c-3.7,0-7.4,0-11.1,0
		c-0.4,2.9-1.4,5.5-3.4,7.6c-0.6,0.6-1.2,1.3-2.1,1.6c-0.3-1.2-0.2-2,0.7-2.9c1.7-1.7,2.6-3.8,2.8-6.2c0.1-0.6,0.1-1.2,0.2-2
		c4.3,0,8.6,0,12.9,0v-1.9c-4.4,0-8.8,0-13.1,0c-0.6,0-1.2,0-1.8,0c0,1.5,0.1,2.9,0,4.3c-0.1,1.3-0.5,2.6-1.8,3.9
		c0-1.5-0.1-2.7,0-3.9c0.2-2.1-0.2-4-1.5-5.7c-0.1-0.1-0.1-0.3-0.2-0.7c5.1,0,10.2,0,15.2,0c1.1,0,2.2,0,3.3,0v-4.9
		c-2.9-6.9-8-11.7-15.2-14.3c-0.5-0.2-1-0.4-1.5-0.6c0.3-0.8,1-0.8,1.4-0.9c6.4-2.2,11.2-6.3,14.4-12.3c0.4-0.7,0.7-1.4,0.9-2.1
		v-5.1c-2.6,0-5.2,0-7.8,0c-1.2,1.9-2.2,3.8-3.5,5.5c-1.3,1.8-3.1,3-5.3,4.1c-0.3-1.3-0.2-2,0.9-2.7c2.7-1.8,4.6-4.3,5.6-7.4
		c0.1-0.4,0.3-0.9,0.5-1.5c3.2,0,6.4,0,9.6,0v-2c-3.7,0-7.4,0-11.1,0c-0.6,4-2.2,7-5.4,9.3c-0.3-1-0.5-1.9,0.3-2.6
		c2.1-2.1,3.1-4.7,3.2-7.6c0-0.3,0.1-0.6,0.2-1c4.3,0,8.6,0,12.9,0v-1.8c-5,0-10.1,0-15.2,0c0.7,2.9,0.5,5.5-1.2,7.8
		c-0.1,0-0.3,0-0.4,0c0-1.1-0.1-2.2,0-3.3c0.2-2.2-0.2-4.2-1.5-6c0-0.1,0-0.2,0-0.5c0.6,0,1.2,0,1.8,0c5.5,0,11,0,16.5,0v-5.2
		c-3.2-7.2-8.8-12.2-16.8-14.7c0-0.1,0-0.3,0-0.4c0.4-0.2,0.8-0.4,1.2-0.5c7.4-2.6,12.5-7.4,15.5-14.4v-5c-1.3,0-2.5,0-3.8,0
		c-1.4,0-2.9,0-4.4,0c-1.6,4.3-4.2,7.5-8.3,9.5c-0.5-1.8-0.5-1.8,0.8-2.7c2.8-1.9,4.7-4.5,5.7-7.7c0.1-0.4,0.2-0.7,0.4-1
		c0,0,0.1-0.1,0.3-0.3c3.1,0,6.2,0,9.4,0v-1.9c-0.6,0-1.2,0-1.8,0c-1.5,0-3.1,0-4.7,0c-1.5,0-3.1,0-4.7,0c-0.6,3.9-2.2,6.9-5.5,9.3
		c-0.2-1.2-0.4-2,0.5-2.9c1.9-1.9,2.9-4.2,3-6.9c0-0.5,0.1-0.9,0.1-1.5c4.3,0,8.6,0,12.9,0v-1.9c-5.1,0-10.1,0-15.2,0
		c0.8,2.9,0.6,5.5-1.4,8.2c-0.1-0.7-0.2-1.1-0.2-1.5c0-1.2,0-2.4,0-3.6c0-1.8-0.6-3.4-1.7-4.8c0.1-0.2,0.1-0.2,0.1-0.2
		c0,0,0.1-0.1,0.1-0.1c0.1,0,0.2-0.1,0.3-0.1c6,0,11.9,0,17.9,0v-5c-2.9-6.9-8-11.6-15.2-14.3c-0.4-0.2-0.9-0.3-1.3-0.5
		c-0.1,0-0.1-0.1-0.2-0.2c0.1-0.7,0.7-0.6,1.2-0.8c4.8-1.6,8.8-4.4,11.9-8.3c1.5-1.8,2.7-3.9,3.6-6v-5.2c-2.7,0-5.4,0-8.1,0
		c-1.6,4.3-4.2,7.6-8.5,9.7c0-0.8-0.1-1.4-0.1-2.1c3.6-2.1,6-5.3,7.1-9.6c1.9-0.1,3.8,0,5.6,0c1.3,0,2.7,0,4,0V76c-3.7,0-7.3,0-11,0
		c-1.2,4.9-2.6,7.3-5.5,9.2c-0.3-0.9-0.5-1.8,0.2-2.5c2.2-2.2,3.2-4.9,3.3-8c0-0.2,0.1-0.4,0.1-0.7c4.3,0,8.6,0,12.9,0v-1.8
		c-4.4,0-8.8,0-13.2,0c-0.6,0-1.2,0-2,0c0.7,3,0.5,5.5-1.5,7.8c0-0.9-0.1-1.7-0.1-2.6c0.1-2.5,0.1-5-1.7-6.9
		c0.1-0.2,0.1-0.2,0.2-0.3c0,0,0.1-0.1,0.1-0.1c0.2,0,0.4-0.1,0.6-0.1c5.9,0,11.7,0,17.6,0v-4.9c-3-6.9-8.1-11.7-15.4-14.3
		c-0.5-0.2-1.4-0.1-1.4-1c0-0.9,0.9-0.8,1.4-0.9c7.3-2.6,12.3-7.4,15.3-14.3v-5.2c-2.7,0-5.4,0-8.1,0c-1.6,4.4-4.2,7.6-8.4,9.6
		c-0.5-1.8-0.5-1.8,0.8-2.6c2.7-1.8,4.6-4.3,5.6-7.4c0.1-0.4,0.3-0.9,0.5-1.5c3.2,0,6.4,0,9.6,0v-1.9c-1.8,0-3.6,0-5.5,0
		c-1.9,0-3.7,0-5.6,0c-0.6,3.9-2.2,7-5.4,9.3c-0.3-1-0.5-1.9,0.2-2.6c2.3-2.2,3.3-5,3.3-8.1c0-0.1,0.1-0.3,0.1-0.6
		c4.3,0,8.6,0,12.9,0v-1.8c-4.5,0-8.9,0-13.4,0c-0.6,0-1.1,0-1.7,0c0.3,4.8,0.1,5.9-1.5,8c-0.1-0.5-0.2-0.9-0.2-1.2
		c0-0.9-0.1-1.8,0-2.6c0.2-2-0.2-3.9-1.5-5.5c-0.1-0.1-0.1-0.3-0.2-0.7c2.1-0.1,4.1,0,6,0c2,0,4,0,6,0s4,0,6,0c0.1,0,0.2,0,0.3,0
		v-4.9c-2.9-6.9-8-11.6-15.2-14.3c-0.2-0.1-0.4-0.1-0.6-0.2h-2.9c0,3,0,6,0,9c4.3,1.6,7.6,4.2,9.6,8.4c-1.3,0.4-2.1,0.2-2.8-0.9
		c-1.8-2.8-4.3-4.6-7.4-5.6c-0.4-0.1-0.8-0.3-1.2-0.4c0,0-0.1-0.1-0.2-0.3c0-3.4,0-6.8,0-10.3h-1.9c0,4,0,8,0,12
		c2.8,0.4,5.3,1.4,7.4,3.3c0.7,0.6,1.3,1.2,1.8,2.2c-1.1,0.1-2,0.3-2.8-0.5c-2-2-4.5-3-7.4-3c-0.2,0-0.5,0-0.9-0.1
		c-0.2-1.8-0.1-3.6-0.1-5.4c0-1.8,0-3.6,0-5.4c0-1,0-2,0-3h-1.9c0,5.3,0,10.7,0,16.1c3-0.8,5.6-0.5,7.9,1.4c-0.3,0-0.7,0.1-1,0.1
		c-1.1,0-2.2,0-3.3,0c-2.1,0-2.1,0-5.6,1.7c0-6.5,0-12.9,0-19.3h-2.8c-8,2.7-13.5,8.1-16.5,16c-0.1,0.1-0.1,0.3-0.2,0.4
		c0,0-0.1,0.1-0.4,0.2c-1.5-4.2-3.7-7.8-6.9-10.8C65.4,3.1,62,1.3,58.3,0h-2.8c0,3,0,6,0,9.1c3,1.1,5.5,2.7,7.5,5.1
		c0.8,1,1.6,2,2,3.3c-1.8,0.4-1.8,0.4-2.6-0.8c-1.9-2.7-4.4-4.6-7.5-5.6c-0.4-0.1-0.9-0.3-1.4-0.5c0-3.5,0-7,0-10.5h-1.8
		c0,4,0,8,0,12c3.8,0.6,6.9,2.2,9.2,5.5c-1.1,0.2-2,0.4-2.8-0.4C56,15,53.4,14,50.5,13.9c-0.2,0-0.5-0.1-0.9-0.1c-0.1-3,0-6,0-8.9
		c0-1.6,0-3.3,0-4.9h-1.9c0,5.3,0,10.7,0,16.1c2.9-0.7,5.5-0.5,7.8,1.6c-0.7,0-1.4,0-2.1,0c-4.2,0-4.2,0-7.7,1.7
		c0-6.4,0-12.9,0-19.3h-3.1c-1.6,0.7-3.2,1.3-4.6,2.1c-1.9,1.1-3.6,2.4-5.2,3.9c-1.5,1.4-2.8,3.2-4,4.9c-1.1,1.8-1.9,3.7-3,5.9
		c-1-2.8-2.2-5.3-3.9-7.6c-1.8-2.3-3.8-4.3-6.2-6C13.7,1.8,11.4,0.8,9.1,0H6.2c0,3,0,6.1,0,9.1c4.3,1.6,7.5,4.2,9.6,8.4
		c-0.8,0-1.4,0-2.1,0c-0.2-0.2-0.4-0.5-0.6-0.8C11.3,13.9,8.8,12,5.5,11C4,10.5,4.2,10.3,4.2,9c0-3,0-6,0-9H2.3c0,3.3,0,6.6,0,10
		C2.3,10.6,2.3,11.2,2.3,11.7z M106.8,242.3c1.8-1.3,3.6-2.5,5.3-3.9c1.6-1.3,2.7-3,3.6-4.8c0.8-1.5,0.8-1.5,2.6-1.2
		c-0.5,3.4-5.5,9.9-11.5,11.7C106.8,243.4,106.8,242.7,106.8,242.3z M120.6,232.4c0.6,0,1.1,0,1.7,0c-1.3,6.9-8.9,14.3-15.5,15.6
		c0-0.5-0.1-1-0.1-1.6C113.5,243.8,118.1,239.2,120.6,232.4z M122.3,182.2c-1.4,6.9-8.6,14.1-15.5,15.6c0-0.6,0-1.1,0-1.7
		c6.7-2.4,11.3-7.1,13.8-13.8C121.2,182.2,121.7,182.2,122.3,182.2z M107.9,191.3c3.5-1.8,6.2-4.5,7.9-8c0.7-1.4,0.8-1.4,2.8-0.9
		c-2.2,5.5-6,9.4-11.5,11.6C106.4,192.4,106.5,192,107.9,191.3z M120.3,132.7c0.1-0.2,0.2-0.4,0.3-0.7c0.5,0,1.1,0,1.6,0
		c-1.1,6.3-8.4,14.1-15.4,15.5c-0.2-1.6-0.2-1.6,0.8-2C113.8,143.2,118,138.9,120.3,132.7z M108.1,141c3.4-1.8,5.9-4.3,7.6-7.7
		c0.8-1.5,0.8-1.5,2.6-1.2c-0.3,4-6.4,10.3-11.5,11.6C106.6,141.8,106.6,141.8,108.1,141z M106.8,2.1c6.3,1,13.9,8.5,15.5,15.5
		c-0.6,0-1.1,0.1-1.7,0.1c-2.5-6.8-7.1-11.4-13.8-13.9C106.8,3.2,106.8,2.7,106.8,2.1z M108,8.6c-1.5-0.8-1.5-0.8-1.1-2.6
		c4.6,1,10.7,7.1,11.5,11.6c-0.7,0-1.3,0-2,0c-0.2-0.4-0.4-0.7-0.6-1.1C114,13,111.4,10.4,108,8.6z M9.5,59.2
		C8,58.5,8,58.5,8.2,56.6c3.6,0.4,10.2,6,11.6,11.4c-2,0.3-2,0.3-2.8-1.3C15.3,63.5,12.8,61,9.5,59.2z M9.3,44.8
		c5.9-2.4,10-6.5,12.3-12.3c0.5-1.3,0.5-1.3,2.1-1.1c-1,6.4-9.4,14.8-15.5,15.5c0-0.5,0-1,0-1.6C8.5,45.1,8.9,45,9.3,44.8z M8.2,43
		c0-0.7,0-1.3,0-2c0.4-0.2,0.8-0.4,1.2-0.6c3.4-1.8,6-4.3,7.7-7.8c0.8-1.5,0.8-1.5,2.6-1.2C19.4,35.5,12.8,42.3,8.2,43z M9.6,48.9
		c7.5-2.7,12.7-7.7,15.7-15.1c0.1-0.4,0.3-0.8,0.5-1.2c0-0.1,0.2-0.1,0.4-0.3c0.4,0.9,0.6,1.6,0.9,2.4c3.1,6.9,8.2,11.5,15.2,14.1
		c0.5,0.2,1.4,0.1,1.4,0.9c0,0.9-0.8,0.8-1.4,1c-7.5,2.7-12.7,7.7-15.7,15c-0.2,0.5-0.4,0.9-0.7,1.6c-0.3-0.6-0.5-1.1-0.7-1.5
		c-2.9-7.5-8.2-12.5-15.7-15.2c-0.5-0.2-1.4-0.1-1.4-1C8.2,48.9,9,49,9.6,48.9z M60.8,68c-1.1,0.2-1.9,0.5-2.7-0.3
		c-2.1-2.2-4.8-3.2-7.8-3.2c-0.2,0-0.4-0.1-0.7-0.1c0-9.1,0-18.2,0-27.4c-3.9-0.6-7-2.2-9.3-5.6c1.3-0.4,2.1-0.2,3,0.6
		c1.9,1.9,4.1,2.8,6.8,2.9c0.4,0,0.7,0,1.1,0.1c0.1,0,0.2,0.1,0.4,0.2c0,9,0,18.1,0,27.3C55.4,63.2,58.5,64.8,60.8,68z M57.5,43
		c0-0.7,0-1.3,0-2c0.4-0.2,0.8-0.4,1.2-0.6c3.4-1.8,6-4.3,7.7-7.7c0.8-1.5,0.8-1.5,2.7-1.2C68,36.4,61.9,42.2,57.5,43z M70.9,32.4
		c0.5-1.3,0.6-1.3,2.1-0.9c-1.2,6.1-8,13.8-15.5,15.5c0-0.6,0-1.1,0-1.7c0.3-0.1,0.5-0.3,0.8-0.4C64.3,42.5,68.5,38.3,70.9,32.4z
		 M57.9,49.2c0.2-0.1,0.5-0.2,0.7-0.3c7.6-2.7,12.9-7.7,15.9-15.2c0.1-0.3,0.3-0.7,0.4-1c0,0,0.1-0.1,0.3-0.3
		c0.2,0.5,0.4,0.9,0.6,1.4c3,7.4,8.2,12.4,15.7,15.1c0.5,0.2,1.4,0.1,1.4,0.9c0,0.9-0.8,0.8-1.4,1C84,53.5,78.8,58.5,75.8,66
		c-0.1,0.4-0.3,0.7-0.6,1.3c-0.3-0.5-0.5-0.7-0.6-1c-2.9-7.7-8.3-12.9-16.1-15.6c-0.2-0.1-0.5-0.1-0.7-0.3c-0.2-0.1-0.4-0.4-0.4-0.6
		C57.5,49.6,57.7,49.3,57.9,49.2z M92.3,44.9c0.2,0.1,0.4,0.2,0.7,0.3c0,0.6,0,1.1,0,1.6C87.1,45.9,79,39,77.5,31.5
		c1.5-0.4,1.6-0.4,2,0.8C81.9,38.3,86.2,42.6,92.3,44.9z M81.3,31.4c1.9-0.2,1.9-0.2,2.7,1.3c1.7,3.3,4.2,5.8,7.5,7.6
		c0.4,0.2,0.8,0.4,1.2,0.7c0,0,0.1,0.1,0.1,0.2c0,0.6,0,1.3,0,1.9C88.6,42.2,82.3,36.3,81.3,31.4z M104.8,118.2
		c-0.4,0.1-0.8,0.1-1.1,0.2c-0.7,0-1.4,0-2.2,0c-3.5,0-3.5,0-6.4,1.6c-0.4-0.5-0.3-1.2-0.3-1.7c0-4.8,0-9.6,0-14.4
		c0-3.9,0-7.7,0-11.6c0-1.2-0.2-1.9-1.5-2.4c-3.1-1.2-5.5-3.4-7.3-6.3c-0.2-0.4-0.4-0.7-0.6-1.1c-0.1-0.1,0-0.3,0-0.5
		c0.9-0.1,1.7-0.4,2.3,0.6c2,3.2,4.9,5.3,8.5,6.3c0.1,0,0.3,0.1,0.6,0.2c0,9.2,0,18.4,0,27.6C101.4,116.3,103.1,116.6,104.8,118.2z
		 M104.7,125.2c0,2.6-2.2,4.8-4.9,4.7c-2.7,0-4.8-2.2-4.8-4.8c0-2.6,2.2-4.8,4.9-4.8C102.5,120.4,104.7,122.7,104.7,125.2z
		 M104.9,168.3c-0.5,0.1-0.8,0.2-1.1,0.2c-0.7,0-1.4,0-2.2,0c-3.4,0-3.6,0.1-6.5,1.7c-0.4-0.5-0.2-1.2-0.2-1.8c0-8.4,0-16.9,0-25.3
		c0-0.4,0-0.8,0-1.2c0.1-1-0.3-1.5-1.2-1.8c-3.2-1.3-5.7-3.5-7.5-6.4c-0.3-0.5-0.5-1-0.8-1.5c1.3-0.4,2-0.2,2.7,0.9
		c1.8,2.8,4.3,4.6,7.4,5.6c0.4,0.1,0.9,0.3,1.4,0.5c0,9.2,0,18.4,0,27.7C99.8,166.3,102.4,166.4,104.9,168.3z M104.7,175.4
		c0,2.6-2.2,4.8-4.9,4.8c-2.6,0-4.8-2.2-4.8-4.8c0-2.6,2.2-4.8,4.8-4.8C102.5,170.5,104.7,172.8,104.7,175.4z M51.6,204c0,3,0,6,0,9
		c2.9,0.5,5.5,1.5,7.6,3.5c0.6,0.6,1,1.2,1.7,2c-1.2,0.2-2.1,0.4-2.9-0.4c-2.1-2.1-4.7-3.1-7.7-3.1c-0.2,0-0.4-0.1-0.8-0.1
		c0-9,0-17.9,0-26.7c-1.8-0.7-3.6-1.3-5.2-2c-1.6-0.8-2.9-2.1-4-3.7c1-0.4,1.9-0.5,2.6,0.3c2.1,2.2,4.8,3.2,7.8,3.3
		c0.2,0,0.4,0.1,0.8,0.1c0.1,3,0,6,0.1,8.9C51.6,198,51.6,201,51.6,204z M54.9,212c-0.4-0.1-0.9-0.3-1.4-0.5c0-9.2,0-18.4,0-27.7
		c-2.9,0.7-5.5,0.5-7.8-1.2c0-0.1,0-0.2,0-0.4c0.9,0,1.9-0.1,2.9,0c2.5,0.3,4.7,0,7-1.9c0.1,2.8,0,5.3,0,7.7c0,2.4,0,4.9,0,7.3
		c0,2.5,0,5,0,7.4c0,2.4,0,4.8,0,7.4c4.3,1.6,7.5,4.2,9.6,8.4c-1.3,0.5-2.1,0.2-2.8-0.9C60.5,214.8,58,213,54.9,212z M8.2,146
		c0.4-0.2,0.7-0.4,1.1-0.5c5.8-2.3,9.9-6.4,12.2-12.2c0.5-1.3,0.5-1.3,2-1.2c0.2,5.3-9.6,15.1-15.4,15.4
		C8.2,147.1,8.2,146.6,8.2,146z M8.2,143.8c0-0.7,0-1.3,0-2c4.8-2.6,6.7-4.2,9.7-9.7c0.6,0,1.3,0,2,0C19.1,136.5,12.7,143,8.2,143.8
		z M22.5,130.2c-1.9,0-3.8,0-5.8,0c-1.6,4.3-4.2,7.5-8.3,9.5c-0.5-1.7-0.5-1.8,0.5-2.5c3-2,5.1-4.8,6.1-8.3c0.1-0.2,0.2-0.5,0.4-0.8
		c8.8,0,17.7,0,26.8,0c-0.6-2.8-0.5-5.4,1.4-8c0.5,3.5-0.6,7,2.1,10c-2.2,0.2-4.1,0.1-6,0.1c-1.9,0-3.8,0-5.7,0c-1.9,0-3.8,0-5.7,0
		S24.4,130.2,22.5,130.2z M42.9,104.8c-5.9,2.3-10.1,6.5-12.5,12.4c-0.5,1.3-0.6,1.3-2.1,1c0.7-6,9.3-14.6,15.4-15.3
		c0,0.5,0,1,0.1,1.5C43.4,104.5,43.1,104.7,42.9,104.8z M43.7,108.7c-0.5,0.2-0.9,0.5-1.3,0.7c-3.3,1.7-5.9,4.3-7.6,7.6
		c-0.8,1.5-0.8,1.5-2.9,1.2c2.3-5.6,6.1-9.4,11.7-11.7c0.1,0.4,0.1,0.6,0.2,0.8C43.7,107.7,43.7,108.2,43.7,108.7z M43.7,100.3
		c-1.9,0.9-3.9,1.6-5.7,2.6c-1.9,1.1-3.6,2.4-5.2,3.9c-1.5,1.4-2.8,3.2-4,4.9s-1.9,3.7-3,5.8c-3.1-8.7-9-14.4-17.7-17
		c0-0.8,0.6-0.8,1-0.9c1.6-0.7,3.3-1.3,4.8-2.1c5.3-3,9-7.4,11.2-13c0.2-0.4,0.4-0.8,0.6-1.3c0,0,0.1-0.1,0.3-0.2
		c3,8.6,9,14.2,17.7,16.9C43.7,100,43.7,100.1,43.7,100.3z M9.3,95.4c5.9-2.4,10-6.5,12.3-12.3c0.5-1.3,0.5-1.3,2.1-1.1
		c-0.9,6.3-9.3,14.6-15.5,15.5c0-0.5,0-1-0.1-1.6C8.5,95.7,8.9,95.5,9.3,95.4z M8.2,93.6c0-0.7,0-1.3,0-2C8.6,91.4,9,91.2,9.4,91
		c3.4-1.8,6-4.3,7.7-7.7c0.8-1.5,0.8-1.5,2.7-1.2C18.7,86.9,12.7,92.9,8.2,93.6z M43.6,95.8c0,0.6,0,1.1,0,1.6
		c-6.1-0.7-14.6-9.2-15.5-15.6c0.5,0,1-0.1,1.6-0.1C32.3,88.7,36.9,93.3,43.6,95.8z M32.1,82.1c1.7-0.5,1.9-0.5,2.5,0.9
		c1.8,3.6,4.5,6.3,8.1,8.1c0.3,0.2,0.6,0.3,1,0.5c0,0.4,0.1,0.8,0.1,1.2c0,0.2-0.1,0.5-0.1,0.7C39.3,92.9,32.9,86.5,32.1,82.1z
		 M36.1,82.1c1.5-0.5,1.8-0.5,2.4,0.5c2,3.1,4.8,5.2,8.4,6.2c0.2,0.1,0.4,0.1,0.7,0.3c0,9.2,0,18.4,0,27.6c4.4-0.5,6.1-0.1,7.9,1.5
		c-3.5,0.4-6.9-0.7-9.9,2.1c0-10.2,0-20,0-29.9C41.4,88.9,38.1,86.3,36.1,82.1z M49.2,81.8c2.2,0.2,4.1-0.1,5.9-1.5
		c0.1,0,0.2,0,0.5,0c0,9.8,0,19.6,0,29.4c4.3,1.6,7.5,4.2,9.6,8.4c-1.3,0.4-2.1,0.2-2.7-0.8c-1.8-2.8-4.4-4.7-7.7-5.7
		c-0.4-0.1-0.8-0.3-1.3-0.5c0-9.2,0-18.4,0-27.6c-4.6,0.4-6.1,0.1-7.9-1.6C46.8,81.6,48,81.7,49.2,81.8z M45.7,75.1
		c0-2.6,2.2-4.8,4.8-4.8c2.7,0,4.8,2.2,4.8,4.8c0,2.6-2.2,4.8-4.8,4.8C48,79.9,45.7,77.7,45.7,75.1z M57.5,93.6
		c0-0.2-0.1-0.5-0.1-0.7c0-0.4,0-0.8,0.1-1.3c0.4-0.2,0.8-0.4,1.3-0.6c3.4-1.8,6-4.4,7.7-7.8c0.8-1.5,0.8-1.5,2.6-1.2
		C68.6,85.8,62.7,92.6,57.5,93.6z M70.9,83.1c0.6-1.4,0.6-1.4,2.1-1.1c-1.3,6.6-8.4,13.9-15.5,15.5c0-0.7,0-1.2,0-1.7
		c0.4-0.2,0.7-0.3,1-0.5C64.4,93,68.5,88.9,70.9,83.1z M58.8,99.4c6.1-2.1,10.8-6,14-11.6c0.9-1.5,1.5-3.2,2.3-4.8
		c0.2,0.2,0.4,0.4,0.5,0.7c3,7.9,8.4,13.2,16.4,15.9c0.3,0.1,0.6,0.3,1.1,0.6c-0.4,0.3-0.7,0.5-1,0.6c-8.1,2.7-13.6,8-16.5,16
		c-0.1,0.2-0.2,0.4-0.5,0.9c-3.1-8.9-9.1-14.5-17.8-17.2C57.7,99.6,58.3,99.6,58.8,99.4z M92.4,95.6c0.1,0.1,0.3,0.1,0.5,0.3
		c0,0.6,0,1.1,0,1.6c-6-0.6-14.6-9.2-15.5-15.4c1.5-0.4,1.6-0.4,2,0.8C81.9,89,86.2,93.2,92.4,95.6z M81.3,82
		c1.9-0.3,1.9-0.3,2.7,1.2c1.8,3.4,4.3,5.9,7.6,7.7c0.4,0.2,0.8,0.4,1.3,0.7c0,0.7,0,1.3,0,2C88.8,93.1,82.3,86.7,81.3,82z
		 M91.9,145.5c1.3,0.5,1.3,0.5,0.9,2.1c-6.1-0.9-13.8-8.6-15.4-15.5c0.6,0,1.1,0,1.7,0c0.1,0.2,0.3,0.5,0.4,0.8
		C81.8,138.9,85.9,143.1,91.9,145.5z M81.4,132.2c1.9-0.3,1.9-0.3,2.6,1.2c1.8,3.3,4.3,5.9,7.6,7.7c0.4,0.2,0.8,0.4,1.3,0.7
		c0,0.7,0,1.4,0,2.1C88,142.6,82,136.5,81.4,132.2z M79.2,140.5c0.9,1.2,1.8,2.2,2.9,3.2c1.1,1,2.2,1.9,3.4,2.7
		c1.2,0.8,2.4,1.4,3.6,2c1.3,0.6,2.6,1.1,3.9,1.8c-4.1,1.5-7.8,3.4-10.9,6.4c-3.1,3-5.3,6.6-6.7,10.7c-0.7-0.3-0.7-0.9-0.9-1.4
		c-2.4-6-6.4-10.5-12.2-13.5c-1.1-0.6-2.4-1-3.5-1.5c-0.5-0.2-0.9-0.4-1.3-0.6c0-0.1,0-0.2,0-0.3c1.5-0.6,3.1-1.2,4.6-2
		c1.5-0.8,3-1.7,4.3-2.7c1.3-1,2.6-2.2,3.7-3.5c1.1-1.3,2.1-2.7,2.9-4.2c0.8-1.5,1.5-3,2.3-4.8c0.7,1.4,1.2,2.8,1.8,4
		C77.7,138.2,78.4,139.4,79.2,140.5z M91.9,163.6c-2.7,1.9-4.6,4.3-5.6,7.4c-0.1,0.4-0.3,0.9-0.5,1.4c-8.9,0-17.8,0-26.9,0
		c0.7,2.9,0.5,5.5-1.2,7.8c-0.1,0-0.3,0-0.4,0c0-1.2-0.1-2.3,0-3.5c0.2-2.1-0.2-4.1-1.5-5.9c0-0.1,0-0.2,0-0.5c0.6,0,1.1,0,1.6,0
		c8.4,0,16.8,0,25.3,0c1.2,0,1.9-0.3,2.4-1.5c1.2-3,3.4-5.4,6.1-7.2c0.5-0.3,1-0.5,1.5-0.8C93.2,162.7,93.2,162.7,91.9,163.6z
		 M92.2,168.1c-1.9,1.9-2.7,4.3-2.9,7c0,0.4,0,0.7-0.1,1.2c-8.7,0-17.4,0-26.1,0c-0.4,2.8-1.3,5.3-3.2,7.3c-0.6,0.7-1.4,1.3-2.3,2.1
		c-0.4-1.3-0.4-2.2,0.5-3c2-1.9,2.8-4.4,3-7.1c0-0.4,0-0.7,0.1-1.2c8.7,0,17.4,0,26.1,0c0.6-3.8,2.2-6.9,5.5-9.2
		C93.1,166.4,93.1,167.3,92.2,168.1z M49.5,151.3c0-2.3,0-4.6,0-6.8c0-2.2,0-4.4,0-6.8c-3.8-0.7-6.9-2.2-9.2-5.5
		c1.1-0.2,1.9-0.5,2.7,0.3c2.2,2.2,4.8,3.3,7.9,3.3c0.1,0,0.3,0.1,0.7,0.1c0,9,0,17.9,0,27c3.8,0.6,6.9,2.1,9.2,5.4
		c-1.2,0.3-2.1,0.3-2.9-0.6c-1.9-2-4.4-2.8-7.1-2.9c-0.3,0-0.6,0-1.1,0c-0.1-2.3,0-4.6,0-6.8C49.5,155.7,49.5,153.5,49.5,151.3z
		 M46.5,132c1.2,0,2.4,0,3.6,0c1.7,0.1,3.2-0.3,4.5-1.3c0.2-0.1,0.4-0.2,0.9-0.5c0,0.9,0,1.5,0,2.2c0,8.5,0,17,0,25.6
		c0,1.3,0.3,2.1,1.7,2.7c3,1.2,5.4,3.4,7.2,6.2c0.3,0.4,0.5,0.9,0.7,1.4c-1.8,0.4-1.8,0.4-2.7-0.8c-1.9-2.7-4.4-4.6-7.6-5.6
		c-0.4-0.1-0.7-0.2-1-0.4c0,0-0.1-0.1-0.3-0.2c0-9,0-18.2,0-27.6c-2.9,0.7-5.6,0.5-8.2-1.4C45.9,132.1,46.2,132,46.5,132z
		 M45.8,125.2c0-2.6,2.2-4.7,4.8-4.8c2.7,0,4.9,2.1,4.9,4.8c0,2.7-2.1,4.8-4.8,4.8C47.9,130,45.7,127.8,45.8,125.2z M71.3,168.4
		c-2.5-6.7-7-11.3-13.8-13.8c0-0.3-0.1-0.6-0.1-0.9c0-0.2,0.1-0.5,0.1-0.7c7,1.4,14,8.8,15.5,15.4C72.4,168.4,71.9,168.4,71.3,168.4
		z M77.5,168.4c0.5-5.9,8.4-13.8,15.4-15.5c0,0.6,0,1.1,0,1.8c-3.2,1.1-6,2.8-8.4,5.2c-2.4,2.4-4.1,5.3-5.3,8.5
		C78.6,168.4,78.1,168.4,77.5,168.4z M91.7,159.5c-3.3,1.7-5.8,4.2-7.6,7.5c-0.8,1.6-0.8,1.6-2.7,1.3c0.6-4.2,7.2-10.8,11.4-11.4
		C93.2,158.8,93.2,158.8,91.7,159.5z M57.6,147.6c-0.4-1.5-0.4-1.5,0.9-2.1c6-2.4,10.1-6.7,12.5-12.6c0.1-0.2,0.2-0.5,0.3-0.8
		c0.5,0,1.1,0,1.7,0C71.5,138.8,64.7,146.1,57.6,147.6z M57.5,143.8c0-0.2-0.1-0.5-0.1-0.7c0-0.4,0-0.8,0-1.3
		c0.5-0.2,0.9-0.5,1.4-0.7c3.3-1.8,5.9-4.3,7.6-7.7c0.8-1.5,0.8-1.5,2.7-1.2C68.2,136.4,62.9,142.5,57.5,143.8z M57.6,156.9
		c4.4,0.8,10.3,6.7,11.5,11.4c-1.7,0.5-1.9,0.5-2.6-1c-1.8-3.4-4.3-6-7.7-7.7C57.2,158.7,57.2,158.7,57.6,156.9z M91.9,113.5
		c-2.7,1.8-4.6,4.3-5.6,7.4c-0.1,0.4-0.3,0.8-0.4,1.3c-8.9,0-17.8,0-27,0c0.7,2.9,0.6,5.6-1.3,8.2c-0.1-0.5-0.2-0.8-0.2-1.2
		c0-1.1-0.1-2.2,0-3.3c0.1-1.8-0.3-3.5-1.4-4.9c-0.1-0.2-0.2-0.4-0.4-0.7c4.9-0.1,9.7,0,14.5,0c4.8,0,9.5,0,14.4,0
		c1.5-4.2,4.2-7.4,8.3-9.5C93.2,112,93,112.8,91.9,113.5z M92.2,118c-1.9,1.9-2.7,4.3-2.9,7c0,0.3,0,0.6-0.1,0.9c0,0,0,0.1-0.1,0.3
		c-8.6,0-17.3,0-26,0c-0.6,3.9-2.2,6.9-5.5,9.3c-0.2-1.1-0.5-1.9,0.3-2.7c2.2-2.2,3.2-4.9,3.2-8c0-0.1,0.1-0.3,0.1-0.6
		c8.6,0,17.3,0,26,0c0.5-2.9,1.4-5.4,3.4-7.5c0.6-0.6,1.3-1.1,2.1-1.8C93.1,116.2,93.1,117.1,92.2,118z M69.1,118.1
		c-1.7,0.5-1.9,0.4-2.6-0.9c-1.8-3.5-4.5-6.2-8-8c-0.3-0.2-0.6-0.3-1.1-0.5c0-0.7,0-1.3,0-1.9C61.5,107.1,68.3,113.7,69.1,118.1z
		 M57.5,104.4c0-0.5,0-1,0-1.5c5.6,0.2,13.9,8.3,15.6,15.2c-1.6,0.3-1.6,0.4-2.1-0.8c-2.4-6-6.7-10.2-12.7-12.5
		C58,104.7,57.7,104.6,57.5,104.4z M92.9,104.4c-0.3,0.1-0.6,0.3-0.9,0.4c-5.9,2.4-10,6.4-12.4,12.3c-0.5,1.3-0.5,1.3-2.2,1.1
		c1.4-6.7,9.5-14.7,15.5-15.3C92.9,103.4,92.9,103.9,92.9,104.4z M92.9,106.7c0,0.7,0,1.3,0,2c-0.3,0.2-0.6,0.4-0.9,0.5
		c-3.5,1.8-6.2,4.4-8,7.9c-0.7,1.4-0.9,1.4-2.5,0.9C82.2,113.8,88.4,107.5,92.9,106.7z M50.6,85.6c0.2,0,0.5,0.1,0.9,0.2
		c0.1,3,0,6,0,9c0,3,0,6,0,9c0,3,0,6,0,9c3.8,0.6,6.9,2.2,9.1,5.3c-0.9,0.4-1.8,0.6-2.5-0.1c-2.3-2.3-5.1-3.4-8.6-3.2
		c-0.1-0.7-0.1-1.4-0.1-2c0-7.7,0-15.5,0-23.3c0-0.6,0-1.2,0-1.9c-3.9-0.6-6.9-2.2-9.3-5.6c1.1-0.2,2-0.4,2.7,0.4
		C45.1,84.5,47.6,85.6,50.6,85.6z M8.9,132.5c1.9-1.9,2.9-4.4,2.9-7.1c0-0.3,0-0.6,0.1-1.1c0.6,0,1.2-0.1,1.8-0.1c7.5,0,15,0,22.5,0
		c0.6,0,1.2,0,1.9,0c0.6-3.8,2.2-6.9,5.4-9.2c0.2,1.1,0.4,1.9-0.4,2.7c-2.1,2.1-3.1,4.6-3.1,7.5c0,0.2-0.1,0.5-0.1,0.9
		c-8.7,0-17.4,0-26.1,0c-0.5,3.9-2.2,7-5.5,9.4C8,134.2,8.1,133.3,8.9,132.5z M29.8,132.1c2.4,6.7,7,11.3,13.8,13.8
		c0,0.7,0,1.2,0,1.6c-6-0.6-14.6-9.2-15.5-15.5C28.7,132.1,29.2,132.1,29.8,132.1z M43.5,143.7c-4.5-0.9-10.6-7.1-11.5-11.6
		c0.7,0,1.3,0,2,0c0.2,0.4,0.4,0.7,0.6,1.1c1.8,3.5,4.3,6.1,7.8,7.9C43.9,141.8,43.9,141.9,43.5,143.7z M36.1,132.2
		c1.8-0.4,1.8-0.4,2.7,0.8c1.9,2.8,4.4,4.6,7.5,5.7c0.4,0.1,0.7,0.2,1,0.4c0.1,0,0.2,0.1,0.4,0.3c0,9,0,18.2,0,27.6
		c2.8-0.6,5.5-0.5,7.8,1.3c-3.2,0.5-6.7-0.5-9.3,1.9c-0.2-0.1-0.2-0.1-0.3-0.1c0,0-0.1-0.1-0.1-0.1c0-0.2-0.1-0.4-0.1-0.6
		c0-9.5,0-19-0.1-28.5c0,0,0-0.1-0.1-0.3C41.4,139,38.1,136.4,36.1,132.2z M55.4,175.4c0,2.6-2.3,4.8-4.9,4.8
		c-2.6,0-4.8-2.3-4.8-4.9c0-2.6,2.3-4.8,4.9-4.8C53.3,170.6,55.4,172.8,55.4,175.4z M58.7,209.7c-0.3-0.2-0.6-0.3-0.9-0.5
		c-0.1,0-0.1-0.1-0.2-0.2c0-0.6,0-1.3,0-2c4.6,0.9,10.8,7.1,11.6,11.6c-1.9,0.2-1.9,0.2-2.7-1.3C64.6,213.9,62.1,211.4,58.7,209.7z
		 M58.1,205c-0.2-0.1-0.4-0.2-0.6-0.3c0-0.5,0-1,0-1.5c5.4-0.1,14.7,9.1,15.5,15.2c-1.5,0.3-1.6,0.3-2-0.8
		C68.5,211.6,64.2,207.4,58.1,205z M57.4,200.7c0.2-0.9,0.9-0.8,1.4-1c4.2-1.5,7.9-3.8,10.9-7.2c2.1-2.3,3.6-4.9,4.8-7.7
		c0.2-0.5,0.4-0.9,0.6-1.6c0.2,0.4,0.4,0.6,0.5,0.8c3,7.9,8.5,13.1,16.5,15.8c0.2,0.1,0.5,0.2,0.7,0.3c0,0,0.1,0.1,0.2,0.3
		c-2,0.9-3.9,1.6-5.7,2.7c-1.9,1.1-3.6,2.4-5.2,3.9c-1.5,1.4-2.8,3.2-4,4.9c-1.1,1.8-1.9,3.7-3,5.8C72,209,66.1,203.4,57.4,200.7z
		 M57.5,196.1c0.4-0.2,0.8-0.3,1.2-0.5c5.8-2.4,9.9-6.5,12.2-12.3c0.5-1.3,0.5-1.3,2.1-1.1c-0.2,5.6-8.8,14.2-15.4,15.5
		c0-0.2-0.1-0.4-0.1-0.6C57.4,196.9,57.5,196.5,57.5,196.1z M58.8,191.2c3.4-1.8,5.9-4.3,7.6-7.7c0.8-1.6,0.8-1.6,2.6-1.2
		c-0.6,4.3-6.9,10.6-11.5,11.6C57.3,192,57.3,192,58.8,191.2z M77.4,182.3c1.6-0.3,1.7-0.3,2.1,0.8c2.4,6,6.6,10.2,12.7,12.6
		c0.2,0.1,0.5,0.2,0.7,0.4c0,0.6,0,1.1,0,1.6C86.4,196.6,78.9,189.1,77.4,182.3z M92.9,203.2c0,0.5,0,1,0,1.6
		c-6.7,2.4-11.3,7-13.8,13.8c-0.4,0-0.6,0.1-0.9,0.1c-0.2,0-0.5,0-0.7-0.1C77.9,212.8,87,203.6,92.9,203.2z M92.9,206.9
		c0,0.8,0,1.4,0,2.1c-0.2,0.1-0.4,0.3-0.5,0.4c-3.8,1.8-6.7,4.6-8.6,8.4c-0.5,1.1-0.6,1.1-2.4,0.8C81.9,214.4,87.7,208.5,92.9,206.9
		z M92.6,217.9c-2.4,2.3-3.3,5.2-3.3,8.5c-8.7,0-17.4,0-26.2,0c-0.6,3.9-2.1,7-5.5,9.4c-0.2-1.2-0.4-2,0.4-2.8
		c2.1-2.1,3.1-4.7,3.1-7.7c0-0.2,0-0.4,0.1-0.8c8.8,0,17.4,0,25.9,0c0.7-1.8,1.2-3.5,2-5.1c0.8-1.6,2-2.9,3.7-4
		C93,216.3,93.3,217.2,92.6,217.9z M92.8,194.1c-5.5-2.2-9.4-6-11.6-11.7c2-0.5,2-0.5,2.8,1.1c1.8,3.4,4.3,6,7.7,7.7
		C93.2,192,93.2,192,92.8,194.1z M80.4,180.3c-4.8,0-9.5,0-14.4,0c-1.6,4.2-4.2,7.5-8.3,9.5c-0.5-1.6-0.5-1.8,0.7-2.6
		c2.8-1.9,4.7-4.5,5.7-7.7c0.1-0.4,0.2-0.8,0.4-1.3c9,0,17.8,0,26.8,0c-0.6-2.8-0.5-5.4,1.4-8c0.1,0.5,0.2,0.8,0.2,1.2
		c0,1.1,0,2.2,0,3.3c-0.1,1.8,0.4,3.4,1.4,4.8c0.1,0.2,0.2,0.3,0.4,0.7C89.9,180.3,85.1,180.2,80.4,180.3z M66,130.2
		c-1.6,4.3-4.2,7.5-8.3,9.5c-0.5-1.6-0.5-1.8,0.5-2.5c3.1-2.1,5.2-4.9,6.1-8.4c0.1-0.2,0.2-0.4,0.3-0.7c8.8,0,17.7,0,26.8,0
		c-0.6-2.8-0.5-5.4,1.4-8c0.1,0.7,0.2,1,0.2,1.3c0,1.1,0,2.3,0,3.4c-0.1,1.9,0.6,3.5,1.9,5.4C85,130.2,75.6,130.2,66,130.2z
		 M80.3,80c-4.8,0-9.5,0-14.3,0c-1.5,4.3-4.2,7.5-8.3,9.5c-0.6-1.6-0.5-1.8,0.7-2.6c2.8-1.9,4.7-4.5,5.7-7.7c0.1-0.4,0.2-0.7,0.4-1
		c0,0,0.1-0.1,0.3-0.3c8.7,0,17.5,0,26.6,0C90.8,75,91,72.5,92.8,70c0.1,0.5,0.2,0.8,0.2,1.1c0,1.1,0,2.2,0,3.3
		c-0.1,1.8,0.4,3.4,1.4,4.8c0.1,0.2,0.2,0.4,0.4,0.8C89.8,80.1,85.1,80,80.3,80z M58.2,82.3c1.9-2,2.8-4.4,2.9-7.1
		c0-0.3,0-0.6,0.1-0.9c0,0,0.1-0.1,0.2-0.3c8.6,0,17.2,0,26,0c0.6-3.9,2.2-6.9,5.4-9.1c0.3,1,0.5,1.8-0.1,2.6
		c-2.8,3.4-2.9,3.9-3.4,8.6c-8.6,0-17.3,0-26.1,0c-0.6,3.9-2.2,7-5.5,9.3C57.3,84.1,57.3,83.2,58.2,82.3z M91.8,59.2
		c-3.4,1.7-5.9,4.3-7.7,7.6c-0.8,1.5-0.8,1.5-2.9,1.3c2.3-5.6,6.1-9.4,11.6-11.7C93.3,58.3,93.2,58.5,91.8,59.2z M79.2,68.1
		c-0.3,0-0.6,0.1-0.9,0.1c-0.2,0-0.5-0.1-0.7-0.1c0.8-6.1,8.8-14.2,15.5-15.5c0,0.6,0,1.1,0,1.7C86.2,56.8,81.6,61.4,79.2,68.1z
		 M73,68.1c-0.5,0-1,0-1.7,0c-2.4-6.6-7-11.3-13.8-13.8c0-0.6,0-1.1,0-1.6C63,52.9,72.1,61.9,73,68.1z M57.6,56.3
		c5.6,2.2,9.5,6,11.7,11.6c-1.8,0.6-2,0.5-2.8-0.9c-1.8-3.5-4.4-6.1-7.9-7.8c-0.3-0.1-0.6-0.3-0.8-0.4c-0.1,0-0.1-0.1-0.3-0.3
		c0-0.4-0.1-0.8,0-1.2C57.4,57,57.5,56.8,57.6,56.3z M84.5,70.1c1.6-4.2,4.2-7.4,8.3-9.5c0.2,1.1,0.4,1.9-0.6,2.6
		c-3,1.9-5,4.7-6,8.2c-0.1,0.2-0.1,0.4-0.2,0.6c0,0-0.1,0.1-0.2,0.3c-8.7,0-17.6,0-26.7,0c0.6,2.9,0.5,5.5-1.4,8.1
		c-0.1-0.6-0.2-0.9-0.2-1.2c0-0.4,0-0.7,0-1.1c0-4.2,0-4.2-1.7-7.9C65.4,70.1,74.9,70.1,84.5,70.1z M46.3,38
		c0.4,0.1,0.8,0.3,1.4,0.5c0,9.4,0,18.7,0,28.1c2.8-0.7,5.4-0.5,8,1.3c-0.6,0.1-0.9,0.2-1.2,0.2c-0.8,0-1.6,0-2.5,0
		c-3,0-3,0-6.1,1.6c0,0-0.1,0-0.1-0.1c0,0-0.1-0.1-0.1-0.1c0-0.1-0.1-0.3-0.1-0.5c0-9.7,0-19.3,0-29c0,0,0-0.1-0.1-0.3
		c-4.1-1.5-7.4-4.2-9.4-8.4c1.3-0.5,2.1-0.1,2.7,0.9C40.6,35.2,43.2,37,46.3,38z M42.5,40.4c1.4,0.7,1.4,0.8,1.1,2.6
		c-4.8-1.1-11.1-7.5-11.5-11.6c1.8-0.3,1.8-0.3,2.6,1.2C36.5,36,39.1,38.6,42.5,40.4z M43.4,56.5c0.7,1.5,0.5,2-0.8,2.7
		c-3.5,1.8-6.1,4.4-7.9,7.8c-0.2,0.4-0.4,0.7-0.6,1.2c-0.5,0-0.9,0-1.3,0c-0.2,0-0.4-0.1-0.6-0.1C32.5,64.1,38.3,58.2,43.4,56.5z
		 M29.8,68.2c-0.7,0-1.2-0.1-1.7-0.1c1.1-6.4,9-14.4,15.4-15.5c0,0.6,0,1.1,0,1.7C36.9,56.8,32.3,61.4,29.8,68.2z M43.7,45.2
		c0,0.6,0,1.1,0,1.6c-5.5-0.1-14.2-8.7-15.5-15.5c0.6,0,1.1,0,1.7,0C32.3,38.1,36.9,42.7,43.7,45.2z M23.7,68.1c-0.5,0-1,0-1.6,0
		c-0.2-0.4-0.4-0.8-0.6-1.2c-2.3-5.7-6.4-9.7-12.1-12C8,54.3,8,54.3,8.3,52.6C15,54,23.2,62.3,23.7,68.1z M6.6,70.7
		c-0.1-0.1-0.1-0.3-0.2-0.7c3.3,0,6.4,0,9.6,0c3.2,0,6.3,0,9.5,0c3.2,0,6.4,0,9.7,0c1.6-4.2,4.2-7.4,8.3-9.4
		c0.4,1.8,0.4,1.8-0.8,2.7c-2.7,1.9-4.6,4.3-5.6,7.4c-0.1,0.4-0.3,0.9-0.5,1.5c-8.9,0-17.8,0-26.9,0c0.8,2.9,0.5,5.5-1.2,7.8
		c-0.1,0-0.3,0-0.4-0.1c0-1.3-0.1-2.6,0-3.8C8.3,74.1,7.9,72.3,6.6,70.7z M43.2,67.6c-2,2-3,4.5-3.1,7.4c0,0.2,0,0.4-0.1,0.6
		c0,0.1-0.1,0.2-0.2,0.4c-8.5,0-17.2,0-25.7,0c-0.7,1.9-1.3,3.6-2.1,5.3c-0.8,1.6-2,3-3.8,4c-0.3-1.2-0.3-2,0.6-2.9
		c2-2,2.9-4.5,3-7.3c0-0.3,0-0.6,0.1-1.1c8.7,0,17.4,0,26.2,0c0.6-3.8,2.2-6.9,5.4-9.2C43.8,66,44,66.8,43.2,67.6z M9.2,86.9
		c2.8-1.9,4.7-4.5,5.7-7.7c0.1-0.4,0.3-0.8,0.4-1.3c8.9,0,17.8,0,26.8,0c-0.6-2.9-0.5-5.5,1.3-8c0.1,0.5,0.2,0.8,0.2,1.1
		c0,0.7,0,1.4,0,2.2c-0.1,2.3,0,4.6,1.6,6.3c-0.1,0.2-0.1,0.2-0.1,0.3c0,0-0.1,0.1-0.1,0.1c0,0-0.1,0-0.1,0c-0.1,0-0.3,0-0.5,0
		c-9.2,0-18.4,0-27.6,0c0,0-0.1,0-0.3,0.1c-1.6,4.1-4.1,7.4-8.3,9.4C7.9,87.8,7.9,87.8,9.2,86.9z M8.2,102.8
		c6.2,0.9,14.6,9.2,15.5,15.3c-1.4,0.4-1.5,0.4-2-0.7c-2.5-6.1-6.7-10.3-12.8-12.6c-0.2-0.1-0.4-0.2-0.7-0.4
		C8.2,103.8,8.2,103.3,8.2,102.8z M9,109.2c-0.3-0.1-0.5-0.3-0.9-0.5c0-0.5,0-0.9,0-1.4c0-0.2,0.1-0.4,0.2-0.8
		c5.6,2.2,9.4,6,11.7,11.5c-1.7,0.6-2.1,0.5-2.6-0.6C15.5,113.7,12.7,111,9,109.2z M6.6,120.2c9.5,0,19,0,28.3,0
		c1.3-2,2.3-3.9,3.6-5.6c1.3-1.7,3-2.9,5-3.9c0.5,1.5,0.5,1.8-0.5,2.4c-3,2-5,4.7-6,8.2c-0.1,0.2-0.1,0.4-0.2,0.6
		c0,0-0.1,0.1-0.2,0.3c-8.8,0-17.7,0-26.7,0c0.5,2.1,0.6,4.1-0.2,6c-0.3,0.7-0.7,1.3-1,2c-0.1,0-0.2,0-0.3-0.1c0-0.3-0.1-0.6-0.1-1
		c0-0.6,0-1.2,0-1.9c0.1-2.5,0.1-4.9-1.8-6.8C6.4,120.4,6.5,120.3,6.6,120.2z M12.8,148.2c1.5-0.8,3-1.7,4.3-2.7
		c1.3-1.1,2.6-2.2,3.7-3.5c1.1-1.3,2.1-2.7,2.9-4.2c0.8-1.5,1.5-3,2.3-4.9c1.1,2.9,2.3,5.4,4,7.7c1.7,2.3,3.8,4.2,6.1,5.9
		c2.3,1.6,4.9,2.7,7.6,3.6c-0.3,0.9-1,0.8-1.5,1c-6.3,2.2-11,6.2-14.2,12c-0.8,1.4-1.3,2.9-2.1,4.5c-0.7-1.6-1.4-3.2-2.2-4.6
		c-0.8-1.5-1.8-2.9-2.9-4.2c-1.1-1.3-2.4-2.6-3.8-3.6c-1.3-1.1-2.8-1.9-4.3-2.7c-1.5-0.8-3.1-1.3-5-2.1
		C9.7,149.5,11.3,148.9,12.8,148.2z M43.6,156.9c0.2,1.9,0.2,1.9-1.3,2.7c-3.2,1.7-5.7,4.2-7.4,7.4c-0.2,0.5-0.5,0.9-0.7,1.4
		c-0.7,0-1.3,0-2,0C32.8,164,39.1,157.7,43.6,156.9z M29.8,168.4c-0.3,0-0.6,0.1-0.9,0.1c-0.2,0-0.5-0.1-0.7-0.1
		c1.2-6.4,8.9-14.2,15.4-15.4c0,0.6,0,1.1,0,1.6C35,159.1,34.3,159.7,29.8,168.4z M23.7,168.4c-0.5,0-1.1,0-1.7,0
		c-1.2-3.1-2.8-6-5.3-8.4c-2.4-2.4-5.3-4.1-8.5-5.3c0-0.7,0-1.2,0-1.7C14.3,153.7,22.5,161.8,23.7,168.4z M9.5,159.5
		c-1.5-0.8-1.5-0.8-1.1-2.9c5.6,2.3,9.4,6.1,11.6,11.5c-1.9,0.6-2,0.5-2.9-1C15.4,163.8,12.8,161.3,9.5,159.5z M6.5,170.8
		c0,0,0-0.1,0-0.4c0.5,0,1-0.1,1.6-0.1c8.3,0,16.5,0,24.8,0c0.4,0,0.7,0,1.1,0c0.9,0.1,1.3-0.3,1.6-1.1c1.3-3.2,3.3-5.7,6.2-7.5
		c0.5-0.3,1.1-0.6,1.6-0.9c0.4,1.8,0.4,1.8-0.8,2.7c-2.7,1.9-4.6,4.3-5.5,7.4c-0.1,0.4-0.2,0.7-0.4,1c0,0.1-0.1,0.2-0.3,0.4
		c-8.8,0-17.6,0-26.6,0c0.4,4.6,0.1,6.2-1.6,7.9c-0.1-0.4-0.1-0.8-0.1-1.1c0-1.1,0-2.2,0-3.3c0.1-1.8-0.3-3.4-1.4-4.8
		C6.7,171.1,6.6,171,6.5,170.8z M8.6,182.9c2.2-2.2,3.3-4.8,3.2-8c0-0.1,0.1-0.3,0.1-0.7c1.7,0,3.4,0,5.2,0c1.8,0,3.5,0,5.3,0
		c1.7,0,3.4,0,5.1,0c1.8,0,3.5,0,5.3,0c1.8,0,3.5,0,5.3,0c0.6-3.8,2.2-6.9,5.4-9.1c0.3,1.1,0.5,1.9-0.3,2.7
		c-2.1,2.1-3.1,4.6-3.1,7.5c0,0.1,0,0.3,0,0.5c0,0.1-0.1,0.2-0.2,0.5c-8.5,0-17.2,0-26,0c-0.6,3.9-2.2,7-5.5,9.3
		C8.1,184.6,7.8,183.7,8.6,182.9z M9.2,187.1c2.8-1.8,4.6-4.3,5.6-7.4c0.1-0.4,0.3-0.9,0.5-1.5c8.9,0,17.8,0,26.9,0
		c-0.6-2.9-0.6-5.5,1.4-8c0.4,3.5-0.6,7,2.1,10c-5.1,0-9.8,0-14.5,0c-4.8,0-9.5,0-14.3,0c-3,5.8-5.6,8.6-8.6,9.4
		C7.9,188.6,8.2,187.8,9.2,187.1z M43.5,207c0.5,1.8,0.5,1.9-1,2.7c-3.4,1.8-6,4.3-7.7,7.7c-0.8,1.5-0.8,1.5-2.6,1.1
		C32.9,214.1,38.7,208.2,43.5,207z M30.2,217.7c-0.1,0.2-0.2,0.4-0.3,0.6c0,0.1-0.1,0.2-0.2,0.3c-0.4,0-0.9,0-1.4,0
		c0.2-5.6,9.3-14.8,15.2-15.4c0.3,1.5,0.3,1.5-0.8,2C36.8,207.6,32.6,211.8,30.2,217.7z M43.5,193.8C39.1,193,33,187,32.1,182.4
		c1.7-0.6,1.8-0.5,2.6,1c1.8,3.4,4.3,6,7.7,7.8C44,192,44,192,43.5,193.8z M43.6,196.1c0,0.6,0,1.1,0,1.6
		c-6.8-1.3-14.2-8.8-15.5-15.5c0.6,0,1.1,0,1.6,0C34,190.7,35.7,192.4,43.6,196.1z M8.2,196.2c0.3-0.1,0.6-0.3,0.9-0.5
		c5.9-2.3,10.1-6.5,12.5-12.4c0.5-1.3,0.6-1.3,2.1-1c-1,6-8.1,14-15.5,15.4C8.2,197.3,8.2,196.8,8.2,196.2z M9.5,191.2
		c3.4-1.8,6-4.3,7.7-7.7c0.8-1.5,0.8-1.5,2.7-1.2c-1.5,5.1-7.4,10.9-11.6,11.5C8,192,8,192,9.5,191.2z M9.6,199.7
		c5.3-1.8,9.6-5,12.8-9.6c1.2-1.8,2-3.8,3-5.7c0.2-0.4,0.3-0.7,0.6-1.4c1.5,4.4,3.7,8,6.9,11c3.1,2.9,6.8,4.9,10.9,6.2
		c0,0.1,0,0.3,0,0.4c-1.3,0.5-2.6,1-3.9,1.6c-1.3,0.6-2.5,1.3-3.6,2.1c-1.2,0.8-2.3,1.7-3.4,2.7c-1,1-1.9,2-2.8,3.1
		c-0.9,1.2-1.6,2.4-2.3,3.7c-0.7,1.2-1.2,2.5-1.9,4.1c-3.1-8.8-9.1-14.5-17.8-17.2C8.4,199.8,9.1,199.9,9.6,199.7z M8.3,203.2
		c5.6,0.2,14.9,9.5,15.4,15.3c-1.5,0.3-1.5,0.3-2.1-1c-2.4-5.8-6.4-9.9-12.2-12.2C8.1,204.7,8.1,204.7,8.3,203.2z M9.5,209.7
		c-0.5-0.2-0.9-0.5-1.3-0.7c0-0.7,0-1.4,0-2c4.8,1.1,10.7,7,11.6,11.5c-1.9,0.4-1.9,0.4-2.7-1.1C15.4,214,12.9,211.5,9.5,209.7z
		 M8.1,226.3c0.1-1.8-0.3-3.5-1.4-5c-0.1-0.2-0.2-0.4-0.2-0.5c0.1-0.1,0.1-0.2,0.1-0.2c0,0,0.1-0.1,0.1-0.1c0.1,0,0.3-0.1,0.5-0.1
		c9.2,0,18.5,0,27.7-0.1c1.2-1.9,2.3-3.8,3.6-5.5c1.3-1.7,3-2.9,5-3.8c0.5,1.7,0.5,1.8-0.7,2.6c-2.7,1.9-4.6,4.4-5.6,7.5
		c-0.1,0.4-0.3,0.8-0.5,1.3c-3,0-6,0-9,0c-2.9,0-5.9,0-8.8,0c-3,0-6,0-9.1,0c0.8,3,0.5,5.5-1.3,8.1c-0.1-0.6-0.2-0.9-0.2-1.2
		C8.1,228.4,8.1,227.4,8.1,226.3z M8.9,232.8c1.9-2,2.9-4.4,2.9-7.1c0-0.3,0-0.6,0.1-1.1c4.3-0.1,8.7,0,13,0c4.3,0,8.7,0,13.2,0
		c0.5-3.7,2.1-6.8,5.4-9.2c0.3,1,0.5,1.9-0.3,2.7c-2.1,2.1-3.2,4.7-3.2,7.7c0,0.2-0.1,0.4-0.1,0.7c-1.7,0.2-3.5,0.1-5.2,0.1
		c-1.7,0-3.4,0-5.1,0c-1.8,0-3.5,0-5.3,0c-1.7,0-3.4,0-5.1,0c-1.8,0-3.5,0-5.4,0c-0.6,3.8-2.1,7-5.5,9.3
		C8,234.5,8.1,233.6,8.9,232.8z M8.2,242c4.4-2,7.6-5.2,9.6-9.6c0.8,0,1.4,0,2,0c-0.9,5-7.5,11-11.6,11.7
		C8.2,243.4,8.2,242.7,8.2,242z M8.2,247.9c0-0.6,0-1,0-1.6c0.3-0.2,0.7-0.4,1-0.5c5.9-2.4,10-6.5,12.4-12.3c0.5-1.3,0.5-1.3,2-1.1
		C23.5,238,14.7,246.9,8.2,247.9z M43.6,247.9c-6-0.6-14.5-9.1-15.5-15.5c0.5,0,1,0,1.6-0.1c4.2,8.5,5.6,10,13.9,14
		C43.6,246.8,43.6,247.3,43.6,247.9z M42.4,241.3c0.4,0.2,0.8,0.4,1.3,0.7c0,0.7,0,1.3,0,2c-4.2-0.5-10.5-6.7-11.6-11.6
		c1.9-0.3,1.9-0.3,2.7,1.2C36.5,237,39,239.6,42.4,241.3z M40.6,230.4c-1.6,0-3.2,0-4.8,0c-1.6,0-3.2,0-4.8,0c-1.5,0-3.1,0-4.7,0
		c-1.6,0-3.2,0-4.8,0c-1.6,0-3.2,0-4.8,0c-1.6,4.3-4.2,7.5-8.5,9.6c0-0.8,0-1.4,0-2.1c3.5-2.1,6-5.3,7-9.6c9,0,17.8,0,26.9,0
		c-0.5-2.9-0.5-5.5,1.5-8.1c0.5,3.5-0.6,7,2,9.9C43.7,230.6,42.2,230.4,40.6,230.4z M50.5,230.3c-2.6-0.1-4.7-2.2-4.7-4.8
		c0-2.7,2.2-4.8,4.9-4.8s4.8,2.2,4.8,4.9C55.4,228.3,53.1,230.4,50.5,230.3z M52.4,218.7c-2.3-0.1-4.6,0-6.3,1.6
		c-0.2-0.1-0.3-0.1-0.3-0.1c0,0-0.1-0.1-0.1-0.1c0-0.1-0.1-0.2-0.1-0.3c0-9.6,0-19.2,0-29c-4.2-1.6-7.5-4.2-9.5-8.3
		c1.3-0.6,1.8-0.5,2.3,0.3c2.1,3.3,5,5.4,8.8,6.4c0.1,0,0.2,0.1,0.4,0.3c0,9.1,0,18.3,0,27.5c4.5-0.5,6.4-0.1,7.9,1.7
		C54.4,218.7,53.4,218.7,52.4,218.7z M56,221.3c-0.1-0.2-0.2-0.4-0.2-0.5c0-0.1,0.1-0.2,0.1-0.2c0,0,0.1-0.1,0.1-0.1
		c0.1,0,0.3-0.1,0.5-0.1c9.3,0,18.5,0,27.8-0.1c0,0,0.1,0,0.3-0.1c1.5-4.1,4.1-7.3,8.4-9.4c0,0.8,0,1.4,0,2c-4.6,3.6-5.2,4.4-7,9.6
		c-8.9,0-17.7,0-26.8,0c0.6,2.9,0.5,5.5-1.4,8.1c-0.1-0.5-0.2-0.8-0.2-1.1c0-1.1,0-2.2,0-3.3C57.6,224.5,57.1,222.8,56,221.3z
		 M57.5,247.9c0-0.5,0-1,0-1.6c0.4-0.2,0.8-0.4,1.2-0.6c5.7-2.4,9.7-6.4,12.1-12.1c0.6-1.4,0.6-1.4,2.2-1.2
		C71.7,239.2,63.4,247.4,57.5,247.9z M57.4,243.3c0-0.4,0-0.8,0.1-1.2c0.4-0.2,0.8-0.5,1.2-0.7c3.4-1.8,6-4.3,7.7-7.8
		c0.8-1.5,0.8-1.5,2.9-1.2c-2.3,5.7-6.1,9.5-11.8,11.8C57.5,243.8,57.4,243.5,57.4,243.3z M92.9,247.8c-5.3,0.2-14-8.4-15.5-15.4
		c0.6,0,1.1,0,1.8,0c1.1,3.2,2.8,6.1,5.3,8.6c2.4,2.4,5.3,4.1,8.5,5.3C92.9,246.8,92.9,247.3,92.9,247.8z M91.7,241.3
		c0.4,0.2,0.8,0.4,1.2,0.7c0,0.7,0,1.3,0,2c-4.5-0.8-10.7-7-11.6-11.5c1.8-0.4,1.9-0.4,2.6,1.1C85.7,237,88.3,239.6,91.7,241.3z
		 M66,230.4c-1.1,3.2-2.9,5.8-5.5,7.8c-0.9,0.7-1.9,1.2-2.9,1.9c-0.5-1.9-0.5-1.9,0.8-2.7c2.7-1.8,4.6-4.3,5.6-7.4
		c0.5-1.6,0.5-1.6,2.3-1.6c7.7,0,15.4,0,23.1,0c0.6,0,1.2,0,2,0c-0.6-2.9-0.5-5.4,1.3-7.9c0.1,0.5,0.2,0.8,0.2,1.1
		c0,1.1,0,2.2,0,3.3c-0.1,1.7,0.3,3.3,1.3,4.7c0.1,0.2,0.2,0.4,0.4,0.8C85.1,230.4,75.6,230.4,66,230.4z M99.8,230.3
		c-2.7,0-4.8-2.3-4.8-4.9c0.1-2.6,2.2-4.7,4.9-4.7c2.7,0,4.8,2.2,4.8,4.9C104.7,228.2,102.4,230.4,99.8,230.3z M104,218.7
		c-0.9,0-1.8,0-2.6,0c-3.3,0-3.3,0-6.2,1.6c-0.4-0.6-0.2-1.3-0.2-1.9c0-7.9,0-15.8,0-23.7c0-0.9,0-1.8,0-2.6c0.1-1-0.3-1.5-1.2-1.8
		c-3.1-1.2-5.5-3.3-7.3-6c-0.4-0.6-0.7-1.2-1-1.7c1.5-0.6,1.8-0.5,2.4,0.4c2,3.1,4.8,5.2,8.4,6.2c0.2,0.1,0.4,0.1,0.7,0.3
		c0,9.1,0,18.3,0,27.7c2.9-0.6,5.5-0.5,8,1.4C104.5,218.5,104.2,218.7,104,218.7z M107.4,218.2c-2.2-2.2-4.9-3.2-8-3.2
		c-0.1,0-0.3-0.1-0.7-0.1c0-9,0-17.9,0-27c-3.8-0.6-6.9-2.2-9.1-5.4c1-0.4,1.8-0.5,2.5,0.2c2.3,2.3,5,3.3,8.2,3.4
		c0.1,0,0.2,0.1,0.5,0.2c0.1,2.9,0,5.9,0,8.8c0,2.9,0,5.9,0,8.8c0,3,0,6,0,8.9c1.8,0.7,3.5,1.2,5.1,2c1.6,0.8,3,2,4,3.8
		C109,218.7,108.2,218.9,107.4,218.2z M106.9,203.2c5.7,0.5,14,8.6,15.4,15.4c-0.4,0-0.6,0.1-0.8,0.1c-0.2,0-0.5,0-0.8-0.1
		c-0.2-0.3-0.3-0.7-0.5-1c-2.3-5.9-6.5-10-12.3-12.4C106.6,204.7,106.6,204.7,106.9,203.2z M106.9,207c5.2,1.3,10.8,7.5,11.5,11.5
		c-1.8,0.5-1.8,0.4-2.6-1.1c-1.8-3.3-4.3-5.9-7.6-7.6C106.6,208.9,106.6,208.9,106.9,207z M114.2,218.4c-1.6,0.5-1.6,0.5-2.5-0.8
		c-1.9-2.8-4.5-4.7-7.7-5.7c-0.4-0.1-0.8-0.3-1.3-0.4c0-9.2,0-18.3,0-27.7c-2.9,0.6-5.5,0.5-8.1-1.4c0.6-0.1,0.9-0.2,1.2-0.2
		c0.8,0,1.6-0.1,2.3,0c2.3,0.3,4.4-0.1,6.2-1.5c0.1,0,0.2,0.1,0.2,0.1c0,0,0.1,0.1,0.1,0.1c0,0.1,0.1,0.2,0.1,0.3
		c0,9.6,0,19.2,0,28.9C110.5,212.9,113.1,215.2,114.2,218.4z M107.4,168c-2.2-2.2-4.9-3.2-8-3.2c-0.1,0-0.3-0.1-0.6-0.1
		c0-8.9,0-17.8,0-26.9c-3.8-0.7-7-2.2-9.3-5.6c1.2-0.2,2.1-0.3,3,0.6c2,2,4.4,2.9,7.3,3c0.2,0,0.4,0,0.6,0c0.1,0,0.2,0.1,0.5,0.2
		c0,8.9,0,17.8,0,26.9c2.6,0.4,4.9,1.2,6.8,2.8c0.8,0.7,1.6,1.6,2.3,2.5C109,168.4,108.2,168.8,107.4,168z M106.8,152.9
		c7,1.6,13.9,8.7,15.5,15.4c-0.6,0-1.1,0-1.7,0c-2.5-6.7-7.1-11.3-13.8-13.7c0-0.4-0.1-0.8-0.1-1.1
		C106.7,153.3,106.8,153.1,106.8,152.9z M106.9,156.9c4.3,0.8,10.3,6.6,11.5,11.5c-0.7,0-1.3,0-2.1,0c-0.2-0.4-0.4-0.7-0.6-1.1
		c-1.8-3.4-4.3-6-7.7-7.8C106.5,158.7,106.5,158.7,106.9,156.9z M112.1,164.8c0.9,1,1.6,2.1,2.2,3.4c-1.7,0.5-1.8,0.5-2.6-0.7
		c-1.9-2.7-4.4-4.6-7.6-5.6c-0.4-0.1-0.8-0.3-1.3-0.5c0-9.1,0-18.3,0-27.7c-2.9,0.7-5.6,0.5-7.9-1.2c0-0.1,0-0.3,0.1-0.4
		c1.3,0,2.6-0.1,3.8,0c2,0.1,3.8-0.2,5.4-1.4c0.1-0.1,0.3-0.1,0.6-0.2c0,9.9,0,19.7,0,29.5C107.7,161,110.1,162.5,112.1,164.8z
		 M107.3,117.8c-2.1-2.1-4.7-3.2-7.7-3.1c-0.2,0-0.4,0-0.9-0.1c0-9.1,0-18,0-27.1c-3.9-0.6-6.9-2.2-9.3-5.6c1.1-0.2,1.9-0.4,2.7,0.4
		c2.1,2.2,4.7,3.3,7.8,3.2c0.2,0,0.4,0.1,0.8,0.1c0.1,3,0,5.9,0.1,8.9c0,3,0,6,0,9c0,3,0,6,0,9.1c3.8,0.6,6.9,2.2,9.2,5.5
		C109,118.4,108.1,118.6,107.3,117.8z M106.8,102.8c6.7,1.3,14,8.5,15.5,15.4c-1.6,0.2-1.6,0.2-2.1-0.9c-2.4-6-6.6-10.1-12.6-12.5
		c-0.2-0.1-0.5-0.2-0.8-0.4C106.8,103.9,106.8,103.4,106.8,102.8z M106.8,106.5c5.6,2.3,9.5,6.1,11.8,11.7c-2,0.4-2.1,0.4-2.8-1
		c-1.8-3.4-4.3-6-7.7-7.7c-0.3-0.2-0.6-0.3-0.9-0.5c-0.1,0-0.2-0.1-0.2-0.2C106.8,108,106.8,107.4,106.8,106.5z M122.3,81.9
		c-1.2,6-7.7,13.8-15.5,15.6c0-0.2-0.1-0.4-0.1-0.6c0-0.4,0-0.7,0.1-1c8.6-4.3,9.4-5.2,13.9-14C121.2,81.9,121.8,81.9,122.3,81.9z
		 M108.1,90.9c3.4-1.7,5.9-4.3,7.6-7.6c0.8-1.5,0.8-1.5,2.6-1.3c-0.1,3.9-6.6,10.6-11.5,11.7C106.6,91.7,106.6,91.7,108.1,90.9z
		 M112.1,114.7c0.8,1,1.5,2.2,2.3,3.3c-1.5,0.6-1.9,0.6-2.5-0.2c-2.1-3.2-4.9-5.3-8.5-6.3c-0.2-0.1-0.4-0.2-0.7-0.3
		c0-9.1,0-18.3,0-27.6c-2.9,0.6-5.6,0.5-8.2-1.5c1.2-0.3,2.2-0.2,3.2-0.2c2.4,0.2,4.7,0.1,7-1.8c0.1,2.8,0,5.3,0,7.7
		c0,2.4,0,4.9,0,7.3c0,2.5,0,5,0,7.4c0,2.4,0,4.8,0,7.4C107.6,110.9,110.2,112.4,112.1,114.7z M95,75.1c0-2.6,2.2-4.8,4.8-4.8
		c2.6,0,4.8,2.2,4.8,4.8c0,2.6-2.3,4.8-4.8,4.8C97.3,79.9,95,77.7,95,75.1z M103.8,68.2c-0.8,0-1.6,0-2.5,0c-3.2,0-3.4,0.1-6.2,1.7
		c-0.4-0.5-0.2-1.2-0.2-1.8c0-8.5,0-17.1,0.1-25.6c0-0.4,0-0.7,0-1.1c0.2-1.2-0.3-1.7-1.4-2.2C90.4,38,88,35.9,86.2,33
		c-0.2-0.4-0.4-0.7-0.6-1.1c-0.1-0.1,0-0.3-0.1-0.5c0.9-0.1,1.7-0.4,2.3,0.6c2,3.2,4.9,5.3,8.5,6.3c0.1,0,0.3,0.1,0.4,0.2
		c0,0,0.1,0.1,0.2,0.2c0,9.1,0,18.4,0,27.9c2.8-0.7,5.4-0.5,8,1.3C104.5,68.1,104.1,68.2,103.8,68.2z M107.3,67.6
		c-2.1-2.1-4.6-3-7.5-3.1c-0.1,0-0.3,0-0.5,0c-0.1,0-0.2-0.1-0.4-0.2c0-9,0-18.1,0-27c-1.9-0.7-3.6-1.3-5.3-2.1
		c-1.6-0.8-2.9-2.1-4-3.8c1.1-0.2,2-0.4,2.7,0.4c2.1,2.1,4.6,3.2,7.6,3.2c0.2,0,0.5,0.1,0.9,0.1c0.1,9.1,0,18.2,0.1,27.4
		c3.8,0.6,6.9,2.2,9.2,5.4C108.9,68.2,108.1,68.4,107.3,67.6z M106.8,52.8c5.3-0.1,14.4,8.9,15.5,15.4c-0.5,0-1,0.1-1.7,0.1
		c-1.2-3.2-2.9-6.1-5.3-8.6c-2.4-2.4-5.3-4.1-8.5-5.3C106.8,53.8,106.8,53.3,106.8,52.8z M106.8,41c0.4-0.2,0.8-0.4,1.1-0.6
		c3.5-1.8,6.1-4.4,7.9-7.8c0.8-1.5,0.8-1.5,2.6-1.2c-0.5,4.1-6.3,10.2-11.6,11.7c-0.1-0.4-0.1-0.6-0.1-0.9
		C106.7,41.9,106.7,41.4,106.8,41z M107.8,44.8c5.9-2.4,10-6.5,12.3-12.3c0.5-1.3,0.5-1.3,2-1.1c0,5.4-9,14.6-15.4,15.5
		c0-0.5,0-1-0.1-1.6C107.1,45.2,107.5,45,107.8,44.8z M106.9,56.6c4.4,0.8,10.3,6.6,11.6,11.6c-0.4,0-0.7,0-1,0.1
		c-0.8,0.1-1.2-0.2-1.6-0.9c-0.9-1.5-1.9-3-3-4.3c-1.3-1.6-3-2.8-4.9-3.8C106.5,58.4,106.5,58.4,106.9,56.6z M99.9,19.7
		c2.6,0,4.8,2.1,4.9,4.8c0,2.6-2.2,4.9-4.8,4.9c-2.6,0-4.8-2.2-4.9-4.8C95,21.9,97.2,19.7,99.9,19.7z M98.7,31.3
		c2,0.2,3.8-0.2,5.4-1.3c0.1-0.1,0.3-0.1,0.6-0.2c0,10,0,19.9,0,29.9c4.2,1.6,7.6,4.2,9.6,8.3c-1.7,0.5-1.8,0.5-2.6-0.7
		c-1.9-2.8-4.6-4.7-7.8-5.7c-0.3-0.1-0.6-0.2-1-0.3c0-9.3,0-18.6,0-28.1c-4.3,0.6-6.4,0.1-8.1-1.7C96.2,31.2,97.5,31.1,98.7,31.3z
		 M94.8,29.4c-9.7,0-19.2,0-28.7,0c-2.9,5.7-5.4,8.5-8.6,9.4c-0.3-1.1-0.2-1.9,0.9-2.6c2.8-1.8,4.6-4.4,5.7-7.5
		c0.1-0.4,0.2-0.8,0.5-1.4c4.5,0,8.9,0,13.4,0c4.4,0,8.9,0,13.5,0c-0.7-2.9-0.5-5.4,1.3-7.9c0.1,0.5,0.2,0.8,0.2,1.1
		c0,1.1,0,2.2,0,3.3c0,1.8,0.4,3.4,1.4,4.8C94.5,28.8,94.6,29,94.8,29.4z M92.5,17c-2.1,2-3,4.5-3.1,7.4c0,0.3-0.1,0.6-0.2,1
		c-8.7,0-17.3,0-26.1,0c-0.6,3.9-2.2,7-5.6,9.4c-0.1-1.1-0.4-1.9,0.4-2.7c2.2-2.2,3.2-4.9,3.2-8c0-0.1,0-0.3,0.1-0.6
		c8.7,0,17.3,0,25.8,0c0.7-1.8,1.2-3.6,2-5.2c0.8-1.6,2.1-2.9,3.8-4C93,15.4,93.2,16.3,92.5,17z M92.9,2.1c0,0.5,0,1,0.1,1.6
		c-3.2,1.2-6.1,2.8-8.5,5.3s-4.1,5.3-5.3,8.5c-0.5,0-1.1,0-1.6,0C77.8,12,86.7,3,92.9,2.1z M91.7,8.7c-3.8,2-6.4,4.9-8.2,8.9
		c-0.7,0-1.4,0-2.3,0c2.3-5.6,6.1-9.4,11.7-11.7C93.2,7.9,93.2,7.9,91.7,8.7z M57.5,2.1C63.1,3.2,71,9.4,73.1,17.6
		c-0.3,0-0.5,0.1-0.7,0.1c-0.3,0-0.6,0-1-0.1c-2.5-6.7-7-11.4-13.8-13.8C57.5,3.2,57.5,2.6,57.5,2.1z M57.5,8c0-0.8,0-1.4,0-2.3
		c5.7,2.3,9.6,6.1,11.8,11.8c-0.9,0-1.5,0-2.3,0C65.1,13.2,61.9,10,57.5,8z M65.3,19.5c3.2,0,6.3,0,9.5,0c3.2,0,6.4,0,9.7,0
		c1.6-4.2,4.2-7.4,8.3-9.5c0.3,1.2,0.3,2-0.8,2.7c-2.9,1.9-4.8,4.5-5.8,7.8c-0.1,0.3-0.2,0.7-0.4,1.2c-8.9,0-17.7,0-26.9,0
		c0.6,2.1,0.7,4-0.1,5.7c-0.3,0.7-0.7,1.4-1,2.2c-0.1,0-0.2,0-0.4-0.1c0-0.4-0.1-0.8-0.1-1.3c0-1,0-2,0-2.9c0.1-1.8-0.3-3.4-1.3-4.8
		c-0.1-0.2-0.2-0.4-0.5-0.9C59,19.4,62.2,19.5,65.3,19.5z M50.6,19.7c2.7,0,4.8,2.2,4.8,4.8c0,2.6-2.2,4.8-4.8,4.8
		c-2.6,0-4.8-2.3-4.8-4.9C45.8,21.9,48,19.7,50.6,19.7z M45.6,31.2c1.1,0,2.1-0.1,3.2,0c2.3,0.2,4.5,0,6.7-1.9
		c0,0.9,0.1,1.5,0.1,2.1c0,8.5,0,17.1,0,25.6c0,0.4,0,0.7,0,1.1c-0.1,1.1,0.3,1.6,1.3,2.1c3.3,1.3,5.9,3.6,7.7,6.7
		c0.2,0.3,0.3,0.6,0.5,1.1c-1.3,0.4-2.1,0.1-2.8-1c-1.8-2.7-4.2-4.5-7.3-5.5c-0.4-0.1-0.9-0.3-1.5-0.5c0-2.3,0-4.6,0-6.9
		c0-2.4,0-4.8,0-7.1c0-2.3,0-4.7,0-7c0-2.3,0-4.6,0-7.1c-2.9,0.5-5.6,0.5-7.8-1.3C45.6,31.5,45.6,31.4,45.6,31.2z M45.2,28.8
		c0.1,0.1,0.1,0.3,0.2,0.7c-4.9,0-9.7,0-14.4,0s-9.5,0-14.2,0c-2.7,5.5-5.6,8.7-8.6,9.4c-0.4-1.1-0.1-1.9,1-2.6
		c2.8-1.8,4.6-4.3,5.6-7.4c0.1-0.4,0.3-0.9,0.5-1.5c8.9,0,17.7,0,26.8,0c-0.5-2.8-0.5-5.5,1.4-8c0.1,0.5,0.2,0.8,0.2,1.2
		c0,1,0.1,2,0,2.9C43.6,25.4,44,27.2,45.2,28.8z M43.3,16.9c-2.2,2.2-3.3,4.9-3.3,8c0,0.1-0.1,0.3-0.2,0.6c-8.6,0-17.3,0-26,0
		c-0.6,3.9-2.2,7-5.6,9.4c-0.3-1.3-0.3-2.1,0.6-3c1.9-1.9,2.9-4.3,2.9-7.1c0-0.4,0-0.7,0.1-1.2c8.7,0,17.4,0,26.2,0
		c0.6-3.8,2.2-6.9,5.4-9.2C43.9,15.3,44,16.1,43.3,16.9z M43.6,2.1c0.4,1.5,0.4,1.5-0.9,2.1c-5.9,2.4-10,6.6-12.4,12.5
		c-0.1,0.3-0.2,0.6-0.4,1c-0.4,0-0.7,0-1,0c-0.2,0-0.4-0.1-0.6-0.1C29.1,11.3,37.6,2.8,43.6,2.1z M42.6,8.6c-3.5,1.8-6.2,4.5-8,8
		c-0.2,0.3-0.3,0.6-0.5,1c-0.7,0-1.4,0-2,0c0.4-4.2,7-10.8,11.4-11.6C44,7.8,44,7.9,42.6,8.6z M8.3,2.2c5.4,0.1,14.3,8.8,15.5,15.4
		c-0.6,0-1.1,0-1.6,0c-0.2-0.4-0.4-0.8-0.5-1.1c-2.4-5.8-6.5-9.8-12.2-12.2C8.1,3.7,8.1,3.7,8.3,2.2z M13.9,11.9
		c-1.7-1.5-3.7-2.8-5.7-4.2c0-0.4,0-0.9,0-1.6c3.6,0.2,10.6,6.3,11.7,11.5c-0.3,0-0.5,0.1-0.8,0.1c-0.4,0-0.8,0-1.3-0.1
		C16.8,15.5,15.7,13.4,13.9,11.9z M20.9,19.5c4.7,0,9.5,0,14.4,0c1.6-4.3,4.2-7.4,8.2-9.4c0.5,1.5,0.5,1.8-0.4,2.3
		c-3.2,2.1-5.3,5-6.3,8.7c0,0.1-0.1,0.2-0.2,0.5c-2.1,0.1-4.3,0-6.5,0c-2.3,0-4.6,0-6.8,0c-2.2,0-4.5,0-6.7,0s-4.4,0-6.8,0
		c0.7,2.9,0.5,5.5-1.5,7.8c0-0.5-0.1-1.1-0.1-1.6c0-0.8-0.1-1.5,0-2.3c0.2-2-0.2-3.8-1.5-5.4c-0.1-0.1-0.1-0.3-0.2-0.6
		C11.3,19.5,16.1,19.5,20.9,19.5z"/>
</g>
<g>
	<path class="st2" d="M88.7,88.4h10.7l10.1,33.5h-9.4l-3.8-16.3c-0.7-3.2-1.7-7.2-2.4-10.6h-0.2c-0.7,3.4-1.6,7.4-2.3,10.6
		l-3.8,16.3h-9.1L88.7,88.4z M85.8,107.9h16.3v6.8H85.8V107.9z"/>
	<path class="st2" d="M112.8,88.4h12.6c7.2,0,13.4,2.7,13.4,11.1c0,8.2-6.4,11.7-13.4,11.7h-3.7v10.6h-8.9V88.4z M124.9,104.2
		c3.5,0,5.2-1.8,5.2-4.7s-1.9-4.1-5.2-4.1h-3.3v8.9H124.9z"/>
	<path class="st2" d="M143.7,88.4h12.6c7.2,0,13.4,2.7,13.4,11.1c0,8.2-6.4,11.7-13.4,11.7h-3.7v10.6h-8.9
		C143.7,121.9,143.7,88.4,143.7,88.4z M155.8,104.2c3.5,0,5.2-1.8,5.2-4.7s-1.9-4.1-5.2-4.1h-3.3v8.9H155.8z"/>
	<path class="st2" d="M80.8,158.9l5-6.1c2.5,1.9,5.5,3.2,8.6,3.2c2.7,0,3.7-0.9,3.7-2c0-2-1.8-2.4-4.8-3.6l-4.2-1.8
		c-3.9-1.4-7-4.5-7-9.3c0-5.7,5.2-10.4,12.8-10.4c4,0,8.2,1.4,11.4,4.5l-4.4,5.6c-2.4-1.6-4.3-2.4-7.5-2.4c-2,0-3.3,0.7-3.3,2.3
		s1.9,2.1,5.3,3.3l3.9,1.6c4.5,1.6,7,4.5,7,9.2c0,5.7-4.7,10.7-13.4,10.7C89.4,163.7,84.6,162.2,80.8,158.9z"/>
	<path class="st2" d="M112.2,129.6h9l2.7,10.9l0.9,4.3h0.2l0.9-4.3l2.7-10.9h9v33.5h-7.3v-7.9c0-4,0.7-13.1,1.1-17h-0.2l-2.8,9.9
		l-1.8,6.1h-3.9l-1.9-6.1l-2.6-9.9h-0.2c0.4,3.9,1.1,13,1.1,17v7.9h-7.2V129.6z"/>
	<path class="st2" d="M151.4,137h-9.6v-7.4h28.1v7.4h-9.6v26.1h-8.9L151.4,137L151.4,137z"/>
</g>
</svg>
