<?xml version="1.0" encoding="utf-8"?>
<!-- Generator: Adobe Illustrator 25.4.1, SVG Export Plug-In . SVG Version: 6.00 Build 0)  -->
<svg version="1.1" id="Capa_1" xmlns="http://www.w3.org/2000/svg" xmlns:xlink="http://www.w3.org/1999/xlink" x="0px" y="0px"
	 viewBox="0 0 250 250" style="enable-background:new 0 0 250 250;" xml:space="preserve">
<style type="text/css">
	.st0{fill:#FFFFFF;stroke:#000000;stroke-width:1.0137;stroke-miterlimit:10;}
	.st1{opacity:0.1;}
	.st2{fill:#004947;}
	.st3{fill:#004D43;}
</style>
<rect x="-5" y="-7" class="st0" width="260" height="260"/>
<g class="st1">
	<path class="st2" d="M1.1,6.4C3,7.2,4.8,7.7,6.6,8.6c1.7,0.8,3,2.1,4.2,3.9c-1.3,0.3-2.3,0.2-3.2-0.7C5.6,9.8,3.1,8.9,0.2,8.8
		c-0.1,0.5-0.1,1-0.2,1.6c1.9,0.5,3.8,0.6,5.5,2.2c-2,0-3.6,0-5.4,0c0,0.8,0,1.4,0,2c3.3,0.9,4.8,2.5,4.9,5c0.1,2.7-1.3,4.3-4.9,5.4
		c0,0.5,0,1.1,0,1.7c1.9,0.3,3.3-0.6,4.7-1.5c0.6,0.6,0.3,1.3,0.3,1.9c0,8.3,0,16.7,0,25c0,1.5,0,2.9,0,4.5c4.4,1.7,7.8,4.4,9.9,8.6
		c-1.7,0.6-1.9,0.6-2.7-0.8c-2-2.9-4.6-4.9-7.9-5.9c-1.6-0.5-1.4-0.7-1.4-2C3,48,3,39.3,3,30.7c0-0.6,0-1.3,0-2.1
		c-1,0.2-1.9,0.3-2.8,0.4c-0.2,0.8-0.5,1.4,0.5,1.8C0.9,31,1,31.4,1.1,31.7c0.1,0.4,0,0.9,0,1.3c0,8.2,0,16.5,0,24.7
		c0,0.6,0,1.2,0,2c3.9,0.6,7.2,2.3,9.7,5.7c-1.4,0.3-2.4,0.2-3.3-0.8c-2-1.9-4.4-2.8-7.3-2.9c0,0.6,0,1.1-0.1,1.7
		c1.9,0.4,3.6,0.6,5.3,2c-1.8,0.3-3.5,0-5.2,0.2c0,0.7,0,1.3,0,1.9c3.3,0.9,4.8,2.5,4.9,5c0.1,2.7-1.2,4.2-4.9,5.4
		c0,0.5,0,1.1,0,1.7C2,80,3.4,79,4.9,78.1c0.5,0.6,0.3,1.3,0.3,1.9c0,9,0,18,0,27c0,0.7,0,1.4,0,2.1c4.5,1.7,7.8,4.4,9.9,8.6
		c-1.4,0.6-1.9,0.6-2.4-0.3c-2.2-3.3-5.2-5.5-9-6.6c-0.2-0.1-0.4-0.2-0.7-0.3c0-9.6,0-19.2,0-28.9c-1,0.2-1.9,0.3-2.8,0.4
		c-0.2,0.7-0.5,1.4,0.4,1.8c0.2,0.1,0.4,0.5,0.4,0.8c0.1,0.4,0,0.9,0,1.3c0,8.1,0,16.1,0,24.2c0,0.6,0,1.3,0,2
		c3,0.5,5.7,1.5,7.9,3.6c0.6,0.6,1.1,1.3,1.8,2c-1.4,0.4-2.3,0.3-3.2-0.6c-2-1.9-4.4-3-7.4-3c0,0.6,0,1.1,0,1.7
		c1.8,0.3,3.6,0.5,5.2,2c-2,0.1-3.6,0.1-5.3,0.2c0,0.7,0,1.2,0,1.8c0.3,0.1,0.6,0.3,0.9,0.3c2.6,0.7,4.1,2.6,4.1,5.1
		c-0.1,2.4-1.7,4.2-4.3,4.8c-0.2,0-0.3,0.1-0.6,0.1c0,0.6,0,1.2,0,1.8c1.4,0.2,1.4,0.2,4.9-1.5c0.2,2.1,0.1,4.1,0.1,6.1
		c0,2,0,4.1,0,6.2c0,2,0,4.1,0,6.2c0,2,0,4.1,0,6.2s0,4.1,0,6.3c4.4,1.6,7.8,4.4,9.9,8.6c-1.9,0.5-1.9,0.5-2.8-0.8
		c-1.9-2.8-4.5-4.8-7.8-5.8c-0.5-0.2-0.9-0.3-1.5-0.5c0-9.6,0-19.2,0-29c-1.1,0.2-1.9,0.3-2.8,0.4c-0.1,0.7-0.6,1.4,0.5,1.8
		c0.2,0.1,0.3,0.4,0.3,0.6c0.1,0.4,0,0.9,0,1.3c0,8.2,0,16.4,0,24.5c0,0.6,0,1.2,0,1.9c2.9,0.4,5.4,1.4,7.5,3.3
		c0.7,0.7,1.4,1.5,2.2,2.4c-1.5,0.3-2.4,0.2-3.4-0.7c-2-1.9-4.4-2.8-7.3-2.9c-0.1,0.5-0.1,1-0.2,1.6c1.8,0.6,3.7,0.6,5.4,2.2
		c-2,0-3.6,0-5.3,0c0,0.8,0,1.4,0,2.1c1.7,0.3,3.2,0.9,4.1,2.5c0.6,0.9,0.8,2,0.8,3.1c-0.2,2.4-1.7,3.9-4.9,4.8c0,0.6,0,1.2,0,1.9
		c0.9,0.2,1.7-0.1,2.5-0.4s1.5-0.8,2.5-1.3c0,3.6,0,7,0,10.4c0,3.5,0,6.9,0,10.4c0,3.4,0,6.8,0,10.3c4.4,1.7,7.8,4.4,9.9,8.7
		c-1.8,0.5-1.9,0.5-2.7-0.7c-2-3-4.8-5.1-8.3-6.1c-0.3-0.1-0.7-0.3-1.1-0.5c0-9.6,0-19.2,0-28.9c-1,0.2-1.9,0.3-2.8,0.5
		c-0.1,0.8-0.4,1.4,0.6,1.8c0.2,0.1,0.3,0.6,0.3,1c0,1.3,0,2.6,0,3.9c0,7.1,0,14.3,0,21.4c0,0.6,0,1.2,0,1.9
		c3.9,0.7,7.3,2.2,9.6,5.8c-1.3,0.3-2.2,0.2-3.1-0.7c-2.2-2.1-4.8-3.1-7.5-2.9c0,0.5,0,1-0.1,1.6c1.9,0.4,3.7,0.5,5.4,2.1
		c-1.9,0-3.5,0-5.2,0c0,0.8,0,1.4,0,2.1c1.6,0.3,2.9,0.8,3.9,2.1c0.6,0.9,1,1.8,1,2.9c0,2.7-1.2,4.1-4.9,5.4c0,0.3-0.1,0.6-0.1,0.9
		c0,0.3,0.1,0.5,0.1,0.8c1.9,0.3,3.3-0.7,4.7-1.6c0.5,0.6,0.3,1.3,0.3,1.9c0,6.1,0,12.2,0,18.3h3c0,0,0,0,0.1,0
		c8.3-2.8,14-8.4,17.1-16.6c0.1-0.2,0.2-0.4,0.3-0.6c0,0,0.1-0.1,0.3-0.2c0.2,0.4,0.3,0.7,0.5,1.1c3,7.9,8.6,13.2,16.5,16.1
		c0.2,0.1,0.5,0.1,0.7,0.2h2.9c0-3.1,0-6.3,0-9.4c-5.7-2.7-8.8-5.5-9.9-8.9c1.7-0.4,1.7-0.4,2.6,0.9c2,2.9,4.7,4.9,8,6
		c0.4,0.1,0.8,0.3,1.3,0.5c0,3.6,0,7.3,0,10.9h2c0-4.2,0-8.4,0-12.6c-4.1-0.6-7.3-2.3-9.7-5.8c1.3-0.3,2.2-0.3,3.1,0.6
		c2,2,4.5,3.1,7.4,3.1c0.3,0,0.5,0,0.8,0.1c0.1,0,0.2,0.1,0.5,0.2c0,4.8,0,9.5,0,14.3h2c0-5.6,0-11.2,0-16.8c-3,0.6-5.8,0.5-8.5-1.6
		c0.6-0.1,0.9-0.2,1.3-0.2c0.9,0,1.8-0.1,2.8,0c2.3,0.2,4.4-0.1,6.4-1.8c0.1,0.5,0.3,0.8,0.3,1.1c0,6.4,0,12.8,0,19.2h3
		c0.1,0,0.2-0.1,0.3-0.1c8-2.8,13.6-8.2,16.7-16.1c0.1-0.3,0.3-0.7,0.5-1.1c0.7,0.3,0.7,0.9,0.9,1.4c2.9,7.2,7.9,12.3,15.1,15.2
		c0.6,0.3,1.3,0.4,1.8,0.7h3c0-2.5,0-4.9,0-7.4c0-0.7,0-1.4,0-2.1c-4.5-1.7-7.9-4.4-9.9-8.7c1.6-0.5,1.9-0.5,2.5,0.5
		c2.1,3.3,5,5.4,8.8,6.5c0.2,0.1,0.4,0.2,0.8,0.3c0,3.6,0,7.3,0,10.9h1.9c0-4.1,0-8.3,0-12.6c-4-0.6-7.2-2.3-9.6-5.8
		c1.1-0.2,2-0.5,2.8,0.3c2.3,2.3,5,3.5,8.3,3.4c0.2,0,0.3,0.1,0.7,0.1c0,0.6,0.1,1.3,0.1,2c0,4.2,0,8.3,0,12.5h1.9
		c0-5.6,0-11.2,0-16.8c-3,0.6-5.8,0.5-8.2-1.3c0-0.1,0-0.3,0-0.4c0.9,0,1.9-0.1,2.8,0c2.5,0.1,5.1,0.2,7.4-1.9
		c0.2,2.5,0.1,4.6,0.1,6.6c0,2,0,4.1,0,6.2c0,2.1,0,4.2,0,6.3c0,0.5,0,0.9,0,1.4h3c0.2,0,0.3-0.1,0.4-0.1c7.6-2.8,13-7.8,16.1-15.1
		v-5.2c-2.8,0-5.7,0-8.6,0c-1.6,4.4-4.4,7.9-8.7,10c-0.5-1.8-0.5-1.9,0.6-2.6c3.2-2.1,5.3-5,6.4-8.7c0.1-0.2,0.1-0.4,0.3-0.9
		c3.3,0,6.7,0,10,0v-2c-3.9,0-7.7,0-11.6,0c-0.5,3.1-1.5,5.8-3.6,7.9c-0.6,0.6-1.2,1.4-2.2,1.7c-0.3-1.2-0.2-2.1,0.7-3
		c1.8-1.8,2.7-4,3-6.5c0.1-0.6,0.1-1.3,0.2-2.1c4.5,0,9,0,13.6,0v-2c-4.6,0-9.2,0-13.7,0c-0.6,0-1.3,0-1.9,0c0,1.6,0.1,3,0,4.5
		c-0.1,1.4-0.5,2.7-1.9,4.1c0-1.6-0.1-2.8,0-4c0.2-2.2-0.2-4.2-1.6-6c-0.1-0.1-0.1-0.3-0.2-0.7c5.4,0,10.6,0,15.9,0
		c1.1,0,2.3,0,3.4,0v-5.2c-3.1-7.2-8.4-12.2-15.9-15c-0.5-0.2-1.1-0.4-1.6-0.6c0.3-0.9,1-0.8,1.5-1c6.7-2.4,11.7-6.6,15.1-12.9
		c0.4-0.7,0.7-1.4,1-2.2v-5.3c-2.7,0-5.5,0-8.2,0c-1.3,2-2.3,4-3.7,5.8c-1.4,1.8-3.2,3.2-5.5,4.3c-0.3-1.3-0.2-2.1,0.9-2.9
		c2.9-1.8,4.8-4.5,5.8-7.7c0.2-0.5,0.3-0.9,0.5-1.5c3.3,0,6.7,0,10.1,0v-1.9c-3.9,0-7.7,0-11.6,0c-0.6,4.2-2.3,7.3-5.7,9.7
		c-0.3-1.1-0.5-2,0.3-2.8c2.2-2.2,3.3-4.9,3.4-8c0-0.3,0.1-0.6,0.2-1c4.5,0,9,0,13.5,0v-1.9c-5.3,0-10.6,0-15.9,0
		c0.8,3,0.5,5.7-1.2,8.2c-0.2,0-0.3,0-0.4,0c0-1.2-0.1-2.3,0-3.5c0.2-2.3-0.2-4.4-1.6-6.3c0-0.1,0-0.2,0-0.5c0.6,0,1.2,0,1.9,0
		c5.8,0,11.5,0,17.3,0v-5.4c-3.3-7.6-9.2-12.8-17.6-15.4c0-0.2,0-0.3,0-0.5c0.4-0.2,0.8-0.4,1.3-0.5c7.7-2.7,13.1-7.8,16.2-15.1
		v-5.2c-1.3,0-2.7,0-4,0c-1.5,0-3,0-4.6,0c-1.6,4.5-4.4,7.8-8.7,10c-0.5-1.8-0.5-1.9,0.8-2.8c2.9-2,4.9-4.7,6-8
		c0.1-0.4,0.2-0.7,0.4-1.1c0,0,0.1-0.1,0.3-0.3c3.2,0,6.5,0,9.8,0v-1.9c-0.6,0-1.2,0-1.9,0c-1.6,0-3.3,0-4.9,0c-1.6,0-3.2,0-4.9,0
		c-0.6,4-2.3,7.3-5.7,9.7c-0.2-1.2-0.4-2.1,0.5-3c2-2,3-4.4,3.2-7.2c0-0.5,0.1-0.9,0.2-1.6c4.5,0,9,0,13.5,0v-2
		c-5.3,0-10.6,0-15.9,0c0.8,3,0.6,5.8-1.4,8.6c-0.1-0.8-0.2-1.2-0.2-1.6c0-1.3,0-2.5,0-3.7c0-1.9-0.7-3.6-1.8-5
		c0.1-0.2,0.1-0.2,0.1-0.3c0,0,0.1-0.1,0.1-0.1c0.1,0,0.2-0.1,0.3-0.1c6.2,0,12.5,0,18.8,0v-5.2c-3.1-7.2-8.4-12.2-15.9-14.9
		c-0.5-0.2-0.9-0.3-1.4-0.5c-0.1,0-0.2-0.2-0.2-0.3c0.1-0.7,0.8-0.6,1.2-0.8c5-1.7,9.2-4.6,12.5-8.7c1.6-1.9,2.8-4,3.8-6.3v-5.5
		c-2.8,0-5.7,0-8.5,0c-1.6,4.5-4.4,7.9-8.9,10.2c0-0.8-0.1-1.4-0.1-2.2c3.8-2.2,6.3-5.5,7.4-10.1c1.9-0.1,3.9,0,5.9,0
		c1.4,0,2.8,0,4.2,0v-2c-3.8,0-7.7,0-11.5,0c-1.2,5.2-2.7,7.7-5.8,9.6c-0.3-0.9-0.5-1.9,0.3-2.7c2.3-2.3,3.4-5.1,3.4-8.3
		c0-0.2,0.1-0.4,0.2-0.8c4.5,0,9,0,13.5,0v-1.9c-4.6,0-9.2,0-13.8,0c-0.6,0-1.3,0-2.1,0c0.7,3.1,0.5,5.8-1.6,8.2
		c0-0.9-0.1-1.8-0.1-2.7c0.2-2.6,0.1-5.2-1.8-7.2c0.1-0.2,0.2-0.3,0.2-0.3c0,0,0.1-0.1,0.1-0.1c0.2,0,0.4-0.1,0.6-0.1
		c6.1,0,12.3,0,18.4,0v-5.2c-3.1-7.2-8.5-12.3-16.1-15c-0.5-0.2-1.4-0.1-1.4-1c0-0.9,0.9-0.8,1.5-1c7.6-2.7,12.9-7.8,16.1-15v-5.4
		c-2.8,0-5.7,0-8.5,0c-1.7,4.6-4.4,8-8.8,10.1c-0.5-1.9-0.5-1.9,0.9-2.8c2.8-1.9,4.8-4.5,5.8-7.8c0.2-0.5,0.3-0.9,0.5-1.6
		c3.3,0,6.7,0,10.1,0v-2c-1.9,0-3.8,0-5.7,0c-1.9,0-3.9,0-5.9,0c-0.6,4.1-2.3,7.3-5.7,9.7c-0.3-1.1-0.6-2,0.3-2.8
		c2.4-2.3,3.4-5.2,3.4-8.5c0-0.2,0.1-0.3,0.1-0.6c4.5,0,9,0,13.5,0v-1.9c-4.7,0-9.3,0-14,0c-0.6,0-1.2,0-1.7,0
		c0.3,5,0.1,6.2-1.6,8.3c-0.1-0.5-0.2-0.9-0.2-1.3c0-0.9-0.1-1.9,0-2.8c0.2-2.1-0.3-4.1-1.6-5.8c-0.1-0.1-0.1-0.3-0.2-0.7
		c2.2-0.1,4.3,0,6.3,0c2.1,0,4.2,0,6.3,0s4.2,0,6.3,0c0.1,0,0.2,0,0.3,0V9.3c-3.1-7.2-8.4-12.2-15.9-14.9c-0.2-0.1-0.4-0.2-0.6-0.2
		h-3.1c0,3.2,0,6.3,0,9.5c4.6,1.7,8,4.4,10.1,8.8c-1.3,0.4-2.2,0.2-2.9-0.9c-1.8-2.9-4.5-4.8-7.7-5.8c-0.4-0.1-0.8-0.3-1.2-0.4
		c0,0-0.1-0.1-0.3-0.3c0-3.6,0-7.2,0-10.8h-2c0,4.2,0,8.4,0,12.6c3,0.5,5.6,1.5,7.7,3.4c0.7,0.6,1.4,1.3,1.9,2.3
		c-1.2,0.2-2.1,0.3-3-0.6c-2.1-2.1-4.7-3.1-7.7-3.2c-0.3,0-0.5,0-1-0.1c-0.2-1.9-0.1-3.8-0.1-5.6c0-1.9,0-3.8,0-5.7
		c0-1.1,0-2.1,0-3.2h-2c0,5.5,0,11.2,0,16.9c3.2-0.8,5.8-0.5,8.2,1.5c-0.3,0-0.7,0.1-1,0.1c-1.1,0-2.3,0-3.4,0c-2.2,0-2.2,0-5.8,1.8
		c0-6.8,0-13.5,0-20.2h-3C86.7-3,81,2.6,77.9,10.9c-0.1,0.2-0.1,0.3-0.2,0.4c0,0-0.1,0.1-0.4,0.3c-1.5-4.4-3.9-8.2-7.2-11.3
		c-3-2.8-6.5-4.8-10.4-6.1h-2.9c0,3.2,0,6.3,0,9.5c3.2,1.2,5.8,2.8,7.8,5.3c0.9,1,1.7,2.1,2.1,3.4c-1.9,0.5-1.9,0.5-2.7-0.9
		c-2-2.9-4.6-4.8-7.9-5.9c-0.5-0.2-0.9-0.3-1.5-0.5c0-3.6,0-7.3,0-11h-1.9c0,4.2,0,8.4,0,12.6c4,0.6,7.2,2.3,9.7,5.7
		c-1.2,0.2-2.1,0.4-2.9-0.5c-2.2-2.2-4.8-3.2-7.9-3.3c-0.3,0-0.5-0.1-1-0.1c-0.1-3.1,0-6.3,0-9.4c0-1.7,0-3.4,0-5.1h-1.9
		c0,5.6,0,11.2,0,16.8c3.1-0.7,5.8-0.6,8.2,1.6c-0.7,0-1.5,0-2.2,0c-4.4,0-4.4,0-8,1.7c0-6.8,0-13.5,0-20.2h-3.3
		c-1.7,0.7-3.3,1.4-4.8,2.2c-1.9,1.1-3.8,2.5-5.4,4c-1.6,1.5-3,3.3-4.2,5.1s-2,3.9-3.1,6.1c-1-2.9-2.3-5.6-4.1-7.9
		c-1.8-2.4-4-4.5-6.5-6.2C13-4,10.6-5,8.1-5.9h-3c0,3.2,0,6.3,0,9.5c4.5,1.7,7.9,4.4,10.1,8.8c-0.9,0-1.5,0-2.2,0
		c-0.2-0.3-0.4-0.6-0.6-0.9c-1.9-2.9-4.6-5-8-6C2.8,5.1,3,5,3,3.6c0-3.2,0-6.3,0-9.4H1.1c0,3.5,0,6.9,0,10.4
		C1.1,5.2,1.1,5.9,1.1,6.4z M110.5,247.8c1.9-1.4,3.8-2.6,5.5-4.1c1.6-1.4,2.8-3.1,3.8-5c0.8-1.6,0.8-1.6,2.8-1.2
		c-0.5,3.6-5.8,10.4-12.1,12.3C110.5,249,110.5,248.3,110.5,247.8z M124.9,237.4c0.6,0,1.2,0,1.7,0c-1.3,7.2-9.3,15-16.2,16.3
		c0-0.5-0.1-1.1-0.1-1.7C117.5,249.4,122.3,244.6,124.9,237.4z M126.7,184.9c-1.5,7.2-9,14.7-16.2,16.3c0-0.6,0-1.1,0-1.8
		c7-2.5,11.9-7.4,14.4-14.5C125.6,184.9,126.1,184.9,126.7,184.9z M111.6,194.4c3.7-1.9,6.5-4.7,8.3-8.4c0.7-1.4,0.9-1.5,2.9-0.9
		c-2.3,5.8-6.3,9.8-12.1,12.1C110,195.6,110.2,195.2,111.6,194.4z M124.7,133.1c0.1-0.2,0.2-0.4,0.3-0.7c0.5,0,1.1,0,1.7,0
		c-1.1,6.6-8.8,14.8-16.1,16.2c-0.2-1.7-0.2-1.7,0.9-2.1C117.8,144,122.2,139.6,124.7,133.1z M111.8,141.8c3.5-1.8,6.2-4.5,8-8
		c0.8-1.6,0.8-1.6,2.7-1.3c-0.3,4.2-6.8,10.8-12,12.2C110.2,142.7,110.2,142.6,111.8,141.8z M110.5-3.7c6.6,1,14.6,8.9,16.3,16.2
		c-0.6,0-1.1,0.1-1.8,0.1c-2.6-7.1-7.4-12-14.5-14.5C110.5-2.5,110.5-3.1,110.5-3.7z M111.7,3.2c-1.6-0.8-1.6-0.9-1.1-2.8
		c4.8,1,11.2,7.4,12,12.1c-0.7,0-1.4,0-2.1,0c-0.2-0.4-0.4-0.8-0.6-1.1C118.1,7.8,115.3,5.1,111.7,3.2z M8.6,56.2
		C7,55.4,7,55.4,7.3,53.4c3.8,0.4,10.7,6.3,12.2,12c-2,0.3-2,0.3-2.9-1.4C14.7,60.6,12,58,8.6,56.2z M8.4,41.1
		c6.1-2.5,10.4-6.8,12.9-12.9c0.6-1.4,0.6-1.4,2.2-1.1c-1,6.7-9.9,15.5-16.3,16.2c0-0.5,0-1.1,0-1.7C7.6,41.4,8,41.2,8.4,41.1z
		 M7.3,39.2c0-0.7,0-1.4,0-2.1c0.4-0.2,0.8-0.4,1.3-0.7c3.6-1.9,6.3-4.6,8.1-8.1c0.8-1.6,0.8-1.6,2.8-1.3C19,31.3,12,38.4,7.3,39.2z
		 M8.7,45.3c7.8-2.8,13.3-8.1,16.4-15.8c0.2-0.4,0.3-0.8,0.5-1.2c0-0.1,0.2-0.1,0.4-0.3c0.4,0.9,0.6,1.7,1,2.5
		c3.2,7.2,8.6,12.1,16,14.7c0.6,0.2,1.4,0.1,1.5,1c0,0.9-0.9,0.8-1.4,1C35.1,50,29.7,55.3,26.5,63c-0.2,0.5-0.4,0.9-0.7,1.7
		c-0.3-0.7-0.5-1.1-0.7-1.5C22,55.4,16.5,50.1,8.6,47.3c-0.5-0.2-1.4-0.1-1.4-1C7.2,45.4,8.1,45.5,8.7,45.3z M62.3,65.3
		c-1.1,0.2-2,0.5-2.8-0.3c-2.2-2.3-5-3.3-8.2-3.3c-0.2,0-0.4-0.1-0.8-0.2c0-9.5,0-19,0-28.7c-4-0.6-7.3-2.3-9.7-5.8
		c1.4-0.4,2.2-0.3,3.2,0.6c1.9,2,4.3,3,7.1,3.1c0.4,0,0.8,0,1.1,0.1c0.1,0,0.2,0.1,0.4,0.2c0,9.4,0,18.9,0,28.6
		C56.7,60.3,59.9,62,62.3,65.3z M58.9,39.2c0-0.7,0-1.4,0-2.1c0.4-0.2,0.8-0.4,1.3-0.6c3.6-1.9,6.3-4.6,8.1-8.1
		c0.8-1.6,0.8-1.6,2.8-1.3C69.9,32.2,63.5,38.3,58.9,39.2z M72.9,28.1c0.6-1.4,0.6-1.4,2.2-1c-1.2,6.4-8.3,14.4-16.2,16.2
		c0-0.6,0-1.1,0-1.8c0.3-0.1,0.6-0.3,0.9-0.4C66,38.7,70.4,34.3,72.9,28.1z M59.3,45.6c0.2-0.2,0.5-0.2,0.8-0.3
		c8-2.8,13.5-8.1,16.7-16c0.1-0.3,0.3-0.7,0.5-1c0,0,0.1-0.1,0.3-0.3c0.3,0.6,0.5,1,0.6,1.4c3.1,7.7,8.6,13,16.4,15.8
		c0.6,0.2,1.4,0.1,1.5,1c0,0.9-0.9,0.8-1.4,1c-7.9,2.8-13.4,8.2-16.5,15.9c-0.2,0.4-0.3,0.8-0.6,1.4c-0.3-0.5-0.5-0.7-0.6-1
		c-3.1-8.1-8.7-13.5-16.9-16.4c-0.3-0.1-0.5-0.1-0.8-0.3c-0.2-0.2-0.4-0.4-0.4-0.6C58.9,46.1,59.1,45.8,59.3,45.6z M95.3,41.2
		c0.2,0.1,0.4,0.2,0.7,0.3c0,0.6,0,1.1,0,1.7c-6.1-1-14.6-8.3-16.2-16.1c1.6-0.4,1.6-0.4,2.1,0.8C84.4,34.3,88.9,38.7,95.3,41.2z
		 M83.8,27c2-0.2,2-0.2,2.8,1.4c1.8,3.5,4.4,6.1,7.9,7.9c0.4,0.2,0.9,0.5,1.3,0.7c0,0,0.1,0.1,0.1,0.2c0,0.6,0,1.3,0,2
		C91.4,38.3,84.8,32.1,83.8,27z M108.4,117.9c-0.5,0.1-0.8,0.2-1.1,0.2c-0.8,0-1.5,0-2.3,0c-3.6,0-3.6,0-6.7,1.7
		c-0.5-0.5-0.3-1.2-0.3-1.8c0-5,0-10.1,0-15.1c0-4.1,0-8.1,0-12.2c0-1.3-0.3-2-1.6-2.5c-3.3-1.3-5.8-3.6-7.6-6.6
		c-0.2-0.4-0.4-0.8-0.6-1.1c-0.1-0.1,0-0.3,0-0.5c0.9-0.1,1.7-0.4,2.4,0.7c2.1,3.4,5.1,5.5,8.9,6.6c0.2,0,0.3,0.1,0.6,0.3
		c0,9.6,0,19.2,0,28.9C104.8,115.9,106.6,116.2,108.4,117.9z M108.3,125.3c0,2.8-2.3,5-5.1,5c-2.8,0-5-2.3-5-5c0-2.7,2.4-5,5.1-5
		C106,120.2,108.3,122.6,108.3,125.3z M108.5,170.3c-0.5,0.1-0.8,0.2-1.2,0.2c-0.8,0-1.5,0-2.3,0c-3.6,0-3.8,0.1-6.8,1.8
		c-0.4-0.6-0.3-1.2-0.3-1.8c0-8.8,0-17.7,0-26.5c0-0.4,0-0.9,0-1.3c0.1-1-0.3-1.5-1.3-1.9c-3.4-1.4-6-3.6-7.9-6.7
		c-0.3-0.5-0.5-1-0.8-1.6c1.4-0.4,2.1-0.2,2.9,1c1.8,2.9,4.5,4.8,7.7,5.9c0.5,0.2,0.9,0.3,1.5,0.5c0,9.6,0,19.2,0,29
		C103.1,168.3,105.9,168.4,108.5,170.3z M108.3,177.8c0,2.7-2.4,5-5.1,5c-2.7,0-5-2.3-5-5.1c0-2.7,2.4-5.1,5.1-5
		C106,172.7,108.3,175,108.3,177.8z M52.7,207.7c0,3.1,0,6.3,0,9.5c3.1,0.5,5.8,1.6,7.9,3.7c0.6,0.6,1.1,1.3,1.8,2.1
		c-1.3,0.2-2.2,0.4-3-0.5c-2.2-2.2-4.9-3.3-8-3.3c-0.2,0-0.4-0.1-0.9-0.1c0-9.4,0-18.8,0-28c-1.9-0.8-3.7-1.3-5.4-2.1
		c-1.7-0.8-3.1-2.2-4.2-3.9c1.1-0.4,2-0.5,2.8,0.3c2.2,2.3,5,3.3,8.2,3.4c0.2,0,0.4,0.1,0.8,0.2c0.1,3.1,0,6.2,0.1,9.3
		C52.7,201.5,52.7,204.6,52.7,207.7z M56.1,216.1c-0.5-0.2-0.9-0.3-1.5-0.5c0-9.6,0-19.2,0-29c-3.1,0.7-5.8,0.5-8.2-1.3
		c0-0.1,0-0.3,0-0.4c1,0,2-0.2,3,0c2.6,0.3,5,0,7.3-2c0.1,2.9,0,5.5,0,8.1c0,2.5,0,5.1,0,7.6c0,2.6,0,5.2,0,7.8c0,2.5,0,5.1,0,7.7
		c4.5,1.7,7.9,4.4,10,8.8c-1.4,0.5-2.2,0.2-2.9-0.9C62,219.1,59.4,217.2,56.1,216.1z M7.3,147c0.4-0.2,0.8-0.4,1.2-0.5
		c6.1-2.5,10.3-6.8,12.8-12.8c0.6-1.4,0.6-1.4,2.1-1.2c0.2,5.5-10,15.8-16.1,16.2C7.3,148.1,7.3,147.6,7.3,147z M7.2,144.7
		c0-0.7,0-1.4,0-2c5-2.7,7-4.4,10.2-10.2c0.7,0,1.3,0,2,0C18.7,137.1,12,143.9,7.2,144.7z M22.2,130.4c-2,0-4,0-6,0
		c-1.6,4.5-4.4,7.8-8.7,9.9C7,138.6,7,138.5,8,137.8c3.2-2.1,5.3-5,6.4-8.7c0.1-0.3,0.2-0.5,0.4-0.9c9.3,0,18.6,0,28,0
		c-0.6-3-0.5-5.7,1.5-8.4c0.5,3.7-0.7,7.4,2.2,10.5c-2.4,0.2-4.3,0.1-6.3,0.1c-2,0-4,0-6,0c-2,0-4,0-6,0S24.2,130.4,22.2,130.4z
		 M43.5,103.9c-6.2,2.5-10.6,6.8-13.1,12.9c-0.6,1.4-0.6,1.4-2.2,1c0.7-6.2,9.8-15.3,16.1-16c0,0.5,0,1,0.1,1.6
		C44.1,103.6,43.8,103.8,43.5,103.9z M44.4,107.9c-0.5,0.3-0.9,0.5-1.3,0.7c-3.5,1.8-6.2,4.5-8,8c-0.9,1.6-0.9,1.6-3,1.3
		c2.4-5.9,6.4-9.8,12.2-12.2c0.1,0.4,0.2,0.6,0.2,0.8C44.4,106.9,44.4,107.4,44.4,107.9z M44.4,99.1c-2,0.9-4.1,1.6-5.9,2.7
		c-1.9,1.1-3.8,2.5-5.4,4.1c-1.6,1.5-3,3.3-4.2,5.1c-1.2,1.8-2,3.9-3.1,6.1c-3.2-9.1-9.4-15-18.5-17.8c0-0.9,0.7-0.8,1.1-1
		c1.7-0.8,3.4-1.4,5-2.2c5.5-3.1,9.4-7.7,11.7-13.6c0.2-0.5,0.4-0.9,0.6-1.3c0,0,0.1-0.1,0.3-0.2c3.2,9,9.4,14.9,18.5,17.7
		C44.4,98.9,44.4,99,44.4,99.1z M8.4,94c6.1-2.5,10.4-6.8,12.9-12.9c0.6-1.4,0.6-1.4,2.2-1.1c-0.9,6.6-9.7,15.3-16.3,16.2
		c0-0.5,0-1.1-0.1-1.6C7.6,94.4,8,94.2,8.4,94z M7.3,92.1c0-0.7,0-1.4,0-2.1c0.4-0.2,0.8-0.5,1.3-0.7c3.6-1.9,6.3-4.6,8.1-8.1
		c0.8-1.6,0.8-1.6,2.8-1.3C18.2,85.1,11.9,91.4,7.3,92.1z M44.3,94.4c0,0.6,0,1.2,0,1.7C38,95.4,29,86.5,28.1,79.9
		c0.5,0,1-0.1,1.7-0.1C32.4,87,37.2,91.8,44.3,94.4z M32.2,80.1c1.7-0.5,1.9-0.5,2.7,0.9c1.9,3.8,4.7,6.6,8.4,8.5
		c0.3,0.2,0.7,0.3,1,0.5c0,0.5,0.1,0.9,0.1,1.3c0,0.3-0.1,0.5-0.1,0.8C39.8,91.5,33.1,84.8,32.2,80.1z M36.4,80.1
		c1.6-0.6,1.9-0.5,2.5,0.5c2.1,3.3,5,5.4,8.8,6.5c0.2,0.1,0.4,0.2,0.8,0.3c0,9.6,0,19.3,0,28.9c4.6-0.5,6.4-0.2,8.3,1.6
		c-3.6,0.4-7.2-0.7-10.4,2.2c0-10.7,0-20.9,0-31.3C42,87.3,38.6,84.5,36.4,80.1z M50.2,79.8c2.3,0.2,4.3-0.2,6.1-1.6
		c0.1,0,0.2,0,0.5,0c0,10.2,0,20.5,0,30.8c4.5,1.6,7.9,4.4,10.1,8.8c-1.4,0.4-2.2,0.2-2.8-0.9c-1.9-3-4.6-4.9-8-6
		c-0.4-0.1-0.8-0.3-1.3-0.5c0-9.6,0-19.2,0-28.8c-4.8,0.4-6.4,0.1-8.3-1.7C47.6,79.6,48.9,79.7,50.2,79.8z M46.6,72.7
		c0-2.7,2.3-5,5.1-5c2.8,0,5,2.3,5,5c0,2.7-2.3,5.1-5,5.1C48.9,77.8,46.5,75.5,46.6,72.7z M58.9,92.1c0-0.3-0.1-0.5-0.1-0.8
		c0-0.4,0-0.8,0.1-1.3c0.5-0.2,0.9-0.5,1.3-0.7c3.6-1.9,6.3-4.6,8.1-8.1c0.8-1.6,0.8-1.6,2.8-1.3C70.5,84,64.3,91.1,58.9,92.1z
		 M72.9,81.2c0.6-1.5,0.6-1.5,2.2-1.1c-1.4,6.9-8.8,14.6-16.2,16.2c0-0.7,0-1.2,0-1.8c0.4-0.2,0.7-0.3,1.1-0.5
		C66,91.6,70.3,87.3,72.9,81.2z M60.3,98.2C66.7,96,71.6,92,74.9,86.1c0.9-1.6,1.6-3.3,2.4-5.1c0.2,0.2,0.4,0.5,0.5,0.7
		C80.9,90,86.7,95.5,95,98.4c0.3,0.1,0.6,0.3,1.2,0.6c-0.5,0.3-0.7,0.5-1,0.6c-8.5,2.8-14.2,8.4-17.3,16.7c-0.1,0.2-0.2,0.4-0.5,1
		c-3.3-9.3-9.5-15.1-18.6-18C59.1,98.4,59.7,98.4,60.3,98.2z M95.4,94.2c0.2,0.1,0.3,0.2,0.5,0.3c0,0.6,0,1.1,0,1.6
		c-6.2-0.6-15.3-9.6-16.2-16.1c1.6-0.4,1.6-0.4,2.1,0.8C84.4,87.3,88.9,91.7,95.4,94.2z M83.8,80c2-0.3,2-0.3,2.8,1.3
		c1.8,3.5,4.5,6.2,8,8c0.4,0.2,0.9,0.5,1.4,0.7c0,0.7,0,1.4,0,2C91.6,91.6,84.9,85,83.8,80z M94.9,146.5c1.3,0.5,1.3,0.6,0.9,2.2
		c-6.4-0.9-14.5-9-16.1-16.2c0.6,0,1.2,0,1.8,0c0.1,0.3,0.3,0.5,0.4,0.8C84.3,139.6,88.6,144,94.9,146.5z M83.8,132.5
		c2-0.3,2-0.3,2.8,1.2c1.8,3.5,4.5,6.2,8,8c0.4,0.2,0.9,0.5,1.3,0.7c0,0.7,0,1.4,0,2.2C90.8,143.4,84.5,137,83.8,132.5z M81.6,141.3
		c0.9,1.2,1.9,2.4,3,3.4c1.1,1,2.3,2,3.5,2.8c1.2,0.8,2.5,1.5,3.8,2.1c1.3,0.6,2.7,1.1,4.1,1.9c-4.3,1.6-8.1,3.6-11.4,6.7
		c-3.3,3.1-5.6,6.9-7.1,11.2c-0.8-0.3-0.7-0.9-0.9-1.4c-2.5-6.3-6.8-11-12.8-14.1c-1.2-0.6-2.5-1.1-3.7-1.6
		c-0.5-0.2-0.9-0.4-1.4-0.6c0-0.1,0-0.2,0-0.3c1.6-0.7,3.3-1.3,4.8-2.1c1.6-0.8,3.1-1.7,4.5-2.8c1.4-1.1,2.7-2.3,3.9-3.7
		c1.1-1.3,2.2-2.8,3.1-4.4c0.9-1.5,1.5-3.2,2.4-5c0.7,1.5,1.2,2.9,1.9,4.2C80,138.9,80.8,140.1,81.6,141.3z M94.9,165.4
		c-2.8,1.9-4.8,4.5-5.8,7.8c-0.2,0.5-0.3,0.9-0.5,1.5c-9.3,0-18.7,0-28.2,0c0.8,3.1,0.6,5.8-1.2,8.2c-0.1,0-0.3,0-0.4,0
		c0-1.2-0.1-2.4,0-3.6c0.2-2.2-0.2-4.3-1.6-6.1c0-0.1,0-0.2,0-0.5c0.6,0,1.1,0,1.7,0c8.8,0,17.6,0,26.5,0c1.3,0,2-0.3,2.5-1.6
		c1.3-3.2,3.5-5.7,6.4-7.5c0.5-0.3,1-0.5,1.6-0.8C96.2,164.5,96.2,164.5,94.9,165.4z M95.2,170.2c-2,2-2.9,4.5-3.1,7.3
		c0,0.4,0,0.7-0.1,1.3c-9.1,0-18.2,0-27.4,0c-0.4,2.9-1.4,5.5-3.3,7.6c-0.7,0.7-1.5,1.4-2.4,2.2c-0.4-1.4-0.4-2.3,0.5-3.2
		c2-2,3-4.6,3.1-7.4c0-0.4,0-0.8,0.1-1.3c9.1,0,18.2,0,27.4,0c0.6-4,2.3-7.2,5.7-9.6C96.2,168.4,96.1,169.3,95.2,170.2z M50.5,152.6
		c0-2.4,0-4.8,0-7.1c0-2.3,0-4.6,0-7.1c-3.9-0.7-7.2-2.3-9.6-5.8c1.1-0.2,2-0.5,2.8,0.3c2.3,2.3,5,3.4,8.3,3.4
		c0.2,0,0.3,0.1,0.7,0.2c0,9.4,0,18.8,0,28.2c3.9,0.6,7.2,2.2,9.6,5.7c-1.3,0.3-2.2,0.3-3.1-0.6c-2-2-4.6-2.9-7.5-3.1
		c-0.3,0-0.6,0-1.2,0c-0.1-2.4,0-4.8,0-7.1C50.5,157.2,50.5,154.9,50.5,152.6z M47.4,132.4c1.3,0,2.5,0,3.7,0
		c1.7,0.1,3.3-0.3,4.7-1.3c0.2-0.2,0.5-0.2,0.9-0.5c0,0.9,0,1.6,0,2.3c0,8.9,0,17.8,0,26.8c0,1.4,0.3,2.2,1.7,2.8
		c3.2,1.3,5.7,3.5,7.5,6.5c0.3,0.5,0.5,0.9,0.7,1.4c-1.9,0.4-1.9,0.5-2.8-0.9c-2-2.9-4.6-4.8-7.9-5.9c-0.4-0.1-0.7-0.2-1.1-0.4
		c0,0-0.1-0.1-0.3-0.2c0-9.5,0-19.1,0-28.9c-3.1,0.7-5.8,0.5-8.5-1.5C46.7,132.5,47,132.4,47.4,132.4z M46.6,125.2c0-2.7,2.3-5,5-5
		c2.8,0,5.1,2.2,5.1,5c0,2.8-2.2,5-5.1,5C48.8,130.3,46.5,128,46.6,125.2z M73.3,170.5c-2.6-7-7.4-11.8-14.4-14.4
		c0-0.3-0.1-0.7-0.1-1c0-0.3,0.1-0.5,0.1-0.8c7.3,1.5,14.7,9.2,16.2,16.2C74.5,170.5,73.9,170.5,73.3,170.5z M79.8,170.4
		c0.5-6.1,8.8-14.5,16.1-16.2c0,0.6,0,1.2,0,1.9c-3.3,1.2-6.3,2.9-8.8,5.5c-2.5,2.5-4.3,5.5-5.6,8.9C81,170.4,80.4,170.4,79.8,170.4
		z M94.7,161.2c-3.5,1.8-6.1,4.4-7.9,7.9c-0.9,1.7-0.9,1.7-2.8,1.4c0.6-4.4,7.5-11.3,12-12C96.2,160.4,96.2,160.4,94.7,161.2z
		 M59,148.7c-0.4-1.6-0.4-1.6,0.9-2.2c6.2-2.5,10.6-7,13.1-13.2c0.1-0.3,0.2-0.5,0.3-0.8c0.6,0,1.1,0,1.8,0
		C73.5,139.4,66.4,147.1,59,148.7z M58.9,144.7c0-0.3-0.1-0.5-0.1-0.8c0-0.4,0-0.9,0-1.3c0.5-0.3,0.9-0.5,1.4-0.8
		c3.5-1.8,6.1-4.5,8-8c0.8-1.6,0.8-1.6,2.8-1.3C70,137,64.5,143.3,58.9,144.7z M59,158.4c4.6,0.8,10.8,7,12,11.9
		c-1.8,0.5-2,0.5-2.8-1c-1.8-3.6-4.6-6.3-8.1-8.1C58.6,160.3,58.6,160.4,59,158.4z M94.9,113c-2.9,1.8-4.8,4.5-5.8,7.7
		c-0.1,0.4-0.3,0.8-0.5,1.4c-9.3,0-18.6,0-28.2,0c0.8,3.1,0.6,5.8-1.4,8.5c-0.1-0.6-0.3-0.9-0.3-1.2c0-1.1-0.1-2.3,0-3.4
		c0.1-1.9-0.3-3.6-1.5-5.2c-0.1-0.2-0.2-0.4-0.4-0.8C62,120,67,120,72,120c5,0,9.9,0,15.1,0c1.6-4.4,4.4-7.8,8.7-10
		C96.2,111.4,96.1,112.3,94.9,113z M95.2,117.7c-2,2-2.9,4.5-3.1,7.3c0,0.3,0,0.6-0.1,1c0,0,0,0.1-0.1,0.3c-9,0-18.1,0-27.3,0
		c-0.6,4-2.3,7.3-5.7,9.7c-0.2-1.1-0.5-2,0.3-2.8c2.3-2.3,3.4-5.1,3.4-8.3c0-0.2,0.1-0.3,0.2-0.6c9,0,18.1,0,27.3,0
		c0.5-3,1.5-5.7,3.6-7.8c0.6-0.6,1.3-1.2,2.2-1.9C96.1,115.9,96.2,116.8,95.2,117.7z M71,117.8c-1.8,0.5-2,0.4-2.7-1
		c-1.9-3.7-4.7-6.5-8.4-8.3c-0.3-0.2-0.7-0.3-1.1-0.6c0-0.8,0-1.4,0-2C63.1,106.2,70.1,113.2,71,117.8z M58.8,103.5
		c0-0.5,0-1.1,0-1.6c5.9,0.2,14.5,8.7,16.3,16c-1.7,0.3-1.7,0.4-2.2-0.8c-2.5-6.3-7-10.7-13.3-13.1
		C59.3,103.8,59.1,103.6,58.8,103.5z M95.9,103.5c-0.3,0.2-0.6,0.3-1,0.5c-6.1,2.5-10.4,6.8-13,12.9c-0.6,1.4-0.6,1.4-2.3,1.1
		c1.4-7,9.9-15.4,16.2-16.1C95.9,102.4,95.9,102.9,95.9,103.5z M96,105.9c0,0.7,0,1.4,0,2.1c-0.3,0.2-0.7,0.4-1,0.5
		c-3.7,1.9-6.5,4.6-8.4,8.3c-0.8,1.4-0.9,1.5-2.7,1C84.7,113.3,91.2,106.8,96,105.9z M51.7,83.8c0.3,0,0.5,0.1,1,0.2
		c0.1,3.2,0,6.3,0,9.4c0,3.1,0,6.3,0,9.4c0,3.1,0,6.3,0,9.5c4,0.6,7.2,2.3,9.6,5.6c-1,0.4-1.9,0.6-2.6-0.1c-2.5-2.4-5.4-3.5-9-3.4
		c-0.1-0.8-0.2-1.4-0.2-2.1c0-8.1,0-16.2,0-24.4c0-0.6,0-1.3,0-2c-4-0.6-7.3-2.3-9.7-5.8c1.2-0.3,2.1-0.4,2.9,0.4
		C45.9,82.7,48.5,83.8,51.7,83.8z M8,132.9c2-2,3-4.6,3.1-7.5c0-0.3,0-0.6,0.1-1.1c0.6,0,1.3-0.1,1.9-0.1c7.9,0,15.7,0,23.5,0
		c0.6,0,1.3,0,2,0c0.6-4,2.3-7.2,5.7-9.6c0.3,1.1,0.5,2-0.4,2.8c-2.2,2.2-3.2,4.8-3.3,7.9c0,0.3-0.1,0.5-0.1,0.9
		c-9.1,0-18.2,0-27.4,0c-0.6,4.1-2.3,7.3-5.8,9.8C7.1,134.7,7.1,133.8,8,132.9z M29.9,132.5c2.5,7,7.3,11.9,14.4,14.5
		c0,0.7,0,1.2,0,1.7C38,148,29.1,139,28.1,132.4C28.7,132.5,29.2,132.5,29.9,132.5z M44.2,144.6c-4.7-0.9-11.1-7.4-12-12.2
		c0.7,0,1.4,0,2.1,0c0.2,0.4,0.4,0.7,0.6,1.1c1.8,3.6,4.6,6.4,8.2,8.3C44.6,142.7,44.6,142.7,44.2,144.6z M36.4,132.6
		c1.9-0.4,1.9-0.4,2.8,0.9c1.9,2.9,4.6,4.9,7.9,5.9c0.4,0.1,0.7,0.2,1.1,0.4c0.1,0,0.2,0.1,0.4,0.3c0,9.5,0,19.1,0,28.9
		c3-0.7,5.7-0.5,8.1,1.4c-3.3,0.5-7-0.6-9.8,2c-0.2-0.1-0.2-0.1-0.3-0.1c0,0-0.1-0.1-0.1-0.1c0-0.2-0.1-0.4-0.1-0.6
		c0-9.9,0-19.9-0.1-29.9c0,0,0-0.1-0.1-0.3C42,139.7,38.5,137,36.4,132.6z M56.7,177.8c0,2.8-2.4,5-5.1,5c-2.7,0-5-2.4-5-5.1
		c0-2.7,2.4-5,5.1-5C54.4,172.7,56.7,175.1,56.7,177.8z M60.1,213.7c-0.3-0.2-0.7-0.3-1-0.5c-0.1,0-0.2-0.1-0.3-0.2c0-0.7,0-1.3,0-2
		c4.8,0.9,11.3,7.4,12.1,12.1c-2,0.2-2,0.2-2.8-1.4C66.3,218.1,63.6,215.5,60.1,213.7z M59.5,208.8c-0.2-0.1-0.4-0.2-0.6-0.3
		c0-0.5,0-1,0-1.6c5.7-0.1,15.3,9.5,16.2,16c-1.6,0.3-1.6,0.3-2.1-0.8C70.4,215.7,65.9,211.3,59.5,208.8z M58.8,204.3
		c0.2-0.9,0.9-0.9,1.4-1c4.4-1.5,8.2-4,11.4-7.5c2.2-2.4,3.8-5.1,5-8.1c0.2-0.5,0.4-1,0.7-1.7c0.3,0.4,0.5,0.6,0.6,0.9
		c3.2,8.2,8.9,13.8,17.3,16.6c0.3,0.1,0.5,0.2,0.7,0.3c0,0,0.1,0.1,0.2,0.3c-2,0.9-4.1,1.7-6,2.8c-1.9,1.1-3.8,2.5-5.4,4.1
		c-1.6,1.5-3,3.3-4.2,5.1c-1.2,1.8-2,3.9-3.1,6.1C74.1,213,67.9,207.1,58.8,204.3z M58.8,199.5c0.4-0.2,0.8-0.3,1.2-0.5
		c6.1-2.5,10.3-6.8,12.8-12.9c0.6-1.4,0.6-1.4,2.2-1.1c-0.3,5.9-9.2,14.9-16.1,16.2c0-0.2-0.2-0.4-0.2-0.6
		C58.8,200.3,58.8,199.9,58.8,199.5z M60.3,194.3c3.5-1.8,6.2-4.5,8-8c0.8-1.6,0.8-1.6,2.8-1.2c-0.6,4.5-7.2,11.1-12.1,12.1
		C58.7,195.1,58.7,195.2,60.3,194.3z M79.7,185.1c1.7-0.3,1.7-0.3,2.2,0.9c2.5,6.3,6.9,10.7,13.3,13.2c0.2,0.1,0.5,0.2,0.8,0.4
		c0,0.6,0,1.1,0,1.7C89.2,200,81.3,192.2,79.7,185.1z M95.9,206.9c0,0.5,0,1.1,0,1.7c-7,2.5-11.8,7.3-14.4,14.5
		c-0.4,0-0.6,0.1-0.9,0.1c-0.3,0-0.5,0-0.8-0.1C80.2,217,89.8,207.4,95.9,206.9z M96,210.8c0,0.8,0,1.5,0,2.2
		c-0.2,0.1-0.4,0.3-0.6,0.4c-4,1.9-7,4.8-9,8.8c-0.6,1.1-0.6,1.1-2.5,0.8C84.4,218.7,90.5,212.5,96,210.8z M95.6,222.3
		c-2.5,2.4-3.5,5.4-3.5,8.9c-9.1,0-18.2,0-27.4,0c-0.6,4-2.2,7.3-5.8,9.8c-0.2-1.2-0.4-2.1,0.5-3c2.2-2.2,3.2-4.9,3.3-8
		c0-0.2,0-0.4,0.1-0.8c9.2,0,18.2,0,27.1,0c0.7-1.9,1.3-3.7,2.1-5.4c0.8-1.7,2.1-3.1,3.9-4.2C96.1,220.6,96.3,221.5,95.6,222.3z
		 M95.8,197.3C90,195,86,191,83.6,185.1c2.1-0.5,2.1-0.5,3,1.1c1.8,3.6,4.6,6.3,8.1,8.1C96.2,195.2,96.3,195.2,95.8,197.3z
		 M82.9,182.9c-5,0-9.9,0-15.1,0c-1.7,4.4-4.4,7.9-8.7,10c-0.6-1.7-0.5-1.9,0.8-2.7c2.9-2,4.9-4.7,6-8c0.1-0.4,0.3-0.8,0.5-1.4
		c9.4,0,18.6,0,28.1,0c-0.6-2.9-0.5-5.7,1.4-8.3c0.1,0.6,0.2,0.9,0.2,1.2c0,1.1,0,2.3,0,3.4c-0.1,1.9,0.4,3.5,1.4,5
		c0.1,0.2,0.2,0.3,0.4,0.8C92.7,183,87.8,182.9,82.9,182.9z M67.8,130.4c-1.6,4.5-4.4,7.8-8.7,10c-0.6-1.7-0.5-1.9,0.5-2.6
		c3.3-2.2,5.4-5.1,6.4-8.8c0.1-0.2,0.2-0.4,0.3-0.7c9.3,0,18.5,0,28,0c-0.6-3-0.5-5.7,1.5-8.4c0.1,0.7,0.2,1,0.2,1.4
		c0,1.2,0,2.4,0,3.6c-0.1,2,0.6,3.7,2,5.6C87.7,130.4,77.8,130.4,67.8,130.4z M82.7,77.9c-5,0-9.9,0-15,0c-1.6,4.5-4.4,7.9-8.7,10
		c-0.6-1.7-0.5-1.9,0.7-2.7c2.9-2,4.9-4.7,6-8c0.1-0.4,0.2-0.7,0.4-1.1c0,0,0.1-0.1,0.3-0.3c9.1,0,18.3,0,27.8,0
		c-0.6-3-0.5-5.7,1.4-8.3c0.1,0.5,0.2,0.8,0.2,1.2c0,1.1,0,2.3,0,3.4c-0.1,1.9,0.4,3.5,1.4,5c0.1,0.2,0.2,0.4,0.4,0.8
		C92.7,78,87.7,77.9,82.7,77.9z M59.6,80.4c2-2,3-4.6,3.1-7.5c0-0.3,0-0.6,0.1-1c0,0,0.1-0.1,0.2-0.3c9,0,18,0,27.2,0
		c0.6-4.1,2.3-7.2,5.6-9.6c0.3,1,0.5,1.9-0.2,2.7c-2.9,3.6-3.1,4.1-3.6,9c-9,0-18.1,0-27.3,0c-0.6,4.1-2.3,7.4-5.8,9.8
		C58.7,82.2,58.7,81.3,59.6,80.4z M94.7,56.1c-3.5,1.8-6.2,4.5-8,8c-0.8,1.6-0.8,1.6-3.1,1.3c2.4-5.9,6.4-9.9,12.1-12.2
		C96.3,55.2,96.3,55.4,94.7,56.1z M81.6,65.5c-0.3,0-0.7,0.1-1,0.1c-0.3,0-0.5-0.1-0.8-0.1C80.6,59.1,89,50.6,96,49.3
		c0,0.6,0,1.2,0,1.8C88.9,53.6,84.1,58.4,81.6,65.5z M75.1,65.5c-0.5,0-1.1,0-1.7,0c-2.5-6.9-7.3-11.8-14.5-14.4c0-0.6,0-1.1,0-1.7
		C64.7,49.5,74.2,59,75.1,65.5z M58.9,53.1c5.9,2.4,9.9,6.3,12.2,12.1c-1.9,0.6-2.1,0.5-2.9-1c-1.9-3.6-4.6-6.4-8.3-8.2
		c-0.3-0.2-0.6-0.3-0.9-0.5c-0.1,0-0.2-0.2-0.3-0.3c0-0.4-0.1-0.8,0-1.2C58.8,53.9,58.8,53.6,58.9,53.1z M87.1,67.5
		c1.6-4.4,4.4-7.8,8.7-9.9c0.3,1.2,0.4,2-0.7,2.7c-3.2,2-5.2,4.9-6.3,8.5c-0.1,0.2-0.2,0.4-0.2,0.6c0,0-0.1,0.1-0.3,0.3
		c-9.1,0-18.4,0-27.9,0c0.7,3,0.5,5.8-1.5,8.5c-0.1-0.6-0.2-0.9-0.2-1.3c0-0.4,0-0.8,0-1.1c0-4.4,0-4.4-1.8-8.3
		C67.1,67.5,77.1,67.5,87.1,67.5z M47.2,34c0.4,0.1,0.8,0.3,1.4,0.5c0,9.8,0,19.5,0,29.5c3-0.7,5.7-0.5,8.4,1.4
		c-0.6,0.1-0.9,0.2-1.3,0.2c-0.9,0-1.7,0-2.6,0c-3.2,0-3.2,0-6.4,1.7c0,0-0.1,0-0.2-0.1c0,0-0.1-0.1-0.1-0.2c0-0.2-0.1-0.3-0.1-0.5
		c0-10.1,0-20.2,0-30.4c0,0,0-0.1-0.1-0.3c-4.3-1.6-7.8-4.4-9.9-8.8c1.4-0.5,2.2-0.1,2.9,1C41.2,31,43.9,32.9,47.2,34z M43.2,36.4
		c1.5,0.8,1.5,0.8,1.1,2.8c-5-1.2-11.7-7.9-12-12.2c1.9-0.3,1.9-0.3,2.7,1.3C36.9,31.9,39.6,34.6,43.2,36.4z M44.1,53.3
		c0.7,1.6,0.6,2.1-0.9,2.8c-3.6,1.8-6.3,4.6-8.2,8.2c-0.2,0.4-0.4,0.8-0.7,1.3c-0.5,0-1,0-1.4,0c-0.2,0-0.4-0.1-0.6-0.1
		C32.7,61.3,38.8,55,44.1,53.3z M29.9,65.6c-0.7,0-1.2-0.1-1.7-0.1c1.2-6.8,9.5-15.1,16.2-16.2c0,0.6,0,1.1,0,1.8
		C37.3,53.6,32.5,58.5,29.9,65.6z M44.4,41.5c0,0.6,0,1.1,0,1.6c-5.8-0.1-14.9-9.1-16.3-16.2c0.6,0,1.2,0,1.8,0
		C32.4,34,37.3,38.9,44.4,41.5z M23.4,65.5c-0.5,0-1.1,0-1.7,0c-0.2-0.4-0.4-0.9-0.6-1.3c-2.5-5.9-6.7-10.1-12.6-12.6
		C7.1,51,7.1,51,7.3,49.3C14.3,50.7,22.9,59.4,23.4,65.5z M5.6,68.2c-0.1-0.1-0.1-0.3-0.2-0.7c3.4,0,6.8,0,10.1,0c3.3,0,6.6,0,9.9,0
		c3.3,0,6.7,0,10.1,0c1.7-4.4,4.4-7.8,8.7-9.9c0.5,1.9,0.5,1.9-0.9,2.8c-2.8,1.9-4.8,4.5-5.8,7.8c-0.2,0.5-0.3,0.9-0.5,1.6
		c-9.3,0-18.6,0-28.1,0c0.8,3.1,0.5,5.7-1.2,8.2c-0.2,0-0.3,0-0.5-0.1c0-1.3-0.1-2.7,0-4C7.3,71.8,6.9,69.9,5.6,68.2z M43.9,64.9
		c-2.1,2.1-3.2,4.7-3.2,7.7c0,0.2,0,0.4-0.1,0.6c0,0.1-0.1,0.2-0.2,0.4c-8.9,0-18,0-26.9,0c-0.8,2-1.3,3.8-2.2,5.5
		c-0.8,1.7-2.1,3.1-3.9,4.1c-0.3-1.2-0.3-2.1,0.6-3c2.1-2.1,3.1-4.7,3.1-7.6c0-0.3,0-0.6,0.1-1.1c9.1,0,18.2,0,27.4,0
		c0.6-4,2.3-7.2,5.7-9.7C44.5,63.2,44.7,64.1,43.9,64.9z M8.3,85.2c2.9-2,4.9-4.7,6-8c0.1-0.4,0.3-0.8,0.5-1.4c9.3,0,18.6,0,28.1,0
		c-0.6-3-0.5-5.7,1.4-8.4c0.1,0.5,0.2,0.8,0.2,1.1c0,0.8,0,1.5,0,2.3c-0.1,2.4,0,4.8,1.7,6.6c-0.1,0.2-0.1,0.3-0.1,0.3
		c0,0-0.1,0.1-0.1,0.1c0,0-0.1,0-0.2,0c-0.2,0-0.3,0-0.5,0c-9.6,0-19.2,0-28.9,0c0,0-0.1,0-0.3,0.1c-1.6,4.3-4.3,7.8-8.7,9.8
		C7,86.1,7,86,8.3,85.2z M7.2,101.8c6.5,0.9,15.3,9.6,16.2,16c-1.5,0.5-1.6,0.4-2.1-0.8c-2.6-6.4-7.1-10.8-13.4-13.2
		c-0.2-0.1-0.4-0.2-0.7-0.4C7.2,102.8,7.2,102.3,7.2,101.8z M8.1,108.4c-0.3-0.1-0.6-0.3-0.9-0.5c0-0.5,0-0.9,0-1.4
		c0-0.2,0.1-0.4,0.2-0.8c5.8,2.3,9.9,6.3,12.2,12.1c-1.8,0.6-2.2,0.5-2.8-0.7C14.9,113.2,12,110.3,8.1,108.4z M5.5,120
		c9.9,0,19.9,0,29.6,0c1.3-2.1,2.4-4.1,3.8-5.8c1.3-1.8,3.2-3.1,5.2-4c0.6,1.6,0.5,1.9-0.5,2.5c-3.2,2.1-5.2,4.9-6.3,8.5
		c-0.1,0.2-0.2,0.4-0.2,0.6c0,0-0.1,0.1-0.2,0.3c-9.2,0-18.5,0-28,0c0.5,2.2,0.7,4.3-0.2,6.2c-0.3,0.7-0.7,1.4-1,2.1
		c-0.1,0-0.2,0-0.3-0.1c0-0.3-0.1-0.7-0.1-1c0-0.6,0-1.3,0-1.9c0.1-2.6,0.1-5.1-1.9-7.2C5.4,120.2,5.4,120.2,5.5,120z M12,149.3
		c1.6-0.8,3.1-1.8,4.5-2.8c1.4-1.1,2.7-2.4,3.9-3.7c1.1-1.4,2.2-2.8,3-4.4c0.9-1.5,1.5-3.2,2.4-5.1c1.1,3,2.4,5.7,4.1,8.1
		c1.8,2.4,3.9,4.4,6.4,6.1c2.5,1.7,5.2,2.8,8,3.8c-0.3,0.9-1,0.9-1.6,1.1c-6.6,2.3-11.5,6.5-14.9,12.6c-0.8,1.5-1.4,3-2.2,4.7
		c-0.8-1.7-1.4-3.3-2.3-4.8c-0.9-1.5-1.9-3-3-4.4c-1.2-1.4-2.5-2.7-4-3.8c-1.4-1.1-2.9-2-4.5-2.8c-1.6-0.8-3.2-1.4-5.2-2.2
		C8.8,150.7,10.5,150.1,12,149.3z M44.3,158.4c0.2,2,0.2,2-1.4,2.8c-3.4,1.8-6,4.4-7.8,7.8c-0.3,0.5-0.5,0.9-0.8,1.4
		c-0.7,0-1.4,0-2.1,0C33,165.9,39.6,159.3,44.3,158.4z M29.8,170.5c-0.3,0-0.6,0.1-0.9,0.1c-0.3,0-0.5-0.1-0.8-0.1
		c1.3-6.8,9.4-14.8,16.2-16.1c0,0.6,0,1.1,0,1.7C35.3,160.7,34.6,161.4,29.8,170.5z M23.5,170.4c-0.6,0-1.1,0-1.8,0
		c-1.2-3.3-3-6.3-5.5-8.8c-2.5-2.5-5.5-4.3-8.9-5.5c0-0.7,0-1.2,0-1.7C13.7,155.1,22.2,163.6,23.5,170.4z M8.6,161.1
		c-1.6-0.8-1.6-0.8-1.1-3c5.8,2.4,9.8,6.4,12.2,12.1c-2,0.6-2.1,0.6-3-1.1C14.7,165.6,12,163,8.6,161.1z M5.5,173c0,0,0-0.1,0-0.4
		c0.5,0,1.1-0.1,1.6-0.1c8.7,0,17.3,0,26,0c0.4,0,0.8,0,1.1,0c0.9,0.1,1.4-0.3,1.7-1.1c1.3-3.3,3.5-5.9,6.5-7.9
		c0.5-0.3,1.1-0.6,1.7-0.9c0.4,1.9,0.4,1.9-0.9,2.8c-2.8,1.9-4.8,4.5-5.8,7.8c-0.1,0.4-0.2,0.7-0.4,1.1c0,0.1-0.1,0.2-0.3,0.4
		c-9.2,0-18.5,0-27.9,0c0.4,4.8,0.1,6.5-1.6,8.3c-0.1-0.5-0.1-0.8-0.1-1.1c0-1.1,0-2.3,0-3.4c0.1-1.9-0.3-3.5-1.4-5
		C5.7,173.3,5.6,173.1,5.5,173z M7.7,185.7c2.3-2.3,3.4-5.1,3.4-8.3c0-0.2,0.1-0.3,0.1-0.7c1.8,0,3.6,0,5.4,0c1.8,0,3.7,0,5.5,0
		c1.8,0,3.6,0,5.4,0c1.8,0,3.7,0,5.5,0c1.8,0,3.6,0,5.5,0c0.6-3.9,2.3-7.2,5.7-9.6c0.3,1.1,0.5,2-0.3,2.8c-2.2,2.2-3.3,4.8-3.3,7.9
		c0,0.2,0,0.3,0,0.5c0,0.1-0.1,0.2-0.2,0.5c-8.9,0-18,0-27.2,0c-0.6,4.1-2.3,7.3-5.7,9.7C7.1,187.4,6.9,186.5,7.7,185.7z M8.3,190.1
		c2.9-1.8,4.8-4.5,5.8-7.7c0.2-0.5,0.3-0.9,0.5-1.6c9.3,0,18.7,0,28.1,0c-0.6-3-0.6-5.7,1.5-8.4c0.5,3.7-0.7,7.3,2.2,10.5
		c-5.4,0-10.3,0-15.2,0c-5,0-9.9,0-15,0c-3.1,6.1-5.8,9-9,9.9C6.9,191.6,7.2,190.8,8.3,190.1z M44.2,210.9c0.5,1.8,0.5,2-1,2.8
		c-3.6,1.8-6.3,4.6-8.1,8.1c-0.8,1.6-0.9,1.6-2.7,1.1C33.2,218.3,39.2,212.1,44.2,210.9z M30.3,222.1c-0.1,0.2-0.2,0.4-0.3,0.6
		c0,0.1-0.1,0.2-0.3,0.3c-0.5,0-1,0-1.5,0c0.2-5.9,9.8-15.5,16-16.2c0.3,1.6,0.3,1.6-0.8,2.1C37.1,211.5,32.8,215.9,30.3,222.1z
		 M44.2,197.1c-4.6-0.9-10.9-7.2-12-12c1.7-0.6,1.9-0.5,2.7,1.1c1.8,3.6,4.5,6.3,8.1,8.2C44.7,195.2,44.7,195.2,44.2,197.1z
		 M44.3,199.5c0,0.6,0,1.1,0,1.7c-7.1-1.4-14.8-9.2-16.2-16.2c0.6,0,1.1,0,1.7,0C34.2,193.8,36,195.6,44.3,199.5z M7.3,199.6
		c0.3-0.2,0.6-0.3,0.9-0.5c6.2-2.5,10.6-6.8,13.1-13c0.6-1.4,0.6-1.4,2.2-1c-1,6.3-8.5,14.6-16.2,16.2
		C7.3,200.7,7.3,200.2,7.3,199.6z M8.6,194.4c3.5-1.9,6.3-4.6,8.1-8.1c0.8-1.6,0.8-1.6,2.9-1.2c-1.6,5.4-7.7,11.4-12.2,12.1
		C7,195.2,7,195.2,8.6,194.4z M8.7,203.2c5.5-1.9,10.1-5.2,13.4-10.1c1.3-1.9,2.1-4,3.2-6c0.2-0.4,0.3-0.7,0.7-1.4
		c1.6,4.6,3.9,8.4,7.2,11.6c3.3,3.1,7.1,5.2,11.4,6.5c0,0.2,0,0.3,0,0.5c-1.4,0.6-2.8,1-4.1,1.7c-1.3,0.6-2.6,1.3-3.8,2.2
		c-1.3,0.8-2.4,1.8-3.5,2.9c-1.1,1-2,2.1-2.9,3.3c-0.9,1.2-1.7,2.5-2.4,3.9c-0.7,1.3-1.2,2.6-1.9,4.3c-3.3-9.2-9.5-15.1-18.6-18
		C7.5,203.4,8.1,203.4,8.7,203.2z M7.3,206.9c5.8,0.2,15.6,9.9,16.1,16c-1.6,0.3-1.6,0.3-2.2-1c-2.5-6.1-6.8-10.3-12.8-12.8
		C7.1,208.5,7.1,208.5,7.3,206.9z M8.6,213.7c-0.5-0.3-0.9-0.5-1.4-0.7c0-0.8,0-1.4,0-2.1c5,1.1,11.2,7.3,12.1,12.1
		c-2,0.4-2,0.4-2.8-1.2C14.8,218.2,12.1,215.6,8.6,213.7z M7.2,231.1c0.1-1.9-0.3-3.6-1.4-5.2c-0.1-0.2-0.2-0.4-0.3-0.5
		c0.1-0.1,0.1-0.2,0.1-0.2c0,0,0.1-0.1,0.1-0.1c0.2,0,0.3-0.1,0.5-0.1c9.7,0,19.3,0,29-0.1c1.3-2,2.4-4,3.7-5.8
		c1.3-1.8,3.1-3.1,5.2-4c0.5,1.7,0.5,1.8-0.8,2.7c-2.9,2-4.8,4.6-5.9,7.9c-0.1,0.4-0.3,0.8-0.5,1.4c-3.1,0-6.3,0-9.4,0
		c-3.1,0-6.2,0-9.3,0c-3.1,0-6.2,0-9.5,0c0.8,3.1,0.5,5.8-1.4,8.5c-0.1-0.6-0.2-0.9-0.2-1.3C7.1,233.3,7.1,232.2,7.2,231.1z
		 M8,237.9c2-2,3-4.6,3-7.5c0-0.3,0-0.6,0.1-1.1c4.6-0.1,9.1,0,13.6,0c4.5,0,9.1,0,13.8,0c0.6-3.9,2.2-7.2,5.6-9.6
		c0.3,1.1,0.5,2-0.3,2.8c-2.2,2.2-3.3,4.9-3.3,8c0,0.2-0.1,0.4-0.1,0.8c-1.8,0.3-3.6,0.1-5.5,0.1c-1.8,0-3.6,0-5.4,0
		c-1.8,0-3.7,0-5.5,0c-1.8,0-3.6,0-5.4,0c-1.8,0-3.7,0-5.7,0c-0.6,3.9-2.2,7.3-5.8,9.7C7,239.7,7.1,238.8,8,237.9z M7.2,247.5
		c4.6-2.1,8-5.4,10.1-10.1c0.9,0,1.5,0,2.1,0c-1,5.3-7.8,11.5-12.2,12.2C7.2,249,7.2,248.3,7.2,247.5z M7.2,253.8c0-0.6,0-1.1,0-1.7
		c0.3-0.2,0.7-0.4,1.1-0.5c6.1-2.5,10.4-6.8,12.9-12.9c0.6-1.4,0.6-1.4,2.1-1.1C23.2,243.3,14,252.7,7.2,253.8z M44.3,253.7
		c-6.3-0.6-15.2-9.6-16.2-16.3c0.5,0,1.1,0,1.6-0.1c4.4,8.9,5.9,10.4,14.6,14.7C44.3,252.5,44.3,253.1,44.3,253.7z M43,246.8
		c0.4,0.2,0.9,0.5,1.3,0.7c0,0.7,0,1.4,0,2.1c-4.4-0.5-11-7-12.2-12.1c2-0.3,2-0.3,2.8,1.3C36.8,242.3,39.5,245,43,246.8z
		 M41.2,235.4c-1.7,0-3.3,0-5,0s-3.3,0-5,0c-1.6,0-3.2,0-4.9,0c-1.7,0-3.3,0-5,0c-1.7,0-3.3,0-5,0c-1.6,4.5-4.4,7.9-8.9,10.1
		c0-0.8,0-1.4,0-2.2c3.7-2.2,6.3-5.5,7.3-10c9.4,0,18.7,0,28.1,0c-0.5-3-0.5-5.7,1.5-8.4c0.5,3.7-0.7,7.3,2.1,10.4
		C44.5,235.6,42.8,235.4,41.2,235.4z M51.5,235.3c-2.7-0.1-4.9-2.3-4.9-5c0-2.8,2.3-5,5.1-5s5,2.3,5,5.1
		C56.6,233.2,54.3,235.4,51.5,235.3z M53.5,223.1c-2.4-0.1-4.8,0-6.6,1.7c-0.2-0.1-0.3-0.1-0.3-0.1c0,0-0.1-0.1-0.1-0.1
		c0-0.1-0.1-0.2-0.1-0.3c0-10.1,0-20.1,0-30.3c-4.4-1.7-7.9-4.4-9.9-8.7c1.4-0.6,1.9-0.6,2.4,0.3c2.2,3.5,5.3,5.7,9.2,6.7
		c0.1,0,0.2,0.1,0.4,0.3c0,9.5,0,19.1,0,28.8c4.7-0.5,6.7-0.1,8.3,1.7C55.6,223.1,54.6,223.2,53.5,223.1z M57.3,225.9
		c-0.1-0.2-0.2-0.4-0.3-0.5c0-0.1,0.1-0.2,0.1-0.2c0,0,0.1-0.1,0.1-0.1c0.2,0,0.3-0.1,0.5-0.1c9.7,0,19.4,0,29.1-0.1
		c0,0,0.1,0,0.3-0.1c1.6-4.3,4.3-7.6,8.8-9.8c0,0.9,0,1.5,0,2.1c-4.8,3.8-5.4,4.6-7.4,10.1c-9.3,0-18.6,0-28.1,0
		c0.7,3.1,0.5,5.8-1.4,8.5c-0.1-0.5-0.2-0.9-0.2-1.2c0-1.1,0-2.3,0-3.4C58.9,229.2,58.5,227.5,57.3,225.9z M58.8,253.7
		c0-0.5,0-1,0-1.6c0.4-0.2,0.9-0.4,1.3-0.6c6-2.5,10.2-6.7,12.7-12.7c0.6-1.5,0.6-1.5,2.3-1.2C73.7,244.6,65,253.2,58.8,253.7z
		 M58.8,248.9c0-0.4,0-0.9,0.1-1.3c0.5-0.2,0.9-0.5,1.3-0.7c3.6-1.9,6.3-4.6,8.1-8.1c0.8-1.6,0.8-1.6,3-1.2c-2.4,6-6.4,10-12.3,12.3
		C58.8,249.4,58.8,249.1,58.8,248.9z M95.9,253.6c-5.5,0.2-14.7-8.8-16.3-16.1c0.6,0,1.1,0,1.8,0c1.2,3.4,3,6.4,5.5,9
		c2.5,2.5,5.5,4.3,8.9,5.6C95.9,252.5,95.9,253,95.9,253.6z M94.7,246.9c0.4,0.2,0.8,0.5,1.3,0.7c0,0.7,0,1.4,0,2.1
		c-4.7-0.8-11.2-7.4-12.1-12.1c1.9-0.5,1.9-0.4,2.8,1.1C88.4,242.3,91.1,245,94.7,246.9z M67.8,235.4c-1.2,3.3-3,6.1-5.7,8.2
		c-0.9,0.7-2,1.3-3,2c-0.5-2-0.5-2,0.8-2.9c2.8-1.9,4.8-4.5,5.8-7.7c0.5-1.6,0.5-1.6,2.4-1.6c8.1,0,16.1,0,24.2,0c0.6,0,1.3,0,2.1,0
		c-0.6-3-0.5-5.7,1.4-8.3c0.1,0.5,0.2,0.9,0.2,1.2c0,1.1,0,2.3,0,3.4c-0.1,1.8,0.3,3.4,1.4,4.9c0.2,0.2,0.2,0.5,0.5,0.9
		C87.7,235.4,77.8,235.4,67.8,235.4z M103.1,235.3c-2.8,0-5-2.4-5-5.1c0.1-2.8,2.4-5,5.2-4.9c2.8,0,5,2.3,5,5.1
		C108.2,233.1,105.9,235.4,103.1,235.3z M107.5,223.1c-0.9,0-1.8,0-2.8,0c-3.5,0-3.5,0-6.5,1.7c-0.4-0.6-0.3-1.3-0.3-2
		c0-8.3,0-16.6,0-24.8c0-0.9,0-1.8,0-2.8c0.1-1-0.3-1.6-1.3-1.9c-3.2-1.3-5.7-3.4-7.6-6.3c-0.4-0.6-0.7-1.2-1-1.8
		c1.5-0.6,1.9-0.5,2.5,0.5c2.1,3.3,5.1,5.4,8.8,6.5c0.2,0.1,0.4,0.2,0.8,0.3c0,9.6,0,19.2,0,29c3-0.6,5.7-0.5,8.4,1.4
		C108.1,223,107.8,223.1,107.5,223.1z M111.1,222.6c-2.3-2.3-5.1-3.4-8.3-3.3c-0.2,0-0.3-0.1-0.7-0.1c0-9.5,0-18.8,0-28.2
		c-3.9-0.6-7.2-2.3-9.6-5.7c1-0.4,1.9-0.6,2.6,0.2c2.4,2.4,5.3,3.5,8.6,3.5c0.1,0,0.2,0.1,0.5,0.2c0.1,3,0,6.1,0,9.2
		c0,3.1,0,6.2,0,9.3c0,3.1,0,6.3,0,9.3c1.9,0.7,3.7,1.3,5.4,2.1c1.7,0.8,3.1,2.1,4.2,3.9C112.8,223.1,111.9,223.4,111.1,222.6z
		 M110.6,206.9c6,0.5,14.7,9,16.2,16.1c-0.4,0-0.6,0.1-0.9,0.1c-0.3,0-0.5,0-0.8-0.1c-0.2-0.3-0.3-0.7-0.5-1
		c-2.5-6.1-6.8-10.4-12.9-13C110.3,208.5,110.3,208.5,110.6,206.9z M110.5,210.8c5.4,1.4,11.3,7.8,12,12c-1.9,0.5-1.9,0.5-2.7-1.1
		c-1.8-3.5-4.5-6.2-8-8C110.2,212.9,110.3,212.9,110.5,210.8z M118.2,222.8c-1.6,0.5-1.7,0.5-2.6-0.8c-2-2.9-4.7-4.9-8-6
		c-0.4-0.1-0.8-0.3-1.3-0.5c0-9.6,0-19.2,0-29c-3,0.6-5.8,0.5-8.5-1.5c0.6-0.1,0.9-0.3,1.2-0.3c0.8,0,1.6-0.1,2.4,0
		c2.4,0.3,4.6-0.1,6.5-1.6c0.1,0,0.2,0.1,0.2,0.1c0,0,0.1,0.1,0.1,0.1c0,0.1,0.1,0.2,0.1,0.3c0,10.1,0,20.1,0,30.3
		C114.4,217.1,117,219.5,118.2,222.8z M111.1,170c-2.3-2.3-5.1-3.3-8.4-3.3c-0.2,0-0.3-0.1-0.6-0.2c0-9.3,0-18.7,0-28.2
		c-4-0.7-7.3-2.3-9.7-5.8c1.3-0.2,2.2-0.3,3.1,0.6c2.1,2.1,4.6,3.1,7.6,3.1c0.2,0,0.4,0,0.6,0c0.1,0,0.2,0.1,0.5,0.2
		c0,9.3,0,18.7,0,28.1c2.7,0.4,5.1,1.3,7.1,2.9c0.9,0.8,1.7,1.6,2.4,2.6C112.8,170.5,111.9,170.9,111.1,170z M110.5,154.3
		c7.3,1.7,14.6,9.1,16.2,16.2c-0.6,0-1.2,0-1.8,0c-2.6-7-7.4-11.8-14.4-14.4c0-0.5-0.1-0.8-0.1-1.2
		C110.4,154.7,110.5,154.5,110.5,154.3z M110.6,158.4c4.5,0.8,10.8,6.9,12.1,12.1c-0.8,0-1.4,0-2.2,0c-0.2-0.4-0.5-0.8-0.7-1.2
		c-1.8-3.6-4.6-6.3-8.1-8.1C110.2,160.3,110.2,160.3,110.6,158.4z M116,166.7c0.9,1.1,1.7,2.2,2.3,3.5c-1.8,0.5-1.9,0.5-2.7-0.8
		c-2-2.9-4.6-4.9-7.9-5.9c-0.4-0.1-0.8-0.3-1.4-0.5c0-9.6,0-19.2,0-29c-3.1,0.7-5.8,0.5-8.3-1.3c0-0.2,0-0.3,0.1-0.4
		c1.3,0,2.7-0.1,4,0c2.1,0.2,4-0.2,5.7-1.5c0.1-0.1,0.3-0.1,0.6-0.2c0,10.3,0,20.6,0,30.9C111.4,162.7,114,164.3,116,166.7z
		 M111,117.5c-2.2-2.2-4.9-3.3-8-3.2c-0.2,0-0.4,0-0.9-0.1c0-9.5,0-18.9,0-28.3c-4-0.6-7.3-2.3-9.7-5.8c1.2-0.2,2-0.4,2.8,0.4
		c2.2,2.3,4.9,3.4,8.2,3.4c0.2,0,0.4,0.1,0.9,0.2c0.1,3.1,0,6.2,0.1,9.3c0,3.1,0,6.3,0,9.4c0,3.1,0,6.3,0,9.5c4,0.6,7.2,2.3,9.6,5.7
		C112.7,118.2,111.9,118.3,111,117.5z M110.5,101.8c7,1.3,14.6,8.9,16.2,16.1c-1.7,0.3-1.7,0.3-2.2-1c-2.5-6.3-6.9-10.6-13.2-13.1
		c-0.3-0.1-0.5-0.2-0.8-0.4C110.5,103,110.5,102.4,110.5,101.8z M110.5,105.6c5.9,2.4,9.9,6.3,12.3,12.2c-2.1,0.5-2.2,0.4-3-1.1
		c-1.9-3.6-4.5-6.3-8.1-8.1c-0.3-0.2-0.7-0.3-1-0.5c-0.1,0-0.2-0.1-0.3-0.2C110.5,107.2,110.5,106.6,110.5,105.6z M126.7,79.9
		c-1.2,6.2-8.1,14.5-16.2,16.3c0-0.2-0.1-0.4-0.1-0.6c0-0.4,0-0.7,0.1-1.1c9-4.5,9.9-5.4,14.6-14.6
		C125.6,79.9,126.1,79.9,126.7,79.9z M111.8,89.3c3.5-1.8,6.1-4.5,8-8c0.8-1.6,0.8-1.6,2.7-1.4c-0.1,4-6.9,11.1-12,12.2
		C110.3,90.1,110.2,90.1,111.8,89.3z M116,114.2c0.9,1.1,1.6,2.3,2.4,3.4c-1.6,0.6-2,0.6-2.6-0.3c-2.2-3.3-5.1-5.5-8.9-6.6
		c-0.2-0.1-0.4-0.2-0.7-0.3c0-9.6,0-19.2,0-28.9c-3.1,0.6-5.8,0.5-8.6-1.6c1.3-0.3,2.4-0.3,3.4-0.2c2.5,0.2,5,0.1,7.3-1.9
		c0.1,3,0,5.5,0,8.1c0,2.5,0,5.1,0,7.6c0,2.6,0,5.2,0,7.8c0,2.5,0,5.1,0,7.7C111.4,110.2,114,111.8,116,114.2z M98.2,72.7
		c0-2.7,2.3-5,5.1-5c2.7,0,5.1,2.3,5,5c0,2.7-2.4,5.1-5.1,5.1C100.5,77.8,98.2,75.5,98.2,72.7z M107.4,65.6c-0.9,0-1.7,0-2.6,0
		c-3.3,0-3.6,0.1-6.5,1.8c-0.4-0.6-0.3-1.2-0.3-1.8c0-8.9,0-17.9,0.1-26.8c0-0.4,0-0.8,0-1.1c0.2-1.2-0.3-1.8-1.4-2.3
		c-3.3-1.3-5.9-3.6-7.8-6.6c-0.2-0.4-0.4-0.8-0.6-1.1c-0.1-0.1,0-0.3-0.1-0.6c0.9-0.2,1.7-0.4,2.4,0.6c2.1,3.4,5.1,5.5,8.9,6.6
		c0.2,0,0.3,0.1,0.5,0.2c0,0,0.1,0.1,0.3,0.3c0,9.6,0,19.3,0,29.3c3-0.7,5.7-0.5,8.4,1.4C108,65.5,107.7,65.5,107.4,65.6z M111,64.9
		c-2.2-2.2-4.9-3.2-7.9-3.2c-0.2,0-0.3,0-0.5,0c-0.1,0-0.2-0.1-0.4-0.2c0-9.5,0-18.9,0-28.3c-2-0.8-3.8-1.3-5.5-2.2
		c-1.7-0.8-3-2.2-4.2-3.9c1.2-0.3,2-0.4,2.8,0.4c2.2,2.2,4.9,3.4,8,3.4c0.3,0,0.5,0.1,1,0.1c0.1,9.5,0,19,0.1,28.7
		c4,0.6,7.2,2.3,9.6,5.7C112.7,65.6,111.8,65.8,111,64.9z M110.5,49.4c5.6-0.1,15.1,9.3,16.2,16.1c-0.5,0-1.1,0.1-1.7,0.1
		c-1.2-3.4-3-6.4-5.6-9c-2.5-2.5-5.5-4.3-8.9-5.5C110.5,50.5,110.5,49.9,110.5,49.4z M110.5,37.1c0.4-0.2,0.8-0.4,1.2-0.6
		c3.6-1.9,6.4-4.6,8.2-8.2c0.8-1.6,0.8-1.6,2.8-1.3c-0.5,4.3-6.6,10.6-12.1,12.3c-0.1-0.4-0.1-0.6-0.1-0.9
		C110.4,38,110.4,37.5,110.5,37.1z M111.6,41.1c6.1-2.5,10.4-6.8,12.9-12.9c0.6-1.4,0.6-1.4,2.1-1.2c0,5.7-9.4,15.3-16.2,16.3
		c0-0.5,0-1.1-0.1-1.6C110.8,41.4,111.2,41.2,111.6,41.1z M110.6,53.4c4.6,0.9,10.8,6.9,12.1,12.1c-0.4,0-0.7,0-1.1,0.1
		c-0.8,0.1-1.2-0.3-1.6-1c-0.9-1.6-1.9-3.1-3.1-4.5c-1.4-1.7-3.2-2.9-5.1-3.9C110.2,55.3,110.2,55.3,110.6,53.4z M103.2,14.8
		c2.8,0,5.1,2.2,5.1,5c0,2.7-2.3,5.1-5,5.1c-2.7,0-5.1-2.3-5.1-5C98.2,17.1,100.4,14.8,103.2,14.8z M102,26.9c2.1,0.2,4-0.2,5.7-1.4
		c0.1-0.1,0.3-0.1,0.6-0.2c0,10.4,0,20.8,0,31.3c4.4,1.7,8,4.4,10.1,8.7c-1.8,0.5-1.9,0.5-2.7-0.8c-2-3-4.8-4.9-8.2-6
		c-0.3-0.1-0.6-0.2-1.1-0.3c0-9.8,0-19.5,0-29.4c-4.5,0.6-6.8,0.1-8.4-1.8C99.4,26.9,100.7,26.7,102,26.9z M97.9,24.9
		c-10.2,0-20.1,0-30,0c-3,6-5.7,8.9-9,9.9c-0.3-1.1-0.2-2,1-2.7c2.9-1.9,4.9-4.6,5.9-7.9c0.1-0.4,0.3-0.8,0.5-1.4c4.7,0,9.3,0,14,0
		c4.6,0,9.3,0,14.1,0c-0.7-3-0.5-5.7,1.4-8.3c0.1,0.5,0.2,0.9,0.3,1.2c0,1.1,0,2.3,0,3.4c0,1.8,0.4,3.5,1.4,5
		C97.6,24.3,97.7,24.5,97.9,24.9z M95.5,12c-2.2,2.1-3.2,4.7-3.3,7.7c0,0.3-0.1,0.6-0.2,1.1c-9.1,0-18.1,0-27.3,0
		c-0.6,4.1-2.3,7.4-5.8,9.8c-0.1-1.1-0.4-2,0.4-2.8c2.3-2.3,3.4-5.1,3.4-8.4c0-0.2,0-0.3,0.1-0.6c9.1,0,18.1,0,27.1,0
		c0.7-1.9,1.3-3.7,2.1-5.4c0.8-1.7,2.1-3.1,3.9-4.2C96.1,10.3,96.3,11.2,95.5,12z M96-3.6c0,0.5,0,1.1,0.1,1.7
		c-3.3,1.3-6.4,3-8.9,5.5c-2.5,2.5-4.3,5.5-5.6,8.9c-0.6,0-1.1,0-1.7,0C80.1,6.7,89.4-2.7,96-3.6z M94.6,3.2
		c-3.9,2.1-6.7,5.2-8.6,9.3c-0.7,0-1.4,0-2.4,0C86,6.6,90,2.6,95.8,0.2C96.2,2.4,96.2,2.4,94.6,3.2z M58.9-3.7
		C64.8-2.5,73,4,75.2,12.5c-0.3,0-0.5,0.1-0.7,0.1c-0.3,0-0.6,0-1.1-0.1C70.8,5.5,66,0.7,58.9-1.9C58.9-2.5,58.9-3.1,58.9-3.7z
		 M58.9,2.6c0-0.8,0-1.5,0-2.4c6,2.4,10,6.4,12.4,12.4c-0.9,0-1.6,0-2.4,0C66.8,7.9,63.4,4.6,58.9,2.6z M67.1,14.5
		c3.3,0,6.6,0,9.9,0c3.3,0,6.7,0,10.2,0c1.7-4.4,4.4-7.8,8.7-9.9c0.3,1.3,0.3,2.1-0.8,2.8c-3,1.9-5,4.7-6.1,8.2
		c-0.1,0.3-0.3,0.7-0.4,1.2c-9.3,0-18.6,0-28.2,0c0.6,2.2,0.7,4.1-0.1,6c-0.3,0.8-0.7,1.5-1.1,2.3c-0.1,0-0.2,0-0.4-0.1
		c0-0.5-0.1-0.9-0.1-1.3c0-1,0-2,0-3.1c0.1-1.9-0.3-3.5-1.4-5c-0.2-0.2-0.2-0.5-0.5-0.9C60.4,14.5,63.7,14.6,67.1,14.5z M51.7,14.8
		c2.8,0,5,2.3,5,5c0,2.7-2.3,5.1-5,5.1c-2.7,0-5.1-2.4-5-5.1C46.6,17,48.9,14.8,51.7,14.8z M46.4,26.9c1.1,0,2.2-0.1,3.3,0
		c2.4,0.3,4.7,0,7-1.9c0,1,0.1,1.6,0.1,2.2c0,8.9,0,17.9,0,26.8c0,0.4,0,0.8,0,1.1c-0.1,1.1,0.3,1.7,1.4,2.2c3.5,1.4,6.1,3.8,8,7
		c0.2,0.3,0.3,0.7,0.5,1.1c-1.4,0.5-2.2,0.1-2.9-1c-1.8-2.8-4.4-4.7-7.6-5.7c-0.5-0.2-0.9-0.3-1.6-0.5c0-2.4,0-4.8,0-7.2
		c0-2.5,0-5,0-7.5c0-2.4,0-4.9,0-7.3s0-4.9,0-7.5c-3,0.5-5.8,0.6-8.2-1.4C46.4,27.1,46.4,27,46.4,26.9z M46,24.3
		c0.1,0.1,0.1,0.3,0.2,0.7c-5.1,0-10.1,0-15.1,0s-9.9,0-14.9,0c-2.8,5.8-5.8,9.1-9,9.8c-0.4-1.2-0.1-2,1-2.7
		c2.9-1.8,4.8-4.5,5.8-7.7c0.2-0.5,0.3-0.9,0.5-1.5c9.3,0,18.6,0,28.1,0c-0.5-3-0.6-5.7,1.5-8.4c0.1,0.6,0.2,0.9,0.3,1.2
		c0,1,0.1,2.1,0,3.1C44.3,20.8,44.8,22.6,46,24.3z M44,11.8c-2.3,2.3-3.4,5.1-3.4,8.3c0,0.2-0.1,0.3-0.2,0.6c-9,0-18.1,0-27.3,0
		c-0.6,4.1-2.3,7.4-5.8,9.8C7,29.3,7,28.4,7.9,27.5c2-2,3-4.6,3.1-7.4c0-0.4,0-0.7,0.1-1.3c9.1,0,18.2,0,27.4,0
		c0.6-4,2.3-7.2,5.7-9.6C44.6,10.2,44.8,11,44,11.8z M44.3-3.6c0.4,1.6,0.4,1.6-1,2.2c-6.2,2.5-10.5,6.9-12.9,13
		c-0.1,0.3-0.3,0.6-0.5,1c-0.4,0-0.8,0-1.1,0c-0.2,0-0.4-0.1-0.6-0.1C29.1,6,38.1-2.9,44.3-3.6z M43.3,3.1c-3.7,1.9-6.5,4.7-8.3,8.4
		c-0.2,0.3-0.3,0.7-0.6,1.1c-0.8,0-1.4,0-2.1,0c0.4-4.4,7.3-11.3,12-12.1C44.7,2.3,44.7,2.4,43.3,3.1z M7.3-3.6
		c5.7,0.1,15,9.2,16.2,16.1c-0.6,0-1.2,0-1.7,0c-0.2-0.4-0.4-0.8-0.5-1.2c-2.5-6-6.8-10.3-12.8-12.8C7.1-2,7.1-2,7.3-3.6z M13.2,6.6
		c-1.8-1.6-3.9-2.9-6-4.4c0-0.4,0-1,0-1.6c3.8,0.2,11.1,6.6,12.2,12c-0.3,0-0.5,0.1-0.8,0.1c-0.4,0-0.9,0-1.4-0.1
		C16.3,10.3,15,8.2,13.2,6.6z M20.5,14.5c5,0,9.9,0,15,0c1.7-4.5,4.4-7.8,8.6-9.9c0.5,1.6,0.5,1.9-0.4,2.5c-3.4,2.2-5.5,5.2-6.6,9.1
		c0,0.1-0.1,0.2-0.3,0.5c-2.2,0.1-4.5,0-6.8,0c-2.4,0-4.8,0-7.1,0c-2.3,0-4.7,0-7,0s-4.6,0-7.2,0c0.7,3,0.5,5.8-1.6,8.2
		c0-0.6-0.1-1.1-0.1-1.7c0-0.8-0.1-1.6,0-2.4c0.2-2-0.3-3.9-1.6-5.6c-0.1-0.1-0.1-0.3-0.2-0.7C10.5,14.5,15.5,14.6,20.5,14.5z"/>
</g>
<g>
	<path class="st3" d="M155.8,36.8v7.7c12.8,4.1,24.5,11.1,34.2,20.9c9.7,9.8,16.8,21.4,20.9,34.2H203c-7.8-22-25.2-39.4-47.2-47.3
		v7.8c8.8,3.5,16.9,8.8,23.8,15.6s12.2,15,15.6,23.8h-8.1c-6.3-13.9-17.5-25.1-31.3-31.3c-2.4-1.1-4.9-2-7.4-2.8v-38
		c2.5,0.5,5,1,7.4,1.7c16.7,4.5,32.1,13.2,44.6,25.8c12.6,12.6,21.4,27.9,25.8,44.6h-7.7C209.7,69.4,185.9,45.6,155.8,36.8"/>
	<path class="st3" d="M41.3,99.5H49C53,86.7,60.1,75,69.9,65.3c9.7-9.7,21.4-16.8,34.2-20.9v7.8c-22,7.8-39.4,25.3-47.3,47.3h7.8
		c3.5-8.8,8.8-16.9,15.6-23.8c6.9-6.9,15-12.2,23.8-15.6v8.1C90.2,74.4,79,85.6,72.7,99.5c-1.1,2.4-2,4.9-2.8,7.4h-38
		c0.5-2.5,1-5,1.7-7.4C38,82.7,46.8,67.4,59.4,54.8S87.3,33.5,104.1,29v7.7C73.9,45.6,50.1,69.4,41.3,99.5"/>
	<path class="st3" d="M111.4,185.3v38c-2.5-0.5-5-1-7.4-1.7c-16.7-4.4-32.1-13.2-44.6-25.8c-12.6-12.6-21.4-27.9-25.8-44.7h7.7
		c8.8,30.1,32.6,53.9,62.7,62.7v-7.7c-12.8-4.1-24.5-11.1-34.2-20.9S53,163.9,48.9,151.2h7.8c7.8,22,25.2,39.4,47.2,47.3v-7.8
		c-8.8-3.5-16.9-8.8-23.8-15.6c-6.9-6.9-12.2-15-15.6-23.8h8.1C79,165,90.2,176.2,104,182.5C106.4,183.6,108.9,184.5,111.4,185.3"/>
	<path class="st3" d="M126.2,173.2v57.5h-7.4v-51.1c-2.5-0.5-5-1.2-7.4-2c-2.5-0.9-5-2-7.4-3.2c-9.8-5.2-17.9-13.3-23.1-23.1h8.5
		c3.8,5.8,8.7,10.8,14.6,14.6c2.3,1.5,4.8,2.8,7.4,3.9c2.4,1,4.8,1.8,7.4,2.4C121.2,172.6,123.7,173,126.2,173.2"/>
	<path class="st3" d="M161.2,99.5h-10.4c-0.8-0.6-1.6-1.2-2.4-1.8c-2.3-1.5-4.7-2.8-7.4-3.7c-2.4-0.8-4.8-1.4-7.4-1.7
		c-1.2-0.1-2.4-0.2-3.7-0.2s-2.5,0.1-3.7,0.2c-2.6,0.3-5,0.9-7.4,1.7V12.6h7.4v72.3c1.2-0.1,2.4-0.2,3.7-0.2s2.5,0.1,3.7,0.2
		c2.5,0.2,5,0.7,7.4,1.4c2.6,0.7,5,1.7,7.4,2.9c2.7,1.4,5.1,3,7.4,4.9C157.7,95.7,159.6,97.5,161.2,99.5"/>
	<path class="st3" d="M178.9,99.5h-8.5c-3.8-5.8-8.7-10.8-14.6-14.6c-2.3-1.5-4.8-2.8-7.4-3.9c-2.4-1-4.8-1.8-7.4-2.4
		c-2.4-0.6-4.9-1-7.4-1.1V20h7.4v51.1c2.5,0.5,5,1.2,7.4,2c2.5,0.9,5,2,7.4,3.2C165.6,81.6,173.7,89.7,178.9,99.5"/>
	<path class="st3" d="M242.6,114.3v7.4h-72.3c0.1,1.2,0.2,2.4,0.2,3.7c0,1.3-0.1,2.5-0.2,3.7c-0.2,2.5-0.7,5-1.4,7.4
		c-0.7,2.6-1.7,5-2.9,7.4c-1.4,2.7-3,5.1-4.9,7.4c-1.6,2-3.5,3.8-5.4,5.4v-10.4c0.6-0.8,1.2-1.6,1.7-2.4c1.5-2.3,2.8-4.7,3.7-7.4
		c0.8-2.4,1.4-4.8,1.7-7.4c0.1-1.2,0.2-2.5,0.2-3.7c0-1.3-0.1-2.5-0.2-3.7c-0.3-2.6-0.9-5-1.7-7.4
		C161.3,114.3,242.6,114.3,242.6,114.3z"/>
	<path class="st3" d="M235.3,129.1v7.4h-51.1c-0.5,2.5-1.2,5-2,7.4c-0.9,2.5-2,5-3.3,7.4c-5.2,9.8-13.3,17.9-23.1,23.1v-8.5
		c5.8-3.8,10.8-8.7,14.6-14.6c1.5-2.3,2.8-4.8,3.9-7.4c1-2.4,1.8-4.8,2.4-7.4c0.6-2.4,1-4.9,1.2-7.4
		C177.8,129.1,235.3,129.1,235.3,129.1z"/>
	<path class="st3" d="M227.9,143.8c-0.5,2.5-1,5-1.7,7.4c-4.5,16.7-13.2,32.1-25.8,44.6c-12.6,12.6-27.9,21.4-44.6,25.8v-7.7
		c30.1-8.8,53.9-32.6,62.7-62.7h-7.7c-4.1,12.8-11.1,24.4-20.9,34.2c-9.8,9.7-21.4,16.8-34.2,20.9v-7.8c22-7.8,39.4-25.2,47.2-47.2
		h-7.8c-3.5,8.8-8.8,16.9-15.6,23.7c-6.9,6.9-15,12.2-23.8,15.6v-8.1c13.9-6.3,25-17.5,31.3-31.3c1.1-2.4,2-4.9,2.8-7.4
		C189.9,143.8,227.9,143.8,227.9,143.8z"/>
	<path class="st3" d="M155.8,125.4v120.1h-7.4V125.4c0-10.2-8.3-18.4-18.4-18.4H148C152.8,111.6,155.8,118.1,155.8,125.4"/>
	<path class="st3" d="M250,99.5v7.4H129.9c-10.2,0-18.4,8.3-18.4,18.4v-18.1c4.7-4.8,11.2-7.8,18.4-7.8H250z"/>
	<path class="st3" d="M148.4,125.4v18.1c-4.7,4.8-11.2,7.8-18.4,7.8H9.8v-7.4h120.1C140.1,143.8,148.4,135.5,148.4,125.4"/>
	<path class="st3" d="M129.9,143.8h-18.1c-4.8-4.7-7.8-11.2-7.8-18.4V5.3h7.4v120.1C111.5,135.5,119.7,143.8,129.9,143.8"/>
	<path class="st3" d="M141,156.7v81.4h-7.4v-72.3c-1.2,0.1-2.4,0.2-3.7,0.2c-1.3,0-2.5-0.1-3.7-0.2c-2.5-0.2-5-0.7-7.4-1.4
		c-2.6-0.7-5-1.7-7.4-2.9c-2.6-1.4-5.1-3-7.4-4.9c-2-1.6-3.8-3.5-5.5-5.5h10.4c0.8,0.6,1.6,1.2,2.4,1.8c2.3,1.5,4.7,2.8,7.4,3.7
		c2.4,0.8,4.8,1.4,7.4,1.7c1.2,0.1,2.4,0.2,3.7,0.2c1.3,0,2.5-0.1,3.7-0.2C136.2,158.1,138.6,157.5,141,156.7"/>
	<path class="st3" d="M104.1,76.4v8.5c-5.8,3.8-10.8,8.7-14.6,14.6c-1.5,2.3-2.8,4.8-3.9,7.4c-1,2.4-1.8,4.8-2.4,7.4
		c-0.6,2.4-0.9,4.9-1.1,7.4H24.5v-7.4h51.1c0.5-2.5,1.2-5,2-7.4c0.9-2.5,2-5,3.3-7.4C86.1,89.7,94.2,81.6,104.1,76.4"/>
	<path class="st3" d="M104.1,94v10.4c-0.6,0.8-1.2,1.6-1.8,2.4c-1.5,2.3-2.8,4.7-3.7,7.4c-0.8,2.4-1.4,4.8-1.7,7.4
		c-0.1,1.2-0.2,2.4-0.2,3.7s0.1,2.5,0.2,3.7c0.3,2.6,0.9,5,1.7,7.4H17.2V129h72.3c-0.1-1.2-0.2-2.5-0.2-3.7c0-1.2,0.1-2.5,0.2-3.7
		c0.2-2.5,0.7-5,1.4-7.4c0.7-2.6,1.7-5,2.9-7.4c1.4-2.6,3-5.1,4.9-7.4C100.3,97.5,102.1,95.7,104.1,94"/>
</g>
</svg>
