<?xml version="1.0" encoding="utf-8"?>
<!-- Generator: Adobe Illustrator 25.4.1, SVG Export Plug-In . SVG Version: 6.00 Build 0)  -->
<svg version="1.1" id="Capa_1" xmlns="http://www.w3.org/2000/svg" xmlns:xlink="http://www.w3.org/1999/xlink" x="0px" y="0px"
	 viewBox="0 0 250 250" style="enable-background:new 0 0 250 250;" xml:space="preserve">
<style type="text/css">
	.st0{fill:#FFFFFF;}
	.st1{opacity:0.1;}
	.st2{fill:#004947;}
</style>
<rect x="-1.5" y="-1.5" class="st0" width="253" height="253"/>
<g class="st1">
	<path class="st2" d="M0.3,11.7c1.8,0.7,3.6,1.3,5.2,2c1.6,0.8,2.9,2,4,3.7c-1.3,0.3-2.2,0.2-3.1-0.7c-1.9-1.8-4.2-2.7-7-2.8
		c-0.1,0.5-0.1,1-0.2,1.5C1,16,2.9,16.1,4.5,17.6c-1.9,0-3.4,0-5.1,0c0,0.7,0,1.3,0,1.9C2.5,20.4,4,21.9,4,24.3
		c0.1,2.6-1.2,4.1-4.7,5.2c0,0.5,0,1.1,0,1.7c1.8,0.3,3.1-0.6,4.5-1.5c0.6,0.6,0.3,1.2,0.3,1.8c0,8,0,15.9,0,23.9c0,1.4,0,2.8,0,4.3
		c4.2,1.6,7.5,4.2,9.5,8.2c-1.7,0.5-1.8,0.5-2.6-0.7c-1.9-2.8-4.4-4.7-7.6-5.6c-1.6-0.5-1.4-0.7-1.4-1.9c0-8.2,0-16.5,0-24.7
		c0-0.6,0-1.2,0-2c-1,0.1-1.8,0.3-2.7,0.4c-0.2,0.7-0.4,1.4,0.5,1.7c0.2,0.1,0.3,0.5,0.4,0.8c0.1,0.4,0,0.8,0,1.2
		c0,7.9,0,15.7,0,23.6c0,0.6,0,1.1,0,1.9c3.8,0.6,6.9,2.2,9.2,5.5c-1.4,0.3-2.3,0.2-3.2-0.7c-1.9-1.8-4.2-2.7-7-2.8
		c0,0.6,0,1.1-0.1,1.6c1.8,0.4,3.5,0.6,5.1,1.9c-1.8,0.3-3.3,0-5,0.2c0,0.6,0,1.2,0,1.8C2.6,71,4,72.5,4,74.9c0.1,2.6-1.2,4-4.7,5.2
		c0,0.5,0,1.1,0,1.6c1.8,0.3,3.2-0.6,4.5-1.5c0.5,0.6,0.3,1.2,0.3,1.8c0,8.6,0,17.2,0,25.8c0,0.7,0,1.3,0,2c4.3,1.6,7.4,4.2,9.5,8.2
		c-1.3,0.6-1.8,0.6-2.3-0.3c-2.1-3.2-4.9-5.3-8.6-6.3c-0.2-0.1-0.4-0.2-0.7-0.3c0-9.2,0-18.3,0-27.6c-1,0.2-1.8,0.3-2.6,0.4
		c-0.2,0.7-0.5,1.3,0.4,1.7c0.2,0.1,0.4,0.5,0.4,0.7c0.1,0.4,0,0.8,0,1.2c0,7.7,0,15.4,0,23.1c0,0.6,0,1.2,0,2
		c2.9,0.5,5.4,1.5,7.5,3.5c0.6,0.6,1.1,1.2,1.7,2c-1.3,0.4-2.2,0.3-3-0.6c-1.9-1.9-4.2-2.9-7.1-2.8c0,0.6,0,1.1,0,1.6
		c1.7,0.3,3.4,0.5,5,1.9c-1.9,0.1-3.4,0.1-5.1,0.2c0,0.6,0,1.1,0,1.7c0.3,0.1,0.5,0.2,0.8,0.3c2.5,0.7,4,2.5,3.9,4.9
		c-0.1,2.3-1.6,4-4.1,4.6c-0.1,0-0.3,0.1-0.6,0.1c0,0.6,0,1.2,0,1.7c1.3,0.2,1.3,0.2,4.7-1.4c0.2,2,0.1,3.9,0.1,5.9c0,2,0,3.9,0,5.9
		s0,3.9,0,5.9s0,3.9,0,5.9c0,2,0,3.9,0,6c4.2,1.6,7.5,4.2,9.5,8.2c-1.8,0.5-1.8,0.5-2.7-0.8c-1.9-2.7-4.3-4.6-7.4-5.5
		c-0.4-0.1-0.9-0.3-1.5-0.5c0-9.2,0-18.4,0-27.7c-1,0.1-1.8,0.3-2.7,0.4c-0.1,0.7-0.5,1.4,0.5,1.7c0.2,0.1,0.3,0.4,0.3,0.6
		c0.1,0.4,0,0.8,0,1.2c0,7.8,0,15.6,0,23.4c0,0.6,0,1.1,0,1.8c2.8,0.4,5.2,1.3,7.2,3.2c0.7,0.6,1.3,1.4,2.1,2.2
		c-1.4,0.3-2.3,0.2-3.2-0.7c-1.9-1.8-4.2-2.7-7-2.8c-0.1,0.5-0.1,0.9-0.1,1.5c1.7,0.5,3.5,0.6,5.2,2.1c-1.9,0-3.4,0-5.1,0
		c0,0.8,0,1.3,0,2c1.6,0.3,3.1,0.9,4,2.4c0.6,0.9,0.8,1.9,0.7,2.9c-0.1,2.3-1.6,3.8-4.7,4.6c0,0.6,0,1.1,0,1.8
		c0.9,0.1,1.7-0.1,2.4-0.4c0.7-0.3,1.4-0.7,2.4-1.3c0,3.4,0,6.7,0,9.9c0,3.3,0,6.6,0,9.9c0,3.3,0,6.5,0,9.8c4.2,1.6,7.5,4.2,9.5,8.3
		c-1.7,0.5-1.8,0.5-2.6-0.7c-2-2.9-4.6-4.8-8-5.9c-0.3-0.1-0.7-0.3-1.1-0.5c0-9.2,0-18.3,0-27.6c-1,0.2-1.8,0.3-2.7,0.5
		c-0.1,0.7-0.4,1.4,0.6,1.8c0.2,0.1,0.3,0.6,0.3,0.9c0,1.2,0,2.5,0,3.7c0,6.8,0,13.7,0,20.5c0,0.6,0,1.1,0,1.8
		c3.7,0.7,7,2.1,9.2,5.5c-1.3,0.3-2.1,0.2-3-0.6c-2.1-2-4.6-2.9-7.1-2.8c0,0.5,0,0.9-0.1,1.5c1.8,0.4,3.5,0.5,5.1,2
		c-1.8,0-3.4,0-5,0c0,0.7,0,1.3,0,2c1.5,0.2,2.8,0.8,3.7,2c0.6,0.8,0.9,1.7,0.9,2.7c0,2.6-1.2,3.9-4.7,5.2c0,0.3-0.1,0.6-0.1,0.9
		c0,0.2,0.1,0.5,0.1,0.8c1.8,0.3,3.1-0.7,4.5-1.5c0.5,0.6,0.3,1.2,0.3,1.8c0,5.8,0,11.7,0,17.5H7c0,0,0,0,0.1,0
		c7.9-2.7,13.4-8,16.3-15.8c0.1-0.2,0.2-0.4,0.3-0.6c0,0,0.1-0.1,0.3-0.2c0.2,0.4,0.3,0.7,0.4,1.1c2.9,7.5,8.2,12.6,15.8,15.4
		c0.2,0.1,0.4,0.1,0.7,0.2h2.8c0-3,0-6,0-9c-5.4-2.5-8.4-5.3-9.4-8.5c1.6-0.4,1.6-0.4,2.5,0.8c1.9,2.8,4.5,4.7,7.7,5.7
		c0.4,0.1,0.8,0.3,1.3,0.5c0,3.5,0,7,0,10.5h1.9c0-4,0-8,0-12c-3.9-0.6-7-2.2-9.3-5.5c1.3-0.3,2.1-0.3,3,0.6c1.9,2,4.3,2.9,7.1,3
		c0.2,0,0.5,0,0.8,0.1c0.1,0,0.2,0.1,0.4,0.2c0,4.6,0,9.1,0,13.7h1.9c0-5.3,0-10.7,0-16c-2.9,0.6-5.5,0.5-8.1-1.5
		c0.6-0.1,0.9-0.2,1.2-0.2c0.9,0,1.8-0.1,2.6,0c2.2,0.2,4.2-0.1,6.1-1.7c0.1,0.5,0.2,0.8,0.2,1.1c0,6.1,0,12.2,0,18.3h2.8
		c0.1,0,0.2-0.1,0.3-0.1c7.7-2.7,13-7.8,15.9-15.4c0.1-0.3,0.3-0.7,0.4-1.1c0.7,0.2,0.7,0.9,0.8,1.4c2.8,6.9,7.6,11.7,14.4,14.5
		c0.6,0.2,1.2,0.4,1.8,0.6h2.8c0-2.4,0-4.7,0-7.1c0-0.7,0-1.3,0-2c-4.3-1.6-7.5-4.2-9.5-8.3c1.5-0.5,1.8-0.5,2.4,0.5
		c2,3.1,4.8,5.2,8.4,6.2c0.2,0.1,0.4,0.2,0.7,0.3c0,3.5,0,6.9,0,10.5h1.8c0-4,0-7.9,0-12c-3.8-0.6-6.9-2.2-9.2-5.5
		c1.1-0.2,1.9-0.5,2.7,0.3c2.2,2.2,4.8,3.3,7.9,3.3c0.1,0,0.3,0.1,0.6,0.1c0,0.6,0.1,1.3,0.1,1.9c0,4,0,7.9,0,11.9h1.8
		c0-5.3,0-10.7,0-16.1c-2.9,0.6-5.5,0.5-7.8-1.2c0-0.1,0-0.2,0-0.4c0.9,0,1.8-0.1,2.7,0c2.4,0.1,4.9,0.2,7.1-1.9
		c0.2,2.4,0.1,4.3,0.1,6.3c0,2,0,3.9,0,5.9c0,2,0,4,0,6c0,0.4,0,0.9,0,1.3h2.9c0.1,0,0.3-0.1,0.4-0.1c7.3-2.6,12.4-7.4,15.4-14.4v-5
		c-2.7,0-5.4,0-8.2,0c-1.5,4.2-4.2,7.5-8.3,9.6c-0.5-1.7-0.4-1.9,0.5-2.5c3.1-2,5.1-4.8,6.1-8.3c0.1-0.2,0.1-0.4,0.3-0.9
		c3.2,0,6.4,0,9.6,0v-1.9c-3.7,0-7.4,0-11.1,0c-0.4,2.9-1.4,5.5-3.4,7.6c-0.6,0.6-1.2,1.3-2.1,1.6c-0.3-1.2-0.2-2,0.7-2.9
		c1.7-1.7,2.6-3.8,2.8-6.2c0.1-0.6,0.1-1.2,0.2-2c4.3,0,8.6,0,12.9,0v-1.9c-4.4,0-8.8,0-13.1,0c-0.6,0-1.2,0-1.8,0
		c0,1.5,0.1,2.9,0,4.3c-0.1,1.3-0.5,2.6-1.8,3.9c0-1.5-0.1-2.7,0-3.9c0.2-2.1-0.2-4-1.5-5.7c-0.1-0.1-0.1-0.3-0.2-0.7
		c5.1,0,10.2,0,15.2,0c1.1,0,2.2,0,3.3,0v-4.9c-2.9-6.9-8-11.7-15.2-14.3c-0.5-0.2-1-0.4-1.5-0.6c0.3-0.8,1-0.8,1.4-0.9
		c6.4-2.2,11.2-6.3,14.4-12.3c0.4-0.7,0.7-1.4,0.9-2.1v-5.1c-2.6,0-5.2,0-7.8,0c-1.2,1.9-2.2,3.8-3.5,5.5c-1.3,1.8-3.1,3.1-5.3,4.1
		c-0.3-1.3-0.2-2,0.9-2.7c2.7-1.8,4.6-4.3,5.6-7.4c0.1-0.4,0.3-0.9,0.5-1.5c3.2,0,6.4,0,9.6,0v-1.9c-3.7,0-7.4,0-11.1,0
		c-0.6,4-2.2,7-5.4,9.3c-0.3-1-0.5-1.9,0.3-2.6c2.1-2.1,3.1-4.7,3.2-7.6c0-0.3,0.1-0.6,0.2-1c4.3,0,8.6,0,12.9,0v-1.8
		c-5.1,0-10.1,0-15.2,0c0.7,2.9,0.5,5.5-1.2,7.8c-0.1,0-0.3,0-0.4,0c0-1.1-0.1-2.2,0-3.3c0.2-2.2-0.2-4.2-1.5-6c0-0.1,0-0.2,0-0.5
		c0.6,0,1.2,0,1.8,0c5.5,0,11,0,16.5,0v-5.2c-3.2-7.2-8.8-12.2-16.8-14.7c0-0.1,0-0.3,0-0.4c0.4-0.2,0.8-0.4,1.2-0.5
		c7.4-2.6,12.6-7.4,15.5-14.5v-5c-1.3,0-2.5,0-3.8,0c-1.4,0-2.9,0-4.4,0c-1.6,4.3-4.2,7.5-8.3,9.5c-0.5-1.8-0.5-1.8,0.8-2.7
		c2.8-1.9,4.7-4.5,5.7-7.7c0.1-0.4,0.2-0.7,0.4-1c0,0,0.1-0.1,0.3-0.3c3.1,0,6.2,0,9.4,0v-1.9c-0.6,0-1.2,0-1.8,0
		c-1.5,0-3.1,0-4.7,0s-3.1,0-4.7,0c-0.6,3.9-2.2,6.9-5.5,9.3c-0.2-1.2-0.4-2,0.5-2.9c1.9-1.9,2.9-4.2,3.1-6.9c0-0.5,0.1-0.9,0.1-1.5
		c4.3,0,8.6,0,12.9,0v-1.9c-5.1,0-10.1,0-15.2,0c0.8,2.9,0.6,5.5-1.4,8.2c-0.1-0.7-0.2-1.1-0.2-1.5c0-1.2,0-2.4,0-3.6
		c0-1.8-0.6-3.4-1.7-4.8c0.1-0.2,0.1-0.2,0.1-0.2c0,0,0.1-0.1,0.1-0.1c0.1,0,0.2-0.1,0.3-0.1c6,0,11.9,0,17.9,0v-5
		c-2.9-6.9-8-11.6-15.2-14.3c-0.4-0.2-0.9-0.3-1.3-0.5c-0.1,0-0.1-0.1-0.2-0.2c0.1-0.7,0.7-0.6,1.2-0.8c4.8-1.6,8.8-4.4,11.9-8.3
		c1.5-1.8,2.7-3.9,3.6-6v-5.2c-2.7,0-5.4,0-8.1,0c-1.6,4.3-4.2,7.6-8.5,9.7c0-0.8-0.1-1.4-0.1-2.1c3.6-2.1,6-5.3,7.1-9.6
		c1.9-0.1,3.8,0,5.6,0c1.3,0,2.7,0,4,0V76c-3.7,0-7.3,0-11,0c-1.2,4.9-2.6,7.3-5.5,9.2c-0.3-0.9-0.5-1.8,0.2-2.5
		c2.2-2.2,3.2-4.9,3.3-8c0-0.2,0.1-0.4,0.1-0.7c4.3,0,8.6,0,12.9,0v-1.8c-4.4,0-8.8,0-13.2,0c-0.6,0-1.2,0-2,0
		c0.7,3,0.5,5.5-1.5,7.8c0-0.9-0.1-1.7-0.1-2.6c0.1-2.5,0.1-5-1.7-6.9c0.1-0.2,0.1-0.2,0.2-0.3c0,0,0.1-0.1,0.1-0.1
		c0.2,0,0.4-0.1,0.6-0.1c5.9,0,11.7,0,17.6,0v-4.9c-3-6.9-8.1-11.7-15.4-14.3c-0.5-0.2-1.4-0.1-1.4-1c0-0.9,0.9-0.8,1.4-0.9
		c7.3-2.6,12.3-7.4,15.3-14.3v-5.2c-2.7,0-5.4,0-8.1,0c-1.6,4.4-4.2,7.6-8.4,9.6c-0.5-1.8-0.5-1.8,0.8-2.6c2.7-1.8,4.6-4.3,5.6-7.4
		c0.1-0.4,0.3-0.9,0.5-1.5c3.2,0,6.4,0,9.6,0v-1.9c-1.8,0-3.6,0-5.5,0c-1.9,0-3.7,0-5.6,0c-0.6,3.9-2.2,7-5.4,9.3
		c-0.3-1-0.5-1.9,0.2-2.6c2.3-2.2,3.3-5,3.3-8.1c0-0.1,0.1-0.3,0.1-0.6c4.3,0,8.6,0,12.9,0v-1.8c-4.5,0-8.9,0-13.4,0
		c-0.6,0-1.1,0-1.7,0c0.3,4.8,0.1,5.9-1.5,8c-0.1-0.5-0.2-0.9-0.2-1.2c0-0.9-0.1-1.8,0-2.6c0.2-2-0.2-3.9-1.5-5.5
		c-0.1-0.1-0.1-0.3-0.2-0.7c2.1-0.1,4.1,0,6,0c2,0,4,0,6,0s4,0,6,0c0.1,0,0.2,0,0.3,0v-4.9c-2.9-6.9-8-11.6-15.2-14.3
		c-0.2-0.1-0.4-0.2-0.6-0.2h-2.9c0,3,0,6,0,9.1c4.3,1.6,7.6,4.2,9.6,8.4c-1.3,0.4-2.1,0.2-2.8-0.9c-1.8-2.8-4.3-4.6-7.4-5.6
		c-0.4-0.1-0.8-0.3-1.2-0.4c0,0-0.1-0.1-0.2-0.3c0-3.4,0-6.8,0-10.3h-1.9c0,4,0,8,0,12c2.8,0.4,5.3,1.4,7.4,3.3
		c0.7,0.6,1.3,1.2,1.8,2.2c-1.1,0.1-2,0.3-2.8-0.5c-2-2-4.5-3-7.4-3.1c-0.2,0-0.5,0-0.9-0.1c-0.2-1.8-0.1-3.6-0.1-5.4
		c0-1.8,0-3.6,0-5.4c0-1,0-2,0-3.1h-1.9c0,5.3,0,10.7,0,16.1c3-0.8,5.6-0.5,7.9,1.4c-0.3,0-0.7,0.1-1,0.1c-1.1,0-2.2,0-3.3,0
		c-2.1,0-2.1,0-5.6,1.7c0-6.5,0-12.9,0-19.3h-2.8c-8,2.7-13.5,8.1-16.5,16c-0.1,0.1-0.1,0.3-0.2,0.4c0,0-0.1,0.1-0.4,0.2
		c-1.5-4.2-3.7-7.8-6.9-10.8C63.3,3.1,60,1.3,56.2,0h-2.8c0,3,0,6,0,9.1c3,1.1,5.5,2.7,7.5,5.1c0.8,1,1.6,2,2,3.3
		c-1.8,0.4-1.8,0.4-2.6-0.8c-1.9-2.7-4.4-4.6-7.5-5.6c-0.4-0.1-0.9-0.3-1.4-0.5c0-3.5,0-7,0-10.5h-1.8c0,4,0,8,0,12
		c3.8,0.6,6.9,2.2,9.2,5.5c-1.1,0.2-2,0.4-2.8-0.4c-2.1-2.1-4.6-3.1-7.5-3.1c-0.2,0-0.5-0.1-0.9-0.1c-0.1-3,0-6,0-8.9
		c0-1.6,0-3.3,0-4.9h-1.9c0,5.3,0,10.7,0,16.1c2.9-0.7,5.5-0.5,7.8,1.6c-0.7,0-1.4,0-2.1,0c-4.2,0-4.2,0-7.7,1.7
		c0-6.5,0-12.9,0-19.3h-3.1c-1.6,0.7-3.2,1.3-4.6,2.1c-1.9,1.1-3.6,2.4-5.2,3.9c-1.5,1.4-2.8,3.2-4,4.9s-1.9,3.7-3,5.9
		c-1-2.8-2.2-5.3-3.9-7.6c-1.8-2.3-3.8-4.3-6.2-6C11.6,1.8,9.4,0.8,7,0H4.2c0,3,0,6.1,0,9.1c4.3,1.6,7.5,4.2,9.6,8.5
		c-0.8,0-1.4,0-2.1,0c-0.2-0.2-0.4-0.5-0.6-0.8C9.3,13.9,6.7,12,3.5,11C1.9,10.5,2.1,10.3,2.1,9c0-3,0-6,0-9H0.3c0,3.3,0,6.6,0,10
		C0.3,10.6,0.3,11.2,0.3,11.7z M104.8,242.4c1.8-1.3,3.6-2.5,5.3-3.9c1.6-1.3,2.7-3,3.6-4.8c0.8-1.5,0.8-1.5,2.6-1.2
		c-0.5,3.4-5.5,9.9-11.5,11.7C104.8,243.5,104.8,242.8,104.8,242.4z M118.6,232.5c0.6,0,1.1,0,1.7,0c-1.3,6.9-8.9,14.3-15.5,15.6
		c0-0.5-0.1-1-0.1-1.6C111.5,243.9,116.1,239.3,118.6,232.5z M120.3,182.3c-1.4,6.9-8.6,14.1-15.5,15.6c0-0.6,0-1.1,0-1.7
		c6.7-2.4,11.3-7.1,13.8-13.9C119.2,182.3,119.7,182.3,120.3,182.3z M105.9,191.4c3.5-1.8,6.2-4.5,7.9-8c0.7-1.4,0.8-1.4,2.8-0.9
		c-2.2,5.5-6,9.4-11.5,11.6C104.4,192.5,104.5,192.1,105.9,191.4z M118.3,132.8c0.1-0.2,0.2-0.4,0.3-0.7c0.5,0,1.1,0,1.6,0
		c-1.1,6.3-8.4,14.1-15.4,15.5c-0.2-1.6-0.2-1.6,0.8-2C111.8,143.2,116,138.9,118.3,132.8z M106.1,141.1c3.4-1.8,5.9-4.3,7.6-7.7
		c0.8-1.5,0.8-1.5,2.6-1.2c-0.3,4-6.5,10.3-11.5,11.6C104.6,141.9,104.6,141.9,106.1,141.1z M104.8,2.1c6.3,1,13.9,8.5,15.5,15.5
		c-0.6,0-1.1,0.1-1.7,0.1c-2.5-6.8-7.1-11.4-13.8-13.9C104.8,3.2,104.8,2.7,104.8,2.1z M106,8.6c-1.5-0.8-1.5-0.8-1.1-2.6
		c4.6,1,10.7,7.1,11.5,11.6c-0.7,0-1.3,0-2,0c-0.2-0.4-0.4-0.7-0.6-1.1C112,13,109.4,10.4,106,8.6z M7.4,59.3
		C6,58.5,6,58.5,6.2,56.7c3.6,0.4,10.2,6,11.6,11.4c-2,0.3-2,0.3-2.8-1.3C13.3,63.5,10.7,61,7.4,59.3z M7.2,44.8
		c5.9-2.4,10-6.5,12.3-12.3c0.5-1.3,0.5-1.3,2.1-1.1c-1,6.4-9.4,14.8-15.5,15.5c0-0.5,0-1,0-1.6C6.5,45.2,6.9,45,7.2,44.8z M6.2,43
		c0-0.7,0-1.3,0-2c0.4-0.2,0.8-0.4,1.2-0.6c3.4-1.8,6-4.3,7.8-7.8c0.8-1.5,0.8-1.5,2.6-1.2C17.4,35.5,10.7,42.3,6.2,43z M7.5,48.9
		c7.5-2.7,12.7-7.7,15.7-15.1c0.1-0.4,0.3-0.8,0.5-1.2c0-0.1,0.2-0.1,0.4-0.3c0.4,0.9,0.6,1.6,0.9,2.4c3.1,6.9,8.2,11.5,15.3,14.1
		c0.5,0.2,1.4,0.1,1.4,0.9c0,0.9-0.8,0.8-1.4,1c-7.5,2.7-12.7,7.7-15.7,15c-0.2,0.5-0.4,0.9-0.7,1.6c-0.3-0.6-0.5-1.1-0.7-1.5
		C20.3,58.5,15,53.5,7.5,50.8c-0.5-0.2-1.4-0.1-1.4-1C6.1,48.9,7,49.1,7.5,48.9z M58.8,68c-1.1,0.2-1.9,0.5-2.7-0.3
		c-2.1-2.2-4.8-3.2-7.8-3.2c-0.2,0-0.4-0.1-0.7-0.1c0-9.1,0-18.2,0-27.4c-3.9-0.6-7-2.2-9.3-5.6c1.3-0.4,2.1-0.2,3,0.6
		c1.9,1.9,4.1,2.8,6.8,2.9c0.4,0,0.7,0,1.1,0.1c0.1,0,0.2,0.1,0.4,0.2c0,9,0,18.1,0,27.3C53.4,63.2,56.4,64.8,58.8,68z M55.5,43
		c0-0.7,0-1.3,0-2c0.4-0.2,0.8-0.4,1.2-0.6c3.4-1.8,6-4.3,7.8-7.8c0.8-1.5,0.8-1.5,2.7-1.2C66,36.4,59.9,42.2,55.5,43z M68.9,32.4
		c0.5-1.3,0.6-1.3,2.1-0.9c-1.2,6.1-8,13.8-15.5,15.5c0-0.6,0-1.1,0-1.7c0.3-0.1,0.5-0.3,0.8-0.4C62.3,42.5,66.5,38.4,68.9,32.4z
		 M55.9,49.2c0.2-0.1,0.5-0.2,0.7-0.3c7.6-2.7,12.9-7.8,15.9-15.3c0.1-0.3,0.3-0.7,0.4-1c0,0,0.1-0.1,0.3-0.3
		c0.2,0.5,0.4,0.9,0.6,1.4c3,7.4,8.2,12.4,15.7,15.1c0.5,0.2,1.4,0.1,1.4,0.9c0,0.9-0.8,0.8-1.4,1C82,53.5,76.8,58.6,73.8,66
		c-0.1,0.4-0.3,0.7-0.6,1.3c-0.3-0.5-0.5-0.7-0.6-1c-2.9-7.7-8.3-12.9-16.1-15.6c-0.2-0.1-0.5-0.1-0.7-0.3c-0.2-0.1-0.4-0.4-0.4-0.6
		C55.5,49.6,55.7,49.4,55.9,49.2z M90.3,45c0.2,0.1,0.4,0.2,0.7,0.3c0,0.6,0,1.1,0,1.6C85.1,46,77,39,75.4,31.5
		c1.5-0.4,1.6-0.4,2,0.8C79.9,38.3,84.1,42.6,90.3,45z M79.3,31.4c1.9-0.2,1.9-0.2,2.7,1.3c1.7,3.3,4.2,5.8,7.5,7.6
		c0.4,0.2,0.8,0.4,1.2,0.7c0,0,0.1,0.1,0.1,0.2c0,0.6,0,1.3,0,1.9C86.6,42.2,80.3,36.3,79.3,31.4z M102.8,118.3
		c-0.4,0.1-0.8,0.1-1.1,0.2c-0.7,0-1.4,0-2.2,0c-3.5,0-3.5,0-6.4,1.6c-0.4-0.5-0.3-1.2-0.3-1.7c0-4.8,0-9.6,0-14.4
		c0-3.9,0-7.8,0-11.6c0-1.2-0.2-1.9-1.5-2.4c-3.1-1.2-5.5-3.4-7.3-6.3c-0.2-0.4-0.4-0.7-0.6-1.1c-0.1-0.1,0-0.3,0-0.5
		c0.9-0.1,1.7-0.4,2.3,0.6c2,3.2,4.9,5.3,8.5,6.3c0.1,0,0.3,0.1,0.6,0.2c0,9.2,0,18.4,0,27.6C99.4,116.3,101,116.6,102.8,118.3z
		 M102.7,125.3c0,2.6-2.2,4.8-4.9,4.7s-4.8-2.2-4.8-4.8c0-2.6,2.2-4.8,4.9-4.8C100.5,120.5,102.7,122.7,102.7,125.3z M102.9,168.3
		c-0.5,0.1-0.8,0.2-1.1,0.2c-0.7,0-1.4,0-2.2,0c-3.4,0-3.6,0.1-6.5,1.7c-0.4-0.5-0.2-1.2-0.2-1.8c0-8.4,0-16.9,0-25.3
		c0-0.4,0-0.8,0-1.2c0.1-1-0.3-1.5-1.2-1.8c-3.2-1.3-5.7-3.5-7.5-6.4c-0.3-0.5-0.5-1-0.8-1.5c1.3-0.4,2-0.2,2.7,0.9
		c1.8,2.8,4.3,4.6,7.4,5.6c0.4,0.1,0.9,0.3,1.4,0.5c0,9.2,0,18.4,0,27.7C97.8,166.4,100.4,166.5,102.9,168.3z M102.7,175.5
		c0,2.6-2.2,4.8-4.9,4.8c-2.6,0-4.8-2.2-4.8-4.8c0-2.6,2.2-4.8,4.8-4.8C100.5,170.6,102.7,172.8,102.7,175.5z M49.6,204.1
		c0,3,0,6,0,9c2.9,0.5,5.5,1.5,7.6,3.5c0.6,0.6,1,1.2,1.7,2c-1.2,0.2-2.1,0.4-2.9-0.4c-2.1-2.1-4.7-3.1-7.7-3.1
		c-0.2,0-0.4-0.1-0.8-0.1c0-9,0-17.9,0-26.7c-1.8-0.7-3.6-1.3-5.2-2c-1.6-0.8-2.9-2.1-4-3.7c1-0.4,1.9-0.5,2.6,0.3
		c2.1,2.2,4.8,3.2,7.8,3.3c0.2,0,0.4,0.1,0.8,0.1c0.1,3,0,6,0.1,8.9C49.6,198.1,49.6,201.1,49.6,204.1z M52.9,212.1
		c-0.4-0.1-0.9-0.3-1.4-0.5c0-9.2,0-18.4,0-27.7c-2.9,0.7-5.5,0.5-7.8-1.2c0-0.1,0-0.2,0-0.4c0.9,0,1.9-0.1,2.9,0
		c2.5,0.3,4.7,0,7-1.9c0.1,2.8,0,5.3,0,7.7c0,2.4,0,4.9,0,7.3c0,2.5,0,5,0,7.4c0,2.4,0,4.8,0,7.4c4.3,1.6,7.5,4.2,9.6,8.4
		c-1.3,0.5-2.1,0.2-2.8-0.9C58.5,214.9,56,213.1,52.9,212.1z M6.2,146.1c0.4-0.2,0.7-0.4,1.1-0.5c5.8-2.4,9.9-6.5,12.2-12.2
		c0.5-1.3,0.5-1.3,2-1.2c0.2,5.3-9.6,15.1-15.4,15.4C6.2,147.1,6.2,146.6,6.2,146.1z M6.1,143.8c0-0.7,0-1.3,0-2
		c4.8-2.6,6.7-4.2,9.7-9.7c0.6,0,1.3,0,2,0C17.1,136.6,10.6,143,6.1,143.8z M20.4,130.2c-1.9,0-3.8,0-5.8,0
		c-1.6,4.3-4.2,7.5-8.3,9.5c-0.5-1.7-0.5-1.8,0.5-2.5c3.1-2,5.1-4.8,6.1-8.3c0.1-0.2,0.2-0.5,0.4-0.8c8.8,0,17.7,0,26.8,0
		c-0.6-2.8-0.5-5.4,1.4-8c0.5,3.5-0.6,7.1,2.1,10c-2.2,0.2-4.1,0.1-6,0.1c-1.9,0-3.8,0-5.7,0c-1.9,0-3.8,0-5.7,0
		C24.3,130.2,22.3,130.2,20.4,130.2z M40.8,104.9c-5.9,2.4-10.1,6.5-12.6,12.4c-0.5,1.3-0.6,1.3-2.1,1c0.7-6,9.3-14.6,15.4-15.3
		c0,0.5,0,1,0.1,1.5C41.4,104.6,41.1,104.8,40.8,104.9z M41.7,108.7c-0.5,0.2-0.9,0.5-1.3,0.7c-3.3,1.7-5.9,4.3-7.6,7.6
		c-0.8,1.5-0.8,1.5-2.9,1.2c2.3-5.6,6.1-9.4,11.7-11.7c0.1,0.4,0.1,0.6,0.2,0.8C41.7,107.8,41.7,108.3,41.7,108.7z M41.6,100.3
		c-1.9,0.9-3.9,1.6-5.7,2.6c-1.9,1.1-3.6,2.4-5.2,3.9c-1.5,1.4-2.8,3.2-4,4.9c-1.1,1.8-1.9,3.7-3,5.8c-3.1-8.7-9-14.4-17.7-17
		c0-0.8,0.6-0.8,1-0.9c1.6-0.7,3.3-1.3,4.8-2.1c5.3-3,9-7.4,11.2-13c0.2-0.4,0.4-0.8,0.6-1.3c0,0,0.1-0.1,0.3-0.2
		c3.1,8.6,9,14.2,17.7,16.9C41.7,100.1,41.6,100.2,41.6,100.3z M7.2,95.4c5.9-2.4,10-6.5,12.3-12.3c0.5-1.3,0.5-1.3,2.1-1.1
		c-0.9,6.3-9.3,14.6-15.5,15.5c0-0.5,0-1-0.1-1.6C6.5,95.8,6.8,95.6,7.2,95.4z M6.2,93.6c0-0.7,0-1.3,0-2C6.6,91.4,7,91.2,7.4,91
		c3.4-1.8,6-4.3,7.8-7.8c0.8-1.5,0.8-1.5,2.7-1.2C16.6,86.9,10.6,92.9,6.2,93.6z M41.6,95.8c0,0.6,0,1.1,0,1.6
		c-6.1-0.7-14.6-9.2-15.5-15.6c0.5,0,1-0.1,1.6-0.1C30.2,88.7,34.8,93.3,41.6,95.8z M30,82.1c1.7-0.5,1.9-0.5,2.5,0.9
		c1.8,3.6,4.5,6.3,8.1,8.1c0.3,0.2,0.6,0.3,1,0.5c0,0.4,0.1,0.8,0.1,1.2c0,0.2-0.1,0.5-0.1,0.7C37.2,93,30.9,86.6,30,82.1z M34,82.2
		c1.5-0.5,1.8-0.5,2.4,0.5c2,3.1,4.8,5.2,8.4,6.2c0.2,0.1,0.4,0.1,0.7,0.3c0,9.2,0,18.4,0,27.6c4.4-0.5,6.1-0.1,7.9,1.5
		c-3.5,0.4-6.9-0.7-9.9,2.1c0-10.2,0-20,0-29.9C39.3,89,36.1,86.3,34,82.2z M47.1,81.9c2.2,0.2,4.1-0.1,5.9-1.5c0.1,0,0.2,0,0.5,0
		c0,9.8,0,19.6,0,29.5c4.3,1.6,7.5,4.2,9.6,8.4c-1.3,0.4-2.1,0.2-2.7-0.8c-1.8-2.8-4.4-4.7-7.7-5.7c-0.4-0.1-0.8-0.3-1.3-0.5
		c0-9.2,0-18.4,0-27.6c-4.6,0.4-6.1,0.1-7.9-1.6C44.7,81.7,46,81.8,47.1,81.9z M43.7,75.1c0-2.6,2.2-4.8,4.8-4.8
		c2.7,0,4.8,2.2,4.8,4.8c0,2.6-2.2,4.8-4.8,4.8C46,80,43.7,77.7,43.7,75.1z M55.5,93.6c0-0.2-0.1-0.5-0.1-0.7c0-0.4,0-0.8,0.1-1.3
		c0.4-0.2,0.8-0.4,1.3-0.6c3.4-1.8,6-4.4,7.7-7.8c0.8-1.5,0.8-1.5,2.6-1.2C66.6,85.8,60.7,92.6,55.5,93.6z M68.8,83.1
		c0.6-1.4,0.6-1.4,2.1-1.1c-1.3,6.6-8.4,13.9-15.5,15.5c0-0.7,0-1.2,0-1.7c0.4-0.2,0.7-0.3,1-0.5C62.3,93.1,66.4,89,68.8,83.1z
		 M56.8,99.4c6.1-2.1,10.8-6,14-11.6c0.9-1.5,1.5-3.2,2.3-4.8c0.2,0.2,0.4,0.4,0.5,0.7c3,7.9,8.4,13.2,16.4,15.9
		c0.3,0.1,0.6,0.3,1.1,0.6c-0.4,0.3-0.7,0.5-1,0.6c-8.1,2.7-13.6,8-16.6,16c-0.1,0.2-0.2,0.4-0.5,0.9c-3.1-8.9-9.1-14.5-17.8-17.2
		C55.7,99.6,56.3,99.6,56.8,99.4z M90.4,95.6c0.1,0.1,0.3,0.1,0.5,0.3c0,0.6,0,1.1,0,1.6c-6-0.6-14.6-9.2-15.5-15.4
		c1.5-0.4,1.6-0.4,2,0.8C79.9,89,84.2,93.2,90.4,95.6z M79.3,82c1.9-0.3,1.9-0.3,2.7,1.2c1.8,3.4,4.3,5.9,7.6,7.7
		c0.4,0.2,0.8,0.4,1.3,0.7c0,0.7,0,1.3,0,2C86.8,93.2,80.3,86.8,79.3,82z M89.9,145.6c1.3,0.5,1.3,0.5,0.9,2.1
		c-6.1-0.9-13.9-8.6-15.4-15.5c0.6,0,1.1,0,1.7,0c0.1,0.2,0.3,0.5,0.4,0.8C79.8,138.9,83.9,143.1,89.9,145.6z M79.3,132.2
		c1.9-0.3,1.9-0.3,2.6,1.2c1.8,3.3,4.3,5.9,7.6,7.7c0.4,0.2,0.8,0.4,1.3,0.7c0,0.7,0,1.4,0,2.1C86,142.6,80,136.5,79.3,132.2z
		 M77.2,140.6c0.9,1.2,1.8,2.2,2.9,3.2c1.1,1,2.2,1.9,3.4,2.7c1.2,0.8,2.4,1.4,3.6,2c1.3,0.6,2.6,1.1,3.9,1.8
		c-4.1,1.5-7.8,3.4-10.9,6.4c-3.1,3-5.3,6.6-6.7,10.7c-0.7-0.3-0.7-0.9-0.9-1.4c-2.4-6-6.5-10.5-12.2-13.5c-1.1-0.6-2.4-1-3.5-1.5
		c-0.5-0.2-0.9-0.4-1.3-0.6c0-0.1,0-0.2,0-0.3c1.5-0.6,3.1-1.2,4.6-2c1.5-0.8,3-1.7,4.3-2.7c1.3-1,2.6-2.2,3.7-3.5
		c1.1-1.3,2.1-2.7,2.9-4.2c0.8-1.5,1.5-3,2.3-4.8c0.7,1.4,1.2,2.8,1.8,4C75.7,138.3,76.4,139.5,77.2,140.6z M89.9,163.6
		c-2.7,1.9-4.6,4.3-5.6,7.4c-0.1,0.4-0.3,0.9-0.5,1.4c-8.9,0-17.8,0-26.9,0c0.7,2.9,0.5,5.5-1.2,7.8c-0.1,0-0.3,0-0.4,0
		c0-1.2-0.1-2.3,0-3.5c0.2-2.1-0.2-4.1-1.5-5.9c0-0.1,0-0.2,0-0.5c0.6,0,1.1,0,1.6,0c8.4,0,16.8,0,25.3,0c1.2,0,1.9-0.3,2.4-1.5
		c1.2-3.1,3.4-5.4,6.1-7.2c0.5-0.3,1-0.5,1.5-0.8C91.2,162.8,91.2,162.8,89.9,163.6z M90.2,168.2c-1.9,1.9-2.7,4.3-2.9,7
		c0,0.4,0,0.7-0.1,1.2c-8.7,0-17.4,0-26.1,0c-0.4,2.8-1.3,5.3-3.2,7.3c-0.6,0.7-1.4,1.3-2.3,2.1c-0.4-1.3-0.4-2.2,0.5-3
		c2-1.9,2.8-4.4,3-7.1c0-0.4,0-0.7,0.1-1.2c8.7,0,17.4,0,26.1,0c0.6-3.8,2.2-6.9,5.5-9.2C91.1,166.5,91.1,167.3,90.2,168.2z
		 M47.5,151.4c0-2.3,0-4.6,0-6.8c0-2.2,0-4.4,0-6.8c-3.8-0.7-6.9-2.2-9.2-5.5c1.1-0.2,1.9-0.5,2.7,0.3c2.2,2.2,4.8,3.3,7.9,3.3
		c0.1,0,0.3,0.1,0.7,0.1c0,9,0,17.9,0,27c3.8,0.6,6.9,2.1,9.2,5.4c-1.2,0.3-2.1,0.3-2.9-0.6c-1.9-2-4.4-2.8-7.1-2.9
		c-0.3,0-0.6,0-1.1,0c-0.1-2.3,0-4.6,0-6.8C47.5,155.8,47.5,153.6,47.5,151.4z M44.5,132.1c1.2,0,2.4,0,3.6,0
		c1.7,0.1,3.2-0.3,4.5-1.3c0.2-0.1,0.4-0.2,0.9-0.5c0,0.9,0,1.5,0,2.2c0,8.5,0,17,0,25.6c0,1.3,0.3,2.1,1.7,2.7
		c3.1,1.2,5.4,3.4,7.2,6.2c0.3,0.4,0.5,0.9,0.7,1.4c-1.8,0.4-1.8,0.4-2.7-0.8c-1.9-2.7-4.4-4.6-7.6-5.6c-0.4-0.1-0.7-0.2-1-0.4
		c0,0-0.1-0.1-0.3-0.2c0-9.1,0-18.2,0-27.6c-2.9,0.7-5.6,0.5-8.2-1.4C43.9,132.2,44.2,132.1,44.5,132.1z M43.7,125.2
		c0-2.6,2.2-4.7,4.8-4.8c2.7,0,4.9,2.1,4.9,4.8c0,2.7-2.1,4.8-4.8,4.8C45.9,130,43.7,127.9,43.7,125.2z M69.3,168.5
		c-2.5-6.7-7.1-11.3-13.8-13.8c0-0.3-0.1-0.6-0.1-0.9c0-0.2,0.1-0.5,0.1-0.7c7,1.4,14,8.8,15.5,15.4
		C70.4,168.5,69.9,168.5,69.3,168.5z M75.5,168.4c0.5-5.9,8.4-13.8,15.4-15.5c0,0.6,0,1.1,0,1.8c-3.2,1.1-6,2.8-8.4,5.2
		c-2.4,2.4-4.1,5.3-5.3,8.5C76.6,168.4,76,168.4,75.5,168.4z M89.7,159.6c-3.3,1.7-5.8,4.2-7.6,7.5c-0.8,1.6-0.8,1.6-2.7,1.3
		c0.6-4.2,7.2-10.8,11.4-11.4C91.2,158.8,91.1,158.8,89.7,159.6z M55.6,147.7c-0.4-1.5-0.4-1.5,0.9-2.1c6-2.4,10.1-6.7,12.5-12.6
		c0.1-0.2,0.2-0.5,0.3-0.8c0.5,0,1.1,0,1.7,0C69.5,138.8,62.7,146.2,55.6,147.7z M55.5,143.8c0-0.2-0.1-0.5-0.1-0.7
		c0-0.4,0-0.8,0-1.3c0.5-0.2,0.9-0.5,1.4-0.7c3.3-1.8,5.9-4.3,7.6-7.7c0.8-1.5,0.8-1.5,2.7-1.2C66.2,136.5,60.8,142.5,55.5,143.8z
		 M55.6,156.9c4.4,0.8,10.3,6.7,11.5,11.4c-1.7,0.5-1.9,0.5-2.6-1c-1.8-3.4-4.3-6-7.8-7.8C55.2,158.8,55.2,158.8,55.6,156.9z
		 M89.9,113.5c-2.7,1.8-4.6,4.3-5.6,7.4c-0.1,0.4-0.3,0.8-0.4,1.3c-8.9,0-17.8,0-27,0c0.7,2.9,0.6,5.6-1.3,8.2
		c-0.1-0.5-0.2-0.8-0.2-1.2c0-1.1-0.1-2.2,0-3.3c0.1-1.8-0.3-3.5-1.4-4.9c-0.1-0.2-0.2-0.4-0.4-0.7c4.9-0.1,9.7,0,14.5,0
		c4.8,0,9.5,0,14.4,0c1.5-4.2,4.2-7.4,8.3-9.5C91.2,112.1,91,112.8,89.9,113.5z M90.2,118c-1.9,1.9-2.7,4.3-2.9,7
		c0,0.3,0,0.6-0.1,0.9c0,0,0,0.1-0.1,0.3c-8.6,0-17.3,0-26.1,0c-0.6,3.9-2.2,6.9-5.5,9.3c-0.2-1.1-0.5-1.9,0.3-2.7
		c2.2-2.2,3.2-4.9,3.2-8c0-0.1,0.1-0.3,0.1-0.6c8.6,0,17.3,0,26.1,0c0.5-2.9,1.4-5.4,3.4-7.5c0.6-0.6,1.3-1.1,2.1-1.8
		C91.1,116.3,91.1,117.2,90.2,118z M67,118.2c-1.7,0.5-1.9,0.4-2.6-0.9c-1.8-3.5-4.5-6.2-8-8c-0.3-0.2-0.6-0.3-1.1-0.5
		c0-0.7,0-1.3,0-1.9C59.5,107.1,66.2,113.7,67,118.2z M55.5,104.5c0-0.5,0-1,0-1.5c5.6,0.2,13.9,8.3,15.6,15.3
		c-1.6,0.3-1.6,0.4-2.1-0.8c-2.4-6-6.7-10.2-12.7-12.6C55.9,104.7,55.7,104.6,55.5,104.5z M90.9,104.5c-0.3,0.1-0.6,0.3-0.9,0.4
		c-5.9,2.4-10,6.5-12.4,12.3c-0.5,1.3-0.5,1.3-2.2,1.1c1.4-6.7,9.5-14.7,15.5-15.3C90.9,103.4,90.9,103.9,90.9,104.5z M90.9,106.7
		c0,0.7,0,1.3,0,2c-0.3,0.2-0.6,0.4-0.9,0.5c-3.5,1.8-6.2,4.4-8,7.9c-0.7,1.4-0.9,1.4-2.5,0.9C80.1,113.9,86.4,107.6,90.9,106.7z
		 M48.6,85.6c0.2,0,0.5,0.1,0.9,0.2c0.1,3,0,6,0,9c0,3,0,6,0,9s0,6,0,9.1c3.8,0.6,6.9,2.2,9.1,5.3c-0.9,0.4-1.8,0.6-2.5-0.1
		c-2.4-2.3-5.1-3.4-8.6-3.2c-0.1-0.7-0.1-1.4-0.1-2c0-7.8,0-15.5,0-23.3c0-0.6,0-1.2,0-1.9c-3.9-0.6-6.9-2.2-9.3-5.6
		c1.1-0.2,2-0.4,2.7,0.4C43,84.6,45.6,85.6,48.6,85.6z M6.9,132.5c1.9-1.9,2.9-4.4,2.9-7.1c0-0.3,0-0.6,0.1-1.1
		c0.6,0,1.2-0.1,1.8-0.1c7.5,0,15,0,22.5,0c0.6,0,1.2,0,1.9,0c0.6-3.8,2.2-6.9,5.4-9.2c0.2,1.1,0.4,1.9-0.4,2.7
		c-2.1,2.1-3.1,4.6-3.1,7.5c0,0.2-0.1,0.5-0.1,0.9c-8.7,0-17.4,0-26.2,0c-0.5,3.9-2.2,7-5.5,9.4C6,134.3,6,133.4,6.9,132.5z
		 M27.8,132.1c2.4,6.7,7,11.3,13.8,13.8c0,0.7,0,1.2,0,1.6c-6-0.6-14.6-9.2-15.5-15.5C26.6,132.1,27.1,132.1,27.8,132.1z
		 M41.5,143.8c-4.5-0.9-10.6-7.1-11.5-11.6c0.7,0,1.3,0,2,0c0.2,0.4,0.4,0.7,0.6,1.1c1.8,3.5,4.3,6.1,7.8,7.9
		C41.9,141.9,41.9,141.9,41.5,143.8z M34,132.3c1.8-0.4,1.8-0.4,2.7,0.8c1.9,2.8,4.4,4.6,7.5,5.7c0.4,0.1,0.7,0.2,1,0.4
		c0.1,0,0.2,0.1,0.4,0.3c0,9.1,0,18.2,0,27.6c2.8-0.6,5.5-0.5,7.8,1.3c-3.2,0.5-6.7-0.5-9.3,1.9c-0.2-0.1-0.2-0.1-0.3-0.1
		c0,0-0.1-0.1-0.1-0.1c0-0.2-0.1-0.4-0.1-0.6c0-9.5,0-19-0.1-28.5c0,0,0-0.1-0.1-0.3C39.3,139.1,36.1,136.5,34,132.3z M53.4,175.5
		c0,2.6-2.3,4.8-4.9,4.8c-2.6,0-4.8-2.3-4.8-4.9c0-2.6,2.3-4.8,4.9-4.8C51.2,170.6,53.4,172.9,53.4,175.5z M56.7,209.7
		c-0.3-0.2-0.6-0.3-0.9-0.5c-0.1,0-0.1-0.1-0.2-0.2c0-0.6,0-1.3,0-2c4.6,0.9,10.8,7.1,11.6,11.6c-1.9,0.2-1.9,0.2-2.7-1.3
		C62.6,214,60,211.4,56.7,209.7z M56,205.1c-0.2-0.1-0.4-0.2-0.6-0.3c0-0.5,0-1,0-1.5c5.4-0.1,14.7,9.1,15.5,15.3
		c-1.5,0.3-1.6,0.3-2-0.8C66.5,211.7,62.2,207.5,56,205.1z M55.4,200.8c0.2-0.9,0.9-0.8,1.4-1c4.2-1.5,7.9-3.8,10.9-7.2
		c2.1-2.3,3.6-4.9,4.8-7.7c0.2-0.5,0.4-0.9,0.6-1.6c0.2,0.4,0.4,0.6,0.5,0.8c3,7.9,8.5,13.2,16.5,15.9c0.2,0.1,0.5,0.2,0.7,0.3
		c0,0,0.1,0.1,0.2,0.3c-2,0.9-3.9,1.6-5.7,2.7c-1.9,1.1-3.6,2.4-5.2,3.9c-1.5,1.4-2.8,3.2-4,4.9c-1.1,1.8-1.9,3.7-3,5.8
		C70,209.1,64.1,203.5,55.4,200.8z M55.5,196.2c0.4-0.2,0.8-0.3,1.2-0.5c5.8-2.4,9.9-6.5,12.2-12.3c0.5-1.3,0.5-1.3,2.1-1.1
		c-0.2,5.6-8.8,14.2-15.4,15.5c0-0.2-0.1-0.4-0.1-0.6C55.4,197,55.4,196.6,55.5,196.2z M56.8,191.2c3.4-1.8,5.9-4.3,7.6-7.7
		c0.8-1.6,0.8-1.6,2.6-1.2c-0.6,4.3-6.9,10.6-11.5,11.6C55.3,192,55.3,192.1,56.8,191.2z M75.4,182.4c1.6-0.3,1.7-0.3,2.1,0.8
		c2.4,6,6.6,10.2,12.7,12.6c0.2,0.1,0.5,0.2,0.7,0.4c0,0.6,0,1.1,0,1.6C84.4,196.7,76.9,189.2,75.4,182.4z M90.9,203.2
		c0,0.5,0,1,0,1.6c-6.7,2.4-11.3,7-13.8,13.8c-0.4,0-0.6,0.1-0.9,0.1c-0.2,0-0.5,0-0.7-0.1C75.9,212.9,85,203.7,90.9,203.2z
		 M90.9,207c0,0.8,0,1.4,0,2.1c-0.2,0.1-0.4,0.3-0.5,0.4c-3.8,1.8-6.7,4.6-8.6,8.4c-0.5,1.1-0.6,1.1-2.4,0.8
		C79.9,214.5,85.7,208.6,90.9,207z M90.6,218c-2.4,2.3-3.3,5.2-3.3,8.5c-8.7,0-17.4,0-26.2,0c-0.6,3.9-2.1,7-5.5,9.4
		c-0.2-1.2-0.4-2,0.4-2.8c2.1-2.1,3.1-4.7,3.1-7.7c0-0.2,0-0.4,0.1-0.8c8.8,0,17.4,0,25.9,0c0.7-1.8,1.2-3.5,2-5.1
		c0.8-1.6,2-2.9,3.7-4C91,216.4,91.3,217.3,90.6,218z M90.7,194.1c-5.5-2.2-9.4-6-11.6-11.7c2-0.5,2-0.5,2.8,1.1
		c1.8,3.4,4.3,6,7.8,7.8C91.2,192.1,91.2,192.1,90.7,194.1z M78.4,180.3c-4.8,0-9.5,0-14.4,0c-1.6,4.2-4.2,7.5-8.3,9.5
		c-0.5-1.6-0.5-1.8,0.7-2.6c2.8-1.9,4.7-4.5,5.7-7.7c0.1-0.4,0.2-0.8,0.4-1.3c9,0,17.8,0,26.8,0c-0.6-2.8-0.5-5.4,1.4-8
		c0.1,0.5,0.2,0.8,0.2,1.2c0,1.1,0,2.2,0,3.3c-0.1,1.8,0.4,3.4,1.4,4.8c0.1,0.2,0.2,0.3,0.4,0.7C87.8,180.4,83.1,180.3,78.4,180.3z
		 M64,130.2c-1.6,4.3-4.2,7.5-8.3,9.5c-0.5-1.6-0.5-1.8,0.5-2.5c3.1-2.1,5.2-4.9,6.1-8.5c0.1-0.2,0.2-0.4,0.3-0.7
		c8.8,0,17.7,0,26.8,0c-0.6-2.8-0.5-5.4,1.4-8c0.1,0.7,0.2,1,0.2,1.3c0,1.1,0,2.3,0,3.4c-0.1,1.9,0.6,3.5,1.9,5.4
		C83,130.2,73.5,130.2,64,130.2z M78.3,80c-4.8,0-9.5,0-14.3,0c-1.5,4.3-4.2,7.5-8.3,9.5c-0.6-1.6-0.5-1.8,0.7-2.6
		c2.8-1.9,4.7-4.5,5.7-7.7c0.1-0.4,0.2-0.7,0.4-1c0,0,0.1-0.1,0.3-0.3c8.7,0,17.5,0,26.6,0c-0.6-2.9-0.5-5.4,1.4-7.9
		c0.1,0.5,0.2,0.8,0.2,1.1c0,1.1,0,2.2,0,3.3c-0.1,1.8,0.4,3.4,1.4,4.8c0.1,0.2,0.2,0.4,0.4,0.8C87.8,80.1,83,80,78.3,80z
		 M56.2,82.4c1.9-2,2.8-4.4,2.9-7.1c0-0.3,0-0.6,0.1-0.9c0,0,0.1-0.1,0.2-0.3c8.6,0,17.2,0,26,0c0.6-3.9,2.2-6.9,5.4-9.2
		c0.3,1,0.5,1.8-0.1,2.6c-2.8,3.4-2.9,3.9-3.4,8.6c-8.6,0-17.3,0-26.1,0c-0.6,3.9-2.2,7.1-5.5,9.3C55.3,84.1,55.3,83.2,56.2,82.4z
		 M89.7,59.2c-3.4,1.7-5.9,4.3-7.7,7.6c-0.8,1.5-0.8,1.5-2.9,1.3c2.3-5.6,6.1-9.4,11.6-11.7C91.2,58.4,91.2,58.5,89.7,59.2z
		 M77.1,68.1c-0.3,0-0.6,0.1-0.9,0.1c-0.2,0-0.5-0.1-0.7-0.1c0.8-6.1,8.8-14.2,15.5-15.5c0,0.6,0,1.1,0,1.7
		C84.2,56.8,79.6,61.4,77.1,68.1z M71,68.2c-0.5,0-1,0-1.7,0c-2.4-6.6-7-11.3-13.8-13.8c0-0.6,0-1.1,0-1.6
		C61,52.9,70.1,61.9,71,68.2z M55.5,56.4c5.6,2.2,9.5,6,11.7,11.6c-1.8,0.6-2,0.5-2.8-0.9c-1.8-3.5-4.4-6.1-7.9-7.8
		c-0.3-0.1-0.6-0.3-0.8-0.4c-0.1,0-0.1-0.1-0.3-0.3c0-0.4-0.1-0.8,0-1.2C55.4,57.1,55.5,56.8,55.5,56.4z M82.5,70.1
		c1.6-4.2,4.2-7.4,8.3-9.5c0.2,1.1,0.4,1.9-0.6,2.6c-3.1,1.9-5,4.7-6,8.2c-0.1,0.2-0.1,0.4-0.2,0.6c0,0-0.1,0.1-0.2,0.3
		c-8.7,0-17.6,0-26.7,0c0.6,2.9,0.5,5.5-1.4,8.1c-0.1-0.6-0.2-0.9-0.2-1.2c0-0.4,0-0.7,0-1.1c0-4.2,0-4.2-1.7-7.9
		C63.3,70.1,72.9,70.1,82.5,70.1z M44.3,38.1c0.4,0.1,0.8,0.3,1.4,0.5c0,9.4,0,18.7,0,28.2c2.8-0.7,5.4-0.5,8,1.3
		c-0.6,0.1-0.9,0.2-1.2,0.2c-0.8,0-1.6,0-2.5,0c-3.1,0-3.1,0-6.1,1.6c0,0-0.1,0-0.1-0.1c0,0-0.1-0.1-0.1-0.1c0-0.1-0.1-0.3-0.1-0.5
		c0-9.7,0-19.3,0-29c0,0,0-0.1-0.1-0.3c-4.1-1.5-7.4-4.2-9.4-8.4c1.3-0.5,2.1-0.1,2.7,0.9C38.5,35.2,41.1,37,44.3,38.1z M40.5,40.4
		c1.4,0.7,1.4,0.8,1.1,2.6c-4.8-1.1-11.1-7.5-11.5-11.6c1.8-0.3,1.8-0.3,2.6,1.2C34.5,36.1,37.1,38.6,40.5,40.4z M41.4,56.5
		c0.7,1.5,0.5,2-0.8,2.7C37,61,34.5,63.6,32.7,67c-0.2,0.4-0.4,0.7-0.6,1.2c-0.5,0-0.9,0-1.3,0c-0.2,0-0.4-0.1-0.6-0.1
		C30.5,64.2,36.3,58.2,41.4,56.5z M27.8,68.3c-0.7,0-1.2-0.1-1.7-0.1c1.1-6.5,9.1-14.4,15.4-15.5c0,0.6,0,1.1,0,1.7
		C34.9,56.8,30.3,61.5,27.8,68.3z M41.6,45.3c0,0.6,0,1.1,0,1.6c-5.5-0.1-14.2-8.7-15.5-15.5c0.6,0,1.1,0,1.7,0
		C30.2,38.1,34.8,42.8,41.6,45.3z M21.6,68.2c-0.5,0-1,0-1.6,0c-0.2-0.4-0.4-0.8-0.6-1.2c-2.4-5.7-6.4-9.7-12.1-12
		C6,54.3,6,54.3,6.2,52.7C12.9,54,21.1,62.3,21.6,68.2z M4.6,70.8c-0.1-0.1-0.1-0.3-0.2-0.7c3.3,0,6.5,0,9.6,0c3.2,0,6.3,0,9.5,0
		c3.2,0,6.4,0,9.7,0c1.6-4.2,4.2-7.4,8.3-9.4c0.4,1.8,0.4,1.8-0.8,2.7c-2.7,1.9-4.6,4.3-5.6,7.4c-0.1,0.4-0.3,0.9-0.5,1.5
		c-8.9,0-17.8,0-26.9,0c0.8,2.9,0.5,5.5-1.2,7.8c-0.1,0-0.3,0-0.4-0.1c0-1.3-0.1-2.6,0-3.8C6.2,74.2,5.8,72.3,4.6,70.8z M41.1,67.6
		c-2,2-3.1,4.5-3.1,7.4c0,0.2,0,0.4-0.1,0.6c0,0.1-0.1,0.2-0.2,0.4c-8.5,0-17.2,0-25.7,0c-0.7,1.9-1.3,3.6-2.1,5.3
		c-0.8,1.6-2,3-3.8,4c-0.3-1.2-0.3-2,0.6-2.9c2-2,2.9-4.5,3-7.3c0-0.3,0-0.6,0.1-1.1c8.7,0,17.4,0,26.2,0c0.6-3.8,2.2-6.9,5.4-9.2
		C41.7,66,41.9,66.9,41.1,67.6z M7.1,87c2.8-1.9,4.7-4.5,5.7-7.7c0.1-0.4,0.3-0.8,0.4-1.3c8.9,0,17.8,0,26.8,0
		c-0.6-2.9-0.5-5.5,1.3-8c0.1,0.5,0.2,0.8,0.2,1.1c0,0.7,0,1.4,0,2.2c-0.1,2.3,0,4.6,1.6,6.3c-0.1,0.2-0.1,0.2-0.1,0.3
		c0,0-0.1,0.1-0.1,0.1c0,0-0.1,0-0.1,0c-0.1,0-0.3,0-0.5,0c-9.2,0-18.4,0-27.6,0c0,0-0.1,0-0.3,0.1c-1.6,4.1-4.1,7.4-8.3,9.4
		C5.9,87.8,5.9,87.8,7.1,87z M6.1,102.8c6.2,0.9,14.6,9.2,15.5,15.3c-1.4,0.4-1.5,0.4-2-0.7c-2.5-6.1-6.7-10.3-12.8-12.6
		c-0.2-0.1-0.4-0.2-0.7-0.4C6.1,103.9,6.1,103.4,6.1,102.8z M6.9,109.2c-0.3-0.1-0.5-0.3-0.9-0.5c0-0.5,0-0.9,0-1.4
		c0-0.2,0.1-0.4,0.2-0.8c5.6,2.2,9.4,6,11.7,11.5c-1.7,0.6-2.1,0.5-2.6-0.6C13.4,113.8,10.7,111,6.9,109.2z M4.5,120.3
		c9.5,0,19,0,28.3,0c1.3-2,2.3-3.9,3.6-5.6c1.3-1.7,3-2.9,5-3.9c0.5,1.5,0.5,1.8-0.5,2.4c-3,2-5,4.7-6,8.2c-0.1,0.2-0.1,0.4-0.2,0.6
		c0,0-0.1,0.1-0.2,0.3c-8.8,0-17.7,0-26.8,0c0.5,2.1,0.6,4.1-0.2,6c-0.3,0.7-0.7,1.3-1,2c-0.1,0-0.2,0-0.3-0.1c0-0.3-0.1-0.6-0.1-1
		c0-0.6,0-1.2,0-1.9c0.1-2.5,0.1-4.9-1.8-6.8C4.3,120.5,4.4,120.4,4.5,120.3z M10.7,148.2c1.5-0.8,3-1.7,4.3-2.7
		c1.3-1.1,2.6-2.2,3.7-3.5c1.1-1.3,2.1-2.7,2.9-4.2c0.8-1.5,1.5-3,2.3-4.9c1.1,2.9,2.3,5.4,4,7.7c1.7,2.3,3.8,4.2,6.1,5.9
		c2.4,1.6,4.9,2.7,7.6,3.6c-0.3,0.9-1,0.8-1.5,1c-6.3,2.2-11,6.2-14.2,12c-0.8,1.4-1.3,2.9-2.1,4.5c-0.7-1.6-1.4-3.2-2.2-4.6
		c-0.8-1.5-1.8-2.9-2.9-4.2c-1.1-1.3-2.4-2.6-3.8-3.6c-1.3-1.1-2.8-1.9-4.3-2.7c-1.5-0.8-3.1-1.3-5-2.1
		C7.6,149.6,9.2,149,10.7,148.2z M41.6,156.9c0.2,1.9,0.2,1.9-1.3,2.7c-3.2,1.7-5.7,4.2-7.4,7.4c-0.2,0.5-0.5,0.9-0.7,1.4
		c-0.7,0-1.3,0-2,0C30.8,164.1,37,157.8,41.6,156.9z M27.7,168.5c-0.3,0-0.6,0.1-0.9,0.1c-0.2,0-0.5-0.1-0.7-0.1
		c1.2-6.5,8.9-14.2,15.4-15.4c0,0.6,0,1.1,0,1.6C32.9,159.1,32.3,159.8,27.7,168.5z M21.7,168.4c-0.5,0-1.1,0-1.7,0
		c-1.2-3.1-2.8-6-5.3-8.4c-2.4-2.4-5.3-4.1-8.5-5.3c0-0.7,0-1.2,0-1.7C12.3,153.8,20.4,161.9,21.7,168.4z M7.4,159.6
		c-1.5-0.8-1.5-0.8-1.1-2.9c5.6,2.3,9.4,6.1,11.6,11.5c-1.9,0.6-2,0.5-2.9-1C13.3,163.8,10.7,161.3,7.4,159.6z M4.5,170.9
		c0,0,0-0.1,0-0.4c0.5,0,1-0.1,1.6-0.1c8.3,0,16.6,0,24.8,0c0.4,0,0.7,0,1.1,0c0.9,0.1,1.3-0.3,1.6-1.1c1.3-3.2,3.3-5.7,6.2-7.5
		c0.5-0.3,1.1-0.6,1.6-0.9c0.4,1.8,0.4,1.8-0.8,2.7c-2.7,1.9-4.6,4.3-5.5,7.4c-0.1,0.4-0.2,0.7-0.4,1c0,0.1-0.1,0.2-0.3,0.4
		c-8.8,0-17.6,0-26.6,0c0.4,4.6,0.1,6.2-1.6,7.9c-0.1-0.4-0.1-0.8-0.1-1.1c0-1.1,0-2.2,0-3.3c0.1-1.8-0.3-3.4-1.4-4.8
		C4.6,171.2,4.6,171,4.5,170.9z M6.6,183c2.2-2.2,3.3-4.8,3.2-8c0-0.1,0.1-0.3,0.1-0.7c1.7,0,3.4,0,5.2,0c1.8,0,3.5,0,5.3,0
		c1.7,0,3.4,0,5.1,0c1.8,0,3.5,0,5.3,0c1.8,0,3.5,0,5.3,0c0.6-3.8,2.2-6.9,5.4-9.1c0.3,1.1,0.5,1.9-0.3,2.7
		c-2.1,2.1-3.1,4.6-3.1,7.5c0,0.1,0,0.3,0,0.5c0,0.1-0.1,0.2-0.2,0.5c-8.5,0-17.2,0-26,0c-0.6,3.9-2.2,6.9-5.5,9.3
		C6,184.6,5.8,183.8,6.6,183z M7.2,187.2c2.8-1.8,4.6-4.3,5.6-7.4c0.1-0.4,0.3-0.9,0.5-1.5c8.9,0,17.8,0,26.9,0
		c-0.6-2.9-0.6-5.5,1.4-8c0.4,3.5-0.6,7,2.1,10c-5.1,0-9.8,0-14.6,0c-4.8,0-9.5,0-14.3,0c-3,5.8-5.6,8.6-8.6,9.4
		C5.8,188.6,6.1,187.9,7.2,187.2z M41.4,207.1c0.5,1.8,0.5,1.9-1,2.7c-3.4,1.8-6,4.3-7.8,7.7c-0.8,1.5-0.8,1.5-2.6,1.1
		C30.9,214.2,36.7,208.3,41.4,207.1z M28.2,217.8c-0.1,0.2-0.2,0.4-0.3,0.6c0,0.1-0.1,0.2-0.2,0.3c-0.4,0-0.9,0-1.4,0
		c0.2-5.6,9.3-14.8,15.3-15.4c0.3,1.5,0.3,1.5-0.8,2C34.7,207.7,30.5,211.8,28.2,217.8z M41.5,193.9C37.1,193.1,31,187,30,182.5
		c1.7-0.6,1.8-0.5,2.6,1c1.8,3.4,4.3,6,7.8,7.8C41.9,192.1,41.9,192.1,41.5,193.9z M41.6,196.2c0,0.6,0,1.1,0,1.6
		c-6.8-1.3-14.2-8.8-15.5-15.5c0.6,0,1.1,0,1.6,0C31.9,190.8,33.6,192.5,41.6,196.2z M6.2,196.3c0.3-0.1,0.6-0.3,0.9-0.5
		c5.9-2.4,10.1-6.5,12.5-12.4c0.5-1.3,0.6-1.3,2.1-1c-1,6-8.1,14-15.5,15.4C6.2,197.3,6.2,196.9,6.2,196.3z M7.4,191.3
		c3.4-1.8,6-4.3,7.7-7.8c0.8-1.5,0.8-1.5,2.7-1.2c-1.5,5.1-7.4,10.9-11.6,11.5C5.9,192.1,5.9,192.1,7.4,191.3z M7.5,199.8
		c5.3-1.8,9.6-5,12.8-9.6c1.2-1.8,2-3.8,3-5.7c0.2-0.4,0.3-0.7,0.6-1.4c1.5,4.4,3.7,8,6.9,11c3.1,2.9,6.8,4.9,10.9,6.2
		c0,0.1,0,0.3,0,0.4c-1.3,0.5-2.6,1-3.9,1.6c-1.3,0.6-2.5,1.3-3.6,2.1c-1.2,0.8-2.3,1.7-3.4,2.7c-1,1-1.9,2-2.8,3.1
		c-0.9,1.2-1.6,2.4-2.3,3.7c-0.7,1.2-1.2,2.5-1.9,4.1c-3.1-8.8-9.1-14.5-17.8-17.2C6.3,199.9,7,199.9,7.5,199.8z M6.2,203.3
		c5.6,0.2,14.9,9.5,15.4,15.3c-1.5,0.3-1.5,0.3-2.1-1c-2.4-5.8-6.5-9.9-12.2-12.2C6,204.8,6,204.8,6.2,203.3z M7.5,209.8
		c-0.5-0.2-0.9-0.5-1.3-0.7c0-0.7,0-1.4,0-2c4.8,1.1,10.7,7,11.6,11.5c-1.9,0.4-1.9,0.4-2.7-1.1C13.4,214.1,10.8,211.6,7.5,209.8z
		 M6.1,226.4c0.1-1.8-0.3-3.5-1.4-5c-0.1-0.2-0.2-0.4-0.2-0.5c0.1-0.1,0.1-0.2,0.1-0.2c0,0,0.1-0.1,0.1-0.1c0.1,0,0.3-0.1,0.5-0.1
		c9.2,0,18.5,0,27.7-0.1c1.2-1.9,2.3-3.8,3.6-5.5c1.3-1.7,3-2.9,5-3.8c0.5,1.7,0.5,1.8-0.7,2.6c-2.7,1.9-4.6,4.4-5.6,7.5
		c-0.1,0.4-0.3,0.8-0.5,1.3c-3,0-6,0-9,0c-2.9,0-5.9,0-8.8,0c-3,0-6,0-9.1,0c0.8,3,0.5,5.5-1.3,8.1c-0.1-0.6-0.2-0.9-0.2-1.2
		C6.1,228.5,6,227.4,6.1,226.4z M6.9,232.8c1.9-2,2.9-4.4,2.9-7.1c0-0.3,0-0.6,0.1-1.1c4.3-0.1,8.7,0,13,0c4.3,0,8.7,0,13.2,0
		c0.5-3.7,2.1-6.8,5.4-9.2c0.3,1,0.5,1.9-0.3,2.7c-2.1,2.1-3.2,4.7-3.2,7.7c0,0.2-0.1,0.4-0.1,0.7c-1.7,0.2-3.5,0.1-5.2,0.1
		c-1.7,0-3.4,0-5.1,0c-1.8,0-3.5,0-5.3,0c-1.7,0-3.4,0-5.1,0c-1.8,0-3.5,0-5.4,0c-0.6,3.8-2.1,7-5.5,9.3
		C5.9,234.6,6,233.7,6.9,232.8z M6.1,242.1c4.4-2,7.6-5.2,9.6-9.6c0.8,0,1.4,0,2,0c-0.9,5-7.5,11-11.6,11.7
		C6.1,243.5,6.1,242.8,6.1,242.1z M6.1,248c0-0.6,0-1,0-1.6c0.3-0.2,0.7-0.4,1-0.5c5.9-2.4,10-6.5,12.4-12.3c0.5-1.3,0.5-1.3,2-1.1
		C21.4,238.1,12.6,247,6.1,248z M41.6,248c-6-0.6-14.5-9.2-15.5-15.5c0.5,0,1,0,1.6-0.1c4.2,8.5,5.6,10,13.9,14
		C41.6,246.9,41.6,247.4,41.6,248z M40.3,241.4c0.4,0.2,0.8,0.4,1.3,0.7c0,0.7,0,1.3,0,2c-4.2-0.5-10.5-6.7-11.6-11.6
		c1.9-0.3,1.9-0.3,2.7,1.2C34.4,237.1,37,239.7,40.3,241.4z M38.5,230.5c-1.6,0-3.2,0-4.8,0s-3.2,0-4.8,0c-1.5,0-3.1,0-4.7,0
		c-1.6,0-3.2,0-4.8,0c-1.6,0-3.2,0-4.8,0c-1.6,4.3-4.2,7.5-8.5,9.6c0-0.8,0-1.4,0-2.1c3.5-2.1,6-5.3,7-9.6c9,0,17.8,0,26.9,0
		c-0.5-2.9-0.5-5.5,1.5-8.1c0.5,3.5-0.6,7,2,9.9C41.7,230.7,40.1,230.5,38.5,230.5z M48.4,230.4c-2.6-0.1-4.7-2.2-4.7-4.8
		c0-2.7,2.2-4.8,4.9-4.8c2.7,0,4.8,2.2,4.8,4.9C53.3,228.4,51.1,230.5,48.4,230.4z M50.4,218.8c-2.3-0.1-4.6,0-6.3,1.6
		c-0.2-0.1-0.3-0.1-0.3-0.1c0,0-0.1-0.1-0.1-0.1c0-0.1-0.1-0.2-0.1-0.3c0-9.6,0-19.2,0-29c-4.2-1.6-7.5-4.2-9.5-8.3
		c1.3-0.6,1.8-0.5,2.3,0.3c2.1,3.3,5.1,5.4,8.8,6.4c0.1,0,0.2,0.1,0.4,0.3c0,9.1,0,18.3,0,27.5c4.5-0.5,6.4-0.1,7.9,1.7
		C52.4,218.8,51.3,218.8,50.4,218.8z M54,221.4c-0.1-0.2-0.2-0.4-0.2-0.5c0-0.1,0.1-0.2,0.1-0.2c0,0,0.1-0.1,0.1-0.1
		c0.1,0,0.3-0.1,0.5-0.1c9.3,0,18.5,0,27.8-0.1c0,0,0.1,0,0.3-0.1c1.5-4.1,4.1-7.3,8.4-9.4c0,0.8,0,1.4,0,2
		c-4.6,3.6-5.2,4.4-7.1,9.6c-8.9,0-17.7,0-26.8,0c0.6,2.9,0.5,5.5-1.4,8.1c-0.1-0.5-0.2-0.8-0.2-1.1c0-1.1,0-2.2,0-3.3
		C55.5,224.6,55.1,222.9,54,221.4z M55.5,248c0-0.5,0-1,0-1.6c0.4-0.2,0.8-0.4,1.2-0.6c5.7-2.4,9.8-6.4,12.1-12.1
		c0.6-1.4,0.6-1.4,2.2-1.2C69.6,239.3,61.3,247.5,55.5,248z M55.4,243.4c0-0.4,0-0.8,0.1-1.2c0.4-0.2,0.8-0.5,1.2-0.7
		c3.4-1.8,6-4.3,7.7-7.8c0.8-1.5,0.8-1.5,2.9-1.2c-2.3,5.7-6.1,9.5-11.8,11.8C55.5,243.9,55.4,243.6,55.4,243.4z M90.9,247.9
		c-5.3,0.2-14-8.4-15.5-15.4c0.6,0,1.1,0,1.8,0c1.1,3.2,2.8,6.1,5.3,8.6c2.4,2.4,5.3,4.1,8.5,5.3C90.9,246.9,90.9,247.4,90.9,247.9z
		 M89.7,241.4c0.4,0.2,0.8,0.4,1.2,0.7c0,0.7,0,1.3,0,2c-4.5-0.8-10.7-7.1-11.6-11.5c1.8-0.4,1.9-0.4,2.6,1.1
		C83.7,237.1,86.3,239.7,89.7,241.4z M64,230.5c-1.1,3.2-2.9,5.8-5.5,7.8c-0.9,0.7-1.9,1.2-2.9,1.9c-0.5-1.9-0.5-1.9,0.8-2.7
		c2.7-1.8,4.6-4.3,5.6-7.4c0.5-1.6,0.5-1.6,2.3-1.6c7.7,0,15.4,0,23.1,0c0.6,0,1.2,0,2,0c-0.6-2.9-0.5-5.4,1.3-7.9
		c0.1,0.5,0.2,0.8,0.2,1.1c0,1.1,0,2.2,0,3.3c-0.1,1.7,0.3,3.3,1.3,4.7c0.1,0.2,0.2,0.4,0.4,0.8C83,230.5,73.6,230.5,64,230.5z
		 M97.8,230.4c-2.7,0-4.8-2.3-4.8-4.9c0.1-2.6,2.2-4.7,4.9-4.7c2.7,0,4.8,2.2,4.8,4.9C102.6,228.3,100.4,230.5,97.8,230.4z
		 M102,218.7c-0.9,0-1.8,0-2.6,0c-3.3,0-3.3,0-6.2,1.6c-0.4-0.6-0.2-1.3-0.2-1.9c0-7.9,0-15.8,0-23.7c0-0.9,0-1.8,0-2.6
		c0.1-1-0.3-1.5-1.2-1.8c-3.1-1.2-5.5-3.3-7.3-6c-0.4-0.6-0.7-1.2-1-1.7c1.5-0.6,1.8-0.5,2.4,0.4c2,3.1,4.8,5.2,8.4,6.2
		c0.2,0.1,0.4,0.1,0.7,0.3c0,9.2,0,18.3,0,27.7c2.9-0.6,5.5-0.5,8,1.4C102.5,218.6,102.2,218.7,102,218.7z M105.4,218.3
		c-2.2-2.2-4.9-3.2-8-3.2c-0.1,0-0.3-0.1-0.7-0.1c0-9,0-18,0-27c-3.8-0.6-6.9-2.2-9.2-5.4c1-0.4,1.8-0.5,2.5,0.2
		c2.3,2.3,5.1,3.3,8.2,3.4c0.1,0,0.2,0.1,0.5,0.2c0.1,2.9,0,5.9,0,8.8c0,2.9,0,5.9,0,8.8c0,3,0,6,0,8.9c1.8,0.7,3.5,1.2,5.1,2
		c1.6,0.8,3,2,4,3.8C107,218.8,106.2,219,105.4,218.3z M104.9,203.2c5.8,0.5,14,8.6,15.4,15.4c-0.4,0-0.6,0.1-0.8,0.1
		c-0.2,0-0.5,0-0.8-0.1c-0.2-0.3-0.3-0.7-0.5-1c-2.4-5.9-6.5-10-12.3-12.4C104.6,204.8,104.6,204.8,104.9,203.2z M104.8,207
		c5.2,1.3,10.8,7.5,11.5,11.5c-1.8,0.5-1.8,0.4-2.6-1.1c-1.8-3.3-4.3-5.9-7.6-7.6C104.6,209,104.6,209,104.8,207z M112.2,218.5
		c-1.6,0.5-1.6,0.5-2.5-0.8c-1.9-2.8-4.5-4.7-7.7-5.7c-0.4-0.1-0.8-0.3-1.3-0.4c0-9.2,0-18.3,0-27.7c-2.9,0.6-5.5,0.5-8.1-1.4
		c0.6-0.1,0.9-0.2,1.2-0.2c0.8,0,1.6-0.1,2.3,0c2.3,0.3,4.4-0.1,6.2-1.5c0.1,0,0.2,0.1,0.2,0.1s0.1,0.1,0.1,0.1
		c0,0.1,0.1,0.2,0.1,0.3c0,9.6,0,19.2,0,28.9C108.5,213,111.1,215.3,112.2,218.5z M105.4,168c-2.2-2.2-4.9-3.2-8-3.2
		c-0.1,0-0.3-0.1-0.6-0.1c0-8.9,0-17.8,0-26.9c-3.8-0.7-7-2.2-9.3-5.6c1.2-0.2,2.1-0.3,3,0.6c2,2,4.4,2.9,7.3,3c0.2,0,0.4,0,0.6,0
		c0.1,0,0.2,0.1,0.5,0.2c0,8.9,0,17.9,0,26.9c2.6,0.4,4.9,1.2,6.8,2.8c0.8,0.7,1.6,1.6,2.3,2.5C107,168.5,106.2,168.8,105.4,168z
		 M104.8,153c7,1.6,13.9,8.7,15.5,15.4c-0.6,0-1.1,0-1.7,0c-2.5-6.7-7.1-11.3-13.8-13.8c0-0.4-0.1-0.8-0.1-1.1
		C104.7,153.4,104.8,153.2,104.8,153z M104.9,156.9c4.3,0.8,10.3,6.6,11.5,11.5c-0.7,0-1.3,0-2.1,0c-0.2-0.4-0.4-0.7-0.6-1.1
		c-1.8-3.4-4.3-6-7.8-7.8C104.5,158.8,104.5,158.8,104.9,156.9z M110.1,164.9c0.9,1,1.6,2.1,2.2,3.4c-1.7,0.5-1.8,0.5-2.6-0.7
		c-1.9-2.7-4.4-4.6-7.6-5.6c-0.4-0.1-0.8-0.3-1.3-0.5c0-9.2,0-18.3,0-27.7c-2.9,0.7-5.6,0.5-7.9-1.2c0-0.1,0-0.3,0.1-0.4
		c1.3,0,2.6-0.1,3.8,0c2,0.1,3.8-0.2,5.4-1.4c0.1-0.1,0.3-0.1,0.6-0.2c0,9.9,0,19.7,0,29.5C105.6,161.1,108.1,162.6,110.1,164.9z
		 M105.3,117.9c-2.1-2.1-4.7-3.2-7.7-3.1c-0.2,0-0.4,0-0.9-0.1c0-9.1,0-18,0-27.1c-3.9-0.6-6.9-2.2-9.3-5.6c1.1-0.2,1.9-0.4,2.7,0.4
		c2.1,2.2,4.7,3.3,7.8,3.2c0.2,0,0.4,0.1,0.8,0.1c0.1,3,0,5.9,0.1,8.9c0,3,0,6,0,9s0,6,0,9.1c3.8,0.6,6.9,2.2,9.2,5.5
		C106.9,118.5,106.1,118.6,105.3,117.9z M104.8,102.9c6.7,1.3,14,8.5,15.5,15.4c-1.6,0.2-1.6,0.2-2.1-0.9c-2.4-6-6.6-10.1-12.6-12.5
		c-0.2-0.1-0.5-0.2-0.8-0.4C104.8,104,104.8,103.4,104.8,102.9z M104.8,106.5c5.6,2.3,9.5,6.1,11.8,11.7c-2,0.4-2.1,0.4-2.8-1
		c-1.8-3.4-4.3-6-7.8-7.8c-0.3-0.2-0.6-0.3-0.9-0.5c-0.1,0-0.2-0.1-0.2-0.2C104.8,108.1,104.8,107.4,104.8,106.5z M120.3,82
		c-1.2,6-7.7,13.9-15.5,15.6c0-0.2-0.1-0.4-0.1-0.6c0-0.4,0-0.7,0.1-1c8.6-4.3,9.4-5.2,13.9-14C119.2,82,119.8,82,120.3,82z
		 M106.1,90.9c3.4-1.7,5.9-4.3,7.6-7.6c0.8-1.5,0.8-1.5,2.6-1.3c-0.1,3.9-6.6,10.6-11.5,11.7C104.6,91.7,104.6,91.7,106.1,90.9z
		 M110.1,114.7c0.8,1,1.5,2.2,2.3,3.3c-1.5,0.6-1.9,0.6-2.5-0.2c-2.1-3.2-4.9-5.3-8.5-6.3c-0.2-0.1-0.4-0.2-0.7-0.3
		c0-9.2,0-18.3,0-27.6c-2.9,0.6-5.6,0.5-8.2-1.5c1.2-0.3,2.2-0.2,3.2-0.2c2.4,0.2,4.7,0.1,7-1.8c0.1,2.8,0,5.3,0,7.7
		c0,2.4,0,4.9,0,7.3c0,2.5,0,5,0,7.4c0,2.4,0,4.8,0,7.4C105.6,110.9,108.1,112.4,110.1,114.7z M93,75.1c0-2.6,2.2-4.8,4.8-4.8
		c2.6,0,4.8,2.2,4.8,4.8c0,2.6-2.3,4.8-4.8,4.8C95.2,79.9,93,77.7,93,75.1z M101.8,68.2c-0.8,0-1.6,0-2.5,0c-3.2,0-3.4,0.1-6.2,1.7
		c-0.4-0.5-0.2-1.2-0.2-1.8c0-8.5,0-17.1,0.1-25.6c0-0.4,0-0.7,0-1.1c0.2-1.2-0.3-1.7-1.4-2.2c-3.2-1.3-5.6-3.4-7.4-6.3
		c-0.2-0.4-0.4-0.7-0.6-1.1c-0.1-0.1,0-0.3-0.1-0.5c0.9-0.1,1.7-0.4,2.3,0.6c2,3.2,4.9,5.3,8.5,6.3c0.1,0,0.3,0.1,0.4,0.2
		c0,0,0.1,0.1,0.2,0.2c0,9.2,0,18.5,0,28c2.8-0.7,5.4-0.5,8,1.3C102.4,68.1,102.1,68.2,101.8,68.2z M105.3,67.6
		c-2.1-2.1-4.6-3.1-7.5-3.1c-0.1,0-0.3,0-0.5,0c-0.1,0-0.2-0.1-0.4-0.2c0-9,0-18.1,0-27c-1.9-0.7-3.6-1.3-5.3-2.1
		c-1.6-0.8-2.9-2.1-4-3.8c1.1-0.2,2-0.4,2.7,0.4c2.1,2.1,4.6,3.2,7.6,3.2c0.2,0,0.5,0.1,0.9,0.1c0.1,9.1,0,18.2,0.1,27.5
		c3.8,0.6,6.9,2.2,9.2,5.4C106.9,68.3,106.1,68.4,105.3,67.6z M104.8,52.8c5.3-0.1,14.4,8.9,15.5,15.4c-0.5,0-1,0.1-1.7,0.1
		c-1.2-3.2-2.9-6.1-5.3-8.6c-2.4-2.4-5.3-4.1-8.5-5.3C104.8,53.8,104.8,53.3,104.8,52.8z M104.7,41c0.4-0.2,0.8-0.4,1.1-0.6
		c3.5-1.8,6.1-4.4,7.9-7.8c0.8-1.5,0.8-1.5,2.6-1.2c-0.5,4.1-6.3,10.2-11.6,11.7c-0.1-0.4-0.1-0.6-0.1-0.9
		C104.7,41.9,104.7,41.5,104.7,41z M105.8,44.8c5.9-2.4,10-6.5,12.3-12.3c0.5-1.3,0.5-1.3,2-1.1c0,5.4-9,14.6-15.4,15.5
		c0-0.5,0-1-0.1-1.6C105.1,45.2,105.4,45,105.8,44.8z M104.9,56.6c4.4,0.8,10.3,6.6,11.6,11.6c-0.4,0-0.7,0-1,0.1
		c-0.8,0.1-1.2-0.2-1.6-0.9c-0.9-1.5-1.9-3-3-4.3c-1.3-1.6-3.1-2.8-4.9-3.8C104.5,58.5,104.5,58.5,104.9,56.6z M97.8,19.7
		c2.6,0,4.8,2.1,4.9,4.8c0,2.6-2.2,4.9-4.8,4.9c-2.6,0-4.8-2.2-4.9-4.8C93,21.9,95.2,19.7,97.8,19.7z M96.7,31.3
		c2,0.2,3.8-0.2,5.4-1.3c0.1-0.1,0.3-0.1,0.6-0.2c0,10,0,19.9,0,29.9c4.2,1.6,7.6,4.2,9.6,8.3c-1.7,0.5-1.8,0.5-2.6-0.7
		c-1.9-2.8-4.6-4.7-7.8-5.8c-0.3-0.1-0.6-0.2-1-0.3c0-9.3,0-18.7,0-28.1c-4.3,0.6-6.5,0.1-8.1-1.7C94.2,31.3,95.4,31.1,96.7,31.3z
		 M92.8,29.4c-9.7,0-19.2,0-28.7,0c-2.9,5.7-5.4,8.5-8.6,9.4c-0.3-1.1-0.2-1.9,0.9-2.6c2.8-1.8,4.6-4.4,5.7-7.5
		c0.1-0.4,0.2-0.8,0.5-1.4c4.5,0,8.9,0,13.4,0c4.4,0,8.9,0,13.5,0c-0.7-2.9-0.5-5.4,1.3-7.9c0.1,0.5,0.2,0.8,0.2,1.1
		c0,1.1,0,2.2,0,3.3c0,1.8,0.4,3.4,1.4,4.8C92.5,28.8,92.6,29,92.8,29.4z M90.4,17c-2.1,2-3,4.5-3.1,7.4c0,0.3-0.1,0.6-0.2,1
		c-8.7,0-17.3,0-26.1,0c-0.6,3.9-2.2,7-5.6,9.4c-0.1-1.1-0.4-1.9,0.4-2.7c2.2-2.2,3.2-4.9,3.2-8c0-0.1,0-0.3,0.1-0.6
		c8.7,0,17.3,0,25.9,0c0.7-1.8,1.2-3.6,2-5.2c0.8-1.6,2-2.9,3.7-4C91,15.4,91.2,16.3,90.4,17z M90.9,2.1c0,0.5,0,1,0.1,1.6
		c-3.2,1.2-6.1,2.8-8.5,5.3s-4.1,5.3-5.3,8.6c-0.5,0-1.1,0-1.6,0C75.7,12,84.7,3,90.9,2.1z M89.6,8.7c-3.8,2-6.4,4.9-8.2,8.9
		c-0.7,0-1.4,0-2.3,0c2.3-5.6,6.1-9.4,11.7-11.8C91.1,7.9,91.1,7.9,89.6,8.7z M55.5,2.1C61.1,3.2,69,9.4,71,17.6
		c-0.3,0-0.5,0.1-0.7,0.1c-0.3,0-0.6,0-1-0.1c-2.5-6.7-7.1-11.4-13.8-13.8C55.5,3.2,55.5,2.6,55.5,2.1z M55.5,8c0-0.8,0-1.4,0-2.3
		C61.2,8,65,11.9,67.3,17.6c-0.9,0-1.5,0-2.3,0C63.1,13.2,59.8,10,55.5,8z M63.3,19.5c3.2,0,6.3,0,9.5,0c3.2,0,6.4,0,9.7,0
		c1.6-4.2,4.2-7.4,8.3-9.5c0.3,1.2,0.3,2-0.8,2.7c-2.9,1.9-4.8,4.5-5.8,7.8c-0.1,0.3-0.2,0.7-0.4,1.2c-8.9,0-17.7,0-26.9,0
		c0.6,2.1,0.7,4-0.1,5.8c-0.3,0.7-0.7,1.4-1,2.2c-0.1,0-0.2,0-0.4-0.1c0-0.4-0.1-0.8-0.1-1.3c0-1,0-2,0-2.9c0.1-1.8-0.3-3.4-1.3-4.8
		c-0.1-0.2-0.2-0.4-0.5-0.9C57,19.4,60.1,19.5,63.3,19.5z M48.6,19.7c2.7,0,4.8,2.2,4.8,4.8c0,2.6-2.2,4.8-4.8,4.8
		c-2.6,0-4.8-2.3-4.8-4.9C43.7,21.9,45.9,19.7,48.6,19.7z M43.6,31.3c1.1,0,2.1-0.1,3.2,0c2.3,0.2,4.5,0,6.7-1.9
		c0,0.9,0.1,1.5,0.1,2.1c0,8.5,0,17.1,0,25.6c0,0.4,0,0.7,0,1.1c-0.1,1.1,0.3,1.6,1.3,2.1c3.3,1.3,5.9,3.6,7.7,6.7
		c0.2,0.3,0.3,0.6,0.5,1.1c-1.3,0.4-2.1,0.1-2.8-1c-1.8-2.7-4.2-4.5-7.3-5.5c-0.4-0.1-0.9-0.3-1.5-0.5c0-2.3,0-4.6,0-6.9
		c0-2.4,0-4.8,0-7.1c0-2.3,0-4.7,0-7s0-4.6,0-7.1c-2.9,0.5-5.6,0.5-7.8-1.3C43.6,31.5,43.6,31.4,43.6,31.3z M43.1,28.8
		c0.1,0.1,0.1,0.3,0.2,0.7c-4.9,0-9.7,0-14.4,0s-9.5,0-14.2,0c-2.7,5.5-5.6,8.7-8.6,9.4c-0.4-1.1-0.1-1.9,1-2.6
		c2.8-1.8,4.6-4.3,5.6-7.4c0.1-0.4,0.3-0.9,0.5-1.5c8.9,0,17.7,0,26.8,0c-0.5-2.8-0.5-5.5,1.4-8c0.1,0.5,0.2,0.8,0.2,1.2
		c0,1,0.1,2,0,2.9C41.6,25.4,42,27.2,43.1,28.8z M41.3,16.9c-2.2,2.2-3.3,4.9-3.3,8c0,0.1-0.1,0.3-0.2,0.6c-8.6,0-17.3,0-26.1,0
		c-0.6,3.9-2.2,7.1-5.6,9.4c-0.3-1.3-0.3-2.1,0.6-3c1.9-1.9,2.9-4.3,2.9-7.1c0-0.4,0-0.7,0.1-1.2c8.7,0,17.4,0,26.2,0
		c0.6-3.8,2.2-6.9,5.4-9.2C41.8,15.3,42,16.1,41.3,16.9z M41.5,2.1c0.4,1.5,0.4,1.5-0.9,2.1c-5.9,2.4-10,6.6-12.4,12.5
		c-0.1,0.3-0.2,0.6-0.4,1c-0.4,0-0.7,0-1,0c-0.2,0-0.4-0.1-0.6-0.1C27.1,11.3,35.6,2.8,41.5,2.1z M40.6,8.6c-3.5,1.8-6.2,4.5-8,8
		c-0.2,0.3-0.3,0.6-0.5,1c-0.7,0-1.4,0-2,0c0.4-4.2,7-10.8,11.4-11.6C42,7.8,41.9,7.9,40.6,8.6z M6.2,2.2
		c5.4,0.1,14.3,8.8,15.5,15.4c-0.6,0-1.1,0-1.6,0c-0.2-0.4-0.4-0.8-0.5-1.1c-2.4-5.8-6.5-9.8-12.2-12.2C6,3.7,6,3.7,6.2,2.2z
		 M11.8,11.9c-1.7-1.5-3.7-2.8-5.7-4.2c0-0.4,0-0.9,0-1.6c3.6,0.2,10.6,6.3,11.7,11.5c-0.3,0-0.5,0.1-0.8,0.1c-0.4,0-0.8,0-1.3-0.1
		C14.8,15.5,13.6,13.4,11.8,11.9z M18.8,19.5c4.7,0,9.5,0,14.4,0c1.6-4.3,4.2-7.4,8.2-9.4c0.5,1.5,0.5,1.8-0.4,2.4
		c-3.2,2.1-5.3,5-6.3,8.7c0,0.1-0.1,0.2-0.2,0.5c-2.1,0.1-4.3,0-6.5,0c-2.3,0-4.6,0-6.8,0c-2.2,0-4.5,0-6.7,0s-4.4,0-6.8,0
		c0.7,2.9,0.5,5.5-1.5,7.8c0-0.5-0.1-1.1-0.1-1.6c0-0.8-0.1-1.5,0-2.3c0.2-2-0.2-3.8-1.5-5.4c-0.1-0.1-0.1-0.3-0.2-0.6
		C9.3,19.5,14,19.5,18.8,19.5z"/>
</g>
<g>
	<path class="st2" d="M60.8,88.4h9.1l0.4,16.6c0,2.9,0,5.8,0,8.7h0.2c0.4-2.9,1.1-5.8,1.6-8.7l1.9-8.1h5.2l1.7,8.1
		c0.5,2.7,1.2,5.7,1.6,8.7h0.2c0-3,0-5.9,0-8.7l0.4-16.6h8.5l-3.9,33.5h-9.2l-1.5-9.2c-0.4-2.2-0.7-4.5-0.8-6.5h-0.1
		c-0.2,2-0.4,4.4-0.8,6.5l-1.4,9.2h-9L60.8,88.4z"/>
	<path class="st2" d="M95,114.5h7.6V95.8H95v-7.4h24.1v7.4h-7.6v18.7h7.6v7.4H95V114.5z"/>
	<path class="st2" d="M125.4,88.4h9v12.5h0.2l8.2-12.5h9.8l-18.2,24.9v8.6h-9V88.4z M136.8,107.6l5.2-6.9l11.4,21.2h-9.8
		L136.8,107.6z"/>
	<path class="st2" d="M156.8,114.5h7.6V95.8h-7.6v-7.4H181v7.4h-7.6v18.7h7.6v7.4h-24.1V114.5z"/>
	<path class="st2" d="M78.4,159l5.1-6.1c2.5,1.9,5.5,3.2,8.6,3.2c2.7,0,3.7-0.9,3.7-2c0-2-1.8-2.4-4.8-3.6l-4.2-1.8
		c-3.9-1.4-7.1-4.5-7.1-9.3c0-5.7,5.2-10.4,12.8-10.4c4,0,8.2,1.4,11.4,4.5l-4.4,5.6c-2.4-1.6-4.3-2.4-7.5-2.4c-2,0-3.3,0.7-3.3,2.3
		s1.9,2.1,5.3,3.3l3.9,1.6c4.5,1.6,7.1,4.5,7.1,9.2c0,5.7-4.7,10.7-13.4,10.7C87,163.8,82.1,162.2,78.4,159z"/>
	<path class="st2" d="M109.7,129.7h9l2.7,10.9l0.9,4.3h0.2l0.9-4.3l2.7-10.9h9v33.5h-7.3v-7.9c0-4,0.7-13.1,1.1-17h-0.2l-2.8,9.9
		l-1.8,6.1h-3.9l-1.9-6.1l-2.6-9.9h-0.2c0.4,3.9,1.1,13,1.1,17v7.9h-7.2V129.7z"/>
	<path class="st2" d="M149,137.1h-9.6v-7.4h28.1v7.4h-9.6v26.1H149L149,137.1L149,137.1z"/>
</g>
</svg>
