<?xml version="1.0" encoding="utf-8"?>
<!-- Generator: Adobe Illustrator 25.4.1, SVG Export Plug-In . SVG Version: 6.00 Build 0)  -->
<svg version="1.1" id="Capa_1" xmlns="http://www.w3.org/2000/svg" xmlns:xlink="http://www.w3.org/1999/xlink" x="0px" y="0px"
	 viewBox="0 0 250 250" style="enable-background:new 0 0 250 250;" xml:space="preserve">
<style type="text/css">
	.st0{fill:#004947;}
	.st1{opacity:0.1;}
	.st2{fill:#FFFFFF;}
</style>
<rect x="0" y="0.1" class="st0" width="249.9" height="249.9"/>
<g class="st1">
	<path class="st2" d="M1.1,12.3c1.8,0.7,3.5,1.3,5.2,2c1.6,0.8,2.9,2,4,3.7C9,18.3,8,18.2,7.1,17.3c-1.8-1.8-4.2-2.7-7-2.8
		c0,0.5-0.1,1-0.1,1.5c1.8,0.5,3.6,0.6,5.2,2.1c-1.9,0-3.4,0-5.1,0c0,0.7,0,1.3,0,1.9c3.2,0.9,4.6,2.4,4.7,4.8
		c0.1,2.6-1.2,4-4.7,5.2c0,0.5,0,1,0,1.7c1.8,0.3,3.1-0.6,4.5-1.5C5.2,30.8,5,31.4,5,32c0,7.9,0,15.9,0,23.8c0,1.4,0,2.8,0,4.3
		c4.2,1.6,7.4,4.1,9.4,8.2c-1.7,0.5-1.8,0.5-2.6-0.7c-1.9-2.7-4.4-4.6-7.5-5.6c-1.6-0.5-1.4-0.7-1.4-1.9c0-8.2,0-16.4,0-24.6
		c0-0.6,0-1.2,0-2c-1,0.1-1.8,0.3-2.7,0.4c-0.2,0.7-0.4,1.4,0.5,1.7C0.9,35.6,1,36.1,1,36.3c0.1,0.4,0,0.8,0,1.2
		c0,7.8,0,15.6,0,23.5c0,0.6,0,1.1,0,1.9c3.7,0.6,6.9,2.2,9.2,5.5c-1.4,0.3-2.3,0.2-3.1-0.7c-1.9-1.8-4.2-2.7-7-2.8
		c0,0.6,0,1.1-0.1,1.6c1.8,0.4,3.5,0.6,5,1.9c-1.7,0.3-3.3,0-4.9,0.2c0,0.6,0,1.2,0,1.8c3.2,0.9,4.6,2.4,4.7,4.8
		c0.1,2.6-1.2,4-4.7,5.2c0,0.5,0,1,0,1.6c1.8,0.3,3.1-0.6,4.5-1.5C5.1,81.1,5,81.7,5,82.3c0,8.6,0,17.1,0,25.6c0,0.7,0,1.3,0,2
		c4.2,1.6,7.4,4.2,9.4,8.1c-1.3,0.6-1.8,0.6-2.3-0.3c-2.1-3.2-4.9-5.2-8.5-6.3c-0.2-0.1-0.4-0.2-0.7-0.3c0-9.1,0-18.3,0-27.5
		c-1,0.2-1.8,0.3-2.6,0.4c-0.2,0.7-0.5,1.3,0.4,1.7C0.8,85.9,1,86.3,1,86.6c0.1,0.4,0,0.8,0,1.2c0,7.7,0,15.3,0,23
		c0,0.6,0,1.2,0,1.9c2.9,0.5,5.4,1.5,7.5,3.4c0.6,0.6,1,1.2,1.7,1.9c-1.3,0.5-2.2,0.3-3-0.5c-1.9-1.8-4.2-2.9-7.1-2.8
		c0,0.6,0,1,0,1.6c1.7,0.3,3.4,0.5,5,1.9c-1.9,0.1-3.4,0.1-5,0.2c0,0.6,0,1.1,0,1.7c0.3,0.1,0.5,0.2,0.8,0.3
		c2.5,0.7,3.9,2.4,3.9,4.9c-0.1,2.3-1.6,4-4.1,4.6c-0.1,0-0.3,0.1-0.6,0.1c0,0.6,0,1.1,0,1.7c1.3,0.2,1.3,0.2,4.7-1.4
		c0.2,2,0.1,3.9,0.1,5.8c0,1.9,0,3.9,0,5.9s0,3.9,0,5.9s0,3.9,0,5.9c0,1.9,0,3.9,0,5.9c4.2,1.6,7.4,4.2,9.5,8.2
		c-1.8,0.5-1.8,0.5-2.7-0.8c-1.8-2.7-4.3-4.5-7.4-5.5c-0.4-0.1-0.9-0.3-1.5-0.5c0-9.1,0-18.3,0-27.5c-1,0.1-1.8,0.3-2.7,0.4
		c-0.1,0.7-0.5,1.4,0.5,1.7c0.2,0.1,0.3,0.4,0.3,0.6c0.1,0.4,0,0.8,0,1.2c0,7.8,0,15.5,0,23.3c0,0.6,0,1.1,0,1.8
		c2.7,0.4,5.2,1.3,7.2,3.1c0.7,0.6,1.3,1.4,2.1,2.2c-1.4,0.3-2.3,0.2-3.2-0.7c-1.9-1.8-4.2-2.7-6.9-2.7c-0.1,0.5-0.1,0.9-0.1,1.5
		c1.7,0.5,3.5,0.6,5.1,2.1c-1.9,0-3.4,0-5,0c0,0.8,0,1.3,0,2c1.6,0.3,3,0.9,3.9,2.3c0.6,0.9,0.8,1.9,0.7,2.9
		c-0.1,2.3-1.6,3.7-4.7,4.6c0,0.6,0,1.1,0,1.8c0.9,0.1,1.7-0.1,2.4-0.4c0.7-0.3,1.4-0.7,2.4-1.3c0,3.4,0,6.6,0,9.8
		c0,3.3,0,6.6,0,9.9c0,3.2,0,6.5,0,9.8c4.2,1.6,7.4,4.2,9.5,8.2c-1.7,0.5-1.8,0.5-2.6-0.7c-1.9-2.9-4.6-4.8-7.9-5.8
		c-0.3-0.1-0.7-0.3-1.1-0.5c0-9.1,0-18.2,0-27.5c-1,0.2-1.8,0.3-2.7,0.5c-0.1,0.7-0.3,1.4,0.6,1.7c0.2,0.1,0.3,0.6,0.3,0.9
		c0,1.2,0,2.5,0,3.7c0,6.8,0,13.6,0,20.4c0,0.6,0,1.1,0,1.8c3.7,0.7,6.9,2.1,9.1,5.5c-1.3,0.3-2.1,0.2-3-0.6c-2.1-2-4.6-2.9-7.1-2.7
		c0,0.5,0,0.9-0.1,1.5c1.8,0.4,3.5,0.5,5.1,2c-1.8,0-3.3,0-5,0c0,0.7,0,1.3,0,2c1.5,0.2,2.8,0.8,3.7,2c0.6,0.8,0.9,1.7,0.9,2.7
		c0,2.6-1.1,3.9-4.7,5.1c0,0.3-0.1,0.6-0.1,0.9c0,0.2,0.1,0.5,0.1,0.8c1.8,0.3,3.1-0.7,4.5-1.5c0.5,0.6,0.3,1.2,0.3,1.8
		c0,5.8,0,11.6,0,17.4h2.8c0,0,0,0,0.1,0c7.9-2.7,13.3-8,16.2-15.8c0.1-0.2,0.2-0.4,0.3-0.6c0,0,0.1-0.1,0.3-0.2
		c0.2,0.4,0.3,0.7,0.4,1c2.9,7.5,8.2,12.6,15.7,15.3c0.2,0.1,0.4,0.1,0.7,0.2h2.8c0-3,0-6,0-8.9c-5.4-2.5-8.4-5.3-9.4-8.5
		c1.6-0.4,1.6-0.4,2.5,0.8c1.9,2.8,4.4,4.7,7.6,5.7c0.4,0.1,0.8,0.3,1.3,0.5c0,3.5,0,6.9,0,10.4h1.9c0-4,0-7.9,0-11.9
		c-3.9-0.6-6.9-2.2-9.2-5.5c1.3-0.3,2.1-0.3,3,0.6c1.9,1.9,4.3,2.9,7.1,3c0.2,0,0.5,0,0.8,0.1c0.1,0,0.2,0.1,0.4,0.2
		c0,4.5,0,9.1,0,13.6h1.9c0-5.3,0-10.6,0-16c-2.9,0.6-5.5,0.5-8-1.5c0.6-0.1,0.9-0.2,1.2-0.2c0.9,0,1.7-0.1,2.6,0
		c2.2,0.2,4.2-0.1,6.1-1.7c0.1,0.5,0.2,0.8,0.2,1.1c0,6.1,0,12.1,0,18.2h2.8c0.1,0,0.2-0.1,0.3-0.1c7.6-2.7,12.9-7.8,15.9-15.3
		c0.1-0.3,0.3-0.7,0.4-1c0.7,0.2,0.7,0.9,0.8,1.4c2.8,6.8,7.5,11.6,14.4,14.5c0.6,0.2,1.2,0.4,1.7,0.6h2.8c0-2.3,0-4.7,0-7
		c0-0.7,0-1.3,0-2c-4.3-1.6-7.5-4.2-9.5-8.3c1.5-0.5,1.8-0.5,2.4,0.5c2,3.1,4.8,5.2,8.4,6.2c0.2,0.1,0.4,0.2,0.7,0.3
		c0,3.4,0,6.9,0,10.4h1.8c0-3.9,0-7.9,0-11.9c-3.8-0.6-6.9-2.2-9.2-5.5c1.1-0.2,1.9-0.5,2.7,0.3c2.2,2.2,4.8,3.3,7.9,3.2
		c0.1,0,0.3,0.1,0.6,0.1c0,0.6,0.1,1.3,0.1,1.9c0,4,0,7.9,0,11.9h1.8c0-5.3,0-10.6,0-16c-2.9,0.6-5.5,0.5-7.8-1.2c0-0.1,0-0.2,0-0.4
		c0.9,0,1.8-0.1,2.7,0c2.4,0.1,4.8,0.2,7.1-1.8c0.2,2.4,0.1,4.3,0.1,6.3c0,1.9,0,3.9,0,5.9c0,2,0,4,0,6c0,0.4,0,0.9,0,1.3h2.9
		c0.1,0,0.3-0.1,0.4-0.1c7.3-2.6,12.4-7.4,15.3-14.3v-5c-2.7,0-5.4,0-8.1,0c-1.5,4.2-4.2,7.5-8.3,9.5c-0.5-1.7-0.4-1.8,0.5-2.5
		c3.1-2,5-4.8,6.1-8.3c0.1-0.2,0.1-0.4,0.3-0.9c3.2,0,6.4,0,9.5,0V226c-3.7,0-7.3,0-11,0c-0.4,2.9-1.4,5.5-3.4,7.5
		c-0.6,0.6-1.1,1.3-2.1,1.6c-0.3-1.1-0.2-2,0.7-2.9c1.7-1.7,2.6-3.8,2.8-6.2c0.1-0.6,0.1-1.2,0.2-2c4.3,0,8.6,0,12.9,0v-1.9
		c-4.3,0-8.7,0-13.1,0c-0.6,0-1.2,0-1.8,0c0,1.5,0.1,2.9,0,4.2c-0.1,1.3-0.5,2.6-1.8,3.9c0-1.5-0.1-2.7,0-3.8c0.2-2.1-0.2-4-1.5-5.7
		c-0.1-0.1-0.1-0.3-0.2-0.7c5.1,0,10.1,0,15.1,0c1.1,0,2.2,0,3.2,0v-4.9c-2.9-6.9-8-11.6-15.2-14.2c-0.5-0.2-1-0.4-1.5-0.6
		c0.3-0.8,1-0.8,1.4-0.9c6.3-2.2,11.1-6.3,14.3-12.2c0.3-0.7,0.7-1.4,0.9-2.1v-5c-2.6,0-5.2,0-7.8,0c-1.2,1.9-2.2,3.8-3.5,5.5
		c-1.3,1.7-3.1,3-5.2,4c-0.3-1.3-0.2-2,0.9-2.7c2.7-1.7,4.6-4.3,5.6-7.4c0.1-0.4,0.3-0.9,0.5-1.5c3.2,0,6.4,0,9.6,0v-1.9
		c-3.7,0-7.3,0-11.1,0c-0.6,4-2.2,7-5.4,9.2c-0.3-1-0.5-1.9,0.3-2.6c2.1-2.1,3.1-4.7,3.2-7.6c0-0.3,0.1-0.6,0.2-1
		c4.3,0,8.5,0,12.8,0v-1.8c-5,0-10.1,0-15.1,0c0.7,2.9,0.5,5.5-1.1,7.8c-0.1,0-0.3,0-0.4,0c0-1.1-0.1-2.2,0-3.3
		c0.2-2.2-0.2-4.2-1.5-6c0-0.1,0-0.2,0-0.5c0.6,0,1.2,0,1.8,0c5.5,0,11,0,16.4,0v-5.1c-3.1-7.2-8.7-12.1-16.7-14.6
		c0-0.1,0-0.3,0-0.4c0.4-0.2,0.8-0.3,1.2-0.5c7.3-2.6,12.5-7.4,15.4-14.4v-5c-1.3,0-2.5,0-3.8,0c-1.4,0-2.9,0-4.4,0
		c-1.6,4.3-4.2,7.4-8.2,9.5c-0.5-1.7-0.5-1.8,0.8-2.6c2.8-1.9,4.7-4.4,5.7-7.7c0.1-0.3,0.2-0.7,0.3-1c0,0,0.1-0.1,0.3-0.3
		c3.1,0,6.2,0,9.4,0v-1.8c-0.6,0-1.2,0-1.8,0c-1.5,0-3.1,0-4.6,0s-3.1,0-4.7,0c-0.6,3.8-2.2,6.9-5.5,9.2c-0.2-1.2-0.4-2,0.5-2.9
		c1.9-1.9,2.9-4.2,3-6.9c0-0.5,0.1-0.9,0.1-1.5c4.3,0,8.6,0,12.9,0v-1.9c-5,0-10.1,0-15.2,0c0.8,2.9,0.6,5.5-1.4,8.1
		c-0.1-0.7-0.2-1.1-0.2-1.5c0-1.2,0-2.4,0-3.5c0-1.8-0.6-3.4-1.7-4.8c0.1-0.2,0.1-0.2,0.1-0.2s0.1-0.1,0.1-0.1
		c0.1,0,0.2-0.1,0.3-0.1c5.9,0,11.9,0,17.8,0v-5c-2.9-6.8-7.9-11.6-15.1-14.2c-0.4-0.2-0.9-0.3-1.3-0.5c-0.1,0-0.1-0.1-0.2-0.2
		c0.1-0.7,0.7-0.6,1.2-0.8c4.7-1.6,8.7-4.3,11.9-8.3c1.5-1.8,2.6-3.8,3.6-6v-5.2c-2.7,0-5.4,0-8.1,0c-1.6,4.3-4.2,7.5-8.5,9.7
		c0-0.8-0.1-1.4-0.1-2.1c3.6-2.1,6-5.3,7.1-9.6c1.8-0.1,3.7,0,5.6,0c1.3,0,2.7,0,4,0v-1.9c-3.7,0-7.3,0-11,0
		c-1.1,4.9-2.6,7.3-5.5,9.1c-0.3-0.9-0.5-1.8,0.2-2.5c2.2-2.2,3.2-4.8,3.2-7.9c0-0.2,0.1-0.4,0.1-0.7c4.3,0,8.6,0,12.8,0v-1.8
		c-4.4,0-8.7,0-13.1,0c-0.6,0-1.2,0-2,0c0.7,3,0.5,5.5-1.5,7.8c0-0.9-0.1-1.7-0.1-2.6c0.1-2.5,0.1-4.9-1.7-6.9
		c0.1-0.2,0.1-0.2,0.2-0.3c0,0,0.1-0.1,0.1-0.1c0.2,0,0.4-0.1,0.6-0.1c5.8,0,11.6,0,17.5,0v-4.9c-3-6.9-8-11.6-15.3-14.3
		c-0.5-0.2-1.4-0.1-1.4-1c0-0.9,0.9-0.8,1.4-0.9c7.2-2.6,12.3-7.4,15.3-14.3v-5.1c-2.7,0-5.4,0-8.1,0c-1.6,4.4-4.2,7.6-8.3,9.6
		c-0.5-1.8-0.5-1.8,0.8-2.6c2.7-1.8,4.6-4.3,5.6-7.4c0.1-0.4,0.3-0.9,0.5-1.5c3.2,0,6.4,0,9.6,0V26c-1.8,0-3.6,0-5.4,0
		c-1.8,0-3.7,0-5.6,0c-0.6,3.9-2.2,6.9-5.4,9.2c-0.3-1-0.5-1.9,0.2-2.6c2.3-2.2,3.2-4.9,3.2-8.1c0-0.1,0.1-0.3,0.1-0.6
		c4.3,0,8.5,0,12.8,0v-1.8c-4.4,0-8.9,0-13.3,0c-0.6,0-1.1,0-1.7,0c0.3,4.8,0.1,5.9-1.5,7.9c-0.1-0.5-0.2-0.9-0.2-1.2
		c0-0.9-0.1-1.8,0-2.6c0.2-2-0.2-3.9-1.5-5.5c-0.1-0.1-0.1-0.3-0.2-0.7c2.1-0.1,4,0,6,0c2,0,4,0,6,0s4,0,6,0c0.1,0,0.2,0,0.3,0v-4.9
		c-2.9-6.8-8-11.6-15.1-14.2c-0.2-0.1-0.4-0.1-0.6-0.2H103c0,3,0,6,0,9c4.3,1.6,7.6,4.2,9.6,8.4c-1.3,0.4-2.1,0.2-2.7-0.9
		c-1.7-2.7-4.3-4.5-7.4-5.6c-0.4-0.1-0.8-0.3-1.2-0.4c0,0-0.1-0.1-0.2-0.3c0-3.4,0-6.8,0-10.2h-1.9c0,4,0,8,0,12
		c2.8,0.4,5.3,1.4,7.3,3.3c0.7,0.6,1.3,1.2,1.8,2.2c-1.1,0.1-2,0.3-2.9-0.5c-2-2-4.5-3-7.4-3c-0.2,0-0.5,0-0.9-0.1
		c-0.2-1.8-0.1-3.6-0.1-5.4c0-1.8,0-3.6,0-5.4c0-1,0-2,0-3h-1.9c0,5.3,0,10.6,0,16c3-0.8,5.5-0.5,7.8,1.4c-0.3,0-0.7,0.1-1,0.1
		c-1.1,0-2.2,0-3.2,0c-2.1,0-2.1,0-5.6,1.7c0-6.4,0-12.8,0-19.2h-2.8c-8,2.7-13.4,8-16.4,15.9c-0.1,0.1-0.1,0.3-0.2,0.4
		c0,0-0.1,0.1-0.3,0.2C72,13,69.8,9.4,66.6,6.4c-2.9-2.7-6.2-4.5-9.9-5.8H54c0,3,0,6,0,9c3,1.1,5.5,2.7,7.4,5c0.8,1,1.6,2,2,3.2
		c-1.8,0.4-1.8,0.4-2.6-0.8c-1.9-2.7-4.4-4.6-7.5-5.6c-0.4-0.1-0.9-0.3-1.4-0.5c0-3.5,0-7,0-10.4h-1.8c0,4,0,7.9,0,11.9
		c3.8,0.6,6.9,2.2,9.2,5.5c-1.1,0.2-2,0.4-2.8-0.4c-2.1-2.1-4.6-3.1-7.5-3.1c-0.2,0-0.5-0.1-0.9-0.1c-0.1-3,0-5.9,0-8.9
		c0-1.6,0-3.2,0-4.9h-1.8c0,5.3,0,10.6,0,16c2.9-0.7,5.5-0.5,7.8,1.6c-0.7,0-1.4,0-2.1,0c-4.2,0-4.2,0-7.6,1.7c0-6.4,0-12.8,0-19.2
		h-3.1c-1.6,0.7-3.2,1.3-4.5,2.1c-1.8,1.1-3.6,2.4-5.2,3.8c-1.5,1.4-2.8,3.1-4,4.9s-1.9,3.7-3,5.8c-1-2.7-2.3-5.3-4-7.5
		c-1.7-2.3-3.8-4.3-6.2-5.9c-2.1-1.4-4.3-2.4-6.6-3.2H4.9c0,3,0,6,0,9c4.3,1.6,7.5,4.2,9.6,8.4c-0.8,0-1.4,0-2.1,0
		c-0.2-0.2-0.4-0.5-0.6-0.8c-1.9-2.8-4.4-4.7-7.6-5.7c-1.5-0.5-1.4-0.6-1.4-1.9c0-3,0-6,0-9H1.1c0,3.3,0,6.6,0,9.9
		C1.1,11.2,1.1,11.8,1.1,12.3z M105.1,241.8c1.8-1.3,3.6-2.5,5.3-3.9c1.6-1.3,2.7-3,3.6-4.8c0.8-1.5,0.8-1.5,2.6-1.2
		c-0.5,3.4-5.5,9.8-11.5,11.6C105.1,242.9,105.1,242.2,105.1,241.8z M118.8,231.9c0.6,0,1.1,0,1.7,0c-1.3,6.8-8.8,14.2-15.4,15.5
		c0-0.5-0.1-1-0.1-1.6C111.7,243.3,116.3,238.7,118.8,231.9z M120.5,182c-1.4,6.9-8.6,14-15.4,15.5c0-0.6,0-1.1,0-1.7
		c6.7-2.4,11.3-7,13.7-13.8C119.4,182,119.9,182,120.5,182z M106.1,191c3.5-1.8,6.1-4.4,7.9-8c0.7-1.4,0.8-1.4,2.7-0.9
		c-2.2,5.5-6,9.3-11.5,11.5C104.6,192.1,104.7,191.7,106.1,191z M118.5,132.8c0.1-0.2,0.2-0.4,0.3-0.7c0.5,0,1.1,0,1.6,0
		c-1,6.3-8.3,14-15.3,15.4c-0.2-1.6-0.2-1.6,0.8-2C112,143.1,116.2,138.9,118.5,132.8z M106.3,141c3.3-1.7,5.9-4.3,7.6-7.6
		c0.8-1.5,0.8-1.5,2.6-1.2c-0.3,4-6.4,10.3-11.4,11.6C104.8,141.8,104.8,141.8,106.3,141z M105,2.7c6.3,1,13.8,8.5,15.5,15.4
		c-0.6,0-1.1,0.1-1.7,0.1c-2.5-6.7-7-11.4-13.8-13.8C105,3.8,105,3.3,105,2.7z M106.2,9.2c-1.5-0.8-1.5-0.8-1.1-2.6
		c4.6,1,10.6,7.1,11.4,11.5c-0.7,0-1.3,0-2,0c-0.2-0.3-0.4-0.7-0.6-1.1C112.2,13.6,109.6,11,106.2,9.2z M8.2,59.6
		c-1.5-0.8-1.5-0.8-1.3-2.6c3.6,0.3,10.2,5.9,11.6,11.4c-1.9,0.3-1.9,0.3-2.8-1.3C14,63.8,11.5,61.3,8.2,59.6z M8,45.2
		c5.8-2.4,9.9-6.5,12.3-12.3c0.5-1.3,0.5-1.3,2.1-1c-1,6.4-9.4,14.7-15.5,15.4c0-0.5,0-1,0-1.6C7.2,45.6,7.6,45.4,8,45.2z M6.9,43.5
		c0-0.7,0-1.3,0-2c0.4-0.2,0.8-0.4,1.2-0.6c3.4-1.8,6-4.3,7.7-7.7c0.8-1.5,0.8-1.5,2.6-1.2C18.1,36,11.4,42.7,6.9,43.5z M8.2,49.3
		c7.4-2.7,12.7-7.7,15.6-15c0.1-0.4,0.3-0.8,0.5-1.1c0-0.1,0.2-0.1,0.4-0.3c0.3,0.9,0.6,1.6,0.9,2.4c3.1,6.9,8.2,11.5,15.2,14
		c0.5,0.2,1.4,0.1,1.4,0.9c0,0.9-0.8,0.8-1.4,1c-7.5,2.6-12.6,7.7-15.6,15c-0.2,0.5-0.4,0.9-0.7,1.6c-0.3-0.6-0.5-1-0.7-1.5
		C21,58.9,15.7,53.9,8.3,51.2c-0.5-0.2-1.4-0.1-1.4-1C6.9,49.3,7.7,49.4,8.2,49.3z M59.3,68.3c-1.1,0.2-1.9,0.5-2.7-0.3
		c-2.1-2.2-4.8-3.2-7.8-3.2c-0.2,0-0.4-0.1-0.7-0.1c0-9,0-18.1,0-27.2c-3.8-0.6-6.9-2.2-9.2-5.5c1.3-0.3,2.1-0.2,3,0.6
		c1.8,1.9,4.1,2.8,6.8,2.9c0.3,0,0.7,0,1.1,0.1c0.1,0,0.2,0.1,0.4,0.2c0,8.9,0,18,0,27.2C53.9,63.5,56.9,65.1,59.3,68.3z M56,43.5
		c0-0.7,0-1.3,0-2c0.4-0.2,0.8-0.4,1.2-0.6c3.4-1.8,6-4.3,7.7-7.7c0.8-1.5,0.8-1.5,2.7-1.2C66.4,36.8,60.4,42.6,56,43.5z M69.3,32.9
		c0.5-1.3,0.6-1.3,2.1-0.9C70.3,38,63.5,45.6,56,47.4c0-0.6,0-1.1,0-1.7c0.3-0.1,0.5-0.3,0.8-0.4C62.8,43,66.9,38.8,69.3,32.9z
		 M56.4,49.6c0.2-0.1,0.5-0.2,0.7-0.3c7.6-2.6,12.9-7.7,15.8-15.2c0.1-0.3,0.3-0.7,0.4-1c0,0,0.1-0.1,0.3-0.3
		c0.2,0.5,0.4,0.9,0.6,1.4c3,7.4,8.2,12.3,15.6,15c0.5,0.2,1.4,0.1,1.4,0.9c0,0.9-0.8,0.8-1.4,1c-7.5,2.7-12.7,7.8-15.7,15.2
		c-0.1,0.4-0.3,0.7-0.6,1.3c-0.3-0.5-0.5-0.7-0.6-1C70.2,59,64.8,53.8,57,51.1c-0.2-0.1-0.5-0.1-0.7-0.3c-0.2-0.1-0.4-0.4-0.4-0.6
		C56,50,56.2,49.7,56.4,49.6z M90.6,45.4c0.2,0.1,0.4,0.2,0.7,0.3c0,0.6,0,1.1,0,1.6c-5.8-0.9-13.9-7.9-15.4-15.3
		c1.5-0.3,1.6-0.3,2,0.8C80.2,38.8,84.5,43,90.6,45.4z M79.7,31.9c1.9-0.2,1.9-0.2,2.7,1.3c1.7,3.3,4.2,5.8,7.5,7.5
		c0.4,0.2,0.8,0.4,1.2,0.7c0,0,0.1,0.1,0.1,0.2c0,0.6,0,1.3,0,1.9C86.9,42.6,80.7,36.8,79.7,31.9z M103.1,118.3
		c-0.4,0.1-0.8,0.1-1.1,0.2c-0.7,0-1.4,0-2.2,0c-3.5,0-3.5,0-6.4,1.6c-0.4-0.5-0.3-1.1-0.3-1.7c0-4.8,0-9.6,0-14.4
		c0-3.9,0-7.7,0-11.6c0-1.2-0.2-1.9-1.5-2.4c-3.1-1.2-5.5-3.4-7.2-6.3c-0.2-0.3-0.4-0.7-0.6-1.1c-0.1-0.1,0-0.3,0-0.5
		c0.9-0.1,1.7-0.4,2.3,0.6c2,3.2,4.9,5.2,8.5,6.3c0.1,0,0.3,0.1,0.6,0.2c0,9.1,0,18.3,0,27.5C99.6,116.4,101.3,116.7,103.1,118.3z
		 M102.9,125.3c0,2.6-2.2,4.7-4.8,4.7c-2.6,0-4.8-2.2-4.8-4.8c0-2.6,2.2-4.8,4.8-4.8C100.8,120.5,103,122.7,102.9,125.3z
		 M103.2,168.1c-0.5,0.1-0.8,0.2-1.1,0.2c-0.7,0-1.4,0-2.2,0c-3.4,0-3.6,0.1-6.5,1.7c-0.4-0.5-0.2-1.2-0.2-1.7c0-8.4,0-16.8,0-25.1
		c0-0.4,0-0.8,0-1.2c0.1-1-0.3-1.5-1.2-1.8c-3.2-1.3-5.7-3.4-7.5-6.4c-0.3-0.5-0.5-1-0.8-1.5c1.3-0.4,2-0.2,2.7,0.9
		c1.7,2.7,4.3,4.6,7.3,5.6c0.4,0.1,0.9,0.3,1.4,0.5c0,9.1,0,18.3,0,27.6C98.1,166.2,100.7,166.3,103.2,168.1z M102.9,175.2
		c0,2.6-2.2,4.8-4.8,4.8c-2.6,0-4.8-2.2-4.8-4.8c0-2.6,2.2-4.8,4.8-4.8C100.7,170.4,102.9,172.6,102.9,175.2z M50.1,203.7
		c0,3,0,5.9,0,9c2.9,0.5,5.5,1.5,7.5,3.5c0.6,0.6,1,1.2,1.7,2c-1.2,0.2-2.1,0.4-2.9-0.4c-2.1-2.1-4.7-3.1-7.7-3.1
		c-0.2,0-0.4-0.1-0.8-0.1c0-8.9,0-17.8,0-26.6c-1.8-0.7-3.5-1.3-5.1-2c-1.6-0.8-2.9-2.1-4-3.7c1-0.4,1.9-0.5,2.6,0.3
		c2.1,2.2,4.7,3.2,7.8,3.2c0.2,0,0.4,0.1,0.8,0.1c0.1,3,0,5.9,0.1,8.9C50.1,197.7,50.1,200.7,50.1,203.7z M53.4,211.6
		c-0.4-0.1-0.9-0.3-1.4-0.5c0-9.1,0-18.3,0-27.6c-2.9,0.7-5.5,0.5-7.8-1.2c0-0.1,0-0.2,0-0.4c0.9,0,1.9-0.1,2.9,0
		c2.4,0.3,4.7,0,7-1.9c0.1,2.8,0,5.2,0,7.7c0,2.4,0,4.8,0,7.3c0,2.5,0,4.9,0,7.4c0,2.4,0,4.8,0,7.3c4.2,1.6,7.5,4.2,9.5,8.3
		c-1.3,0.5-2.1,0.2-2.8-0.9C59,214.4,56.5,212.7,53.4,211.6z M6.9,146c0.4-0.2,0.7-0.3,1.1-0.5c5.8-2.3,9.8-6.4,12.2-12.2
		c0.5-1.3,0.5-1.3,2-1.1c0.2,5.3-9.5,15-15.3,15.4C6.9,147,6.9,146.5,6.9,146z M6.9,143.7c0-0.7,0-1.3,0-1.9
		c4.7-2.5,6.7-4.2,9.7-9.7c0.6,0,1.3,0,1.9,0C17.8,136.5,11.4,143,6.9,143.7z M21.1,130.2c-1.9,0-3.8,0-5.7,0
		c-1.6,4.3-4.2,7.4-8.2,9.5c-0.5-1.7-0.5-1.8,0.5-2.5c3-2,5.1-4.8,6.1-8.3c0.1-0.2,0.2-0.5,0.4-0.8c8.8,0,17.6,0,26.6,0
		c-0.6-2.8-0.5-5.4,1.4-8c0.5,3.5-0.6,7,2.1,10c-2.2,0.2-4.1,0.1-6,0.1c-1.9,0-3.8,0-5.7,0c-1.9,0-3.8,0-5.7,0S23,130.2,21.1,130.2z
		 M41.4,105c-5.9,2.3-10.1,6.4-12.5,12.3c-0.5,1.3-0.6,1.3-2.1,1c0.7-5.9,9.3-14.5,15.3-15.2c0,0.5,0,1,0.1,1.5
		C41.9,104.7,41.7,104.9,41.4,105z M42.2,108.8c-0.5,0.2-0.9,0.5-1.3,0.7c-3.3,1.7-5.9,4.3-7.6,7.6c-0.8,1.5-0.8,1.5-2.9,1.2
		c2.3-5.6,6.1-9.4,11.6-11.6c0.1,0.4,0.1,0.6,0.2,0.8C42.3,107.9,42.2,108.3,42.2,108.8z M42.2,100.4c-1.9,0.9-3.9,1.6-5.6,2.6
		c-1.8,1.1-3.6,2.4-5.2,3.9c-1.5,1.4-2.8,3.1-4,4.9c-1.1,1.7-1.9,3.7-3,5.8c-3.1-8.6-9-14.3-17.6-16.9c0-0.8,0.6-0.8,1-0.9
		c1.6-0.7,3.3-1.3,4.8-2.1c5.3-3,8.9-7.3,11.2-12.9c0.2-0.4,0.4-0.8,0.6-1.3c0,0,0.1-0.1,0.3-0.2c3,8.5,8.9,14.2,17.6,16.9
		C42.2,100.2,42.2,100.3,42.2,100.4z M7.9,95.6c5.8-2.4,9.9-6.5,12.3-12.3c0.5-1.3,0.5-1.3,2.1-1.1c-0.9,6.3-9.2,14.6-15.5,15.4
		c0-0.5,0-1-0.1-1.6C7.2,95.9,7.6,95.7,7.9,95.6z M6.9,93.8c0-0.7,0-1.3,0-2c0.4-0.2,0.8-0.4,1.2-0.6c3.4-1.8,5.9-4.3,7.7-7.7
		c0.8-1.5,0.8-1.5,2.7-1.2C17.3,87.1,11.3,93.1,6.9,93.8z M42.2,96c0,0.6,0,1.1,0,1.6c-6.1-0.7-14.5-9.2-15.4-15.5
		c0.5,0,1-0.1,1.6-0.1C30.9,88.9,35.4,93.5,42.2,96z M30.7,82.3c1.7-0.5,1.8-0.5,2.5,0.9c1.8,3.6,4.5,6.2,8,8c0.3,0.2,0.6,0.3,1,0.5
		c0,0.4,0.1,0.8,0.1,1.2c0,0.2-0.1,0.5-0.1,0.7C37.8,93.1,31.5,86.8,30.7,82.3z M34.6,82.4c1.5-0.5,1.8-0.5,2.4,0.5
		c2,3.1,4.8,5.2,8.3,6.2c0.2,0.1,0.4,0.1,0.7,0.3c0,9.1,0,18.3,0,27.5c4.4-0.5,6.1-0.1,7.9,1.5c-3.4,0.4-6.9-0.7-9.9,2.1
		c0-10.1,0-19.9,0-29.7C39.9,89.2,36.7,86.5,34.6,82.4z M47.7,82.1c2.2,0.2,4.1-0.1,5.8-1.5c0.1,0,0.2,0,0.5,0c0,9.7,0,19.5,0,29.3
		c4.3,1.6,7.5,4.2,9.6,8.3c-1.3,0.4-2.1,0.2-2.7-0.8c-1.8-2.8-4.4-4.7-7.6-5.7c-0.4-0.1-0.8-0.3-1.3-0.5c0-9.1,0-18.3,0-27.4
		c-4.5,0.4-6.1,0.1-7.9-1.6C45.3,81.9,46.5,82,47.7,82.1z M44.3,75.4c0-2.6,2.2-4.8,4.8-4.8c2.6,0,4.8,2.2,4.8,4.8
		c0,2.6-2.2,4.8-4.8,4.8C46.5,80.2,44.3,77.9,44.3,75.4z M56,93.8c0-0.2-0.1-0.5-0.1-0.7c0-0.4,0-0.8,0.1-1.3
		c0.4-0.2,0.8-0.4,1.3-0.6c3.4-1.8,5.9-4.3,7.7-7.7c0.8-1.5,0.8-1.5,2.6-1.2C67,86,61.2,92.8,56,93.8z M69.3,83.4
		c0.6-1.4,0.6-1.4,2.1-1.1c-1.3,6.6-8.4,13.8-15.4,15.4c0-0.7,0-1.1,0-1.7c0.4-0.2,0.7-0.3,1-0.5C62.8,93.2,66.9,89.2,69.3,83.4z
		 M57.3,99.6C63.4,97.4,68,93.6,71.2,88c0.9-1.5,1.5-3.1,2.3-4.8c0.2,0.2,0.4,0.4,0.5,0.7c3,7.9,8.4,13.1,16.3,15.8
		c0.3,0.1,0.6,0.3,1.1,0.6c-0.4,0.3-0.7,0.5-1,0.6c-8,2.6-13.5,8-16.5,15.9c-0.1,0.2-0.2,0.4-0.5,0.9c-3.1-8.8-9.1-14.4-17.7-17.1
		C56.2,99.8,56.8,99.8,57.3,99.6z M90.7,95.8c0.1,0.1,0.3,0.1,0.5,0.3c0,0.6,0,1.1,0,1.6c-5.9-0.6-14.5-9.1-15.4-15.3
		c1.5-0.4,1.6-0.4,2,0.8C80.3,89.2,84.6,93.4,90.7,95.8z M79.6,82.2c1.9-0.3,1.9-0.3,2.7,1.2c1.7,3.3,4.3,5.9,7.6,7.7
		c0.4,0.2,0.8,0.4,1.3,0.7c0,0.7,0,1.3,0,1.9C87.1,93.3,80.7,87,79.6,82.2z M90.2,145.5c1.3,0.5,1.3,0.5,0.9,2.1
		c-6.1-0.9-13.8-8.5-15.3-15.4c0.6,0,1.1,0,1.7,0c0.1,0.2,0.3,0.5,0.4,0.8C80.1,138.9,84.3,143,90.2,145.5z M79.7,132.2
		c1.9-0.3,1.9-0.3,2.6,1.2c1.7,3.3,4.2,5.9,7.6,7.6c0.4,0.2,0.8,0.4,1.3,0.7c0,0.7,0,1.4,0,2.1C86.4,142.5,80.3,136.5,79.7,132.2z
		 M77.6,140.5c0.9,1.1,1.8,2.2,2.9,3.2c1,1,2.2,1.9,3.4,2.7c1.1,0.8,2.4,1.4,3.6,2c1.3,0.6,2.6,1.1,3.9,1.8
		c-4.1,1.5-7.7,3.4-10.8,6.4c-3.1,3-5.3,6.5-6.7,10.6c-0.7-0.3-0.7-0.9-0.9-1.4c-2.4-6-6.4-10.5-12.1-13.4c-1.1-0.6-2.4-1-3.5-1.5
		c-0.5-0.2-0.9-0.4-1.3-0.6c0-0.1,0-0.2,0-0.3c1.5-0.6,3.1-1.2,4.6-2c1.5-0.8,3-1.7,4.3-2.7c1.3-1,2.6-2.2,3.7-3.5
		c1.1-1.3,2.1-2.7,2.9-4.2c0.8-1.5,1.5-3,2.3-4.8c0.7,1.4,1.2,2.7,1.8,4C76.1,138.2,76.8,139.4,77.6,140.5z M90.3,163.4
		c-2.7,1.8-4.5,4.3-5.5,7.4c-0.1,0.4-0.3,0.9-0.5,1.4c-8.9,0-17.7,0-26.8,0c0.7,2.9,0.5,5.5-1.1,7.8c-0.1,0-0.3,0-0.4,0
		c0-1.1-0.1-2.3,0-3.5c0.2-2.1-0.2-4.1-1.5-5.8c0-0.1,0-0.2,0-0.5c0.6,0,1.1,0,1.6,0c8.4,0,16.8,0,25.1,0c1.2,0,1.9-0.3,2.4-1.5
		c1.2-3,3.3-5.4,6.1-7.2c0.5-0.3,1-0.5,1.5-0.8C91.5,162.6,91.5,162.6,90.3,163.4z M90.5,168c-1.9,1.9-2.7,4.3-2.9,7
		c0,0.3,0,0.7-0.1,1.2c-8.7,0-17.3,0-26,0c-0.4,2.8-1.3,5.2-3.2,7.2c-0.6,0.7-1.4,1.3-2.3,2.1c-0.3-1.3-0.3-2.2,0.5-3
		c1.9-1.9,2.8-4.4,3-7.1c0-0.3,0-0.7,0.1-1.2c8.7,0,17.3,0,26,0c0.6-3.8,2.2-6.9,5.4-9.1C91.4,166.3,91.4,167.1,90.5,168z M48,151.2
		c0-2.3,0-4.5,0-6.8c0-2.2,0-4.4,0-6.7c-3.8-0.7-6.9-2.2-9.2-5.5c1-0.2,1.9-0.5,2.7,0.3c2.2,2.2,4.8,3.3,7.9,3.2
		c0.1,0,0.3,0.1,0.7,0.1c0,9,0,17.8,0,26.8c3.8,0.6,6.9,2.1,9.1,5.4c-1.2,0.3-2.1,0.3-2.9-0.6c-1.9-1.9-4.4-2.8-7.1-2.9
		c-0.3,0-0.6,0-1.1,0c-0.1-2.3,0-4.6,0-6.8C48,155.7,48,153.5,48,151.2z M45,132c1.2,0,2.4,0,3.5,0c1.7,0.1,3.2-0.3,4.5-1.3
		c0.2-0.1,0.4-0.2,0.9-0.5c0,0.9,0,1.5,0,2.2c0,8.5,0,17,0,25.5c0,1.3,0.3,2.1,1.7,2.6c3,1.2,5.4,3.4,7.1,6.2
		c0.3,0.4,0.5,0.9,0.7,1.4c-1.8,0.4-1.8,0.4-2.6-0.8c-1.9-2.7-4.4-4.6-7.5-5.6c-0.3-0.1-0.7-0.2-1-0.3c0,0-0.1-0.1-0.3-0.2
		c0-9,0-18.1,0-27.5c-2.9,0.7-5.5,0.5-8.1-1.4C44.4,132.1,44.7,132,45,132z M44.3,125.2c0-2.6,2.2-4.7,4.8-4.7
		c2.6,0,4.8,2.1,4.9,4.8c0,2.7-2.1,4.8-4.8,4.8C46.4,130,44.2,127.8,44.3,125.2z M69.7,168.2c-2.4-6.7-7-11.2-13.7-13.7
		c0-0.3-0.1-0.6-0.1-0.9c0-0.2,0.1-0.5,0.1-0.7c7,1.4,13.9,8.7,15.4,15.4C70.8,168.2,70.3,168.2,69.7,168.2z M75.9,168.2
		c0.5-5.8,8.3-13.8,15.3-15.4c0,0.6,0,1.1,0,1.8c-3.1,1.1-6,2.8-8.4,5.2c-2.4,2.4-4.1,5.2-5.3,8.5C77,168.2,76.5,168.2,75.9,168.2z
		 M90,159.4c-3.3,1.7-5.8,4.2-7.5,7.5c-0.8,1.6-0.8,1.6-2.7,1.3c0.6-4.2,7.2-10.8,11.4-11.4C91.5,158.6,91.5,158.6,90,159.4z
		 M56.1,147.6c-0.4-1.5-0.4-1.5,0.9-2.1c5.9-2.4,10.1-6.6,12.4-12.6c0.1-0.2,0.2-0.5,0.3-0.8c0.5,0,1.1,0,1.7,0
		C69.9,138.8,63.2,146.1,56.1,147.6z M56,143.7c0-0.2-0.1-0.5-0.1-0.7c0-0.4,0-0.8,0-1.3c0.5-0.2,0.9-0.5,1.4-0.7
		c3.3-1.7,5.8-4.3,7.6-7.6c0.8-1.5,0.8-1.5,2.7-1.2C66.6,136.4,61.3,142.4,56,143.7z M56.1,156.8c4.3,0.8,10.3,6.6,11.4,11.3
		c-1.7,0.5-1.9,0.5-2.6-1c-1.7-3.4-4.3-5.9-7.7-7.7C55.7,158.6,55.7,158.6,56.1,156.8z M90.2,113.6c-2.7,1.7-4.6,4.3-5.5,7.4
		c-0.1,0.4-0.3,0.8-0.4,1.3c-8.9,0-17.7,0-26.8,0c0.7,2.9,0.6,5.5-1.3,8.1c-0.1-0.5-0.2-0.8-0.2-1.1c0-1.1-0.1-2.2,0-3.2
		c0.1-1.8-0.3-3.5-1.4-4.9c-0.1-0.2-0.2-0.3-0.4-0.7c4.9-0.1,9.7,0,14.4,0c4.7,0,9.5,0,14.3,0c1.5-4.2,4.2-7.4,8.3-9.5
		C91.5,112.1,91.3,112.9,90.2,113.6z M90.5,118.1c-1.9,1.9-2.7,4.3-2.9,7c0,0.3,0,0.6-0.1,0.9c0,0,0,0.1-0.1,0.3
		c-8.6,0-17.2,0-25.9,0c-0.6,3.8-2.2,6.9-5.5,9.3c-0.2-1.1-0.5-1.9,0.3-2.7c2.2-2.2,3.2-4.9,3.2-7.9c0-0.1,0.1-0.3,0.1-0.6
		c8.6,0,17.2,0,25.9,0c0.5-2.9,1.4-5.4,3.4-7.4c0.6-0.6,1.3-1.1,2.1-1.8C91.4,116.3,91.4,117.2,90.5,118.1z M67.5,118.2
		c-1.7,0.5-1.9,0.4-2.5-0.9c-1.8-3.5-4.5-6.1-7.9-7.9c-0.3-0.2-0.6-0.3-1-0.5c0-0.7,0-1.3,0-1.9C60,107.2,66.7,113.8,67.5,118.2z
		 M56,104.6c0-0.5,0-1,0-1.5c5.6,0.2,13.8,8.3,15.5,15.2c-1.6,0.3-1.6,0.3-2.1-0.8c-2.4-6-6.6-10.2-12.7-12.5
		C56.4,104.8,56.2,104.7,56,104.6z M91.2,104.6c-0.3,0.1-0.6,0.3-0.9,0.4c-5.8,2.4-9.9,6.4-12.3,12.2c-0.5,1.3-0.5,1.3-2.2,1
		c1.4-6.6,9.5-14.6,15.4-15.3C91.2,103.5,91.2,104,91.2,104.6z M91.2,106.8c0,0.7,0,1.3,0,2c-0.3,0.2-0.6,0.3-0.9,0.5
		c-3.5,1.8-6.2,4.4-8,7.9c-0.7,1.4-0.9,1.4-2.5,0.9C80.5,113.9,86.7,107.7,91.2,106.8z M49.1,85.8c0.2,0,0.5,0.1,0.9,0.2
		c0.1,3,0,5.9,0,8.9c0,3,0,6,0,8.9s0,5.9,0,9c3.8,0.6,6.8,2.2,9.1,5.3c-0.9,0.4-1.8,0.6-2.5-0.1c-2.3-2.3-5.1-3.4-8.5-3.2
		c-0.1-0.7-0.1-1.4-0.1-2c0-7.7,0-15.4,0-23.2c0-0.6,0-1.2,0-1.9c-3.8-0.6-6.9-2.2-9.2-5.5c1.1-0.2,2-0.4,2.7,0.4
		C43.6,84.8,46.1,85.8,49.1,85.8z M7.6,132.5c1.9-1.9,2.9-4.3,2.9-7.1c0-0.3,0-0.6,0.1-1.1c0.6,0,1.2-0.1,1.8-0.1
		c7.5,0,14.9,0,22.4,0c0.6,0,1.2,0,1.9,0c0.6-3.8,2.2-6.9,5.4-9.1c0.2,1.1,0.4,1.9-0.3,2.7c-2.1,2.1-3.1,4.6-3.1,7.5
		c0,0.2-0.1,0.5-0.1,0.9c-8.7,0-17.3,0-26,0c-0.5,3.9-2.2,7-5.5,9.3C6.7,134.2,6.7,133.4,7.6,132.5z M28.4,132.1
		c2.4,6.6,7,11.3,13.7,13.8c0,0.7,0,1.1,0,1.6c-6-0.6-14.5-9.2-15.4-15.4C27.3,132.1,27.8,132.1,28.4,132.1z M42.1,143.7
		c-4.5-0.9-10.6-7-11.4-11.6c0.7,0,1.3,0,2,0c0.2,0.3,0.4,0.7,0.6,1c1.7,3.5,4.3,6.1,7.8,7.9C42.4,141.8,42.4,141.8,42.1,143.7z
		 M34.6,132.2c1.8-0.4,1.8-0.4,2.7,0.8c1.8,2.7,4.4,4.6,7.5,5.6c0.3,0.1,0.7,0.2,1,0.3c0.1,0,0.2,0.1,0.3,0.3c0,9,0,18.1,0,27.4
		c2.8-0.6,5.4-0.5,7.7,1.3c-3.2,0.5-6.6-0.5-9.3,1.9c-0.2-0.1-0.2-0.1-0.3-0.1c0,0-0.1-0.1-0.1-0.1c0-0.2-0.1-0.4-0.1-0.6
		c0-9.5,0-18.9-0.1-28.4c0,0,0-0.1-0.1-0.3C39.9,139,36.6,136.4,34.6,132.2z M53.9,175.2c0,2.6-2.3,4.8-4.9,4.7
		c-2.6,0-4.8-2.3-4.8-4.9c0-2.6,2.3-4.8,4.9-4.8C51.8,170.4,53.9,172.6,53.9,175.2z M57.2,209.3c-0.3-0.2-0.6-0.3-0.9-0.5
		c-0.1,0-0.1-0.1-0.2-0.2c0-0.6,0-1.3,0-1.9c4.6,0.9,10.7,7.1,11.5,11.5c-1.9,0.2-1.9,0.2-2.7-1.3C63,213.6,60.5,211,57.2,209.3z
		 M56.6,204.7c-0.2-0.1-0.3-0.2-0.6-0.3c0-0.5,0-1,0-1.5c5.4-0.1,14.6,9.1,15.4,15.2c-1.5,0.3-1.6,0.3-2-0.8
		C66.9,211.2,62.6,207.1,56.6,204.7z M55.9,200.4c0.2-0.9,0.9-0.8,1.4-1c4.2-1.5,7.8-3.8,10.8-7.1c2.1-2.3,3.6-4.9,4.8-7.7
		c0.2-0.5,0.4-0.9,0.6-1.6c0.2,0.4,0.4,0.6,0.5,0.8c3,7.8,8.5,13.1,16.4,15.8c0.2,0.1,0.5,0.2,0.7,0.3c0,0,0.1,0.1,0.2,0.3
		c-1.9,0.9-3.9,1.6-5.7,2.6c-1.8,1.1-3.6,2.4-5.2,3.9c-1.5,1.4-2.8,3.1-4,4.9s-1.9,3.7-3,5.8C70.4,208.7,64.5,203.1,55.9,200.4z
		 M56,195.8c0.4-0.2,0.8-0.3,1.1-0.5c5.8-2.4,9.8-6.5,12.2-12.2c0.5-1.3,0.5-1.3,2.1-1c-0.2,5.6-8.7,14.2-15.3,15.4
		c0-0.2-0.1-0.4-0.1-0.6C55.9,196.6,55.9,196.2,56,195.8z M57.3,190.9c3.3-1.7,5.9-4.3,7.6-7.7c0.8-1.6,0.8-1.6,2.6-1.1
		c-0.6,4.2-6.9,10.6-11.5,11.5C55.8,191.7,55.8,191.7,57.3,190.9z M75.8,182.1c1.6-0.3,1.7-0.3,2.1,0.8c2.4,6,6.6,10.2,12.6,12.6
		c0.2,0.1,0.5,0.2,0.7,0.3c0,0.6,0,1.1,0,1.6C84.8,196.3,77.3,188.9,75.8,182.1z M91.2,202.8c0,0.5,0,1,0,1.6
		c-6.6,2.4-11.2,7-13.7,13.7c-0.4,0-0.6,0.1-0.9,0.1c-0.2,0-0.5,0-0.7-0.1C76.3,212.4,85.4,203.3,91.2,202.8z M91.2,206.6
		c0,0.8,0,1.4,0,2.1c-0.2,0.1-0.3,0.3-0.5,0.3c-3.8,1.8-6.6,4.6-8.5,8.4c-0.5,1.1-0.6,1.1-2.4,0.8C80.2,214.1,86,208.2,91.2,206.6z
		 M90.9,217.5c-2.4,2.3-3.3,5.1-3.3,8.5c-8.7,0-17.3,0-26,0c-0.6,3.8-2.1,7-5.5,9.4c-0.2-1.1-0.4-2,0.4-2.8c2.1-2.1,3.1-4.7,3.1-7.7
		c0-0.2,0-0.4,0.1-0.8c8.7,0,17.3,0,25.7,0c0.7-1.8,1.2-3.5,2-5.1c0.8-1.6,2-2.9,3.7-4C91.3,215.9,91.6,216.8,90.9,217.5z
		 M91.1,193.8c-5.5-2.2-9.3-6-11.6-11.6c2-0.5,2-0.5,2.8,1.1c1.7,3.4,4.3,5.9,7.7,7.7C91.5,191.7,91.5,191.8,91.1,193.8z
		 M78.8,180.1c-4.7,0-9.5,0-14.3,0c-1.6,4.2-4.2,7.5-8.3,9.5c-0.5-1.6-0.5-1.8,0.7-2.6c2.8-1.9,4.7-4.4,5.7-7.7
		c0.1-0.4,0.2-0.8,0.4-1.3c8.9,0,17.7,0,26.7,0c-0.6-2.8-0.5-5.4,1.4-7.9c0.1,0.5,0.2,0.8,0.2,1.1c0,1.1,0,2.2,0,3.2
		c-0.1,1.8,0.3,3.4,1.4,4.8c0.1,0.2,0.2,0.3,0.4,0.7C88.2,180.1,83.5,180,78.8,180.1z M64.4,130.2c-1.6,4.2-4.2,7.4-8.2,9.5
		c-0.5-1.6-0.5-1.8,0.5-2.4c3.1-2.1,5.1-4.8,6.1-8.4c0.1-0.2,0.2-0.4,0.3-0.7c8.8,0,17.6,0,26.6,0c-0.6-2.8-0.5-5.4,1.4-8
		c0.1,0.7,0.2,1,0.2,1.3c0,1.1,0,2.3,0,3.4c-0.1,1.9,0.6,3.5,1.9,5.3C83.4,130.2,73.9,130.2,64.4,130.2z M78.6,80.3
		c-4.7,0-9.5,0-14.2,0c-1.5,4.2-4.2,7.5-8.2,9.5c-0.6-1.6-0.5-1.8,0.7-2.6c2.8-1.9,4.7-4.4,5.7-7.7c0.1-0.3,0.2-0.7,0.3-1
		c0,0,0.1-0.1,0.3-0.3c8.6,0,17.4,0,26.5,0c-0.6-2.9-0.5-5.4,1.4-7.9c0.1,0.5,0.2,0.8,0.2,1.1c0,1.1,0,2.2,0,3.2
		c-0.1,1.8,0.3,3.4,1.4,4.8c0.1,0.2,0.2,0.3,0.4,0.8C88.1,80.3,83.4,80.3,78.6,80.3z M56.7,82.6c1.9-1.9,2.8-4.4,2.9-7.1
		c0-0.3,0-0.6,0.1-0.9c0,0,0.1-0.1,0.2-0.3c8.5,0,17.1,0,25.9,0c0.6-3.9,2.2-6.8,5.3-9.1c0.3,1,0.5,1.8-0.1,2.5
		c-2.7,3.4-2.9,3.9-3.4,8.5c-8.6,0-17.2,0-26,0c-0.6,3.9-2.2,7-5.5,9.3C55.8,84.3,55.8,83.5,56.7,82.6z M90.1,59.6
		c-3.3,1.7-5.9,4.2-7.6,7.6c-0.8,1.5-0.8,1.5-2.9,1.3c2.3-5.6,6.1-9.4,11.5-11.6C91.6,58.7,91.5,58.8,90.1,59.6z M77.5,68.4
		c-0.3,0-0.6,0.1-0.9,0.1c-0.2,0-0.5-0.1-0.7-0.1c0.8-6.1,8.7-14.1,15.4-15.4c0,0.6,0,1.1,0,1.7C84.6,57.2,80,61.7,77.5,68.4z
		 M71.4,68.4c-0.5,0-1,0-1.7,0c-2.4-6.6-7-11.2-13.8-13.7c0-0.6,0-1.1,0-1.6C61.5,53.3,70.5,62.2,71.4,68.4z M56,56.7
		c5.6,2.2,9.4,6,11.6,11.5c-1.8,0.6-2,0.5-2.7-0.9c-1.8-3.4-4.4-6.1-7.9-7.8c-0.3-0.1-0.6-0.3-0.8-0.4c-0.1,0-0.1-0.1-0.3-0.3
		c0-0.3-0.1-0.8,0-1.2C55.9,57.4,56,57.2,56,56.7z M82.8,70.4c1.6-4.2,4.2-7.4,8.3-9.4c0.2,1.1,0.4,1.9-0.6,2.6c-3,1.9-5,4.7-6,8.1
		c-0.1,0.2-0.1,0.4-0.2,0.6c0,0-0.1,0.1-0.2,0.3c-8.7,0-17.5,0-26.6,0c0.6,2.9,0.5,5.5-1.4,8.1c-0.1-0.6-0.2-0.9-0.2-1.2
		c0-0.3,0-0.7,0-1.1c0-4.2,0-4.2-1.7-7.9C63.8,70.4,73.3,70.4,82.8,70.4z M44.8,38.5c0.4,0.1,0.8,0.3,1.4,0.5c0,9.3,0,18.6,0,28
		c2.8-0.7,5.4-0.5,8,1.3c-0.6,0.1-0.9,0.2-1.2,0.2c-0.8,0-1.6,0-2.5,0c-3,0-3,0-6.1,1.6c0,0-0.1,0-0.1-0.1c0,0-0.1-0.1-0.1-0.1
		c0-0.1-0.1-0.3-0.1-0.5c0-9.6,0-19.2,0-28.9c0,0,0-0.1-0.1-0.3c-4.1-1.5-7.4-4.2-9.4-8.4c1.3-0.5,2.1-0.1,2.7,0.9
		C39.1,35.6,41.7,37.5,44.8,38.5z M41,40.8c1.4,0.7,1.4,0.8,1.1,2.6c-4.8-1.1-11.1-7.5-11.4-11.6c1.8-0.3,1.8-0.3,2.6,1.2
		C35.1,36.5,37.7,39.1,41,40.8z M41.9,56.9c0.7,1.5,0.5,2-0.8,2.6c-3.5,1.7-6,4.4-7.8,7.8c-0.2,0.4-0.4,0.7-0.6,1.2
		c-0.5,0-0.9,0-1.3,0c-0.2,0-0.4-0.1-0.6-0.1C31.1,64.5,36.9,58.5,41.9,56.9z M28.4,68.5c-0.7,0-1.1-0.1-1.7-0.1
		c1.1-6.4,9-14.3,15.4-15.4c0,0.6,0,1.1,0,1.7C35.5,57.2,30.9,61.8,28.4,68.5z M42.2,45.7c0,0.6,0,1.1,0,1.6
		c-5.5-0.1-14.1-8.6-15.5-15.4c0.6,0,1.1,0,1.7,0C30.9,38.5,35.4,43.2,42.2,45.7z M22.3,68.4c-0.5,0-1,0-1.6,0
		c-0.2-0.4-0.4-0.8-0.6-1.2c-2.3-5.6-6.4-9.6-12-12C6.7,54.6,6.7,54.7,7,53C13.6,54.4,21.8,62.6,22.3,68.4z M5.3,71
		c-0.1-0.1-0.1-0.3-0.2-0.7c3.3,0,6.4,0,9.6,0c3.1,0,6.3,0,9.4,0c3.2,0,6.4,0,9.6,0C35.4,66.2,38,63,42,61c0.4,1.8,0.4,1.8-0.8,2.7
		c-2.7,1.8-4.5,4.3-5.5,7.4c-0.1,0.4-0.3,0.9-0.5,1.5c-8.8,0-17.7,0-26.7,0c0.8,2.9,0.5,5.5-1.1,7.8c-0.1,0-0.3,0-0.4-0.1
		c0-1.3-0.1-2.5,0-3.8C7,74.4,6.6,72.6,5.3,71z M41.7,67.9c-2,2-3,4.5-3.1,7.3c0,0.2,0,0.4-0.1,0.6c0,0.1-0.1,0.2-0.2,0.4
		c-8.5,0-17.1,0-25.6,0c-0.7,1.9-1.3,3.6-2.1,5.3c-0.8,1.6-2,3-3.8,3.9c-0.3-1.1-0.3-2,0.6-2.9c2-2,2.9-4.4,3-7.2c0-0.3,0-0.6,0.1-1
		c8.7,0,17.3,0,26,0c0.6-3.8,2.2-6.9,5.4-9.2C42.3,66.3,42.5,67.1,41.7,67.9z M7.9,87.1c2.8-1.9,4.7-4.5,5.7-7.6
		c0.1-0.4,0.3-0.8,0.4-1.3c8.8,0,17.7,0,26.7,0c-0.6-2.9-0.5-5.4,1.3-7.9c0.1,0.5,0.2,0.8,0.2,1.1c0,0.7,0,1.4,0,2.2
		c-0.1,2.3,0,4.5,1.6,6.3c-0.1,0.2-0.1,0.2-0.1,0.3c0,0-0.1,0.1-0.1,0.1c0,0-0.1,0-0.1,0c-0.1,0-0.3,0-0.5,0c-9.1,0-18.3,0-27.4,0
		c0,0-0.1,0-0.3,0.1c-1.6,4.1-4.1,7.4-8.3,9.3C6.6,88,6.6,88,7.9,87.1z M6.9,103c6.2,0.9,14.5,9.1,15.4,15.2c-1.4,0.4-1.5,0.4-2-0.7
		c-2.4-6.1-6.7-10.2-12.8-12.6c-0.2-0.1-0.4-0.2-0.7-0.4C6.8,104,6.9,103.5,6.9,103z M7.7,109.3c-0.3-0.1-0.5-0.3-0.9-0.5
		c0-0.5,0-0.9,0-1.4c0-0.2,0.1-0.4,0.2-0.8c5.6,2.2,9.4,6,11.6,11.5c-1.7,0.6-2.1,0.5-2.6-0.6C14.1,113.8,11.4,111.1,7.7,109.3z
		 M5.3,120.3c9.5,0,18.9,0,28.1,0c1.3-2,2.3-3.9,3.6-5.6c1.3-1.7,3-2.9,4.9-3.8c0.5,1.5,0.5,1.8-0.5,2.4c-3,2-5,4.7-6,8.1
		c-0.1,0.2-0.1,0.4-0.2,0.6c0,0-0.1,0.1-0.2,0.3c-8.7,0-17.6,0-26.6,0c0.4,2.1,0.6,4.1-0.2,5.9c-0.3,0.7-0.7,1.3-1,2
		c-0.1,0-0.2,0-0.3-0.1c0-0.3-0.1-0.6-0.1-1c0-0.6,0-1.2,0-1.8c0.1-2.4,0.1-4.8-1.8-6.8C5.1,120.5,5.2,120.4,5.3,120.3z M11.4,148.1
		c1.5-0.8,3-1.7,4.3-2.7c1.3-1,2.6-2.2,3.7-3.5c1.1-1.3,2.1-2.7,2.9-4.2c0.8-1.5,1.5-3,2.3-4.8c1,2.9,2.3,5.4,3.9,7.7
		c1.7,2.3,3.8,4.2,6.1,5.8c2.3,1.6,4.9,2.7,7.6,3.6c-0.3,0.9-1,0.8-1.5,1c-6.2,2.2-11,6.2-14.2,12c-0.8,1.4-1.3,2.9-2.1,4.5
		c-0.7-1.6-1.4-3.2-2.2-4.6c-0.8-1.5-1.8-2.9-2.9-4.2c-1.1-1.3-2.4-2.5-3.8-3.6c-1.3-1-2.8-1.9-4.3-2.7c-1.5-0.8-3.1-1.3-4.9-2.1
		C8.4,149.4,10,148.9,11.4,148.1z M42.1,156.8c0.2,1.9,0.2,1.9-1.3,2.7c-3.2,1.7-5.7,4.2-7.4,7.4c-0.2,0.5-0.5,0.9-0.7,1.4
		c-0.7,0-1.3,0-2,0C31.4,163.9,37.6,157.6,42.1,156.8z M28.4,168.2c-0.3,0-0.6,0.1-0.9,0.1c-0.2,0-0.5-0.1-0.7-0.1
		c1.2-6.4,8.9-14.1,15.4-15.3c0,0.6,0,1.1,0,1.6C33.5,159,32.9,159.6,28.4,168.2z M22.3,168.2c-0.5,0-1.1,0-1.7,0
		c-1.2-3.1-2.8-6-5.2-8.4s-5.3-4.1-8.5-5.3c0-0.7,0-1.2,0-1.7C13,153.7,21.1,161.7,22.3,168.2z M8.1,159.4c-1.5-0.8-1.5-0.8-1.1-2.9
		c5.6,2.3,9.4,6.1,11.6,11.5c-1.9,0.6-2,0.5-2.9-1C14,163.7,11.5,161.1,8.1,159.4z M5.3,170.7c0,0,0-0.1,0-0.3c0.5,0,1-0.1,1.6-0.1
		c8.2,0,16.5,0,24.7,0c0.4,0,0.7,0,1.1,0c0.9,0.1,1.3-0.3,1.6-1.1c1.3-3.2,3.3-5.6,6.2-7.5c0.5-0.3,1-0.6,1.6-0.9
		c0.4,1.8,0.4,1.8-0.8,2.7c-2.7,1.8-4.5,4.3-5.5,7.4c-0.1,0.3-0.2,0.7-0.3,1c0,0.1-0.1,0.2-0.3,0.4c-8.7,0-17.6,0-26.5,0
		c0.4,4.5,0.1,6.1-1.6,7.9c-0.1-0.4-0.1-0.8-0.1-1.1c0-1.1,0-2.2,0-3.2c0.1-1.8-0.3-3.4-1.4-4.8C5.4,170.9,5.3,170.8,5.3,170.7z
		 M7.3,182.7c2.2-2.2,3.2-4.8,3.2-7.9c0-0.1,0.1-0.3,0.1-0.7c1.7,0,3.4,0,5.1,0c1.7,0,3.5,0,5.3,0c1.7,0,3.4,0,5.1,0
		c1.7,0,3.5,0,5.3,0c1.7,0,3.5,0,5.3,0c0.6-3.8,2.2-6.8,5.4-9.1c0.3,1,0.5,1.9-0.3,2.7c-2.1,2.1-3.1,4.6-3.1,7.5c0,0.1,0,0.3,0,0.5
		c0,0.1-0.1,0.2-0.2,0.5c-8.5,0-17.1,0-25.9,0c-0.6,3.9-2.2,6.9-5.4,9.2C6.8,184.3,6.5,183.5,7.3,182.7z M7.9,186.9
		c2.7-1.7,4.5-4.3,5.6-7.4c0.1-0.4,0.3-0.9,0.5-1.5c8.9,0,17.7,0,26.7,0c-0.6-2.9-0.6-5.4,1.4-8c0.4,3.5-0.6,7,2.1,10
		c-5.1,0-9.8,0-14.5,0c-4.7,0-9.5,0-14.3,0c-3,5.8-5.5,8.6-8.5,9.4C6.6,188.3,6.9,187.6,7.9,186.9z M42,206.7c0.5,1.7,0.5,1.9-1,2.6
		c-3.4,1.7-5.9,4.3-7.7,7.7c-0.8,1.5-0.8,1.5-2.6,1.1C31.5,213.8,37.3,207.9,42,206.7z M28.8,217.3c-0.1,0.2-0.2,0.4-0.3,0.6
		c0,0.1-0.1,0.2-0.2,0.3c-0.4,0-0.9,0-1.4,0c0.2-5.6,9.3-14.7,15.2-15.4c0.3,1.5,0.3,1.5-0.8,2C35.3,207.2,31.2,211.4,28.8,217.3z
		 M42,193.6c-4.4-0.8-10.4-6.9-11.4-11.4c1.7-0.6,1.8-0.5,2.6,1c1.7,3.4,4.3,6,7.7,7.8C42.5,191.7,42.5,191.8,42,193.6z M42.2,195.9
		c0,0.6,0,1.1,0,1.6c-6.8-1.3-14.1-8.8-15.4-15.4c0.6,0,1.1,0,1.6,0C32.6,190.4,34.2,192.1,42.2,195.9z M6.9,195.9
		c0.3-0.1,0.6-0.3,0.9-0.5c5.9-2.3,10.1-6.5,12.4-12.3c0.5-1.3,0.6-1.3,2.1-1c-1,6-8.1,13.9-15.4,15.4C6.9,197,6.9,196.5,6.9,195.9z
		 M8.2,191c3.4-1.8,5.9-4.3,7.7-7.7c0.8-1.5,0.8-1.5,2.7-1.1c-1.5,5.1-7.3,10.9-11.6,11.5C6.7,191.8,6.7,191.8,8.2,191z M8.3,199.4
		c5.3-1.8,9.6-5,12.7-9.6c1.2-1.8,2-3.8,3-5.7c0.2-0.3,0.3-0.7,0.6-1.4c1.5,4.4,3.7,8,6.8,11c3.1,2.9,6.7,4.9,10.9,6.2
		c0,0.1,0,0.3,0,0.4c-1.3,0.5-2.6,1-3.9,1.6c-1.3,0.6-2.5,1.3-3.6,2.1c-1.2,0.8-2.3,1.7-3.3,2.7c-1,1-1.9,2-2.7,3.1
		c-0.9,1.1-1.6,2.4-2.3,3.7c-0.7,1.2-1.1,2.5-1.8,4.1c-3.1-8.8-9-14.4-17.7-17.1C7.1,199.5,7.8,199.6,8.3,199.4z M7,202.9
		c5.5,0.2,14.8,9.4,15.3,15.2c-1.5,0.3-1.5,0.3-2.1-1c-2.4-5.8-6.4-9.8-12.2-12.2C6.7,204.4,6.7,204.4,7,202.9z M8.2,209.3
		c-0.5-0.2-0.9-0.5-1.3-0.7c0-0.7,0-1.4,0-2c4.7,1,10.6,7,11.5,11.5c-1.9,0.3-1.9,0.3-2.6-1.1C14.1,213.6,11.6,211.1,8.2,209.3z
		 M6.8,225.9c0.1-1.8-0.3-3.5-1.4-4.9c-0.1-0.2-0.2-0.3-0.2-0.5c0.1-0.1,0.1-0.2,0.1-0.2c0,0,0.1-0.1,0.1-0.1c0.1,0,0.3-0.1,0.5-0.1
		c9.2,0,18.4,0,27.6-0.1c1.2-1.9,2.3-3.8,3.5-5.5c1.3-1.7,3-2.9,4.9-3.8c0.5,1.7,0.5,1.7-0.7,2.6c-2.7,1.9-4.6,4.4-5.6,7.5
		c-0.1,0.4-0.3,0.8-0.5,1.3c-3,0-5.9,0-8.9,0c-2.9,0-5.9,0-8.8,0c-3,0-5.9,0-9.1,0c0.8,3,0.5,5.5-1.3,8.1c-0.1-0.6-0.2-0.9-0.2-1.2
		C6.8,228,6.8,226.9,6.8,225.9z M7.6,232.3c1.9-1.9,2.9-4.4,2.9-7.1c0-0.3,0-0.6,0.1-1.1c4.3-0.1,8.6,0,12.9,0c4.3,0,8.6,0,13.1,0
		c0.5-3.7,2.1-6.8,5.4-9.1c0.3,1,0.5,1.9-0.3,2.6c-2.1,2.1-3.1,4.7-3.1,7.6c0,0.2-0.1,0.4-0.1,0.7c-1.7,0.2-3.5,0.1-5.2,0.1
		c-1.7,0-3.4,0-5.1,0c-1.7,0-3.5,0-5.3,0c-1.7,0-3.4,0-5.1,0c-1.7,0-3.5,0-5.4,0c-0.6,3.7-2.1,6.9-5.5,9.3
		C6.7,234,6.8,233.2,7.6,232.3z M6.9,241.5c4.4-2,7.6-5.2,9.6-9.6c0.8,0,1.4,0,2,0c-0.9,5-7.4,11-11.6,11.6
		C6.9,242.9,6.9,242.2,6.9,241.5z M6.9,247.4c0-0.6,0-1,0-1.6c0.3-0.2,0.7-0.3,1-0.5c5.8-2.4,9.9-6.5,12.3-12.3
		c0.5-1.3,0.5-1.3,2-1.1C22.1,237.5,13.4,246.4,6.9,247.4z M42.2,247.3c-5.9-0.6-14.4-9.1-15.4-15.5c0.5,0,1,0,1.6-0.1
		c4.2,8.5,5.6,9.9,13.8,14C42.2,246.3,42.2,246.8,42.2,247.3z M40.9,240.8c0.4,0.2,0.8,0.4,1.3,0.7c0,0.7,0,1.3,0,2
		C38,243,31.7,236.8,30.6,232c1.9-0.3,1.9-0.3,2.7,1.2C35,236.5,37.6,239.1,40.9,240.8z M39.1,230c-1.6,0-3.2,0-4.8,0
		c-1.6,0-3.2,0-4.8,0c-1.5,0-3.1,0-4.6,0c-1.6,0-3.2,0-4.8,0c-1.6,0-3.2,0-4.8,0c-1.6,4.3-4.2,7.5-8.4,9.6c0-0.8,0-1.4,0-2.1
		c3.5-2.1,5.9-5.2,7-9.5c8.9,0,17.7,0,26.7,0c-0.5-2.9-0.5-5.4,1.5-8c0.5,3.5-0.6,7,2,9.8C42.3,230.2,40.7,229.9,39.1,230z
		 M49,229.9c-2.6-0.1-4.7-2.2-4.7-4.8c0-2.6,2.2-4.8,4.9-4.8c2.7,0,4.8,2.2,4.8,4.9C53.8,227.8,51.6,229.9,49,229.9z M50.9,218.3
		c-2.3-0.1-4.5,0-6.3,1.6c-0.2-0.1-0.3-0.1-0.3-0.1c0,0-0.1-0.1-0.1-0.1c0-0.1-0.1-0.2-0.1-0.3c0-9.6,0-19.1,0-28.8
		c-4.2-1.6-7.5-4.2-9.5-8.3c1.3-0.6,1.8-0.5,2.3,0.3c2.1,3.3,5,5.4,8.8,6.4c0.1,0,0.2,0.1,0.4,0.3c0,9,0,18.2,0,27.4
		c4.4-0.5,6.4-0.1,7.9,1.7C52.9,218.3,51.9,218.3,50.9,218.3z M54.5,220.9c-0.1-0.2-0.2-0.3-0.2-0.5c0-0.1,0.1-0.2,0.1-0.2
		c0,0,0.1-0.1,0.1-0.1c0.1,0,0.3-0.1,0.5-0.1c9.2,0,18.4,0,27.6-0.1c0,0,0.1,0,0.3-0.1c1.5-4,4.1-7.3,8.3-9.4c0,0.8,0,1.4,0,2
		c-4.6,3.6-5.1,4.4-7,9.6c-8.8,0-17.7,0-26.7,0c0.6,2.9,0.5,5.5-1.4,8c-0.1-0.5-0.2-0.8-0.2-1.1c0-1.1,0-2.2,0-3.2
		C56,224.1,55.6,222.4,54.5,220.9z M56,247.3c0-0.5,0-1,0-1.6c0.4-0.2,0.8-0.4,1.2-0.6c5.7-2.4,9.7-6.4,12-12.1
		c0.6-1.4,0.6-1.4,2.2-1.1C70.1,238.7,61.8,246.9,56,247.3z M55.9,242.8c0-0.4,0-0.8,0.1-1.2c0.4-0.2,0.8-0.5,1.2-0.7
		c3.4-1.8,5.9-4.3,7.7-7.7c0.8-1.5,0.8-1.5,2.9-1.1c-2.3,5.7-6.1,9.5-11.7,11.7C56,243.3,55.9,243,55.9,242.8z M91.2,247.2
		c-5.2,0.2-13.9-8.4-15.5-15.3c0.6,0,1.1,0,1.7,0c1.1,3.2,2.8,6.1,5.3,8.5c2.4,2.4,5.3,4.1,8.5,5.3
		C91.2,246.2,91.2,246.7,91.2,247.2z M90,240.9c0.4,0.2,0.8,0.4,1.2,0.7c0,0.7,0,1.3,0,2c-4.5-0.8-10.7-7-11.5-11.5
		c1.8-0.4,1.8-0.4,2.6,1.1C84.1,236.5,86.6,239.1,90,240.9z M64.5,229.9c-1.1,3.2-2.9,5.8-5.5,7.8c-0.9,0.7-1.9,1.2-2.9,1.9
		c-0.5-1.9-0.5-1.9,0.8-2.7c2.7-1.8,4.6-4.3,5.6-7.4c0.5-1.6,0.5-1.6,2.3-1.6c7.7,0,15.3,0,23,0c0.6,0,1.2,0,2,0
		c-0.6-2.9-0.5-5.4,1.3-7.9c0.1,0.5,0.2,0.8,0.2,1.1c0,1.1,0,2.2,0,3.2c-0.1,1.7,0.3,3.3,1.3,4.7c0.1,0.2,0.2,0.4,0.4,0.8
		C83.4,229.9,74,229.9,64.5,229.9z M98,229.9c-2.6,0-4.8-2.3-4.7-4.9c0.1-2.6,2.2-4.7,4.9-4.7c2.6,0,4.8,2.2,4.7,4.8
		C102.9,227.8,100.7,229.9,98,229.9z M102.3,218.3c-0.9,0-1.7,0-2.6,0c-3.3,0-3.3,0-6.2,1.6c-0.4-0.6-0.2-1.3-0.2-1.9
		c0-7.9,0-15.8,0-23.6c0-0.9,0-1.7,0-2.6c0.1-1-0.3-1.5-1.2-1.8c-3.1-1.2-5.5-3.2-7.3-6c-0.4-0.6-0.7-1.1-1-1.7
		c1.5-0.6,1.8-0.5,2.4,0.4c2,3.1,4.8,5.1,8.4,6.2c0.2,0.1,0.4,0.1,0.7,0.3c0,9.1,0,18.3,0,27.5c2.9-0.6,5.5-0.5,7.9,1.4
		C102.7,218.1,102.5,218.3,102.3,218.3z M105.7,217.8c-2.2-2.2-4.8-3.2-7.9-3.2c-0.1,0-0.3-0.1-0.7-0.1c0-9,0-17.9,0-26.8
		c-3.8-0.6-6.9-2.2-9.1-5.4c1-0.4,1.8-0.5,2.5,0.2c2.3,2.3,5,3.3,8.2,3.4c0.1,0,0.2,0.1,0.5,0.2c0.1,2.9,0,5.8,0,8.8
		c0,2.9,0,5.9,0,8.8c0,3,0,5.9,0,8.9c1.8,0.7,3.5,1.2,5.1,2c1.6,0.8,3,2,4,3.7C107.3,218.3,106.4,218.6,105.7,217.8z M105.1,202.8
		c5.7,0.5,14,8.6,15.4,15.3c-0.3,0-0.6,0.1-0.8,0.1s-0.5,0-0.8-0.1c-0.2-0.3-0.3-0.7-0.5-1c-2.3-5.8-6.4-9.9-12.2-12.3
		C104.8,204.4,104.8,204.4,105.1,202.8z M105.1,206.6c5.1,1.3,10.7,7.4,11.4,11.4c-1.8,0.5-1.8,0.4-2.6-1.1
		c-1.7-3.3-4.3-5.9-7.6-7.6C104.8,208.6,104.8,208.6,105.1,206.6z M112.4,218c-1.6,0.5-1.6,0.5-2.5-0.8c-1.9-2.8-4.5-4.7-7.7-5.7
		c-0.4-0.1-0.8-0.3-1.3-0.4c0-9.1,0-18.2,0-27.5c-2.9,0.6-5.5,0.5-8.1-1.4c0.6-0.1,0.9-0.2,1.2-0.2c0.8,0,1.6-0.1,2.3,0
		c2.3,0.3,4.4-0.1,6.2-1.5c0.1,0,0.2,0.1,0.2,0.1c0,0,0.1,0.1,0.1,0.1c0,0.1,0.1,0.2,0.1,0.3c0,9.6,0,19.1,0,28.8
		C108.7,212.5,111.3,214.8,112.4,218z M105.6,167.8c-2.2-2.2-4.9-3.1-8-3.2c-0.1,0-0.3-0.1-0.6-0.1c0-8.9,0-17.7,0-26.8
		c-3.8-0.7-7-2.2-9.2-5.6c1.2-0.2,2.1-0.3,3,0.6c2,2,4.4,2.9,7.2,3c0.2,0,0.4,0,0.6,0c0.1,0,0.2,0.1,0.5,0.2c0,8.8,0,17.8,0,26.7
		c2.6,0.4,4.9,1.2,6.7,2.8c0.8,0.7,1.6,1.6,2.3,2.5C107.2,168.3,106.4,168.6,105.6,167.8z M105.1,152.9c6.9,1.6,13.9,8.6,15.4,15.4
		c-0.6,0-1.1,0-1.7,0c-2.4-6.7-7-11.2-13.7-13.7c0-0.4-0.1-0.8-0.1-1.1C105,153.2,105,153,105.1,152.9z M105.1,156.8
		c4.3,0.8,10.2,6.6,11.5,11.5c-0.7,0-1.3,0-2.1,0c-0.2-0.3-0.4-0.7-0.6-1.1c-1.7-3.4-4.3-5.9-7.7-7.7
		C104.7,158.6,104.7,158.6,105.1,156.8z M110.3,164.7c0.9,1,1.6,2.1,2.2,3.3c-1.7,0.5-1.8,0.5-2.6-0.7c-1.9-2.7-4.4-4.6-7.5-5.6
		c-0.4-0.1-0.8-0.3-1.3-0.5c0-9.1,0-18.3,0-27.6c-2.9,0.7-5.5,0.5-7.9-1.2c0-0.1,0-0.3,0.1-0.4c1.3,0,2.5-0.1,3.8,0
		c2,0.1,3.8-0.2,5.4-1.4c0.1-0.1,0.3-0.1,0.6-0.2c0,9.8,0,19.6,0,29.4C105.9,160.9,108.4,162.4,110.3,164.7z M105.6,117.9
		c-2.1-2.1-4.7-3.1-7.6-3.1c-0.2,0-0.4,0-0.9-0.1c0-9,0-17.9,0-26.9c-3.8-0.6-6.9-2.2-9.2-5.6c1.1-0.2,1.9-0.4,2.7,0.4
		c2.1,2.2,4.7,3.3,7.8,3.2c0.2,0,0.4,0.1,0.8,0.1c0.1,3,0,5.9,0.1,8.9c0,3,0,6,0,8.9s0,5.9,0,9c3.8,0.6,6.9,2.2,9.2,5.4
		C107.2,118.5,106.3,118.7,105.6,117.9z M105,103c6.6,1.3,13.9,8.5,15.4,15.3c-1.6,0.2-1.6,0.2-2.1-0.9c-2.4-5.9-6.6-10.1-12.6-12.4
		c-0.2-0.1-0.5-0.2-0.8-0.3C105,104.1,105,103.6,105,103z M105,106.6c5.6,2.3,9.4,6,11.7,11.6c-2,0.4-2.1,0.4-2.8-1
		c-1.8-3.4-4.3-6-7.7-7.7c-0.3-0.2-0.6-0.3-0.9-0.5c-0.1,0-0.2-0.1-0.2-0.2C105,108.1,105,107.5,105,106.6z M120.5,82.2
		c-1.1,5.9-7.7,13.8-15.4,15.5c0-0.2-0.1-0.4-0.1-0.6c0-0.3,0-0.7,0.1-1c8.5-4.3,9.4-5.2,13.9-13.9
		C119.4,82.2,119.9,82.2,120.5,82.2z M106.3,91.1c3.3-1.7,5.8-4.3,7.6-7.6c0.8-1.5,0.8-1.5,2.6-1.3c-0.1,3.8-6.6,10.5-11.4,11.6
		C104.8,91.9,104.8,91.9,106.3,91.1z M110.3,114.8c0.8,1,1.5,2.2,2.3,3.3c-1.5,0.6-1.9,0.6-2.4-0.2c-2.1-3.2-4.9-5.2-8.5-6.3
		c-0.2-0.1-0.4-0.2-0.7-0.3c0-9.1,0-18.3,0-27.5c-2.9,0.6-5.6,0.5-8.1-1.5c1.2-0.3,2.2-0.2,3.2-0.2c2.4,0.2,4.7,0.1,7-1.8
		c0.1,2.8,0,5.3,0,7.7c0,2.4,0,4.8,0,7.3c0,2.5,0,4.9,0,7.4c0,2.4,0,4.8,0,7.3C105.9,111,108.4,112.5,110.3,114.8z M93.3,75.4
		c0-2.6,2.2-4.8,4.8-4.8c2.6,0,4.8,2.2,4.8,4.8c0,2.6-2.3,4.8-4.8,4.8C95.5,80.2,93.3,77.9,93.3,75.4z M102.1,68.5
		c-0.8,0-1.6,0-2.5,0c-3.2,0-3.4,0.1-6.2,1.7c-0.4-0.5-0.2-1.2-0.2-1.7c0-8.5,0-17,0.1-25.5c0-0.4,0-0.7,0-1.1
		c0.2-1.1-0.3-1.7-1.4-2.2c-3.2-1.3-5.6-3.4-7.4-6.3c-0.2-0.3-0.4-0.7-0.6-1.1c-0.1-0.1,0-0.3-0.1-0.5c0.9-0.1,1.7-0.4,2.3,0.6
		c2,3.2,4.9,5.3,8.5,6.3c0.1,0,0.3,0.1,0.4,0.2c0,0,0.1,0.1,0.2,0.2c0,9.1,0,18.4,0,27.8c2.8-0.7,5.4-0.5,8,1.3
		C102.7,68.4,102.4,68.5,102.1,68.5z M105.5,67.9c-2.1-2.1-4.6-3-7.5-3.1c-0.1,0-0.3,0-0.5,0c-0.1,0-0.2-0.1-0.4-0.2
		c0-9,0-18,0-26.9c-1.9-0.7-3.6-1.3-5.3-2.1s-2.9-2.1-4-3.8c1.1-0.2,1.9-0.4,2.7,0.4c2.1,2.1,4.6,3.2,7.6,3.2c0.2,0,0.5,0.1,0.9,0.1
		c0.1,9.1,0,18.1,0.1,27.3c3.8,0.6,6.8,2.2,9.1,5.4C107.2,68.6,106.3,68.7,105.5,67.9z M105,53.2c5.3-0.1,14.4,8.8,15.4,15.3
		c-0.5,0-1,0.1-1.7,0.1c-1.2-3.2-2.9-6.1-5.3-8.6c-2.4-2.4-5.3-4.1-8.5-5.3C105,54.2,105,53.7,105,53.2z M105,41.5
		c0.4-0.2,0.8-0.4,1.1-0.6c3.4-1.8,6.1-4.4,7.8-7.8c0.8-1.5,0.8-1.5,2.6-1.2c-0.5,4.1-6.3,10.1-11.5,11.7c-0.1-0.4-0.1-0.6-0.1-0.9
		C104.9,42.3,105,41.9,105,41.5z M106,45.2c5.8-2.4,9.9-6.5,12.3-12.3c0.5-1.3,0.5-1.3,2-1.1c0,5.4-8.9,14.5-15.4,15.5
		c0-0.5,0-1-0.1-1.6C105.3,45.6,105.7,45.4,106,45.2z M105.1,57c4.4,0.8,10.3,6.6,11.5,11.5c-0.4,0-0.7,0-1,0.1
		c-0.8,0.1-1.2-0.2-1.6-0.9c-0.9-1.5-1.8-3-3-4.3c-1.3-1.6-3-2.8-4.9-3.7C104.7,58.8,104.7,58.8,105.1,57z M98.1,20.2
		c2.6,0,4.8,2.1,4.8,4.8c0,2.6-2.2,4.8-4.8,4.9c-2.6,0-4.8-2.2-4.8-4.8C93.3,22.5,95.5,20.3,98.1,20.2z M97,31.8
		c2,0.2,3.8-0.2,5.4-1.3c0.1-0.1,0.3-0.1,0.6-0.2c0,9.9,0,19.8,0,29.7c4.2,1.6,7.6,4.2,9.6,8.3c-1.7,0.5-1.8,0.5-2.6-0.7
		c-1.9-2.8-4.6-4.7-7.8-5.7c-0.3-0.1-0.6-0.2-1-0.3c0-9.3,0-18.6,0-28c-4.3,0.6-6.4,0.1-8-1.7C94.5,31.7,95.8,31.6,97,31.8z
		 M93.1,29.9c-9.7,0-19.1,0-28.6,0c-2.9,5.7-5.4,8.5-8.5,9.4c-0.3-1.1-0.2-1.9,0.9-2.6c2.8-1.8,4.6-4.3,5.6-7.5
		c0.1-0.4,0.2-0.8,0.5-1.4c4.4,0,8.9,0,13.3,0c4.4,0,8.8,0,13.4,0c-0.7-2.9-0.5-5.4,1.3-7.9c0.1,0.5,0.2,0.8,0.2,1.1
		c0,1.1,0,2.2,0,3.2c0,1.7,0.3,3.4,1.4,4.8C92.8,29.3,92.9,29.5,93.1,29.9z M90.8,17.6c-2.1,2-3,4.5-3.1,7.3c0,0.3-0.1,0.6-0.2,1
		c-8.6,0-17.2,0-26,0c-0.6,3.9-2.2,7-5.5,9.3c-0.1-1.1-0.4-1.9,0.4-2.7c2.2-2.2,3.2-4.9,3.2-7.9c0-0.1,0-0.3,0.1-0.6
		c8.6,0,17.2,0,25.7,0c0.7-1.8,1.2-3.5,2-5.1c0.8-1.6,2-2.9,3.7-4C91.3,16,91.5,16.8,90.8,17.6z M91.2,2.7c0,0.5,0,1,0.1,1.6
		c-3.2,1.2-6.1,2.8-8.5,5.2c-2.4,2.4-4.1,5.2-5.3,8.5c-0.5,0-1.1,0-1.6,0C76.1,12.6,85,3.6,91.2,2.7z M90,9.3
		c-3.7,2-6.4,4.9-8.2,8.8c-0.7,0-1.4,0-2.3,0c2.3-5.6,6-9.4,11.6-11.7C91.5,8.5,91.5,8.5,90,9.3z M56,2.7
		c5.6,1.1,13.4,7.3,15.5,15.4c-0.3,0-0.5,0.1-0.7,0.1c-0.3,0-0.6,0-1-0.1c-2.4-6.7-7-11.3-13.7-13.7C56,3.8,56,3.3,56,2.7z M56,8.6
		c0-0.8,0-1.4,0-2.3c5.7,2.3,9.5,6.1,11.8,11.8c-0.9,0-1.5,0-2.3,0C63.5,13.7,60.3,10.6,56,8.6z M63.8,20c3.1,0,6.3,0,9.4,0
		c3.2,0,6.4,0,9.7,0c1.6-4.2,4.2-7.4,8.3-9.4c0.3,1.2,0.3,2-0.8,2.6c-2.9,1.8-4.8,4.5-5.8,7.8c-0.1,0.3-0.2,0.7-0.4,1.1
		c-8.8,0-17.6,0-26.8,0c0.6,2.1,0.7,3.9-0.1,5.7c-0.3,0.7-0.7,1.4-1,2.2c-0.1,0-0.2,0-0.3-0.1c0-0.4-0.1-0.8-0.1-1.3
		c0-1,0-1.9,0-2.9c0.1-1.8-0.3-3.4-1.3-4.8c-0.1-0.2-0.2-0.4-0.5-0.9C57.5,20,60.6,20,63.8,20z M49.1,20.2c2.6,0,4.8,2.2,4.8,4.8
		c0,2.6-2.2,4.8-4.8,4.8c-2.6,0-4.8-2.3-4.8-4.8C44.3,22.4,46.5,20.2,49.1,20.2z M44.2,31.7c1,0,2.1-0.1,3.1,0
		c2.3,0.2,4.5,0,6.6-1.8c0,0.9,0.1,1.5,0.1,2.1c0,8.5,0,17,0,25.5c0,0.4,0,0.7,0,1.1c-0.1,1.1,0.3,1.6,1.3,2.1
		c3.3,1.3,5.8,3.6,7.6,6.7c0.2,0.3,0.3,0.6,0.5,1c-1.3,0.4-2.1,0.1-2.7-1c-1.7-2.7-4.2-4.5-7.3-5.5c-0.4-0.1-0.9-0.3-1.5-0.5
		c0-2.3,0-4.6,0-6.9c0-2.4,0-4.7,0-7.1c0-2.3,0-4.6,0-7s0-4.6,0-7.1c-2.9,0.5-5.5,0.5-7.8-1.3C44.1,32,44.1,31.9,44.2,31.7z
		 M43.7,29.3c0.1,0.1,0.1,0.3,0.2,0.7c-4.9,0-9.6,0-14.4,0s-9.5,0-14.1,0c-2.6,5.5-5.5,8.7-8.5,9.3c-0.4-1.1-0.1-1.9,1-2.5
		c2.7-1.7,4.5-4.3,5.6-7.4c0.1-0.4,0.3-0.9,0.5-1.5c8.8,0,17.7,0,26.7,0c-0.5-2.8-0.5-5.5,1.4-8c0.1,0.5,0.2,0.8,0.2,1.1
		c0,1,0.1,2,0,2.9C42.2,25.9,42.6,27.7,43.7,29.3z M41.8,17.4c-2.2,2.2-3.2,4.8-3.2,7.9c0,0.1-0.1,0.3-0.2,0.6c-8.6,0-17.2,0-25.9,0
		c-0.6,3.9-2.2,7-5.5,9.3c-0.3-1.3-0.3-2.1,0.6-3c1.9-1.9,2.9-4.3,2.9-7.1c0-0.3,0-0.7,0.1-1.2c8.7,0,17.3,0,26,0
		c0.6-3.8,2.2-6.9,5.4-9.1C42.4,15.9,42.6,16.7,41.8,17.4z M42.1,2.8c0.3,1.5,0.3,1.5-0.9,2.1c-5.9,2.4-10,6.5-12.3,12.4
		c-0.1,0.3-0.2,0.6-0.4,1c-0.4,0-0.7,0-1,0c-0.2,0-0.4-0.1-0.6-0.1C27.7,11.9,36.2,3.4,42.1,2.8z M41.2,9.2c-3.5,1.8-6.1,4.5-7.9,8
		c-0.2,0.3-0.3,0.6-0.5,1c-0.7,0-1.4,0-2,0C31.1,14,37.7,7.4,42.1,6.6C42.5,8.4,42.5,8.5,41.2,9.2z M7,2.8
		c5.4,0.1,14.2,8.7,15.4,15.3c-0.6,0-1.1,0-1.6,0c-0.2-0.4-0.4-0.7-0.5-1.1C17.9,11.3,13.8,7.2,8,4.9C6.8,4.3,6.8,4.3,7,2.8z
		 M12.5,12.5C10.8,11,8.9,9.7,6.9,8.2c0-0.3,0-0.9,0-1.6c3.6,0.2,10.6,6.3,11.6,11.4c-0.3,0-0.5,0.1-0.8,0.1c-0.4,0-0.8,0-1.3-0.1
		C15.5,16,14.3,14,12.5,12.5z M19.5,20c4.7,0,9.5,0,14.3,0c1.6-4.2,4.2-7.4,8.2-9.4c0.5,1.5,0.5,1.8-0.3,2.3c-3.2,2.1-5.3,5-6.3,8.6
		c0,0.1-0.1,0.2-0.2,0.5c-2.1,0.1-4.3,0-6.5,0c-2.3,0-4.5,0-6.8,0c-2.2,0-4.4,0-6.6,0s-4.4,0-6.8,0c0.7,2.9,0.5,5.5-1.5,7.8
		c0-0.5-0.1-1-0.1-1.6c0-0.8-0.1-1.5,0-2.3c0.2-2-0.2-3.8-1.5-5.4c-0.1-0.1-0.1-0.2-0.2-0.6C10,20,14.8,20,19.5,20z"/>
</g>
<g>
	<path class="st2" d="M50.9,109.3h9l2.7,10.9l0.9,4.3h0.2l0.9-4.3l2.7-10.9h9v33.3H69v-7.8c0-3.9,0.7-13,1.1-16.9H70l-2.8,9.9
		l-1.7,6.1h-3.9l-1.8-6.1l-2.6-9.9H57c0.4,3.9,1.1,13,1.1,16.9v7.8h-7.2V109.3z"/>
	<path class="st2" d="M89.1,109.3h10.7l10.1,33.3h-9.3l-3.7-16.2c-0.7-3.2-1.7-7.2-2.4-10.6h-0.2c-0.7,3.4-1.6,7.4-2.3,10.6
		l-3.7,16.2h-9L89.1,109.3z M86.3,128.7h16.2v6.8H86.3V128.7z"/>
	<path class="st2" d="M113.1,109.3h12.5c7.2,0,13.3,2.7,13.3,11.1c0,8.1-6.4,11.7-13.3,11.7h-3.7v10.6h-8.8V109.3z M125.2,125.1
		c3.5,0,5.1-1.7,5.1-4.7s-1.8-4.1-5.1-4.1h-3.3v8.8H125.2z"/>
	<path class="st2" d="M150.6,109.3h10.7l10.1,33.3H162l-3.7-16.2c-0.7-3.2-1.7-7.2-2.4-10.6h-0.2c-0.7,3.4-1.6,7.4-2.3,10.6
		l-3.7,16.2h-9L150.6,109.3z M147.8,128.7H164v6.8h-16.2V128.7z"/>
	<path class="st2" d="M173.6,138.4l5-6.1c2.5,1.9,5.5,3.2,8.5,3.2c2.7,0,3.7-0.9,3.7-1.9c0-1.9-1.7-2.4-4.8-3.6l-4.1-1.7
		c-3.9-1.4-7-4.5-7-9.3c0-5.7,5.1-10.4,12.7-10.4c3.9,0,8.1,1.4,11.4,4.5l-4.4,5.5c-2.4-1.6-4.3-2.4-7.5-2.4c-1.9,0-3.3,0.7-3.3,2.3
		s1.9,2.1,5.2,3.3l3.9,1.6c4.5,1.6,7,4.5,7,9.1c0,5.6-4.7,10.7-13.3,10.7C182.1,143.2,177.3,141.7,173.6,138.4z"/>
</g>
</svg>
